<svg viewBox="-1541.9658099776727 -8100.0 2712.84533836404 8100.0" xmlns="http://www.w3.org/2000/svg"><line x1="0" y1="0" x2="-1.8369701987210297E-14" y2="-100.0" stroke-width="4" stroke="black" />
<line x1="-1.8369701987210297E-14" y1="-100.0" x2="43.36590845875436" y2="-190.10770213220917" stroke-width="4" stroke="black" />
<line x1="-1.8369701987210297E-14" y1="-100.0" x2="-3.6739403974420595E-14" y2="-200.0" stroke-width="4" stroke="black" />
<line x1="-3.6739403974420595E-14" y1="-200.0" x2="-43.365908458754454" y2="-290.10770213220917" stroke-width="4" stroke="black" />
<line x1="-3.6739403974420595E-14" y1="-200.0" x2="-5.510910596163089E-14" y2="-300.0" stroke-width="4" stroke="black" />
<line x1="-5.510910596163089E-14" y1="-300.0" x2="43.365908458754326" y2="-390.10770213220917" stroke-width="4" stroke="black" />
<line x1="43.365908458754326" y1="-390.10770213220917" x2="121.51795570063621" y2="-452.4956618031478" stroke-width="4" stroke="black" />
<line x1="43.365908458754326" y1="-390.10770213220917" x2="86.73181691750871" y2="-480.21540426441834" stroke-width="4" stroke="black" />
<line x1="86.73181691750871" y1="-480.21540426441834" x2="86.7318169175087" y2="-580.2154042644183" stroke-width="4" stroke="black" />
<line x1="86.73181691750871" y1="-480.21540426441834" x2="130.0977253762631" y2="-570.3231063966275" stroke-width="4" stroke="black" />
<line x1="-5.510910596163089E-14" y1="-300.0" x2="-7.347880794884119E-14" y2="-400.0" stroke-width="4" stroke="black" />
<line x1="-7.347880794884119E-14" y1="-400.0" x2="43.36590845875431" y2="-490.10770213220917" stroke-width="4" stroke="black" />
<line x1="-7.347880794884119E-14" y1="-400.0" x2="-9.184850993605149E-14" y2="-500.0" stroke-width="4" stroke="black" />
<line x1="-9.184850993605149E-14" y1="-500.0" x2="-43.36590845875451" y2="-590.1077021322092" stroke-width="4" stroke="black" />
<line x1="-9.184850993605149E-14" y1="-500.0" x2="-1.1021821192326178E-13" y2="-600.0" stroke-width="4" stroke="black" />
<line x1="-1.1021821192326178E-13" y1="-600.0" x2="-43.36590845875453" y2="-690.1077021322092" stroke-width="4" stroke="black" />
<line x1="-43.36590845875453" y1="-690.1077021322092" x2="-43.365908458754554" y2="-790.1077021322092" stroke-width="4" stroke="black" />
<line x1="-43.36590845875453" y1="-690.1077021322092" x2="-86.73181691750895" y2="-780.2154042644183" stroke-width="4" stroke="black" />
<line x1="-86.73181691750895" y1="-780.2154042644183" x2="-164.88386415939084" y2="-842.6033639353569" stroke-width="4" stroke="black" />
<line x1="-86.73181691750895" y1="-780.2154042644183" x2="-130.09772537626338" y2="-870.3231063966275" stroke-width="4" stroke="black" />
<line x1="-1.1021821192326178E-13" y1="-600.0" x2="-1.2858791391047208E-13" y2="-700.0" stroke-width="4" stroke="black" />
<line x1="-1.2858791391047208E-13" y1="-700.0" x2="43.365908458754255" y2="-790.1077021322092" stroke-width="4" stroke="black" />
<line x1="-1.2858791391047208E-13" y1="-700.0" x2="-1.4695761589768238E-13" y2="-800.0" stroke-width="4" stroke="black" />
<line x1="-1.4695761589768238E-13" y1="-800.0" x2="-43.36590845875457" y2="-890.1077021322092" stroke-width="4" stroke="black" />
<line x1="-1.4695761589768238E-13" y1="-800.0" x2="-1.6532731788489268E-13" y2="-900.0" stroke-width="4" stroke="black" />
<line x1="-1.6532731788489268E-13" y1="-900.0" x2="43.36590845875422" y2="-990.1077021322092" stroke-width="4" stroke="black" />
<line x1="43.36590845875422" y1="-990.1077021322092" x2="121.5179557006361" y2="-1052.4956618031479" stroke-width="4" stroke="black" />
<line x1="43.36590845875422" y1="-990.1077021322092" x2="86.73181691750861" y2="-1080.2154042644183" stroke-width="4" stroke="black" />
<line x1="86.73181691750861" y1="-1080.2154042644183" x2="86.7318169175086" y2="-1180.2154042644183" stroke-width="4" stroke="black" />
<line x1="86.73181691750861" y1="-1080.2154042644183" x2="130.09772537626299" y2="-1170.3231063966275" stroke-width="4" stroke="black" />
<line x1="130.09772537626299" y1="-1170.3231063966275" x2="208.24977261814485" y2="-1232.7110660675662" stroke-width="4" stroke="black" />
<line x1="208.24977261814485" y1="-1232.7110660675662" x2="305.72589203726704" y2="-1255.0360776686614" stroke-width="4" stroke="black" />
<line x1="208.24977261814485" y1="-1232.7110660675662" x2="286.4018198600267" y2="-1295.099025738505" stroke-width="4" stroke="black" />
<line x1="286.4018198600267" y1="-1295.099025738505" x2="329.7677283187811" y2="-1385.206727870714" stroke-width="4" stroke="black" />
<line x1="286.4018198600267" y1="-1295.099025738505" x2="364.55386710190857" y2="-1357.4869854094436" stroke-width="4" stroke="black" />
<line x1="130.09772537626299" y1="-1170.3231063966275" x2="173.46363383501736" y2="-1260.4308085288367" stroke-width="4" stroke="black" />
<line x1="173.46363383501736" y1="-1260.4308085288367" x2="251.61568107689925" y2="-1322.8187681997754" stroke-width="4" stroke="black" />
<line x1="173.46363383501736" y1="-1260.4308085288367" x2="216.82954229377174" y2="-1350.5385106610458" stroke-width="4" stroke="black" />
<line x1="216.82954229377174" y1="-1350.5385106610458" x2="216.8295422937717" y2="-1450.5385106610458" stroke-width="4" stroke="black" />
<line x1="216.82954229377174" y1="-1350.5385106610458" x2="260.19545075252614" y2="-1440.646212793255" stroke-width="4" stroke="black" />
<line x1="260.19545075252614" y1="-1440.646212793255" x2="260.19545075252614" y2="-1540.646212793255" stroke-width="4" stroke="black" />
<line x1="260.19545075252614" y1="-1540.646212793255" x2="303.56135921128055" y2="-1630.7539149254642" stroke-width="4" stroke="black" />
<line x1="260.19545075252614" y1="-1540.646212793255" x2="260.19545075252614" y2="-1640.646212793255" stroke-width="4" stroke="black" />
<line x1="260.19545075252614" y1="-1640.646212793255" x2="216.82954229377174" y2="-1730.7539149254642" stroke-width="4" stroke="black" />
<line x1="260.19545075252614" y1="-1640.646212793255" x2="260.19545075252614" y2="-1740.646212793255" stroke-width="4" stroke="black" />
<line x1="260.19545075252614" y1="-1440.646212793255" x2="303.56135921128055" y2="-1530.7539149254642" stroke-width="4" stroke="black" />
<line x1="303.56135921128055" y1="-1530.7539149254642" x2="381.7134064531624" y2="-1593.1418745964029" stroke-width="4" stroke="black" />
<line x1="303.56135921128055" y1="-1530.7539149254642" x2="346.92726767003495" y2="-1620.8616170576734" stroke-width="4" stroke="black" />
<line x1="346.92726767003495" y1="-1620.8616170576734" x2="346.92726767003495" y2="-1720.8616170576734" stroke-width="4" stroke="black" />
<line x1="346.92726767003495" y1="-1620.8616170576734" x2="390.29317612878936" y2="-1710.9693191898825" stroke-width="4" stroke="black" />
<line x1="-1.6532731788489268E-13" y1="-900.0" x2="-1.8369701987210297E-13" y2="-1000.0" stroke-width="4" stroke="black" />
<line x1="-1.8369701987210297E-13" y1="-1000.0" x2="43.3659084587542" y2="-1090.1077021322092" stroke-width="4" stroke="black" />
<line x1="-1.8369701987210297E-13" y1="-1000.0" x2="-2.0206672185931327E-13" y2="-1100.0" stroke-width="4" stroke="black" />
<line x1="-2.0206672185931327E-13" y1="-1100.0" x2="-43.36590845875462" y2="-1190.1077021322092" stroke-width="4" stroke="black" />
<line x1="-2.0206672185931327E-13" y1="-1100.0" x2="-2.2043642384652357E-13" y2="-1200.0" stroke-width="4" stroke="black" />
<line x1="-2.2043642384652357E-13" y1="-1200.0" x2="43.36590845875416" y2="-1290.1077021322092" stroke-width="4" stroke="black" />
<line x1="43.36590845875416" y1="-1290.1077021322092" x2="121.51795570063604" y2="-1352.4956618031479" stroke-width="4" stroke="black" />
<line x1="43.36590845875416" y1="-1290.1077021322092" x2="86.73181691750855" y2="-1380.2154042644183" stroke-width="4" stroke="black" />
<line x1="86.73181691750855" y1="-1380.2154042644183" x2="86.73181691750854" y2="-1480.2154042644183" stroke-width="4" stroke="black" />
<line x1="86.73181691750855" y1="-1380.2154042644183" x2="130.09772537626293" y2="-1470.3231063966275" stroke-width="4" stroke="black" />
<line x1="-2.2043642384652357E-13" y1="-1200.0" x2="-2.388061258337339E-13" y2="-1300.0" stroke-width="4" stroke="black" />
<line x1="-2.388061258337339E-13" y1="-1300.0" x2="43.36590845875414" y2="-1390.1077021322092" stroke-width="4" stroke="black" />
<line x1="-2.388061258337339E-13" y1="-1300.0" x2="-2.571758278209442E-13" y2="-1400.0" stroke-width="4" stroke="black" />
<line x1="-2.571758278209442E-13" y1="-1400.0" x2="-43.365908458754674" y2="-1490.1077021322092" stroke-width="4" stroke="black" />
<line x1="-2.571758278209442E-13" y1="-1400.0" x2="-2.7554552980815454E-13" y2="-1500.0" stroke-width="4" stroke="black" />
<line x1="-2.7554552980815454E-13" y1="-1500.0" x2="-43.365908458754696" y2="-1590.1077021322092" stroke-width="4" stroke="black" />
<line x1="-43.365908458754696" y1="-1590.1077021322092" x2="-43.36590845875472" y2="-1690.1077021322092" stroke-width="4" stroke="black" />
<line x1="-43.365908458754696" y1="-1590.1077021322092" x2="-86.73181691750912" y2="-1680.2154042644183" stroke-width="4" stroke="black" />
<line x1="-86.73181691750912" y1="-1680.2154042644183" x2="-164.883864159391" y2="-1742.603363935357" stroke-width="4" stroke="black" />
<line x1="-86.73181691750912" y1="-1680.2154042644183" x2="-130.09772537626355" y2="-1770.3231063966275" stroke-width="4" stroke="black" />
<line x1="-2.7554552980815454E-13" y1="-1500.0" x2="-2.9391523179536486E-13" y2="-1600.0" stroke-width="4" stroke="black" />
<line x1="-2.9391523179536486E-13" y1="-1600.0" x2="43.36590845875409" y2="-1690.1077021322092" stroke-width="4" stroke="black" />
<line x1="-2.9391523179536486E-13" y1="-1600.0" x2="-3.122849337825752E-13" y2="-1700.0" stroke-width="4" stroke="black" />
<line x1="-3.122849337825752E-13" y1="-1700.0" x2="-43.36590845875473" y2="-1790.1077021322092" stroke-width="4" stroke="black" />
<line x1="-3.122849337825752E-13" y1="-1700.0" x2="-3.306546357697855E-13" y2="-1800.0" stroke-width="4" stroke="black" />
<line x1="-3.306546357697855E-13" y1="-1800.0" x2="-43.36590845875475" y2="-1890.1077021322092" stroke-width="4" stroke="black" />
<line x1="-43.36590845875475" y1="-1890.1077021322092" x2="-43.365908458754774" y2="-1990.1077021322092" stroke-width="4" stroke="black" />
<line x1="-43.36590845875475" y1="-1890.1077021322092" x2="-86.73181691750918" y2="-1980.2154042644183" stroke-width="4" stroke="black" />
<line x1="-86.73181691750918" y1="-1980.2154042644183" x2="-164.88386415939107" y2="-2042.603363935357" stroke-width="4" stroke="black" />
<line x1="-86.73181691750918" y1="-1980.2154042644183" x2="-130.0977253762636" y2="-2070.3231063966277" stroke-width="4" stroke="black" />
<line x1="-130.0977253762636" y1="-2070.3231063966277" x2="-130.09772537626364" y2="-2170.3231063966277" stroke-width="4" stroke="black" />
<line x1="-130.09772537626364" y1="-2170.3231063966277" x2="-86.73181691750926" y2="-2260.430808528837" stroke-width="4" stroke="black" />
<line x1="-130.09772537626364" y1="-2170.3231063966277" x2="-130.09772537626367" y2="-2270.3231063966277" stroke-width="4" stroke="black" />
<line x1="-130.09772537626367" y1="-2270.3231063966277" x2="-173.46363383501807" y2="-2360.4308085288367" stroke-width="4" stroke="black" />
<line x1="-130.09772537626367" y1="-2270.3231063966277" x2="-130.0977253762637" y2="-2370.3231063966277" stroke-width="4" stroke="black" />
<line x1="-130.0977253762636" y1="-2070.3231063966277" x2="-173.46363383501802" y2="-2160.4308085288367" stroke-width="4" stroke="black" />
<line x1="-173.46363383501802" y1="-2160.4308085288367" x2="-173.46363383501804" y2="-2260.4308085288367" stroke-width="4" stroke="black" />
<line x1="-173.46363383501802" y1="-2160.4308085288367" x2="-216.82954229377242" y2="-2250.5385106610456" stroke-width="4" stroke="black" />
<line x1="-216.82954229377242" y1="-2250.5385106610456" x2="-294.9815895356543" y2="-2312.926470331984" stroke-width="4" stroke="black" />
<line x1="-216.82954229377242" y1="-2250.5385106610456" x2="-260.1954507525268" y2="-2340.6462127932546" stroke-width="4" stroke="black" />
<line x1="-260.1954507525268" y1="-2340.6462127932546" x2="-338.3474979944087" y2="-2403.034172464193" stroke-width="4" stroke="black" />
<line x1="-338.3474979944087" y1="-2403.034172464193" x2="-381.7134064531631" y2="-2493.141874596402" stroke-width="4" stroke="black" />
<line x1="-338.3474979944087" y1="-2403.034172464193" x2="-416.49954523629054" y2="-2465.4221321351315" stroke-width="4" stroke="black" />
<line x1="-416.49954523629054" y1="-2465.4221321351315" x2="-513.9756646554127" y2="-2487.747143736227" stroke-width="4" stroke="black" />
<line x1="-416.49954523629054" y1="-2465.4221321351315" x2="-494.6515924781724" y2="-2527.81009180607" stroke-width="4" stroke="black" />
<line x1="-260.1954507525268" y1="-2340.6462127932546" x2="-303.56135921128123" y2="-2430.7539149254635" stroke-width="4" stroke="black" />
<line x1="-303.56135921128123" y1="-2430.7539149254635" x2="-303.56135921128123" y2="-2530.7539149254635" stroke-width="4" stroke="black" />
<line x1="-303.56135921128123" y1="-2430.7539149254635" x2="-346.92726767003563" y2="-2520.8616170576724" stroke-width="4" stroke="black" />
<line x1="-346.92726767003563" y1="-2520.8616170576724" x2="-425.0793149119175" y2="-2583.249576728611" stroke-width="4" stroke="black" />
<line x1="-346.92726767003563" y1="-2520.8616170576724" x2="-390.29317612879004" y2="-2610.9693191898814" stroke-width="4" stroke="black" />
<line x1="-3.306546357697855E-13" y1="-1800.0" x2="-3.4902433775699583E-13" y2="-1900.0" stroke-width="4" stroke="black" />
<line x1="-3.4902433775699583E-13" y1="-1900.0" x2="43.365908458754035" y2="-1990.1077021322092" stroke-width="4" stroke="black" />
<line x1="-3.4902433775699583E-13" y1="-1900.0" x2="-3.6739403974420615E-13" y2="-2000.0" stroke-width="4" stroke="black" />
<line x1="-3.6739403974420615E-13" y1="-2000.0" x2="-43.36590845875479" y2="-2090.107702132209" stroke-width="4" stroke="black" />
<line x1="-3.6739403974420615E-13" y1="-2000.0" x2="-3.8576374173141647E-13" y2="-2100.0" stroke-width="4" stroke="black" />
<line x1="-3.8576374173141647E-13" y1="-2100.0" x2="43.365908458754" y2="-2190.1077021322094" stroke-width="4" stroke="black" />
<line x1="43.365908458754" y1="-2190.1077021322094" x2="121.51795570063587" y2="-2252.495661803148" stroke-width="4" stroke="black" />
<line x1="43.365908458754" y1="-2190.1077021322094" x2="86.73181691750838" y2="-2280.215404264419" stroke-width="4" stroke="black" />
<line x1="86.73181691750838" y1="-2280.215404264419" x2="86.73181691750837" y2="-2380.215404264419" stroke-width="4" stroke="black" />
<line x1="86.73181691750838" y1="-2280.215404264419" x2="130.09772537626276" y2="-2370.323106396628" stroke-width="4" stroke="black" />
<line x1="-3.8576374173141647E-13" y1="-2100.0" x2="-4.041334437186268E-13" y2="-2200.0" stroke-width="4" stroke="black" />
<line x1="-4.041334437186268E-13" y1="-2200.0" x2="43.36590845875398" y2="-2290.1077021322094" stroke-width="4" stroke="black" />
<line x1="-4.041334437186268E-13" y1="-2200.0" x2="-4.225031457058371E-13" y2="-2300.0" stroke-width="4" stroke="black" />
<line x1="-4.225031457058371E-13" y1="-2300.0" x2="-43.36590845875484" y2="-2390.107702132209" stroke-width="4" stroke="black" />
<line x1="-4.225031457058371E-13" y1="-2300.0" x2="-4.4087284769304744E-13" y2="-2400.0" stroke-width="4" stroke="black" />
<line x1="-4.4087284769304744E-13" y1="-2400.0" x2="-43.36590845875486" y2="-2490.107702132209" stroke-width="4" stroke="black" />
<line x1="-43.36590845875486" y1="-2490.107702132209" x2="-43.36590845875488" y2="-2590.107702132209" stroke-width="4" stroke="black" />
<line x1="-43.36590845875486" y1="-2490.107702132209" x2="-86.73181691750928" y2="-2580.215404264418" stroke-width="4" stroke="black" />
<line x1="-86.73181691750928" y1="-2580.215404264418" x2="-164.88386415939115" y2="-2642.6033639353564" stroke-width="4" stroke="black" />
<line x1="-86.73181691750928" y1="-2580.215404264418" x2="-130.0977253762637" y2="-2670.323106396627" stroke-width="4" stroke="black" />
<line x1="-4.4087284769304744E-13" y1="-2400.0" x2="-4.592425496802578E-13" y2="-2500.0" stroke-width="4" stroke="black" />
<line x1="-4.592425496802578E-13" y1="-2500.0" x2="43.36590845875392" y2="-2590.1077021322094" stroke-width="4" stroke="black" />
<line x1="-4.592425496802578E-13" y1="-2500.0" x2="-4.776122516674681E-13" y2="-2600.0" stroke-width="4" stroke="black" />
<line x1="-4.776122516674681E-13" y1="-2600.0" x2="-43.365908458754895" y2="-2690.107702132209" stroke-width="4" stroke="black" />
<line x1="-4.776122516674681E-13" y1="-2600.0" x2="-4.959819536546784E-13" y2="-2700.0" stroke-width="4" stroke="black" />
<line x1="-4.959819536546784E-13" y1="-2700.0" x2="43.365908458753886" y2="-2790.1077021322094" stroke-width="4" stroke="black" />
<line x1="43.365908458753886" y1="-2790.1077021322094" x2="121.51795570063575" y2="-2852.495661803148" stroke-width="4" stroke="black" />
<line x1="43.365908458753886" y1="-2790.1077021322094" x2="86.73181691750827" y2="-2880.215404264419" stroke-width="4" stroke="black" />
<line x1="86.73181691750827" y1="-2880.215404264419" x2="86.73181691750825" y2="-2980.215404264419" stroke-width="4" stroke="black" />
<line x1="86.73181691750827" y1="-2880.215404264419" x2="130.09772537626264" y2="-2970.323106396628" stroke-width="4" stroke="black" />
<line x1="130.09772537626264" y1="-2970.323106396628" x2="208.2497726181445" y2="-3032.7110660675667" stroke-width="4" stroke="black" />
<line x1="208.2497726181445" y1="-3032.7110660675667" x2="305.7258920372667" y2="-3055.0360776686616" stroke-width="4" stroke="black" />
<line x1="208.2497726181445" y1="-3032.7110660675667" x2="286.40181986002636" y2="-3095.099025738505" stroke-width="4" stroke="black" />
<line x1="286.40181986002636" y1="-3095.099025738505" x2="329.76772831878077" y2="-3185.2067278707145" stroke-width="4" stroke="black" />
<line x1="286.40181986002636" y1="-3095.099025738505" x2="364.5538671019082" y2="-3157.4869854094436" stroke-width="4" stroke="black" />
<line x1="130.09772537626264" y1="-2970.323106396628" x2="173.46363383501702" y2="-3060.4308085288376" stroke-width="4" stroke="black" />
<line x1="173.46363383501702" y1="-3060.4308085288376" x2="251.6156810768989" y2="-3122.818768199776" stroke-width="4" stroke="black" />
<line x1="173.46363383501702" y1="-3060.4308085288376" x2="216.8295422937714" y2="-3150.538510661047" stroke-width="4" stroke="black" />
<line x1="216.8295422937714" y1="-3150.538510661047" x2="216.82954229377137" y2="-3250.538510661047" stroke-width="4" stroke="black" />
<line x1="216.8295422937714" y1="-3150.538510661047" x2="260.1954507525258" y2="-3240.6462127932564" stroke-width="4" stroke="black" />
<line x1="260.1954507525258" y1="-3240.6462127932564" x2="260.1954507525258" y2="-3340.6462127932564" stroke-width="4" stroke="black" />
<line x1="260.1954507525258" y1="-3340.6462127932564" x2="303.5613592112802" y2="-3430.753914925466" stroke-width="4" stroke="black" />
<line x1="260.1954507525258" y1="-3340.6462127932564" x2="260.1954507525258" y2="-3440.6462127932564" stroke-width="4" stroke="black" />
<line x1="260.1954507525258" y1="-3440.6462127932564" x2="216.8295422937714" y2="-3530.7539149254653" stroke-width="4" stroke="black" />
<line x1="260.1954507525258" y1="-3440.6462127932564" x2="260.1954507525258" y2="-3540.6462127932564" stroke-width="4" stroke="black" />
<line x1="260.1954507525258" y1="-3240.6462127932564" x2="303.5613592112802" y2="-3330.753914925466" stroke-width="4" stroke="black" />
<line x1="303.5613592112802" y1="-3330.753914925466" x2="381.71340645316207" y2="-3393.1418745964043" stroke-width="4" stroke="black" />
<line x1="303.5613592112802" y1="-3330.753914925466" x2="346.9272676700346" y2="-3420.861617057675" stroke-width="4" stroke="black" />
<line x1="346.9272676700346" y1="-3420.861617057675" x2="346.9272676700346" y2="-3520.861617057675" stroke-width="4" stroke="black" />
<line x1="346.9272676700346" y1="-3420.861617057675" x2="390.293176128789" y2="-3510.9693191898846" stroke-width="4" stroke="black" />
<line x1="390.293176128789" y1="-3510.9693191898846" x2="468.4452233706709" y2="-3573.357278860823" stroke-width="4" stroke="black" />
<line x1="468.4452233706709" y1="-3573.357278860823" x2="565.921342789793" y2="-3595.682290461918" stroke-width="4" stroke="black" />
<line x1="468.4452233706709" y1="-3573.357278860823" x2="546.5972706125527" y2="-3635.7452385317615" stroke-width="4" stroke="black" />
<line x1="546.5972706125527" y1="-3635.7452385317615" x2="589.9631790713071" y2="-3725.852940663971" stroke-width="4" stroke="black" />
<line x1="546.5972706125527" y1="-3635.7452385317615" x2="624.7493178544346" y2="-3698.1331982027" stroke-width="4" stroke="black" />
<line x1="624.7493178544346" y1="-3698.1331982027" x2="722.2254372735567" y2="-3720.458209803795" stroke-width="4" stroke="black" />
<line x1="722.2254372735567" y1="-3720.458209803795" x2="819.740372704113" y2="-3698.3033600418485" stroke-width="4" stroke="black" />
<line x1="722.2254372735567" y1="-3720.458209803795" x2="819.7015566926789" y2="-3742.78322140489" stroke-width="4" stroke="black" />
<line x1="819.7015566926789" y1="-3742.78322140489" x2="897.8536039345607" y2="-3805.1711810758284" stroke-width="4" stroke="black" />
<line x1="819.7015566926789" y1="-3742.78322140489" x2="917.177676111801" y2="-3765.108233005985" stroke-width="4" stroke="black" />
<line x1="624.7493178544346" y1="-3698.1331982027" x2="702.9013650963165" y2="-3760.5211578736385" stroke-width="4" stroke="black" />
<line x1="702.9013650963165" y1="-3760.5211578736385" x2="800.3774845154386" y2="-3782.8461694747334" stroke-width="4" stroke="black" />
<line x1="702.9013650963165" y1="-3760.5211578736385" x2="781.0534123381983" y2="-3822.909117544577" stroke-width="4" stroke="black" />
<line x1="781.0534123381983" y1="-3822.909117544577" x2="824.4193207969527" y2="-3913.0168196767863" stroke-width="4" stroke="black" />
<line x1="781.0534123381983" y1="-3822.909117544577" x2="859.2054595800802" y2="-3885.2970772155154" stroke-width="4" stroke="black" />
<line x1="859.2054595800802" y1="-3885.2970772155154" x2="902.5713680388345" y2="-3975.404779347725" stroke-width="4" stroke="black" />
<line x1="902.5713680388345" y1="-3975.404779347725" x2="980.7234152807164" y2="-4037.7927390186633" stroke-width="4" stroke="black" />
<line x1="902.5713680388345" y1="-3975.404779347725" x2="945.9372764975889" y2="-4065.512481479934" stroke-width="4" stroke="black" />
<line x1="945.9372764975889" y1="-4065.512481479934" x2="945.9372764975889" y2="-4165.512481479935" stroke-width="4" stroke="black" />
<line x1="945.9372764975889" y1="-4065.512481479934" x2="989.3031849563432" y2="-4155.620183612144" stroke-width="4" stroke="black" />
<line x1="859.2054595800802" y1="-3885.2970772155154" x2="937.357506821962" y2="-3947.685036886454" stroke-width="4" stroke="black" />
<line x1="937.357506821962" y1="-3947.685036886454" x2="1034.8336262410842" y2="-3970.010048487549" stroke-width="4" stroke="black" />
<line x1="937.357506821962" y1="-3947.685036886454" x2="1015.5095540638439" y2="-4010.0729965573923" stroke-width="4" stroke="black" />
<line x1="1015.5095540638439" y1="-4010.0729965573923" x2="1058.8754625225984" y2="-4100.180698689602" stroke-width="4" stroke="black" />
<line x1="1015.5095540638439" y1="-4010.0729965573923" x2="1093.6616013057258" y2="-4072.460956228331" stroke-width="4" stroke="black" />
<line x1="390.293176128789" y1="-3510.9693191898846" x2="433.6590845875434" y2="-3601.077021322094" stroke-width="4" stroke="black" />
<line x1="433.6590845875434" y1="-3601.077021322094" x2="511.8111318294253" y2="-3663.4649809930324" stroke-width="4" stroke="black" />
<line x1="433.6590845875434" y1="-3601.077021322094" x2="477.0249930462978" y2="-3691.1847234543034" stroke-width="4" stroke="black" />
<line x1="477.0249930462978" y1="-3691.1847234543034" x2="477.0249930462978" y2="-3791.1847234543034" stroke-width="4" stroke="black" />
<line x1="477.0249930462978" y1="-3691.1847234543034" x2="520.3909015050522" y2="-3781.2924255865128" stroke-width="4" stroke="black" />
<line x1="520.3909015050522" y1="-3781.2924255865128" x2="598.542948746934" y2="-3843.6803852574512" stroke-width="4" stroke="black" />
<line x1="598.542948746934" y1="-3843.6803852574512" x2="696.0190681660562" y2="-3866.005396858546" stroke-width="4" stroke="black" />
<line x1="598.542948746934" y1="-3843.6803852574512" x2="676.6949959888159" y2="-3906.0683449283897" stroke-width="4" stroke="black" />
<line x1="676.6949959888159" y1="-3906.0683449283897" x2="720.0609044475702" y2="-3996.176047060599" stroke-width="4" stroke="black" />
<line x1="676.6949959888159" y1="-3906.0683449283897" x2="754.8470432306978" y2="-3968.456304599328" stroke-width="4" stroke="black" />
<line x1="520.3909015050522" y1="-3781.2924255865128" x2="563.7568099638065" y2="-3871.400127718722" stroke-width="4" stroke="black" />
<line x1="563.7568099638065" y1="-3871.400127718722" x2="641.9088572056884" y2="-3933.7880873896606" stroke-width="4" stroke="black" />
<line x1="563.7568099638065" y1="-3871.400127718722" x2="607.1227184225609" y2="-3961.5078298509316" stroke-width="4" stroke="black" />
<line x1="607.1227184225609" y1="-3961.5078298509316" x2="607.1227184225609" y2="-4061.5078298509316" stroke-width="4" stroke="black" />
<line x1="607.1227184225609" y1="-3961.5078298509316" x2="650.4886268813152" y2="-4051.615531983141" stroke-width="4" stroke="black" />
<line x1="650.4886268813152" y1="-4051.615531983141" x2="650.4886268813152" y2="-4151.615531983141" stroke-width="4" stroke="black" />
<line x1="650.4886268813152" y1="-4151.615531983141" x2="693.8545353400696" y2="-4241.72323411535" stroke-width="4" stroke="black" />
<line x1="650.4886268813152" y1="-4151.615531983141" x2="650.4886268813152" y2="-4251.615531983141" stroke-width="4" stroke="black" />
<line x1="650.4886268813152" y1="-4251.615531983141" x2="607.1227184225608" y2="-4341.72323411535" stroke-width="4" stroke="black" />
<line x1="650.4886268813152" y1="-4251.615531983141" x2="650.4886268813152" y2="-4351.615531983141" stroke-width="4" stroke="black" />
<line x1="650.4886268813152" y1="-4051.615531983141" x2="693.8545353400696" y2="-4141.72323411535" stroke-width="4" stroke="black" />
<line x1="693.8545353400696" y1="-4141.72323411535" x2="772.0065825819514" y2="-4204.111193786289" stroke-width="4" stroke="black" />
<line x1="693.8545353400696" y1="-4141.72323411535" x2="737.2204437988239" y2="-4231.830936247559" stroke-width="4" stroke="black" />
<line x1="737.2204437988239" y1="-4231.830936247559" x2="737.2204437988239" y2="-4331.830936247559" stroke-width="4" stroke="black" />
<line x1="737.2204437988239" y1="-4231.830936247559" x2="780.5863522575783" y2="-4321.938638379768" stroke-width="4" stroke="black" />
<line x1="780.5863522575783" y1="-4321.938638379768" x2="780.5863522575783" y2="-4421.938638379768" stroke-width="4" stroke="black" />
<line x1="780.5863522575783" y1="-4421.938638379768" x2="823.9522607163326" y2="-4512.046340511977" stroke-width="4" stroke="black" />
<line x1="780.5863522575783" y1="-4421.938638379768" x2="780.5863522575783" y2="-4521.938638379768" stroke-width="4" stroke="black" />
<line x1="780.5863522575783" y1="-4521.938638379768" x2="737.2204437988238" y2="-4612.046340511977" stroke-width="4" stroke="black" />
<line x1="780.5863522575783" y1="-4521.938638379768" x2="780.5863522575783" y2="-4621.938638379768" stroke-width="4" stroke="black" />
<line x1="780.5863522575783" y1="-4621.938638379768" x2="823.9522607163326" y2="-4712.046340511977" stroke-width="4" stroke="black" />
<line x1="823.9522607163326" y1="-4712.046340511977" x2="902.1043079582145" y2="-4774.434300182916" stroke-width="4" stroke="black" />
<line x1="823.9522607163326" y1="-4712.046340511977" x2="867.318169175087" y2="-4802.154042644186" stroke-width="4" stroke="black" />
<line x1="867.318169175087" y1="-4802.154042644186" x2="867.318169175087" y2="-4902.154042644186" stroke-width="4" stroke="black" />
<line x1="867.318169175087" y1="-4802.154042644186" x2="910.6840776338413" y2="-4892.261744776395" stroke-width="4" stroke="black" />
<line x1="780.5863522575783" y1="-4621.938638379768" x2="780.5863522575783" y2="-4721.938638379768" stroke-width="4" stroke="black" />
<line x1="780.5863522575783" y1="-4721.938638379768" x2="823.9522607163326" y2="-4812.046340511977" stroke-width="4" stroke="black" />
<line x1="780.5863522575783" y1="-4721.938638379768" x2="780.5863522575783" y2="-4821.938638379768" stroke-width="4" stroke="black" />
<line x1="780.5863522575783" y1="-4821.938638379768" x2="737.2204437988238" y2="-4912.046340511977" stroke-width="4" stroke="black" />
<line x1="780.5863522575783" y1="-4821.938638379768" x2="780.5863522575783" y2="-4921.938638379768" stroke-width="4" stroke="black" />
<line x1="780.5863522575783" y1="-4921.938638379768" x2="737.2204437988238" y2="-5012.046340511977" stroke-width="4" stroke="black" />
<line x1="737.2204437988238" y1="-5012.046340511977" x2="737.2204437988238" y2="-5112.046340511977" stroke-width="4" stroke="black" />
<line x1="737.2204437988238" y1="-5012.046340511977" x2="693.8545353400693" y2="-5102.154042644186" stroke-width="4" stroke="black" />
<line x1="693.8545353400693" y1="-5102.154042644186" x2="615.7024880981875" y2="-5164.542002315125" stroke-width="4" stroke="black" />
<line x1="693.8545353400693" y1="-5102.154042644186" x2="650.4886268813149" y2="-5192.261744776395" stroke-width="4" stroke="black" />
<line x1="780.5863522575783" y1="-4921.938638379768" x2="780.5863522575783" y2="-5021.938638379768" stroke-width="4" stroke="black" />
<line x1="780.5863522575783" y1="-5021.938638379768" x2="823.9522607163326" y2="-5112.046340511977" stroke-width="4" stroke="black" />
<line x1="780.5863522575783" y1="-5021.938638379768" x2="780.5863522575783" y2="-5121.938638379768" stroke-width="4" stroke="black" />
<line x1="780.5863522575783" y1="-5121.938638379768" x2="737.2204437988238" y2="-5212.046340511977" stroke-width="4" stroke="black" />
<line x1="780.5863522575783" y1="-5121.938638379768" x2="780.5863522575783" y2="-5221.938638379768" stroke-width="4" stroke="black" />
<line x1="780.5863522575783" y1="-4321.938638379768" x2="823.9522607163326" y2="-4412.046340511977" stroke-width="4" stroke="black" />
<line x1="823.9522607163326" y1="-4412.046340511977" x2="902.1043079582145" y2="-4474.434300182916" stroke-width="4" stroke="black" />
<line x1="823.9522607163326" y1="-4412.046340511977" x2="867.318169175087" y2="-4502.154042644186" stroke-width="4" stroke="black" />
<line x1="867.318169175087" y1="-4502.154042644186" x2="867.318169175087" y2="-4602.154042644186" stroke-width="4" stroke="black" />
<line x1="867.318169175087" y1="-4502.154042644186" x2="910.6840776338413" y2="-4592.261744776395" stroke-width="4" stroke="black" />
<line x1="910.6840776338413" y1="-4592.261744776395" x2="988.8361248757232" y2="-4654.6497044473335" stroke-width="4" stroke="black" />
<line x1="988.8361248757232" y1="-4654.6497044473335" x2="1086.3122442948454" y2="-4676.9747160484285" stroke-width="4" stroke="black" />
<line x1="988.8361248757232" y1="-4654.6497044473335" x2="1066.988172117605" y2="-4717.037664118272" stroke-width="4" stroke="black" />
<line x1="1066.988172117605" y1="-4717.037664118272" x2="1110.3540805763594" y2="-4807.145366250481" stroke-width="4" stroke="black" />
<line x1="1066.988172117605" y1="-4717.037664118272" x2="1145.140219359487" y2="-4779.4256237892105" stroke-width="4" stroke="black" />
<line x1="910.6840776338413" y1="-4592.261744776395" x2="954.0499860925956" y2="-4682.369446908604" stroke-width="4" stroke="black" />
<line x1="954.0499860925956" y1="-4682.369446908604" x2="1032.2020333344776" y2="-4744.7574065795425" stroke-width="4" stroke="black" />
<line x1="954.0499860925956" y1="-4682.369446908604" x2="997.41589455135" y2="-4772.477149040813" stroke-width="4" stroke="black" />
<line x1="997.41589455135" y1="-4772.477149040813" x2="997.41589455135" y2="-4872.477149040813" stroke-width="4" stroke="black" />
<line x1="997.41589455135" y1="-4772.477149040813" x2="1040.7818030101043" y2="-4862.584851173022" stroke-width="4" stroke="black" />
<line x1="1040.7818030101043" y1="-4862.584851173022" x2="1040.7818030101043" y2="-4962.584851173022" stroke-width="4" stroke="black" />
<line x1="1040.7818030101043" y1="-4962.584851173022" x2="1084.1477114688587" y2="-5052.692553305231" stroke-width="4" stroke="black" />
<line x1="1040.7818030101043" y1="-4962.584851173022" x2="1040.7818030101043" y2="-5062.584851173022" stroke-width="4" stroke="black" />
<line x1="1040.7818030101043" y1="-5062.584851173022" x2="997.4158945513499" y2="-5152.692553305231" stroke-width="4" stroke="black" />
<line x1="1040.7818030101043" y1="-5062.584851173022" x2="1040.7818030101043" y2="-5162.584851173022" stroke-width="4" stroke="black" />
<line x1="1040.7818030101043" y1="-4862.584851173022" x2="1084.1477114688587" y2="-4952.692553305231" stroke-width="4" stroke="black" />
<line x1="1084.1477114688587" y1="-4952.692553305231" x2="1162.2997587107407" y2="-5015.080512976169" stroke-width="4" stroke="black" />
<line x1="1084.1477114688587" y1="-4952.692553305231" x2="1127.513619927613" y2="-5042.80025543744" stroke-width="4" stroke="black" />
<line x1="1127.513619927613" y1="-5042.80025543744" x2="1127.513619927613" y2="-5142.80025543744" stroke-width="4" stroke="black" />
<line x1="1127.513619927613" y1="-5042.80025543744" x2="1170.8795283863674" y2="-5132.907957569649" stroke-width="4" stroke="black" />
<line x1="-4.959819536546784E-13" y1="-2700.0" x2="-5.143516556418887E-13" y2="-2800.0" stroke-width="4" stroke="black" />
<line x1="-5.143516556418887E-13" y1="-2800.0" x2="43.36590845875387" y2="-2890.1077021322094" stroke-width="4" stroke="black" />
<line x1="-5.143516556418887E-13" y1="-2800.0" x2="-5.327213576290991E-13" y2="-2900.0" stroke-width="4" stroke="black" />
<line x1="-5.327213576290991E-13" y1="-2900.0" x2="-43.36590845875495" y2="-2990.107702132209" stroke-width="4" stroke="black" />
<line x1="-5.327213576290991E-13" y1="-2900.0" x2="-5.510910596163094E-13" y2="-3000.0" stroke-width="4" stroke="black" />
<line x1="-5.510910596163094E-13" y1="-3000.0" x2="43.36590845875383" y2="-3090.1077021322094" stroke-width="4" stroke="black" />
<line x1="43.36590845875383" y1="-3090.1077021322094" x2="121.5179557006357" y2="-3152.495661803148" stroke-width="4" stroke="black" />
<line x1="43.36590845875383" y1="-3090.1077021322094" x2="86.73181691750821" y2="-3180.215404264419" stroke-width="4" stroke="black" />
<line x1="86.73181691750821" y1="-3180.215404264419" x2="86.7318169175082" y2="-3280.215404264419" stroke-width="4" stroke="black" />
<line x1="86.73181691750821" y1="-3180.215404264419" x2="130.0977253762626" y2="-3270.323106396628" stroke-width="4" stroke="black" />
<line x1="-5.510910596163094E-13" y1="-3000.0" x2="-5.694607616035197E-13" y2="-3100.0" stroke-width="4" stroke="black" />
<line x1="-5.694607616035197E-13" y1="-3100.0" x2="43.365908458753815" y2="-3190.1077021322094" stroke-width="4" stroke="black" />
<line x1="-5.694607616035197E-13" y1="-3100.0" x2="-5.8783046359073E-13" y2="-3200.0" stroke-width="4" stroke="black" />
<line x1="-5.8783046359073E-13" y1="-3200.0" x2="-43.36590845875501" y2="-3290.107702132209" stroke-width="4" stroke="black" />
<line x1="-5.8783046359073E-13" y1="-3200.0" x2="-6.062001655779403E-13" y2="-3300.0" stroke-width="4" stroke="black" />
<line x1="-6.062001655779403E-13" y1="-3300.0" x2="-43.36590845875502" y2="-3390.107702132209" stroke-width="4" stroke="black" />
<line x1="-43.36590845875502" y1="-3390.107702132209" x2="-43.365908458755044" y2="-3490.107702132209" stroke-width="4" stroke="black" />
<line x1="-43.36590845875502" y1="-3390.107702132209" x2="-86.73181691750943" y2="-3480.215404264418" stroke-width="4" stroke="black" />
<line x1="-86.73181691750943" y1="-3480.215404264418" x2="-164.8838641593913" y2="-3542.6033639353564" stroke-width="4" stroke="black" />
<line x1="-86.73181691750943" y1="-3480.215404264418" x2="-130.09772537626384" y2="-3570.323106396627" stroke-width="4" stroke="black" />
<line x1="-6.062001655779403E-13" y1="-3300.0" x2="-6.245698675651507E-13" y2="-3400.0" stroke-width="4" stroke="black" />
<line x1="-6.245698675651507E-13" y1="-3400.0" x2="43.36590845875376" y2="-3490.1077021322094" stroke-width="4" stroke="black" />
<line x1="-6.245698675651507E-13" y1="-3400.0" x2="-6.42939569552361E-13" y2="-3500.0" stroke-width="4" stroke="black" />
<line x1="-6.42939569552361E-13" y1="-3500.0" x2="-43.36590845875506" y2="-3590.107702132209" stroke-width="4" stroke="black" />
<line x1="-6.42939569552361E-13" y1="-3500.0" x2="-6.613092715395713E-13" y2="-3600.0" stroke-width="4" stroke="black" />
<line x1="-6.613092715395713E-13" y1="-3600.0" x2="43.36590845875372" y2="-3690.1077021322094" stroke-width="4" stroke="black" />
<line x1="43.36590845875372" y1="-3690.1077021322094" x2="121.5179557006356" y2="-3752.495661803148" stroke-width="4" stroke="black" />
<line x1="43.36590845875372" y1="-3690.1077021322094" x2="86.7318169175081" y2="-3780.215404264419" stroke-width="4" stroke="black" />
<line x1="86.7318169175081" y1="-3780.215404264419" x2="86.73181691750808" y2="-3880.215404264419" stroke-width="4" stroke="black" />
<line x1="86.7318169175081" y1="-3780.215404264419" x2="130.09772537626247" y2="-3870.323106396628" stroke-width="4" stroke="black" />
<line x1="130.09772537626247" y1="-3870.323106396628" x2="208.24977261814433" y2="-3932.7110660675667" stroke-width="4" stroke="black" />
<line x1="208.24977261814433" y1="-3932.7110660675667" x2="305.7258920372665" y2="-3955.0360776686616" stroke-width="4" stroke="black" />
<line x1="208.24977261814433" y1="-3932.7110660675667" x2="286.4018198600262" y2="-3995.099025738505" stroke-width="4" stroke="black" />
<line x1="286.4018198600262" y1="-3995.099025738505" x2="329.7677283187806" y2="-4085.2067278707145" stroke-width="4" stroke="black" />
<line x1="286.4018198600262" y1="-3995.099025738505" x2="364.55386710190805" y2="-4057.4869854094436" stroke-width="4" stroke="black" />
<line x1="130.09772537626247" y1="-3870.323106396628" x2="173.46363383501685" y2="-3960.4308085288376" stroke-width="4" stroke="black" />
<line x1="173.46363383501685" y1="-3960.4308085288376" x2="251.61568107689874" y2="-4022.818768199776" stroke-width="4" stroke="black" />
<line x1="173.46363383501685" y1="-3960.4308085288376" x2="216.82954229377123" y2="-4050.538510661047" stroke-width="4" stroke="black" />
<line x1="216.82954229377123" y1="-4050.538510661047" x2="216.8295422937712" y2="-4150.5385106610465" stroke-width="4" stroke="black" />
<line x1="216.82954229377123" y1="-4050.538510661047" x2="260.19545075252563" y2="-4140.646212793256" stroke-width="4" stroke="black" />
<line x1="260.19545075252563" y1="-4140.646212793256" x2="260.19545075252563" y2="-4240.646212793256" stroke-width="4" stroke="black" />
<line x1="260.19545075252563" y1="-4240.646212793256" x2="303.56135921128003" y2="-4330.753914925465" stroke-width="4" stroke="black" />
<line x1="260.19545075252563" y1="-4240.646212793256" x2="260.19545075252563" y2="-4340.646212793256" stroke-width="4" stroke="black" />
<line x1="260.19545075252563" y1="-4340.646212793256" x2="216.82954229377123" y2="-4430.753914925465" stroke-width="4" stroke="black" />
<line x1="260.19545075252563" y1="-4340.646212793256" x2="260.19545075252563" y2="-4440.646212793256" stroke-width="4" stroke="black" />
<line x1="260.19545075252563" y1="-4140.646212793256" x2="303.56135921128003" y2="-4230.753914925465" stroke-width="4" stroke="black" />
<line x1="303.56135921128003" y1="-4230.753914925465" x2="381.7134064531619" y2="-4293.141874596404" stroke-width="4" stroke="black" />
<line x1="303.56135921128003" y1="-4230.753914925465" x2="346.92726767003444" y2="-4320.861617057674" stroke-width="4" stroke="black" />
<line x1="346.92726767003444" y1="-4320.861617057674" x2="346.92726767003444" y2="-4420.861617057674" stroke-width="4" stroke="black" />
<line x1="346.92726767003444" y1="-4320.861617057674" x2="390.29317612878884" y2="-4410.969319189883" stroke-width="4" stroke="black" />
<line x1="-6.613092715395713E-13" y1="-3600.0" x2="-6.796789735267816E-13" y2="-3700.0" stroke-width="4" stroke="black" />
<line x1="-6.796789735267816E-13" y1="-3700.0" x2="43.3659084587537" y2="-3790.1077021322094" stroke-width="4" stroke="black" />
<line x1="-6.796789735267816E-13" y1="-3700.0" x2="-6.98048675513992E-13" y2="-3800.0" stroke-width="4" stroke="black" />
<line x1="-6.98048675513992E-13" y1="-3800.0" x2="-43.365908458755115" y2="-3890.107702132209" stroke-width="4" stroke="black" />
<line x1="-6.98048675513992E-13" y1="-3800.0" x2="-7.164183775012023E-13" y2="-3900.0" stroke-width="4" stroke="black" />
<line x1="-7.164183775012023E-13" y1="-3900.0" x2="43.365908458753665" y2="-3990.1077021322094" stroke-width="4" stroke="black" />
<line x1="43.365908458753665" y1="-3990.1077021322094" x2="121.51795570063554" y2="-4052.495661803148" stroke-width="4" stroke="black" />
<line x1="43.365908458753665" y1="-3990.1077021322094" x2="86.73181691750804" y2="-4080.215404264419" stroke-width="4" stroke="black" />
<line x1="86.73181691750804" y1="-4080.215404264419" x2="86.73181691750803" y2="-4180.215404264419" stroke-width="4" stroke="black" />
<line x1="86.73181691750804" y1="-4080.215404264419" x2="130.09772537626242" y2="-4170.323106396628" stroke-width="4" stroke="black" />
<line x1="-7.164183775012023E-13" y1="-3900.0" x2="-7.347880794884126E-13" y2="-4000.0" stroke-width="4" stroke="black" />
<line x1="-7.347880794884126E-13" y1="-4000.0" x2="43.36590845875365" y2="-4090.1077021322094" stroke-width="4" stroke="black" />
<line x1="-7.347880794884126E-13" y1="-4000.0" x2="-7.531577814756229E-13" y2="-4100.0" stroke-width="4" stroke="black" />
<line x1="-7.531577814756229E-13" y1="-4100.0" x2="-43.36590845875517" y2="-4190.107702132209" stroke-width="4" stroke="black" />
<line x1="-7.531577814756229E-13" y1="-4100.0" x2="-7.715274834628333E-13" y2="-4200.0" stroke-width="4" stroke="black" />
<line x1="-7.715274834628333E-13" y1="-4200.0" x2="-43.36590845875519" y2="-4290.107702132209" stroke-width="4" stroke="black" />
<line x1="-43.36590845875519" y1="-4290.107702132209" x2="-43.365908458755214" y2="-4390.107702132209" stroke-width="4" stroke="black" />
<line x1="-43.36590845875519" y1="-4290.107702132209" x2="-86.7318169175096" y2="-4380.215404264418" stroke-width="4" stroke="black" />
<line x1="-86.7318169175096" y1="-4380.215404264418" x2="-164.88386415939146" y2="-4442.603363935356" stroke-width="4" stroke="black" />
<line x1="-86.7318169175096" y1="-4380.215404264418" x2="-130.097725376264" y2="-4470.323106396627" stroke-width="4" stroke="black" />
<line x1="-7.715274834628333E-13" y1="-4200.0" x2="-7.898971854500436E-13" y2="-4300.0" stroke-width="4" stroke="black" />
<line x1="-7.898971854500436E-13" y1="-4300.0" x2="43.365908458753594" y2="-4390.107702132209" stroke-width="4" stroke="black" />
<line x1="-7.898971854500436E-13" y1="-4300.0" x2="-8.082668874372539E-13" y2="-4400.0" stroke-width="4" stroke="black" />
<line x1="-8.082668874372539E-13" y1="-4400.0" x2="-43.36590845875523" y2="-4490.107702132209" stroke-width="4" stroke="black" />
<line x1="-8.082668874372539E-13" y1="-4400.0" x2="-8.266365894244642E-13" y2="-4500.0" stroke-width="4" stroke="black" />
<line x1="-8.266365894244642E-13" y1="-4500.0" x2="-43.36590845875524" y2="-4590.107702132209" stroke-width="4" stroke="black" />
<line x1="-43.36590845875524" y1="-4590.107702132209" x2="-43.365908458755264" y2="-4690.107702132209" stroke-width="4" stroke="black" />
<line x1="-43.36590845875524" y1="-4590.107702132209" x2="-86.73181691750966" y2="-4680.215404264418" stroke-width="4" stroke="black" />
<line x1="-86.73181691750966" y1="-4680.215404264418" x2="-164.88386415939152" y2="-4742.603363935356" stroke-width="4" stroke="black" />
<line x1="-86.73181691750966" y1="-4680.215404264418" x2="-130.09772537626407" y2="-4770.323106396627" stroke-width="4" stroke="black" />
<line x1="-130.09772537626407" y1="-4770.323106396627" x2="-130.0977253762641" y2="-4870.323106396627" stroke-width="4" stroke="black" />
<line x1="-130.0977253762641" y1="-4870.323106396627" x2="-86.73181691750972" y2="-4960.430808528836" stroke-width="4" stroke="black" />
<line x1="-130.0977253762641" y1="-4870.323106396627" x2="-130.09772537626412" y2="-4970.323106396627" stroke-width="4" stroke="black" />
<line x1="-130.09772537626412" y1="-4970.323106396627" x2="-173.46363383501853" y2="-5060.430808528836" stroke-width="4" stroke="black" />
<line x1="-130.09772537626412" y1="-4970.323106396627" x2="-130.09772537626415" y2="-5070.323106396627" stroke-width="4" stroke="black" />
<line x1="-130.09772537626407" y1="-4770.323106396627" x2="-173.46363383501847" y2="-4860.430808528836" stroke-width="4" stroke="black" />
<line x1="-173.46363383501847" y1="-4860.430808528836" x2="-173.4636338350185" y2="-4960.430808528836" stroke-width="4" stroke="black" />
<line x1="-173.46363383501847" y1="-4860.430808528836" x2="-216.82954229377287" y2="-4950.538510661045" stroke-width="4" stroke="black" />
<line x1="-216.82954229377287" y1="-4950.538510661045" x2="-294.98158953565473" y2="-5012.926470331983" stroke-width="4" stroke="black" />
<line x1="-216.82954229377287" y1="-4950.538510661045" x2="-260.1954507525273" y2="-5040.646212793254" stroke-width="4" stroke="black" />
<line x1="-260.1954507525273" y1="-5040.646212793254" x2="-338.34749799440914" y2="-5103.034172464192" stroke-width="4" stroke="black" />
<line x1="-338.34749799440914" y1="-5103.034172464192" x2="-381.71340645316354" y2="-5193.141874596401" stroke-width="4" stroke="black" />
<line x1="-338.34749799440914" y1="-5103.034172464192" x2="-416.499545236291" y2="-5165.422132135131" stroke-width="4" stroke="black" />
<line x1="-416.499545236291" y1="-5165.422132135131" x2="-513.9756646554132" y2="-5187.747143736226" stroke-width="4" stroke="black" />
<line x1="-416.499545236291" y1="-5165.422132135131" x2="-494.65159247817286" y2="-5227.810091806069" stroke-width="4" stroke="black" />
<line x1="-260.1954507525273" y1="-5040.646212793254" x2="-303.5613592112817" y2="-5130.753914925463" stroke-width="4" stroke="black" />
<line x1="-303.5613592112817" y1="-5130.753914925463" x2="-303.5613592112817" y2="-5230.753914925463" stroke-width="4" stroke="black" />
<line x1="-303.5613592112817" y1="-5130.753914925463" x2="-346.9272676700361" y2="-5220.8616170576715" stroke-width="4" stroke="black" />
<line x1="-346.9272676700361" y1="-5220.8616170576715" x2="-425.07931491191795" y2="-5283.24957672861" stroke-width="4" stroke="black" />
<line x1="-346.9272676700361" y1="-5220.8616170576715" x2="-390.2931761287905" y2="-5310.9693191898805" stroke-width="4" stroke="black" />
<line x1="-8.266365894244642E-13" y1="-4500.0" x2="-8.450062914116745E-13" y2="-4600.0" stroke-width="4" stroke="black" />
<line x1="-8.450062914116745E-13" y1="-4600.0" x2="43.36590845875354" y2="-4690.107702132209" stroke-width="4" stroke="black" />
<line x1="-8.450062914116745E-13" y1="-4600.0" x2="-8.633759933988849E-13" y2="-4700.0" stroke-width="4" stroke="black" />
<line x1="-8.633759933988849E-13" y1="-4700.0" x2="-43.365908458755285" y2="-4790.107702132209" stroke-width="4" stroke="black" />
<line x1="-8.633759933988849E-13" y1="-4700.0" x2="-8.817456953860952E-13" y2="-4800.0" stroke-width="4" stroke="black" />
<line x1="-8.817456953860952E-13" y1="-4800.0" x2="43.3659084587535" y2="-4890.107702132209" stroke-width="4" stroke="black" />
<line x1="43.3659084587535" y1="-4890.107702132209" x2="121.51795570063538" y2="-4952.495661803147" stroke-width="4" stroke="black" />
<line x1="43.3659084587535" y1="-4890.107702132209" x2="86.73181691750789" y2="-4980.215404264418" stroke-width="4" stroke="black" />
<line x1="86.73181691750789" y1="-4980.215404264418" x2="86.73181691750787" y2="-5080.215404264418" stroke-width="4" stroke="black" />
<line x1="86.73181691750789" y1="-4980.215404264418" x2="130.09772537626228" y2="-5070.323106396627" stroke-width="4" stroke="black" />
<line x1="-8.817456953860952E-13" y1="-4800.0" x2="-9.001153973733055E-13" y2="-4900.0" stroke-width="4" stroke="black" />
<line x1="-9.001153973733055E-13" y1="-4900.0" x2="43.36590845875348" y2="-4990.107702132209" stroke-width="4" stroke="black" />
<line x1="-9.001153973733055E-13" y1="-4900.0" x2="-9.184850993605157E-13" y2="-5000.0" stroke-width="4" stroke="black" />
<line x1="-9.184850993605157E-13" y1="-5000.0" x2="-43.365908458755335" y2="-5090.107702132209" stroke-width="4" stroke="black" />
<line x1="-9.184850993605157E-13" y1="-5000.0" x2="-9.36854801347726E-13" y2="-5100.0" stroke-width="4" stroke="black" />
<line x1="-9.36854801347726E-13" y1="-5100.0" x2="-43.36590845875536" y2="-5190.107702132209" stroke-width="4" stroke="black" />
<line x1="-43.36590845875536" y1="-5190.107702132209" x2="-43.36590845875538" y2="-5290.107702132209" stroke-width="4" stroke="black" />
<line x1="-43.36590845875536" y1="-5190.107702132209" x2="-86.73181691750978" y2="-5280.215404264418" stroke-width="4" stroke="black" />
<line x1="-86.73181691750978" y1="-5280.215404264418" x2="-164.88386415939163" y2="-5342.603363935356" stroke-width="4" stroke="black" />
<line x1="-86.73181691750978" y1="-5280.215404264418" x2="-130.09772537626418" y2="-5370.323106396627" stroke-width="4" stroke="black" />
<line x1="-9.36854801347726E-13" y1="-5100.0" x2="-9.552245033349362E-13" y2="-5200.0" stroke-width="4" stroke="black" />
<line x1="-9.552245033349362E-13" y1="-5200.0" x2="43.36590845875343" y2="-5290.107702132209" stroke-width="4" stroke="black" />
<line x1="-9.552245033349362E-13" y1="-5200.0" x2="-9.735942053221464E-13" y2="-5300.0" stroke-width="4" stroke="black" />
<line x1="-9.735942053221464E-13" y1="-5300.0" x2="-43.36590845875539" y2="-5390.107702132209" stroke-width="4" stroke="black" />
<line x1="-9.735942053221464E-13" y1="-5300.0" x2="-9.919639073093566E-13" y2="-5400.0" stroke-width="4" stroke="black" />
<line x1="-9.919639073093566E-13" y1="-5400.0" x2="-43.36590845875541" y2="-5490.107702132209" stroke-width="4" stroke="black" />
<line x1="-43.36590845875541" y1="-5490.107702132209" x2="-43.365908458755435" y2="-5590.107702132209" stroke-width="4" stroke="black" />
<line x1="-43.36590845875541" y1="-5490.107702132209" x2="-86.73181691750983" y2="-5580.215404264418" stroke-width="4" stroke="black" />
<line x1="-86.73181691750983" y1="-5580.215404264418" x2="-164.8838641593917" y2="-5642.603363935356" stroke-width="4" stroke="black" />
<line x1="-86.73181691750983" y1="-5580.215404264418" x2="-130.09772537626424" y2="-5670.323106396627" stroke-width="4" stroke="black" />
<line x1="-130.09772537626424" y1="-5670.323106396627" x2="-130.09772537626426" y2="-5770.323106396627" stroke-width="4" stroke="black" />
<line x1="-130.09772537626426" y1="-5770.323106396627" x2="-86.73181691750989" y2="-5860.430808528836" stroke-width="4" stroke="black" />
<line x1="-130.09772537626426" y1="-5770.323106396627" x2="-130.0977253762643" y2="-5870.323106396627" stroke-width="4" stroke="black" />
<line x1="-130.0977253762643" y1="-5870.323106396627" x2="-173.4636338350187" y2="-5960.430808528836" stroke-width="4" stroke="black" />
<line x1="-130.0977253762643" y1="-5870.323106396627" x2="-130.09772537626432" y2="-5970.323106396627" stroke-width="4" stroke="black" />
<line x1="-130.09772537626424" y1="-5670.323106396627" x2="-173.46363383501864" y2="-5760.430808528836" stroke-width="4" stroke="black" />
<line x1="-173.46363383501864" y1="-5760.430808528836" x2="-173.46363383501867" y2="-5860.430808528836" stroke-width="4" stroke="black" />
<line x1="-173.46363383501864" y1="-5760.430808528836" x2="-216.82954229377305" y2="-5850.538510661045" stroke-width="4" stroke="black" />
<line x1="-216.82954229377305" y1="-5850.538510661045" x2="-294.9815895356549" y2="-5912.926470331983" stroke-width="4" stroke="black" />
<line x1="-216.82954229377305" y1="-5850.538510661045" x2="-260.19545075252745" y2="-5940.646212793254" stroke-width="4" stroke="black" />
<line x1="-260.19545075252745" y1="-5940.646212793254" x2="-338.3474979944093" y2="-6003.034172464192" stroke-width="4" stroke="black" />
<line x1="-338.3474979944093" y1="-6003.034172464192" x2="-381.7134064531637" y2="-6093.141874596401" stroke-width="4" stroke="black" />
<line x1="-338.3474979944093" y1="-6003.034172464192" x2="-416.49954523629117" y2="-6065.422132135131" stroke-width="4" stroke="black" />
<line x1="-416.49954523629117" y1="-6065.422132135131" x2="-513.9756646554133" y2="-6087.747143736226" stroke-width="4" stroke="black" />
<line x1="-416.49954523629117" y1="-6065.422132135131" x2="-494.65159247817303" y2="-6127.810091806069" stroke-width="4" stroke="black" />
<line x1="-260.19545075252745" y1="-5940.646212793254" x2="-303.56135921128185" y2="-6030.753914925463" stroke-width="4" stroke="black" />
<line x1="-303.56135921128185" y1="-6030.753914925463" x2="-303.56135921128185" y2="-6130.753914925463" stroke-width="4" stroke="black" />
<line x1="-303.56135921128185" y1="-6030.753914925463" x2="-346.92726767003626" y2="-6120.8616170576715" stroke-width="4" stroke="black" />
<line x1="-346.92726767003626" y1="-6120.8616170576715" x2="-425.0793149119181" y2="-6183.24957672861" stroke-width="4" stroke="black" />
<line x1="-346.92726767003626" y1="-6120.8616170576715" x2="-390.29317612879066" y2="-6210.9693191898805" stroke-width="4" stroke="black" />
<line x1="-390.29317612879066" y1="-6210.9693191898805" x2="-390.29317612879066" y2="-6310.9693191898805" stroke-width="4" stroke="black" />
<line x1="-390.29317612879066" y1="-6310.9693191898805" x2="-346.92726767003626" y2="-6401.077021322089" stroke-width="4" stroke="black" />
<line x1="-390.29317612879066" y1="-6310.9693191898805" x2="-390.29317612879066" y2="-6410.9693191898805" stroke-width="4" stroke="black" />
<line x1="-390.29317612879066" y1="-6410.9693191898805" x2="-433.65908458754507" y2="-6501.077021322089" stroke-width="4" stroke="black" />
<line x1="-390.29317612879066" y1="-6410.9693191898805" x2="-390.29317612879066" y2="-6510.9693191898805" stroke-width="4" stroke="black" />
<line x1="-390.29317612879066" y1="-6510.9693191898805" x2="-346.92726767003626" y2="-6601.077021322089" stroke-width="4" stroke="black" />
<line x1="-346.92726767003626" y1="-6601.077021322089" x2="-268.7752204281544" y2="-6663.464980993028" stroke-width="4" stroke="black" />
<line x1="-346.92726767003626" y1="-6601.077021322089" x2="-303.56135921128185" y2="-6691.184723454298" stroke-width="4" stroke="black" />
<line x1="-303.56135921128185" y1="-6691.184723454298" x2="-303.56135921128185" y2="-6791.184723454298" stroke-width="4" stroke="black" />
<line x1="-303.56135921128185" y1="-6691.184723454298" x2="-260.19545075252745" y2="-6781.292425586507" stroke-width="4" stroke="black" />
<line x1="-390.29317612879066" y1="-6510.9693191898805" x2="-390.29317612879066" y2="-6610.9693191898805" stroke-width="4" stroke="black" />
<line x1="-390.29317612879066" y1="-6610.9693191898805" x2="-346.92726767003626" y2="-6701.077021322089" stroke-width="4" stroke="black" />
<line x1="-390.29317612879066" y1="-6610.9693191898805" x2="-390.29317612879066" y2="-6710.9693191898805" stroke-width="4" stroke="black" />
<line x1="-390.29317612879066" y1="-6710.9693191898805" x2="-433.65908458754507" y2="-6801.077021322089" stroke-width="4" stroke="black" />
<line x1="-390.29317612879066" y1="-6710.9693191898805" x2="-390.29317612879066" y2="-6810.9693191898805" stroke-width="4" stroke="black" />
<line x1="-390.29317612879066" y1="-6810.9693191898805" x2="-433.65908458754507" y2="-6901.077021322089" stroke-width="4" stroke="black" />
<line x1="-433.65908458754507" y1="-6901.077021322089" x2="-433.65908458754507" y2="-7001.077021322089" stroke-width="4" stroke="black" />
<line x1="-433.65908458754507" y1="-6901.077021322089" x2="-477.02499304629947" y2="-6991.184723454298" stroke-width="4" stroke="black" />
<line x1="-477.02499304629947" y1="-6991.184723454298" x2="-555.1770402881814" y2="-7053.572683125237" stroke-width="4" stroke="black" />
<line x1="-477.02499304629947" y1="-6991.184723454298" x2="-520.3909015050539" y2="-7081.292425586507" stroke-width="4" stroke="black" />
<line x1="-390.29317612879066" y1="-6810.9693191898805" x2="-390.29317612879066" y2="-6910.9693191898805" stroke-width="4" stroke="black" />
<line x1="-390.29317612879066" y1="-6910.9693191898805" x2="-346.92726767003626" y2="-7001.077021322089" stroke-width="4" stroke="black" />
<line x1="-390.29317612879066" y1="-6910.9693191898805" x2="-390.29317612879066" y2="-7010.9693191898805" stroke-width="4" stroke="black" />
<line x1="-390.29317612879066" y1="-7010.9693191898805" x2="-433.65908458754507" y2="-7101.077021322089" stroke-width="4" stroke="black" />
<line x1="-390.29317612879066" y1="-7010.9693191898805" x2="-390.29317612879066" y2="-7110.9693191898805" stroke-width="4" stroke="black" />
<line x1="-390.29317612879066" y1="-6210.9693191898805" x2="-433.65908458754507" y2="-6301.077021322089" stroke-width="4" stroke="black" />
<line x1="-433.65908458754507" y1="-6301.077021322089" x2="-433.65908458754507" y2="-6401.077021322089" stroke-width="4" stroke="black" />
<line x1="-433.65908458754507" y1="-6301.077021322089" x2="-477.02499304629947" y2="-6391.184723454298" stroke-width="4" stroke="black" />
<line x1="-477.02499304629947" y1="-6391.184723454298" x2="-555.1770402881814" y2="-6453.572683125237" stroke-width="4" stroke="black" />
<line x1="-477.02499304629947" y1="-6391.184723454298" x2="-520.3909015050539" y2="-6481.292425586507" stroke-width="4" stroke="black" />
<line x1="-520.3909015050539" y1="-6481.292425586507" x2="-520.3909015050539" y2="-6581.292425586507" stroke-width="4" stroke="black" />
<line x1="-520.3909015050539" y1="-6581.292425586507" x2="-477.02499304629947" y2="-6671.400127718716" stroke-width="4" stroke="black" />
<line x1="-520.3909015050539" y1="-6581.292425586507" x2="-520.3909015050539" y2="-6681.292425586507" stroke-width="4" stroke="black" />
<line x1="-520.3909015050539" y1="-6681.292425586507" x2="-563.7568099638083" y2="-6771.400127718716" stroke-width="4" stroke="black" />
<line x1="-520.3909015050539" y1="-6681.292425586507" x2="-520.3909015050539" y2="-6781.292425586507" stroke-width="4" stroke="black" />
<line x1="-520.3909015050539" y1="-6481.292425586507" x2="-563.7568099638083" y2="-6571.400127718716" stroke-width="4" stroke="black" />
<line x1="-563.7568099638083" y1="-6571.400127718716" x2="-563.7568099638083" y2="-6671.400127718716" stroke-width="4" stroke="black" />
<line x1="-563.7568099638083" y1="-6571.400127718716" x2="-607.1227184225628" y2="-6661.507829850925" stroke-width="4" stroke="black" />
<line x1="-607.1227184225628" y1="-6661.507829850925" x2="-685.2747656644447" y2="-6723.895789521864" stroke-width="4" stroke="black" />
<line x1="-607.1227184225628" y1="-6661.507829850925" x2="-650.4886268813173" y2="-6751.615531983134" stroke-width="4" stroke="black" />
<line x1="-650.4886268813173" y1="-6751.615531983134" x2="-728.6406741231991" y2="-6814.003491654073" stroke-width="4" stroke="black" />
<line x1="-728.6406741231991" y1="-6814.003491654073" x2="-772.0065825819536" y2="-6904.111193786282" stroke-width="4" stroke="black" />
<line x1="-728.6406741231991" y1="-6814.003491654073" x2="-806.792721365081" y2="-6876.391451325011" stroke-width="4" stroke="black" />
<line x1="-806.792721365081" y1="-6876.391451325011" x2="-904.2688407842031" y2="-6898.716462926106" stroke-width="4" stroke="black" />
<line x1="-806.792721365081" y1="-6876.391451325011" x2="-884.9447686069628" y2="-6938.77941099595" stroke-width="4" stroke="black" />
<line x1="-650.4886268813173" y1="-6751.615531983134" x2="-693.8545353400717" y2="-6841.723234115343" stroke-width="4" stroke="black" />
<line x1="-693.8545353400717" y1="-6841.723234115343" x2="-693.8545353400717" y2="-6941.723234115343" stroke-width="4" stroke="black" />
<line x1="-693.8545353400717" y1="-6841.723234115343" x2="-737.2204437988262" y2="-6931.830936247552" stroke-width="4" stroke="black" />
<line x1="-737.2204437988262" y1="-6931.830936247552" x2="-815.372491040708" y2="-6994.2188959184905" stroke-width="4" stroke="black" />
<line x1="-737.2204437988262" y1="-6931.830936247552" x2="-780.5863522575806" y2="-7021.938638379761" stroke-width="4" stroke="black" />
<line x1="-780.5863522575806" y1="-7021.938638379761" x2="-858.7383994994625" y2="-7084.326598050699" stroke-width="4" stroke="black" />
<line x1="-858.7383994994625" y1="-7084.326598050699" x2="-902.104307958217" y2="-7174.434300182908" stroke-width="4" stroke="black" />
<line x1="-858.7383994994625" y1="-7084.326598050699" x2="-936.8904467413444" y2="-7146.714557721638" stroke-width="4" stroke="black" />
<line x1="-936.8904467413444" y1="-7146.714557721638" x2="-1034.3665661604666" y2="-7169.039569322733" stroke-width="4" stroke="black" />
<line x1="-936.8904467413444" y1="-7146.714557721638" x2="-1015.0424939832262" y2="-7209.102517392576" stroke-width="4" stroke="black" />
<line x1="-1015.0424939832262" y1="-7209.102517392576" x2="-1058.4084024419806" y2="-7299.210219524785" stroke-width="4" stroke="black" />
<line x1="-1058.4084024419806" y1="-7299.210219524785" x2="-1058.4084024419806" y2="-7399.210219524785" stroke-width="4" stroke="black" />
<line x1="-1058.4084024419806" y1="-7299.210219524785" x2="-1101.774310900735" y2="-7389.317921656994" stroke-width="4" stroke="black" />
<line x1="-1101.774310900735" y1="-7389.317921656994" x2="-1179.926358142617" y2="-7451.705881327933" stroke-width="4" stroke="black" />
<line x1="-1101.774310900735" y1="-7389.317921656994" x2="-1145.1402193594893" y2="-7479.425623789203" stroke-width="4" stroke="black" />
<line x1="-1015.0424939832262" y1="-7209.102517392576" x2="-1093.1945412251082" y2="-7271.490477063515" stroke-width="4" stroke="black" />
<line x1="-1093.1945412251082" y1="-7271.490477063515" x2="-1136.5604496838625" y2="-7361.598179195724" stroke-width="4" stroke="black" />
<line x1="-1093.1945412251082" y1="-7271.490477063515" x2="-1171.3465884669902" y2="-7333.878436734453" stroke-width="4" stroke="black" />
<line x1="-1171.3465884669902" y1="-7333.878436734453" x2="-1268.8227078861123" y2="-7356.203448335548" stroke-width="4" stroke="black" />
<line x1="-1171.3465884669902" y1="-7333.878436734453" x2="-1249.4986357088721" y2="-7396.266396405392" stroke-width="4" stroke="black" />
<line x1="-1249.4986357088721" y1="-7396.266396405392" x2="-1346.9747551279943" y2="-7418.591408006487" stroke-width="4" stroke="black" />
<line x1="-1346.9747551279943" y1="-7418.591408006487" x2="-1425.1268023698763" y2="-7480.979367677425" stroke-width="4" stroke="black" />
<line x1="-1346.9747551279943" y1="-7418.591408006487" x2="-1444.4508745471164" y2="-7440.916419607582" stroke-width="4" stroke="black" />
<line x1="-1444.4508745471164" y1="-7440.916419607582" x2="-1541.9658099776727" y2="-7418.761569845635" stroke-width="4" stroke="black" />
<line x1="-1444.4508745471164" y1="-7440.916419607582" x2="-1541.9269939662386" y2="-7463.241431208677" stroke-width="4" stroke="black" />
<line x1="-1249.4986357088721" y1="-7396.266396405392" x2="-1327.6506829507541" y2="-7458.65435607633" stroke-width="4" stroke="black" />
<line x1="-1327.6506829507541" y1="-7458.65435607633" x2="-1371.0165914095085" y2="-7548.762058208539" stroke-width="4" stroke="black" />
<line x1="-1327.6506829507541" y1="-7458.65435607633" x2="-1405.802730192636" y2="-7521.042315747269" stroke-width="4" stroke="black" />
<line x1="-1405.802730192636" y1="-7521.042315747269" x2="-1503.2788496117582" y2="-7543.367327348364" stroke-width="4" stroke="black" />
<line x1="-1405.802730192636" y1="-7521.042315747269" x2="-1483.954777434518" y2="-7583.430275418207" stroke-width="4" stroke="black" />
<line x1="-780.5863522575806" y1="-7021.938638379761" x2="-823.9522607163351" y2="-7112.04634051197" stroke-width="4" stroke="black" />
<line x1="-823.9522607163351" y1="-7112.04634051197" x2="-823.9522607163351" y2="-7212.04634051197" stroke-width="4" stroke="black" />
<line x1="-823.9522607163351" y1="-7112.04634051197" x2="-867.3181691750896" y2="-7202.154042644179" stroke-width="4" stroke="black" />
<line x1="-867.3181691750896" y1="-7202.154042644179" x2="-945.4702164169714" y2="-7264.542002315117" stroke-width="4" stroke="black" />
<line x1="-867.3181691750896" y1="-7202.154042644179" x2="-910.684077633844" y2="-7292.261744776388" stroke-width="4" stroke="black" />
<line x1="-910.684077633844" y1="-7292.261744776388" x2="-910.684077633844" y2="-7392.261744776388" stroke-width="4" stroke="black" />
<line x1="-910.684077633844" y1="-7392.261744776388" x2="-867.3181691750897" y2="-7482.369446908597" stroke-width="4" stroke="black" />
<line x1="-910.684077633844" y1="-7392.261744776388" x2="-910.684077633844" y2="-7492.261744776388" stroke-width="4" stroke="black" />
<line x1="-910.684077633844" y1="-7492.261744776388" x2="-954.0499860925985" y2="-7582.369446908597" stroke-width="4" stroke="black" />
<line x1="-910.684077633844" y1="-7492.261744776388" x2="-910.684077633844" y2="-7592.261744776388" stroke-width="4" stroke="black" />
<line x1="-910.684077633844" y1="-7292.261744776388" x2="-954.0499860925985" y2="-7382.369446908597" stroke-width="4" stroke="black" />
<line x1="-954.0499860925985" y1="-7382.369446908597" x2="-954.0499860925985" y2="-7482.369446908597" stroke-width="4" stroke="black" />
<line x1="-954.0499860925985" y1="-7382.369446908597" x2="-997.415894551353" y2="-7472.477149040806" stroke-width="4" stroke="black" />
<line x1="-997.415894551353" y1="-7472.477149040806" x2="-1075.567941793235" y2="-7534.865108711744" stroke-width="4" stroke="black" />
<line x1="-997.415894551353" y1="-7472.477149040806" x2="-1040.7818030101073" y2="-7562.584851173015" stroke-width="4" stroke="black" />
<line x1="-1040.7818030101073" y1="-7562.584851173015" x2="-1118.9338502519893" y2="-7624.972810843953" stroke-width="4" stroke="black" />
<line x1="-1118.9338502519893" y1="-7624.972810843953" x2="-1162.2997587107436" y2="-7715.080512976162" stroke-width="4" stroke="black" />
<line x1="-1118.9338502519893" y1="-7624.972810843953" x2="-1197.0858974938712" y2="-7687.360770514892" stroke-width="4" stroke="black" />
<line x1="-1197.0858974938712" y1="-7687.360770514892" x2="-1294.5620169129934" y2="-7709.6857821159865" stroke-width="4" stroke="black" />
<line x1="-1197.0858974938712" y1="-7687.360770514892" x2="-1275.2379447357532" y2="-7749.74873018583" stroke-width="4" stroke="black" />
<line x1="-1040.7818030101073" y1="-7562.584851173015" x2="-1084.1477114688616" y2="-7652.692553305224" stroke-width="4" stroke="black" />
<line x1="-1084.1477114688616" y1="-7652.692553305224" x2="-1084.1477114688616" y2="-7752.692553305224" stroke-width="4" stroke="black" />
<line x1="-1084.1477114688616" y1="-7652.692553305224" x2="-1127.513619927616" y2="-7742.8002554374325" stroke-width="4" stroke="black" />
<line x1="-1127.513619927616" y1="-7742.8002554374325" x2="-1205.665667169498" y2="-7805.188215108371" stroke-width="4" stroke="black" />
<line x1="-1127.513619927616" y1="-7742.8002554374325" x2="-1170.8795283863703" y2="-7832.907957569641" stroke-width="4" stroke="black" />
<line x1="-9.919639073093566E-13" y1="-5400.0" x2="-1.0103336092965668E-12" y2="-5500.0" stroke-width="4" stroke="black" />
<line x1="-1.0103336092965668E-12" y1="-5500.0" x2="43.365908458753374" y2="-5590.107702132209" stroke-width="4" stroke="black" />
<line x1="-1.0103336092965668E-12" y1="-5500.0" x2="-1.028703311283777E-12" y2="-5600.0" stroke-width="4" stroke="black" />
<line x1="-1.028703311283777E-12" y1="-5600.0" x2="-43.36590845875545" y2="-5690.107702132209" stroke-width="4" stroke="black" />
<line x1="-1.028703311283777E-12" y1="-5600.0" x2="-1.0470730132709873E-12" y2="-5700.0" stroke-width="4" stroke="black" />
<line x1="-1.0470730132709873E-12" y1="-5700.0" x2="43.36590845875334" y2="-5790.107702132209" stroke-width="4" stroke="black" />
<line x1="43.36590845875334" y1="-5790.107702132209" x2="121.51795570063521" y2="-5852.495661803147" stroke-width="4" stroke="black" />
<line x1="43.36590845875334" y1="-5790.107702132209" x2="86.73181691750773" y2="-5880.215404264418" stroke-width="4" stroke="black" />
<line x1="86.73181691750773" y1="-5880.215404264418" x2="86.73181691750771" y2="-5980.215404264418" stroke-width="4" stroke="black" />
<line x1="86.73181691750773" y1="-5880.215404264418" x2="130.0977253762621" y2="-5970.323106396627" stroke-width="4" stroke="black" />
<line x1="-1.0470730132709873E-12" y1="-5700.0" x2="-1.0654427152581975E-12" y2="-5800.0" stroke-width="4" stroke="black" />
<line x1="-1.0654427152581975E-12" y1="-5800.0" x2="43.36590845875332" y2="-5890.107702132209" stroke-width="4" stroke="black" />
<line x1="-1.0654427152581975E-12" y1="-5800.0" x2="-1.0838124172454077E-12" y2="-5900.0" stroke-width="4" stroke="black" />
<line x1="-1.0838124172454077E-12" y1="-5900.0" x2="-43.365908458755506" y2="-5990.107702132209" stroke-width="4" stroke="black" />
<line x1="-1.0838124172454077E-12" y1="-5900.0" x2="-1.102182119232618E-12" y2="-6000.0" stroke-width="4" stroke="black" />
<line x1="-1.102182119232618E-12" y1="-6000.0" x2="-43.36590845875552" y2="-6090.107702132209" stroke-width="4" stroke="black" />
<line x1="-43.36590845875552" y1="-6090.107702132209" x2="-43.36590845875554" y2="-6190.107702132209" stroke-width="4" stroke="black" />
<line x1="-43.36590845875552" y1="-6090.107702132209" x2="-86.73181691750995" y2="-6180.215404264418" stroke-width="4" stroke="black" />
<line x1="-86.73181691750995" y1="-6180.215404264418" x2="-164.8838641593918" y2="-6242.603363935356" stroke-width="4" stroke="black" />
<line x1="-86.73181691750995" y1="-6180.215404264418" x2="-130.09772537626435" y2="-6270.323106396627" stroke-width="4" stroke="black" />
<line x1="-1.102182119232618E-12" y1="-6000.0" x2="-1.1205518212198282E-12" y2="-6100.0" stroke-width="4" stroke="black" />
<line x1="-1.1205518212198282E-12" y1="-6100.0" x2="43.36590845875326" y2="-6190.107702132209" stroke-width="4" stroke="black" />
<line x1="-1.1205518212198282E-12" y1="-6100.0" x2="-1.1389215232070384E-12" y2="-6200.0" stroke-width="4" stroke="black" />
<line x1="-1.1389215232070384E-12" y1="-6200.0" x2="-43.365908458755555" y2="-6290.107702132209" stroke-width="4" stroke="black" />
<line x1="-1.1389215232070384E-12" y1="-6200.0" x2="-1.1572912251942486E-12" y2="-6300.0" stroke-width="4" stroke="black" />
<line x1="-1.1572912251942486E-12" y1="-6300.0" x2="43.365908458753225" y2="-6390.107702132209" stroke-width="4" stroke="black" />
<line x1="43.365908458753225" y1="-6390.107702132209" x2="121.5179557006351" y2="-6452.495661803147" stroke-width="4" stroke="black" />
<line x1="43.365908458753225" y1="-6390.107702132209" x2="86.73181691750762" y2="-6480.215404264418" stroke-width="4" stroke="black" />
<line x1="86.73181691750762" y1="-6480.215404264418" x2="86.7318169175076" y2="-6580.215404264418" stroke-width="4" stroke="black" />
<line x1="86.73181691750762" y1="-6480.215404264418" x2="130.097725376262" y2="-6570.323106396627" stroke-width="4" stroke="black" />
<line x1="130.097725376262" y1="-6570.323106396627" x2="208.24977261814388" y2="-6632.711066067565" stroke-width="4" stroke="black" />
<line x1="208.24977261814388" y1="-6632.711066067565" x2="305.725892037266" y2="-6655.03607766866" stroke-width="4" stroke="black" />
<line x1="208.24977261814388" y1="-6632.711066067565" x2="286.40181986002574" y2="-6695.099025738504" stroke-width="4" stroke="black" />
<line x1="286.40181986002574" y1="-6695.099025738504" x2="329.76772831878014" y2="-6785.206727870713" stroke-width="4" stroke="black" />
<line x1="286.40181986002574" y1="-6695.099025738504" x2="364.5538671019076" y2="-6757.486985409442" stroke-width="4" stroke="black" />
<line x1="130.097725376262" y1="-6570.323106396627" x2="173.46363383501637" y2="-6660.430808528836" stroke-width="4" stroke="black" />
<line x1="173.46363383501637" y1="-6660.430808528836" x2="251.61568107689823" y2="-6722.818768199774" stroke-width="4" stroke="black" />
<line x1="173.46363383501637" y1="-6660.430808528836" x2="216.82954229377074" y2="-6750.538510661045" stroke-width="4" stroke="black" />
<line x1="216.82954229377074" y1="-6750.538510661045" x2="216.82954229377071" y2="-6850.538510661045" stroke-width="4" stroke="black" />
<line x1="216.82954229377074" y1="-6750.538510661045" x2="260.1954507525251" y2="-6840.646212793254" stroke-width="4" stroke="black" />
<line x1="260.1954507525251" y1="-6840.646212793254" x2="260.1954507525251" y2="-6940.646212793254" stroke-width="4" stroke="black" />
<line x1="260.1954507525251" y1="-6940.646212793254" x2="303.5613592112795" y2="-7030.753914925463" stroke-width="4" stroke="black" />
<line x1="260.1954507525251" y1="-6940.646212793254" x2="260.1954507525251" y2="-7040.646212793254" stroke-width="4" stroke="black" />
<line x1="260.1954507525251" y1="-7040.646212793254" x2="216.82954229377071" y2="-7130.753914925463" stroke-width="4" stroke="black" />
<line x1="260.1954507525251" y1="-7040.646212793254" x2="260.1954507525251" y2="-7140.646212793254" stroke-width="4" stroke="black" />
<line x1="260.1954507525251" y1="-6840.646212793254" x2="303.5613592112795" y2="-6930.753914925463" stroke-width="4" stroke="black" />
<line x1="303.5613592112795" y1="-6930.753914925463" x2="381.7134064531614" y2="-6993.141874596401" stroke-width="4" stroke="black" />
<line x1="303.5613592112795" y1="-6930.753914925463" x2="346.9272676700339" y2="-7020.8616170576715" stroke-width="4" stroke="black" />
<line x1="346.9272676700339" y1="-7020.8616170576715" x2="346.9272676700339" y2="-7120.8616170576715" stroke-width="4" stroke="black" />
<line x1="346.9272676700339" y1="-7020.8616170576715" x2="390.29317612878833" y2="-7110.9693191898805" stroke-width="4" stroke="black" />
<line x1="-1.1572912251942486E-12" y1="-6300.0" x2="-1.1756609271814588E-12" y2="-6400.0" stroke-width="4" stroke="black" />
<line x1="-1.1756609271814588E-12" y1="-6400.0" x2="43.36590845875321" y2="-6490.107702132209" stroke-width="4" stroke="black" />
<line x1="-1.1756609271814588E-12" y1="-6400.0" x2="-1.194030629168669E-12" y2="-6500.0" stroke-width="4" stroke="black" />
<line x1="-1.194030629168669E-12" y1="-6500.0" x2="-43.36590845875561" y2="-6590.107702132209" stroke-width="4" stroke="black" />
<line x1="-1.194030629168669E-12" y1="-6500.0" x2="-1.2124003311558793E-12" y2="-6600.0" stroke-width="4" stroke="black" />
<line x1="-1.2124003311558793E-12" y1="-6600.0" x2="43.36590845875317" y2="-6690.107702132209" stroke-width="4" stroke="black" />
<line x1="43.36590845875317" y1="-6690.107702132209" x2="121.51795570063504" y2="-6752.495661803147" stroke-width="4" stroke="black" />
<line x1="43.36590845875317" y1="-6690.107702132209" x2="86.73181691750756" y2="-6780.215404264418" stroke-width="4" stroke="black" />
<line x1="86.73181691750756" y1="-6780.215404264418" x2="86.73181691750754" y2="-6880.215404264418" stroke-width="4" stroke="black" />
<line x1="86.73181691750756" y1="-6780.215404264418" x2="130.09772537626193" y2="-6870.323106396627" stroke-width="4" stroke="black" />
<line x1="-1.2124003311558793E-12" y1="-6600.0" x2="-1.2307700331430895E-12" y2="-6700.0" stroke-width="4" stroke="black" />
<line x1="-1.2307700331430895E-12" y1="-6700.0" x2="43.365908458753154" y2="-6790.107702132209" stroke-width="4" stroke="black" />
<line x1="-1.2307700331430895E-12" y1="-6700.0" x2="-1.2491397351302997E-12" y2="-6800.0" stroke-width="4" stroke="black" />
<line x1="-1.2491397351302997E-12" y1="-6800.0" x2="-43.36590845875567" y2="-6890.107702132209" stroke-width="4" stroke="black" />
<line x1="-1.2491397351302997E-12" y1="-6800.0" x2="-1.26750943711751E-12" y2="-6900.0" stroke-width="4" stroke="black" />
<line x1="-1.26750943711751E-12" y1="-6900.0" x2="-43.36590845875568" y2="-6990.107702132209" stroke-width="4" stroke="black" />
<line x1="-43.36590845875568" y1="-6990.107702132209" x2="-43.365908458755705" y2="-7090.107702132209" stroke-width="4" stroke="black" />
<line x1="-43.36590845875568" y1="-6990.107702132209" x2="-86.7318169175101" y2="-7080.215404264418" stroke-width="4" stroke="black" />
<line x1="-86.7318169175101" y1="-7080.215404264418" x2="-164.88386415939198" y2="-7142.603363935356" stroke-width="4" stroke="black" />
<line x1="-86.7318169175101" y1="-7080.215404264418" x2="-130.09772537626452" y2="-7170.323106396627" stroke-width="4" stroke="black" />
<line x1="-1.26750943711751E-12" y1="-6900.0" x2="-1.2858791391047202E-12" y2="-7000.0" stroke-width="4" stroke="black" />
<line x1="-1.2858791391047202E-12" y1="-7000.0" x2="43.3659084587531" y2="-7090.107702132209" stroke-width="4" stroke="black" />
<line x1="-1.2858791391047202E-12" y1="-7000.0" x2="-1.3042488410919304E-12" y2="-7100.0" stroke-width="4" stroke="black" />
<line x1="-1.3042488410919304E-12" y1="-7100.0" x2="-43.365908458755726" y2="-7190.107702132209" stroke-width="4" stroke="black" />
<line x1="-1.3042488410919304E-12" y1="-7100.0" x2="-1.3226185430791406E-12" y2="-7200.0" stroke-width="4" stroke="black" />
<line x1="-1.3226185430791406E-12" y1="-7200.0" x2="-43.36590845875574" y2="-7290.107702132209" stroke-width="4" stroke="black" />
<line x1="-43.36590845875574" y1="-7290.107702132209" x2="-43.36590845875576" y2="-7390.107702132209" stroke-width="4" stroke="black" />
<line x1="-43.36590845875574" y1="-7290.107702132209" x2="-86.73181691751016" y2="-7380.215404264418" stroke-width="4" stroke="black" />
<line x1="-86.73181691751016" y1="-7380.215404264418" x2="-164.88386415939203" y2="-7442.603363935356" stroke-width="4" stroke="black" />
<line x1="-86.73181691751016" y1="-7380.215404264418" x2="-130.09772537626458" y2="-7470.323106396627" stroke-width="4" stroke="black" />
<line x1="-130.09772537626458" y1="-7470.323106396627" x2="-130.0977253762646" y2="-7570.323106396627" stroke-width="4" stroke="black" />
<line x1="-130.0977253762646" y1="-7570.323106396627" x2="-86.73181691751023" y2="-7660.430808528836" stroke-width="4" stroke="black" />
<line x1="-130.0977253762646" y1="-7570.323106396627" x2="-130.09772537626463" y2="-7670.323106396627" stroke-width="4" stroke="black" />
<line x1="-130.09772537626463" y1="-7670.323106396627" x2="-173.46363383501904" y2="-7760.430808528836" stroke-width="4" stroke="black" />
<line x1="-130.09772537626463" y1="-7670.323106396627" x2="-130.09772537626466" y2="-7770.323106396627" stroke-width="4" stroke="black" />
<line x1="-130.09772537626458" y1="-7470.323106396627" x2="-173.46363383501898" y2="-7560.430808528836" stroke-width="4" stroke="black" />
<line x1="-173.46363383501898" y1="-7560.430808528836" x2="-173.463633835019" y2="-7660.430808528836" stroke-width="4" stroke="black" />
<line x1="-173.46363383501898" y1="-7560.430808528836" x2="-216.8295422937734" y2="-7650.538510661045" stroke-width="4" stroke="black" />
<line x1="-216.8295422937734" y1="-7650.538510661045" x2="-294.98158953565525" y2="-7712.926470331983" stroke-width="4" stroke="black" />
<line x1="-216.8295422937734" y1="-7650.538510661045" x2="-260.1954507525278" y2="-7740.646212793254" stroke-width="4" stroke="black" />
<line x1="-260.1954507525278" y1="-7740.646212793254" x2="-338.34749799440965" y2="-7803.034172464192" stroke-width="4" stroke="black" />
<line x1="-338.34749799440965" y1="-7803.034172464192" x2="-381.71340645316405" y2="-7893.141874596401" stroke-width="4" stroke="black" />
<line x1="-338.34749799440965" y1="-7803.034172464192" x2="-416.4995452362915" y2="-7865.422132135131" stroke-width="4" stroke="black" />
<line x1="-416.4995452362915" y1="-7865.422132135131" x2="-513.9756646554137" y2="-7887.747143736226" stroke-width="4" stroke="black" />
<line x1="-416.4995452362915" y1="-7865.422132135131" x2="-494.65159247817337" y2="-7927.810091806069" stroke-width="4" stroke="black" />
<line x1="-260.1954507525278" y1="-7740.646212793254" x2="-303.5613592112822" y2="-7830.753914925463" stroke-width="4" stroke="black" />
<line x1="-303.5613592112822" y1="-7830.753914925463" x2="-303.5613592112822" y2="-7930.753914925463" stroke-width="4" stroke="black" />
<line x1="-303.5613592112822" y1="-7830.753914925463" x2="-346.9272676700366" y2="-7920.8616170576715" stroke-width="4" stroke="black" />
<line x1="-346.9272676700366" y1="-7920.8616170576715" x2="-425.07931491191846" y2="-7983.24957672861" stroke-width="4" stroke="black" />
<line x1="-346.9272676700366" y1="-7920.8616170576715" x2="-390.293176128791" y2="-8010.9693191898805" stroke-width="4" stroke="black" />
<line x1="-1.3226185430791406E-12" y1="-7200.0" x2="-1.3409882450663508E-12" y2="-7300.0" stroke-width="4" stroke="black" />
<line x1="-1.3409882450663508E-12" y1="-7300.0" x2="43.36590845875304" y2="-7390.107702132209" stroke-width="4" stroke="black" />
<line x1="-1.3409882450663508E-12" y1="-7300.0" x2="-1.359357947053561E-12" y2="-7400.0" stroke-width="4" stroke="black" />
<line x1="-1.359357947053561E-12" y1="-7400.0" x2="-43.365908458755776" y2="-7490.107702132209" stroke-width="4" stroke="black" />
<line x1="-1.359357947053561E-12" y1="-7400.0" x2="-1.3777276490407713E-12" y2="-7500.0" stroke-width="4" stroke="black" />
<line x1="-1.3777276490407713E-12" y1="-7500.0" x2="43.365908458753005" y2="-7590.107702132209" stroke-width="4" stroke="black" />
<line x1="43.365908458753005" y1="-7590.107702132209" x2="121.51795570063487" y2="-7652.495661803147" stroke-width="4" stroke="black" />
<line x1="43.365908458753005" y1="-7590.107702132209" x2="86.73181691750739" y2="-7680.215404264418" stroke-width="4" stroke="black" />
<line x1="86.73181691750739" y1="-7680.215404264418" x2="86.73181691750737" y2="-7780.215404264418" stroke-width="4" stroke="black" />
<line x1="86.73181691750739" y1="-7680.215404264418" x2="130.09772537626176" y2="-7770.323106396627" stroke-width="4" stroke="black" />
<line x1="-1.3777276490407713E-12" y1="-7500.0" x2="-1.3960973510279815E-12" y2="-7600.0" stroke-width="4" stroke="black" />
<line x1="-1.3960973510279815E-12" y1="-7600.0" x2="43.36590845875299" y2="-7690.107702132209" stroke-width="4" stroke="black" />
<line x1="-1.3960973510279815E-12" y1="-7600.0" x2="-1.4144670530151917E-12" y2="-7700.0" stroke-width="4" stroke="black" />
<line x1="-1.4144670530151917E-12" y1="-7700.0" x2="-43.36590845875583" y2="-7790.107702132209" stroke-width="4" stroke="black" />
<line x1="-1.4144670530151917E-12" y1="-7700.0" x2="-1.432836755002402E-12" y2="-7800.0" stroke-width="4" stroke="black" />
<line x1="-1.432836755002402E-12" y1="-7800.0" x2="-43.365908458755854" y2="-7890.107702132209" stroke-width="4" stroke="black" />
<line x1="-43.365908458755854" y1="-7890.107702132209" x2="-43.365908458755875" y2="-7990.107702132209" stroke-width="4" stroke="black" />
<line x1="-43.365908458755854" y1="-7890.107702132209" x2="-86.73181691751027" y2="-7980.215404264418" stroke-width="4" stroke="black" />
<line x1="-86.73181691751027" y1="-7980.215404264418" x2="-164.88386415939215" y2="-8042.603363935356" stroke-width="4" stroke="black" />
<line x1="-86.73181691751027" y1="-7980.215404264418" x2="-130.0977253762647" y2="-8070.323106396627" stroke-width="4" stroke="black" />
<line x1="-1.432836755002402E-12" y1="-7800.0" x2="-1.4512064569896122E-12" y2="-7900.0" stroke-width="4" stroke="black" />
<line x1="-1.4512064569896122E-12" y1="-7900.0" x2="43.36590845875293" y2="-7990.107702132209" stroke-width="4" stroke="black" />
<line x1="-1.4512064569896122E-12" y1="-7900.0" x2="-1.4695761589768224E-12" y2="-8000.0" stroke-width="4" stroke="black" />
<line x1="-1.4695761589768224E-12" y1="-8000.0" x2="-43.36590845875589" y2="-8090.107702132209" stroke-width="4" stroke="black" />
<line x1="-1.4695761589768224E-12" y1="-8000.0" x2="-1.4879458609640326E-12" y2="-8100.0" stroke-width="4" stroke="black" />
</svg>