<svg viewBox="-642.375917286309 -3000.0 1284.7518345726176 3000.0" xmlns="http://www.w3.org/2000/svg"><line x1="0" y1="0" x2="-1.8369701987210297E-14" y2="-100.0" stroke-width="4" stroke="black" />
<line x1="-1.8369701987210297E-14" y1="-100.0" x2="-3.6739403974420595E-14" y2="-200.0" stroke-width="4" stroke="black" />
<line x1="-3.6739403974420595E-14" y1="-200.0" x2="-5.510910596163089E-14" y2="-300.0" stroke-width="4" stroke="black" />
<line x1="-5.510910596163089E-14" y1="-300.0" x2="-7.347880794884119E-14" y2="-400.0" stroke-width="4" stroke="black" />
<line x1="-7.347880794884119E-14" y1="-400.0" x2="-9.184850993605149E-14" y2="-500.0" stroke-width="4" stroke="black" />
<line x1="-9.184850993605149E-14" y1="-500.0" x2="-1.1021821192326178E-13" y2="-600.0" stroke-width="4" stroke="black" />
<line x1="-1.1021821192326178E-13" y1="-600.0" x2="-1.2858791391047208E-13" y2="-700.0" stroke-width="4" stroke="black" />
<line x1="-1.2858791391047208E-13" y1="-700.0" x2="-1.4695761589768238E-13" y2="-800.0" stroke-width="4" stroke="black" />
<line x1="-1.4695761589768238E-13" y1="-800.0" x2="43.365908458754234" y2="-890.1077021322092" stroke-width="4" stroke="black" />
<line x1="43.365908458754234" y1="-890.1077021322092" x2="86.73181691750861" y2="-980.2154042644183" stroke-width="4" stroke="black" />
<line x1="86.73181691750861" y1="-980.2154042644183" x2="130.09772537626299" y2="-1070.3231063966275" stroke-width="4" stroke="black" />
<line x1="130.09772537626299" y1="-1070.3231063966275" x2="173.46363383501736" y2="-1160.4308085288367" stroke-width="4" stroke="black" />
<line x1="173.46363383501736" y1="-1160.4308085288367" x2="251.61568107689925" y2="-1222.8187681997754" stroke-width="4" stroke="black" />
<line x1="251.61568107689925" y1="-1222.8187681997754" x2="329.7677283187811" y2="-1285.206727870714" stroke-width="4" stroke="black" />
<line x1="329.7677283187811" y1="-1285.206727870714" x2="427.24384773790325" y2="-1307.5317394718093" stroke-width="4" stroke="black" />
<line x1="427.24384773790325" y1="-1307.5317394718093" x2="524.7199671570254" y2="-1329.8567510729044" stroke-width="4" stroke="black" />
<line x1="329.7677283187811" y1="-1285.206727870714" x2="373.1336367775355" y2="-1375.3144300029232" stroke-width="4" stroke="black" />
<line x1="373.1336367775355" y1="-1375.3144300029232" x2="416.4995452362899" y2="-1465.4221321351324" stroke-width="4" stroke="black" />
<line x1="329.7677283187811" y1="-1285.206727870714" x2="407.91977556066297" y2="-1347.5946875416528" stroke-width="4" stroke="black" />
<line x1="407.91977556066297" y1="-1347.5946875416528" x2="486.07182280254483" y2="-1409.9826472125915" stroke-width="4" stroke="black" />
<line x1="486.07182280254483" y1="-1409.9826472125915" x2="564.2238700444267" y2="-1472.3706068835302" stroke-width="4" stroke="black" />
<line x1="564.2238700444267" y1="-1472.3706068835302" x2="642.3759172863085" y2="-1534.7585665544689" stroke-width="4" stroke="black" />
<line x1="173.46363383501736" y1="-1160.4308085288367" x2="173.46363383501733" y2="-1260.4308085288367" stroke-width="4" stroke="black" />
<line x1="173.46363383501733" y1="-1260.4308085288367" x2="173.4636338350173" y2="-1360.4308085288367" stroke-width="4" stroke="black" />
<line x1="173.4636338350173" y1="-1360.4308085288367" x2="216.82954229377168" y2="-1450.5385106610458" stroke-width="4" stroke="black" />
<line x1="216.82954229377168" y1="-1450.5385106610458" x2="260.1954507525261" y2="-1540.646212793255" stroke-width="4" stroke="black" />
<line x1="173.4636338350173" y1="-1360.4308085288367" x2="130.09772537626287" y2="-1450.5385106610458" stroke-width="4" stroke="black" />
<line x1="130.09772537626287" y1="-1450.5385106610458" x2="86.73181691750845" y2="-1540.646212793255" stroke-width="4" stroke="black" />
<line x1="173.4636338350173" y1="-1360.4308085288367" x2="173.46363383501728" y2="-1460.4308085288367" stroke-width="4" stroke="black" />
<line x1="173.46363383501728" y1="-1460.4308085288367" x2="173.46363383501725" y2="-1560.4308085288367" stroke-width="4" stroke="black" />
<line x1="173.46363383501725" y1="-1560.4308085288367" x2="173.46363383501722" y2="-1660.4308085288367" stroke-width="4" stroke="black" />
<line x1="173.46363383501722" y1="-1660.4308085288367" x2="173.4636338350172" y2="-1760.4308085288367" stroke-width="4" stroke="black" />
<line x1="173.46363383501736" y1="-1160.4308085288367" x2="216.82954229377174" y2="-1250.5385106610458" stroke-width="4" stroke="black" />
<line x1="216.82954229377174" y1="-1250.5385106610458" x2="260.19545075252614" y2="-1340.646212793255" stroke-width="4" stroke="black" />
<line x1="260.19545075252614" y1="-1340.646212793255" x2="303.56135921128055" y2="-1430.7539149254642" stroke-width="4" stroke="black" />
<line x1="303.56135921128055" y1="-1430.7539149254642" x2="346.92726767003495" y2="-1520.8616170576734" stroke-width="4" stroke="black" />
<line x1="346.92726767003495" y1="-1520.8616170576734" x2="390.29317612878936" y2="-1610.9693191898825" stroke-width="4" stroke="black" />
<line x1="390.29317612878936" y1="-1610.9693191898825" x2="433.65908458754376" y2="-1701.0770213220917" stroke-width="4" stroke="black" />
<line x1="433.65908458754376" y1="-1701.0770213220917" x2="511.8111318294256" y2="-1763.4649809930304" stroke-width="4" stroke="black" />
<line x1="511.8111318294256" y1="-1763.4649809930304" x2="589.9631790713075" y2="-1825.852940663969" stroke-width="4" stroke="black" />
<line x1="433.65908458754376" y1="-1701.0770213220917" x2="433.65908458754376" y2="-1801.0770213220917" stroke-width="4" stroke="black" />
<line x1="433.65908458754376" y1="-1801.0770213220917" x2="433.65908458754376" y2="-1901.0770213220917" stroke-width="4" stroke="black" />
<line x1="433.65908458754376" y1="-1701.0770213220917" x2="477.02499304629816" y2="-1791.1847234543009" stroke-width="4" stroke="black" />
<line x1="477.02499304629816" y1="-1791.1847234543009" x2="520.3909015050525" y2="-1881.29242558651" stroke-width="4" stroke="black" />
<line x1="520.3909015050525" y1="-1881.29242558651" x2="563.7568099638069" y2="-1971.4001277187192" stroke-width="4" stroke="black" />
<line x1="563.7568099638069" y1="-1971.4001277187192" x2="607.1227184225612" y2="-2061.5078298509284" stroke-width="4" stroke="black" />
<line x1="-1.4695761589768238E-13" y1="-800.0" x2="-43.36590845875457" y2="-890.1077021322092" stroke-width="4" stroke="black" />
<line x1="-43.36590845875457" y1="-890.1077021322092" x2="-86.73181691750898" y2="-980.2154042644183" stroke-width="4" stroke="black" />
<line x1="-86.73181691750898" y1="-980.2154042644183" x2="-130.09772537626338" y2="-1070.3231063966275" stroke-width="4" stroke="black" />
<line x1="-130.09772537626338" y1="-1070.3231063966275" x2="-173.4636338350178" y2="-1160.4308085288367" stroke-width="4" stroke="black" />
<line x1="-173.4636338350178" y1="-1160.4308085288367" x2="-173.46363383501782" y2="-1260.4308085288367" stroke-width="4" stroke="black" />
<line x1="-173.46363383501782" y1="-1260.4308085288367" x2="-173.46363383501784" y2="-1360.4308085288367" stroke-width="4" stroke="black" />
<line x1="-173.46363383501784" y1="-1360.4308085288367" x2="-130.09772537626347" y2="-1450.5385106610458" stroke-width="4" stroke="black" />
<line x1="-130.09772537626347" y1="-1450.5385106610458" x2="-86.7318169175091" y2="-1540.646212793255" stroke-width="4" stroke="black" />
<line x1="-173.46363383501784" y1="-1360.4308085288367" x2="-216.82954229377225" y2="-1450.5385106610458" stroke-width="4" stroke="black" />
<line x1="-216.82954229377225" y1="-1450.5385106610458" x2="-260.19545075252665" y2="-1540.646212793255" stroke-width="4" stroke="black" />
<line x1="-173.46363383501784" y1="-1360.4308085288367" x2="-173.46363383501787" y2="-1460.4308085288367" stroke-width="4" stroke="black" />
<line x1="-173.46363383501787" y1="-1460.4308085288367" x2="-173.4636338350179" y2="-1560.4308085288367" stroke-width="4" stroke="black" />
<line x1="-173.4636338350179" y1="-1560.4308085288367" x2="-173.46363383501793" y2="-1660.4308085288367" stroke-width="4" stroke="black" />
<line x1="-173.46363383501793" y1="-1660.4308085288367" x2="-173.46363383501796" y2="-1760.4308085288367" stroke-width="4" stroke="black" />
<line x1="-173.4636338350178" y1="-1160.4308085288367" x2="-251.61568107689965" y2="-1222.8187681997754" stroke-width="4" stroke="black" />
<line x1="-251.61568107689965" y1="-1222.8187681997754" x2="-329.7677283187815" y2="-1285.206727870714" stroke-width="4" stroke="black" />
<line x1="-329.7677283187815" y1="-1285.206727870714" x2="-373.1336367775359" y2="-1375.3144300029232" stroke-width="4" stroke="black" />
<line x1="-373.1336367775359" y1="-1375.3144300029232" x2="-416.4995452362903" y2="-1465.4221321351324" stroke-width="4" stroke="black" />
<line x1="-329.7677283187815" y1="-1285.206727870714" x2="-427.2438477379037" y2="-1307.5317394718093" stroke-width="4" stroke="black" />
<line x1="-427.2438477379037" y1="-1307.5317394718093" x2="-524.7199671570258" y2="-1329.8567510729044" stroke-width="4" stroke="black" />
<line x1="-329.7677283187815" y1="-1285.206727870714" x2="-407.91977556066337" y2="-1347.5946875416528" stroke-width="4" stroke="black" />
<line x1="-407.91977556066337" y1="-1347.5946875416528" x2="-486.0718228025452" y2="-1409.9826472125915" stroke-width="4" stroke="black" />
<line x1="-486.0718228025452" y1="-1409.9826472125915" x2="-564.2238700444271" y2="-1472.3706068835302" stroke-width="4" stroke="black" />
<line x1="-564.2238700444271" y1="-1472.3706068835302" x2="-642.375917286309" y2="-1534.7585665544689" stroke-width="4" stroke="black" />
<line x1="-173.4636338350178" y1="-1160.4308085288367" x2="-216.8295422937722" y2="-1250.5385106610458" stroke-width="4" stroke="black" />
<line x1="-216.8295422937722" y1="-1250.5385106610458" x2="-260.1954507525266" y2="-1340.646212793255" stroke-width="4" stroke="black" />
<line x1="-260.1954507525266" y1="-1340.646212793255" x2="-303.561359211281" y2="-1430.7539149254642" stroke-width="4" stroke="black" />
<line x1="-303.561359211281" y1="-1430.7539149254642" x2="-346.9272676700354" y2="-1520.8616170576734" stroke-width="4" stroke="black" />
<line x1="-346.9272676700354" y1="-1520.8616170576734" x2="-390.2931761287898" y2="-1610.9693191898825" stroke-width="4" stroke="black" />
<line x1="-390.2931761287898" y1="-1610.9693191898825" x2="-433.6590845875442" y2="-1701.0770213220917" stroke-width="4" stroke="black" />
<line x1="-433.6590845875442" y1="-1701.0770213220917" x2="-433.6590845875442" y2="-1801.0770213220917" stroke-width="4" stroke="black" />
<line x1="-433.6590845875442" y1="-1801.0770213220917" x2="-433.6590845875442" y2="-1901.0770213220917" stroke-width="4" stroke="black" />
<line x1="-433.6590845875442" y1="-1701.0770213220917" x2="-511.8111318294261" y2="-1763.4649809930304" stroke-width="4" stroke="black" />
<line x1="-511.8111318294261" y1="-1763.4649809930304" x2="-589.963179071308" y2="-1825.852940663969" stroke-width="4" stroke="black" />
<line x1="-433.6590845875442" y1="-1701.0770213220917" x2="-477.0249930462986" y2="-1791.1847234543009" stroke-width="4" stroke="black" />
<line x1="-477.0249930462986" y1="-1791.1847234543009" x2="-520.3909015050531" y2="-1881.29242558651" stroke-width="4" stroke="black" />
<line x1="-520.3909015050531" y1="-1881.29242558651" x2="-563.7568099638075" y2="-1971.4001277187192" stroke-width="4" stroke="black" />
<line x1="-563.7568099638075" y1="-1971.4001277187192" x2="-607.122718422562" y2="-2061.5078298509284" stroke-width="4" stroke="black" />
<line x1="-1.4695761589768238E-13" y1="-800.0" x2="-1.6532731788489268E-13" y2="-900.0" stroke-width="4" stroke="black" />
<line x1="-1.6532731788489268E-13" y1="-900.0" x2="-1.8369701987210297E-13" y2="-1000.0" stroke-width="4" stroke="black" />
<line x1="-1.8369701987210297E-13" y1="-1000.0" x2="-2.0206672185931327E-13" y2="-1100.0" stroke-width="4" stroke="black" />
<line x1="-2.0206672185931327E-13" y1="-1100.0" x2="-2.2043642384652357E-13" y2="-1200.0" stroke-width="4" stroke="black" />
<line x1="-2.2043642384652357E-13" y1="-1200.0" x2="-2.388061258337339E-13" y2="-1300.0" stroke-width="4" stroke="black" />
<line x1="-2.388061258337339E-13" y1="-1300.0" x2="-2.571758278209442E-13" y2="-1400.0" stroke-width="4" stroke="black" />
<line x1="-2.571758278209442E-13" y1="-1400.0" x2="-2.7554552980815454E-13" y2="-1500.0" stroke-width="4" stroke="black" />
<line x1="-2.7554552980815454E-13" y1="-1500.0" x2="-2.9391523179536486E-13" y2="-1600.0" stroke-width="4" stroke="black" />
<line x1="-2.9391523179536486E-13" y1="-1600.0" x2="-3.122849337825752E-13" y2="-1700.0" stroke-width="4" stroke="black" />
<line x1="-3.122849337825752E-13" y1="-1700.0" x2="-3.306546357697855E-13" y2="-1800.0" stroke-width="4" stroke="black" />
<line x1="-3.306546357697855E-13" y1="-1800.0" x2="-3.4902433775699583E-13" y2="-1900.0" stroke-width="4" stroke="black" />
<line x1="-3.4902433775699583E-13" y1="-1900.0" x2="-3.6739403974420615E-13" y2="-2000.0" stroke-width="4" stroke="black" />
<line x1="-3.6739403974420615E-13" y1="-2000.0" x2="43.365908458754014" y2="-2090.1077021322094" stroke-width="4" stroke="black" />
<line x1="43.365908458754014" y1="-2090.1077021322094" x2="86.7318169175084" y2="-2180.215404264419" stroke-width="4" stroke="black" />
<line x1="86.7318169175084" y1="-2180.215404264419" x2="164.88386415939027" y2="-2242.6033639353573" stroke-width="4" stroke="black" />
<line x1="164.88386415939027" y1="-2242.6033639353573" x2="243.03591140127213" y2="-2304.9913236062957" stroke-width="4" stroke="black" />
<line x1="86.7318169175084" y1="-2180.215404264419" x2="86.73181691750838" y2="-2280.215404264419" stroke-width="4" stroke="black" />
<line x1="86.73181691750838" y1="-2280.215404264419" x2="86.73181691750837" y2="-2380.215404264419" stroke-width="4" stroke="black" />
<line x1="86.7318169175084" y1="-2180.215404264419" x2="130.0977253762628" y2="-2270.323106396628" stroke-width="4" stroke="black" />
<line x1="130.0977253762628" y1="-2270.323106396628" x2="173.46363383501716" y2="-2360.4308085288376" stroke-width="4" stroke="black" />
<line x1="173.46363383501716" y1="-2360.4308085288376" x2="216.82954229377154" y2="-2450.538510661047" stroke-width="4" stroke="black" />
<line x1="216.82954229377154" y1="-2450.538510661047" x2="260.1954507525259" y2="-2540.6462127932564" stroke-width="4" stroke="black" />
<line x1="-3.6739403974420615E-13" y1="-2000.0" x2="-43.36590845875479" y2="-2090.107702132209" stroke-width="4" stroke="black" />
<line x1="-43.36590845875479" y1="-2090.107702132209" x2="-86.7318169175092" y2="-2180.215404264418" stroke-width="4" stroke="black" />
<line x1="-86.7318169175092" y1="-2180.215404264418" x2="-86.73181691750922" y2="-2280.215404264418" stroke-width="4" stroke="black" />
<line x1="-86.73181691750922" y1="-2280.215404264418" x2="-86.73181691750924" y2="-2380.215404264418" stroke-width="4" stroke="black" />
<line x1="-86.7318169175092" y1="-2180.215404264418" x2="-164.88386415939107" y2="-2242.6033639353564" stroke-width="4" stroke="black" />
<line x1="-164.88386415939107" y1="-2242.6033639353564" x2="-243.03591140127293" y2="-2304.991323606295" stroke-width="4" stroke="black" />
<line x1="-86.7318169175092" y1="-2180.215404264418" x2="-130.0977253762636" y2="-2270.323106396627" stroke-width="4" stroke="black" />
<line x1="-130.0977253762636" y1="-2270.323106396627" x2="-173.46363383501802" y2="-2360.4308085288358" stroke-width="4" stroke="black" />
<line x1="-173.46363383501802" y1="-2360.4308085288358" x2="-216.82954229377242" y2="-2450.5385106610447" stroke-width="4" stroke="black" />
<line x1="-216.82954229377242" y1="-2450.5385106610447" x2="-260.1954507525268" y2="-2540.6462127932537" stroke-width="4" stroke="black" />
<line x1="-3.6739403974420615E-13" y1="-2000.0" x2="-3.8576374173141647E-13" y2="-2100.0" stroke-width="4" stroke="black" />
<line x1="-3.8576374173141647E-13" y1="-2100.0" x2="-4.041334437186268E-13" y2="-2200.0" stroke-width="4" stroke="black" />
<line x1="-4.041334437186268E-13" y1="-2200.0" x2="-4.225031457058371E-13" y2="-2300.0" stroke-width="4" stroke="black" />
<line x1="-4.225031457058371E-13" y1="-2300.0" x2="-4.4087284769304744E-13" y2="-2400.0" stroke-width="4" stroke="black" />
<line x1="-4.4087284769304744E-13" y1="-2400.0" x2="-4.592425496802578E-13" y2="-2500.0" stroke-width="4" stroke="black" />
<line x1="-4.592425496802578E-13" y1="-2500.0" x2="-4.776122516674681E-13" y2="-2600.0" stroke-width="4" stroke="black" />
<line x1="-4.776122516674681E-13" y1="-2600.0" x2="43.36590845875391" y2="-2690.1077021322094" stroke-width="4" stroke="black" />
<line x1="43.36590845875391" y1="-2690.1077021322094" x2="86.7318169175083" y2="-2780.215404264419" stroke-width="4" stroke="black" />
<line x1="-4.776122516674681E-13" y1="-2600.0" x2="-43.365908458754895" y2="-2690.107702132209" stroke-width="4" stroke="black" />
<line x1="-43.365908458754895" y1="-2690.107702132209" x2="-86.73181691750932" y2="-2780.215404264418" stroke-width="4" stroke="black" />
<line x1="-4.776122516674681E-13" y1="-2600.0" x2="-4.959819536546784E-13" y2="-2700.0" stroke-width="4" stroke="black" />
<line x1="-4.959819536546784E-13" y1="-2700.0" x2="-5.143516556418887E-13" y2="-2800.0" stroke-width="4" stroke="black" />
<line x1="-5.143516556418887E-13" y1="-2800.0" x2="-5.327213576290991E-13" y2="-2900.0" stroke-width="4" stroke="black" />
<line x1="-5.327213576290991E-13" y1="-2900.0" x2="-5.510910596163094E-13" y2="-3000.0" stroke-width="4" stroke="black" />
</svg>