<svg viewBox="-1773.8758790971494 -3876.894335041952 2688.177875307011 3876.894335041952" xmlns="http://www.w3.org/2000/svg"><line x1="0" y1="0" x2="-1.8369701987210297E-14" y2="-100.0" stroke-width="4" stroke="black" />
<line x1="-1.8369701987210297E-14" y1="-100.0" x2="-3.6739403974420595E-14" y2="-200.0" stroke-width="4" stroke="black" />
<line x1="-3.6739403974420595E-14" y1="-200.0" x2="-5.510910596163089E-14" y2="-300.0" stroke-width="4" stroke="black" />
<line x1="-5.510910596163089E-14" y1="-300.0" x2="-7.347880794884119E-14" y2="-400.0" stroke-width="4" stroke="black" />
<line x1="-7.347880794884119E-14" y1="-400.0" x2="-9.184850993605149E-14" y2="-500.0" stroke-width="4" stroke="black" />
<line x1="-9.184850993605149E-14" y1="-500.0" x2="-1.1021821192326178E-13" y2="-600.0" stroke-width="4" stroke="black" />
<line x1="-1.1021821192326178E-13" y1="-600.0" x2="-1.2858791391047208E-13" y2="-700.0" stroke-width="4" stroke="black" />
<line x1="-1.2858791391047208E-13" y1="-700.0" x2="-1.4695761589768238E-13" y2="-800.0" stroke-width="4" stroke="black" />
<line x1="-1.4695761589768238E-13" y1="-800.0" x2="42.26182617406981" y2="-890.630778703665" stroke-width="4" stroke="black" />
<line x1="42.26182617406981" y1="-890.630778703665" x2="84.52365234813976" y2="-981.26155740733" stroke-width="4" stroke="black" />
<line x1="84.52365234813976" y1="-981.26155740733" x2="126.78547852220973" y2="-1071.892336110995" stroke-width="4" stroke="black" />
<line x1="126.78547852220973" y1="-1071.892336110995" x2="169.0473046962797" y2="-1162.52311481466" stroke-width="4" stroke="black" />
<line x1="169.0473046962797" y1="-1162.52311481466" x2="245.6517490081775" y2="-1226.8018757833138" stroke-width="4" stroke="black" />
<line x1="245.6517490081775" y1="-1226.8018757833138" x2="322.2561933200753" y2="-1291.0806367519676" stroke-width="4" stroke="black" />
<line x1="322.2561933200753" y1="-1291.0806367519676" x2="418.8487759489821" y2="-1316.9625412622197" stroke-width="4" stroke="black" />
<line x1="418.8487759489821" y1="-1316.9625412622197" x2="515.4413585778889" y2="-1342.8444457724718" stroke-width="4" stroke="black" />
<line x1="515.4413585778889" y1="-1342.8444457724718" x2="592.0458028897866" y2="-1407.1232067411256" stroke-width="4" stroke="black" />
<line x1="322.2561933200753" y1="-1291.0806367519676" x2="398.8606376319731" y2="-1355.3593977206215" stroke-width="4" stroke="black" />
<line x1="398.8606376319731" y1="-1355.3593977206215" x2="475.46508194387087" y2="-1419.6381586892753" stroke-width="4" stroke="black" />
<line x1="475.46508194387087" y1="-1419.6381586892753" x2="517.7269081179409" y2="-1510.2689373929402" stroke-width="4" stroke="black" />
<line x1="322.2561933200753" y1="-1291.0806367519676" x2="398.8606376319731" y2="-1355.3593977206215" stroke-width="4" stroke="black" />
<line x1="398.8606376319731" y1="-1355.3593977206215" x2="475.46508194387087" y2="-1419.6381586892753" stroke-width="4" stroke="black" />
<line x1="475.46508194387087" y1="-1419.6381586892753" x2="517.7269081179409" y2="-1510.2689373929402" stroke-width="4" stroke="black" />
<line x1="517.7269081179409" y1="-1510.2689373929402" x2="559.9887342920108" y2="-1600.899716096605" stroke-width="4" stroke="black" />
<line x1="559.9887342920108" y1="-1600.899716096605" x2="602.2505604660807" y2="-1691.53049480027" stroke-width="4" stroke="black" />
<line x1="602.2505604660807" y1="-1691.53049480027" x2="644.5123866401507" y2="-1782.1612735039348" stroke-width="4" stroke="black" />
<line x1="644.5123866401507" y1="-1782.1612735039348" x2="644.5123866401507" y2="-1882.1612735039348" stroke-width="4" stroke="black" />
<line x1="475.46508194387087" y1="-1419.6381586892753" x2="572.0576645727776" y2="-1445.5200631995274" stroke-width="4" stroke="black" />
<line x1="572.0576645727776" y1="-1445.5200631995274" x2="668.6502472016845" y2="-1471.4019677097795" stroke-width="4" stroke="black" />
<line x1="668.6502472016845" y1="-1471.4019677097795" x2="745.2546915135822" y2="-1535.6807286784333" stroke-width="4" stroke="black" />
<line x1="169.0473046962797" y1="-1162.52311481466" x2="211.30913087034966" y2="-1253.1538935183248" stroke-width="4" stroke="black" />
<line x1="211.30913087034966" y1="-1253.1538935183248" x2="253.57095704441963" y2="-1343.7846722219897" stroke-width="4" stroke="black" />
<line x1="253.57095704441963" y1="-1343.7846722219897" x2="330.1754013563174" y2="-1408.0634331906435" stroke-width="4" stroke="black" />
<line x1="330.1754013563174" y1="-1408.0634331906435" x2="406.7798456682152" y2="-1472.3421941592974" stroke-width="4" stroke="black" />
<line x1="406.7798456682152" y1="-1472.3421941592974" x2="449.04167184228515" y2="-1562.9729728629623" stroke-width="4" stroke="black" />
<line x1="253.57095704441963" y1="-1343.7846722219897" x2="295.83278321848957" y2="-1434.4154509256546" stroke-width="4" stroke="black" />
<line x1="295.83278321848957" y1="-1434.4154509256546" x2="338.0946093925595" y2="-1525.0462296293194" stroke-width="4" stroke="black" />
<line x1="338.0946093925595" y1="-1525.0462296293194" x2="338.0946093925595" y2="-1625.0462296293194" stroke-width="4" stroke="black" />
<line x1="253.57095704441963" y1="-1343.7846722219897" x2="295.83278321848957" y2="-1434.4154509256546" stroke-width="4" stroke="black" />
<line x1="295.83278321848957" y1="-1434.4154509256546" x2="338.0946093925595" y2="-1525.0462296293194" stroke-width="4" stroke="black" />
<line x1="338.0946093925595" y1="-1525.0462296293194" x2="338.0946093925595" y2="-1625.0462296293194" stroke-width="4" stroke="black" />
<line x1="338.0946093925595" y1="-1625.0462296293194" x2="338.0946093925595" y2="-1725.0462296293194" stroke-width="4" stroke="black" />
<line x1="338.0946093925595" y1="-1725.0462296293194" x2="338.0946093925595" y2="-1825.0462296293194" stroke-width="4" stroke="black" />
<line x1="338.0946093925595" y1="-1825.0462296293194" x2="338.0946093925595" y2="-1925.0462296293194" stroke-width="4" stroke="black" />
<line x1="338.0946093925595" y1="-1925.0462296293194" x2="295.83278321848957" y2="-2015.6770083329845" stroke-width="4" stroke="black" />
<line x1="338.0946093925595" y1="-1525.0462296293194" x2="414.6990537044573" y2="-1589.3249905979733" stroke-width="4" stroke="black" />
<line x1="414.6990537044573" y1="-1589.3249905979733" x2="491.3034980163551" y2="-1653.6037515666271" stroke-width="4" stroke="black" />
<line x1="491.3034980163551" y1="-1653.6037515666271" x2="533.565324190425" y2="-1744.234530270292" stroke-width="4" stroke="black" />
<line x1="169.0473046962797" y1="-1162.52311481466" x2="211.30913087034966" y2="-1253.1538935183248" stroke-width="4" stroke="black" />
<line x1="211.30913087034966" y1="-1253.1538935183248" x2="253.57095704441963" y2="-1343.7846722219897" stroke-width="4" stroke="black" />
<line x1="253.57095704441963" y1="-1343.7846722219897" x2="295.83278321848957" y2="-1434.4154509256546" stroke-width="4" stroke="black" />
<line x1="295.83278321848957" y1="-1434.4154509256546" x2="338.0946093925595" y2="-1525.0462296293194" stroke-width="4" stroke="black" />
<line x1="338.0946093925595" y1="-1525.0462296293194" x2="338.0946093925595" y2="-1625.0462296293194" stroke-width="4" stroke="black" />
<line x1="338.0946093925595" y1="-1625.0462296293194" x2="338.0946093925595" y2="-1725.0462296293194" stroke-width="4" stroke="black" />
<line x1="338.0946093925595" y1="-1725.0462296293194" x2="338.0946093925595" y2="-1825.0462296293194" stroke-width="4" stroke="black" />
<line x1="338.0946093925595" y1="-1825.0462296293194" x2="338.0946093925595" y2="-1925.0462296293194" stroke-width="4" stroke="black" />
<line x1="338.0946093925595" y1="-1925.0462296293194" x2="338.0946093925595" y2="-2025.0462296293194" stroke-width="4" stroke="black" />
<line x1="338.0946093925595" y1="-2025.0462296293194" x2="338.0946093925595" y2="-2125.0462296293194" stroke-width="4" stroke="black" />
<line x1="338.0946093925595" y1="-2125.0462296293194" x2="380.35643556662944" y2="-2215.6770083329843" stroke-width="4" stroke="black" />
<line x1="380.35643556662944" y1="-2215.6770083329843" x2="422.6182617406994" y2="-2306.307787036649" stroke-width="4" stroke="black" />
<line x1="422.6182617406994" y1="-2306.307787036649" x2="422.6182617406994" y2="-2406.307787036649" stroke-width="4" stroke="black" />
<line x1="338.0946093925595" y1="-2125.0462296293194" x2="338.0946093925595" y2="-2225.0462296293194" stroke-width="4" stroke="black" />
<line x1="338.0946093925595" y1="-2225.0462296293194" x2="338.0946093925595" y2="-2325.0462296293194" stroke-width="4" stroke="black" />
<line x1="338.0946093925595" y1="-2325.0462296293194" x2="295.83278321848957" y2="-2415.6770083329843" stroke-width="4" stroke="black" />
<line x1="338.0946093925595" y1="-2125.0462296293194" x2="338.0946093925595" y2="-2225.0462296293194" stroke-width="4" stroke="black" />
<line x1="338.0946093925595" y1="-2225.0462296293194" x2="338.0946093925595" y2="-2325.0462296293194" stroke-width="4" stroke="black" />
<line x1="338.0946093925595" y1="-2325.0462296293194" x2="295.83278321848957" y2="-2415.6770083329843" stroke-width="4" stroke="black" />
<line x1="295.83278321848957" y1="-2415.6770083329843" x2="253.57095704441966" y2="-2506.307787036649" stroke-width="4" stroke="black" />
<line x1="253.57095704441966" y1="-2506.307787036649" x2="211.30913087034975" y2="-2596.938565740314" stroke-width="4" stroke="black" />
<line x1="211.30913087034975" y1="-2596.938565740314" x2="169.04730469627984" y2="-2687.569344443979" stroke-width="4" stroke="black" />
<line x1="169.04730469627984" y1="-2687.569344443979" x2="92.44286038438203" y2="-2751.848105412633" stroke-width="4" stroke="black" />
<line x1="338.0946093925595" y1="-2325.0462296293194" x2="380.35643556662944" y2="-2415.6770083329843" stroke-width="4" stroke="black" />
<line x1="380.35643556662944" y1="-2415.6770083329843" x2="422.6182617406994" y2="-2506.307787036649" stroke-width="4" stroke="black" />
<line x1="422.6182617406994" y1="-2506.307787036649" x2="422.6182617406994" y2="-2606.307787036649" stroke-width="4" stroke="black" />
<line x1="338.0946093925595" y1="-1525.0462296293194" x2="414.6990537044573" y2="-1589.3249905979733" stroke-width="4" stroke="black" />
<line x1="414.6990537044573" y1="-1589.3249905979733" x2="491.3034980163551" y2="-1653.6037515666271" stroke-width="4" stroke="black" />
<line x1="491.3034980163551" y1="-1653.6037515666271" x2="587.8960806452619" y2="-1679.4856560768792" stroke-width="4" stroke="black" />
<line x1="587.8960806452619" y1="-1679.4856560768792" x2="684.4886632741687" y2="-1705.3675605871313" stroke-width="4" stroke="black" />
<line x1="684.4886632741687" y1="-1705.3675605871313" x2="761.0931075860665" y2="-1769.646321555785" stroke-width="4" stroke="black" />
<line x1="491.3034980163551" y1="-1653.6037515666271" x2="567.9079423282528" y2="-1717.882512535281" stroke-width="4" stroke="black" />
<line x1="567.9079423282528" y1="-1717.882512535281" x2="644.5123866401506" y2="-1782.1612735039348" stroke-width="4" stroke="black" />
<line x1="644.5123866401506" y1="-1782.1612735039348" x2="686.7742128142205" y2="-1872.7920522075997" stroke-width="4" stroke="black" />
<line x1="491.3034980163551" y1="-1653.6037515666271" x2="567.9079423282528" y2="-1717.882512535281" stroke-width="4" stroke="black" />
<line x1="567.9079423282528" y1="-1717.882512535281" x2="644.5123866401506" y2="-1782.1612735039348" stroke-width="4" stroke="black" />
<line x1="644.5123866401506" y1="-1782.1612735039348" x2="686.7742128142205" y2="-1872.7920522075997" stroke-width="4" stroke="black" />
<line x1="686.7742128142205" y1="-1872.7920522075997" x2="729.0360389882904" y2="-1963.4228309112646" stroke-width="4" stroke="black" />
<line x1="729.0360389882904" y1="-1963.4228309112646" x2="771.2978651623604" y2="-2054.0536096149294" stroke-width="4" stroke="black" />
<line x1="771.2978651623604" y1="-2054.0536096149294" x2="813.5596913364303" y2="-2144.6843883185943" stroke-width="4" stroke="black" />
<line x1="813.5596913364303" y1="-2144.6843883185943" x2="813.5596913364303" y2="-2244.6843883185943" stroke-width="4" stroke="black" />
<line x1="644.5123866401506" y1="-1782.1612735039348" x2="741.1049692690574" y2="-1808.0431780141869" stroke-width="4" stroke="black" />
<line x1="741.1049692690574" y1="-1808.0431780141869" x2="837.6975518979642" y2="-1833.925082524439" stroke-width="4" stroke="black" />
<line x1="837.6975518979642" y1="-1833.925082524439" x2="914.301996209862" y2="-1898.2038434930928" stroke-width="4" stroke="black" />
<line x1="-1.4695761589768238E-13" y1="-800.0" x2="-1.6532731788489268E-13" y2="-900.0" stroke-width="4" stroke="black" />
<line x1="-1.6532731788489268E-13" y1="-900.0" x2="-1.8369701987210297E-13" y2="-1000.0" stroke-width="4" stroke="black" />
<line x1="-1.8369701987210297E-13" y1="-1000.0" x2="-2.0206672185931327E-13" y2="-1100.0" stroke-width="4" stroke="black" />
<line x1="-2.0206672185931327E-13" y1="-1100.0" x2="-2.2043642384652357E-13" y2="-1200.0" stroke-width="4" stroke="black" />
<line x1="-2.2043642384652357E-13" y1="-1200.0" x2="42.26182617406974" y2="-1290.6307787036649" stroke-width="4" stroke="black" />
<line x1="42.26182617406974" y1="-1290.6307787036649" x2="84.5236523481397" y2="-1381.2615574073297" stroke-width="4" stroke="black" />
<line x1="84.5236523481397" y1="-1381.2615574073297" x2="161.1280966600375" y2="-1445.5403183759836" stroke-width="4" stroke="black" />
<line x1="161.1280966600375" y1="-1445.5403183759836" x2="237.7325409719353" y2="-1509.8190793446374" stroke-width="4" stroke="black" />
<line x1="237.7325409719353" y1="-1509.8190793446374" x2="279.99436714600523" y2="-1600.4498580483023" stroke-width="4" stroke="black" />
<line x1="84.5236523481397" y1="-1381.2615574073297" x2="126.78547852220967" y2="-1471.8923361109946" stroke-width="4" stroke="black" />
<line x1="126.78547852220967" y1="-1471.8923361109946" x2="169.04730469627964" y2="-1562.5231148146595" stroke-width="4" stroke="black" />
<line x1="169.04730469627964" y1="-1562.5231148146595" x2="169.0473046962796" y2="-1662.5231148146595" stroke-width="4" stroke="black" />
<line x1="84.5236523481397" y1="-1381.2615574073297" x2="126.78547852220967" y2="-1471.8923361109946" stroke-width="4" stroke="black" />
<line x1="126.78547852220967" y1="-1471.8923361109946" x2="169.04730469627964" y2="-1562.5231148146595" stroke-width="4" stroke="black" />
<line x1="169.04730469627964" y1="-1562.5231148146595" x2="169.0473046962796" y2="-1662.5231148146595" stroke-width="4" stroke="black" />
<line x1="169.0473046962796" y1="-1662.5231148146595" x2="169.04730469627958" y2="-1762.5231148146595" stroke-width="4" stroke="black" />
<line x1="169.04730469627958" y1="-1762.5231148146595" x2="169.04730469627955" y2="-1862.5231148146595" stroke-width="4" stroke="black" />
<line x1="169.04730469627955" y1="-1862.5231148146595" x2="169.04730469627953" y2="-1962.5231148146595" stroke-width="4" stroke="black" />
<line x1="169.04730469627953" y1="-1962.5231148146595" x2="126.78547852220962" y2="-2053.1538935183244" stroke-width="4" stroke="black" />
<line x1="169.04730469627964" y1="-1562.5231148146595" x2="245.65174900817743" y2="-1626.8018757833133" stroke-width="4" stroke="black" />
<line x1="245.65174900817743" y1="-1626.8018757833133" x2="322.2561933200752" y2="-1691.0806367519672" stroke-width="4" stroke="black" />
<line x1="322.2561933200752" y1="-1691.0806367519672" x2="364.51801949414516" y2="-1781.711415455632" stroke-width="4" stroke="black" />
<line x1="-2.2043642384652357E-13" y1="-1200.0" x2="-2.388061258337339E-13" y2="-1300.0" stroke-width="4" stroke="black" />
<line x1="-2.388061258337339E-13" y1="-1300.0" x2="-2.571758278209442E-13" y2="-1400.0" stroke-width="4" stroke="black" />
<line x1="-2.571758278209442E-13" y1="-1400.0" x2="42.261826174069704" y2="-1490.6307787036649" stroke-width="4" stroke="black" />
<line x1="42.261826174069704" y1="-1490.6307787036649" x2="84.52365234813966" y2="-1581.2615574073297" stroke-width="4" stroke="black" />
<line x1="84.52365234813966" y1="-1581.2615574073297" x2="84.52365234813965" y2="-1681.2615574073297" stroke-width="4" stroke="black" />
<line x1="-2.571758278209442E-13" y1="-1400.0" x2="-2.7554552980815454E-13" y2="-1500.0" stroke-width="4" stroke="black" />
<line x1="-2.7554552980815454E-13" y1="-1500.0" x2="-2.9391523179536486E-13" y2="-1600.0" stroke-width="4" stroke="black" />
<line x1="-2.9391523179536486E-13" y1="-1600.0" x2="-42.26182617407021" y2="-1690.630778703665" stroke-width="4" stroke="black" />
<line x1="-2.571758278209442E-13" y1="-1400.0" x2="-2.7554552980815454E-13" y2="-1500.0" stroke-width="4" stroke="black" />
<line x1="-2.7554552980815454E-13" y1="-1500.0" x2="-2.9391523179536486E-13" y2="-1600.0" stroke-width="4" stroke="black" />
<line x1="-2.9391523179536486E-13" y1="-1600.0" x2="-42.26182617407021" y2="-1690.630778703665" stroke-width="4" stroke="black" />
<line x1="-42.26182617407021" y1="-1690.630778703665" x2="-84.52365234814013" y2="-1781.2615574073302" stroke-width="4" stroke="black" />
<line x1="-84.52365234814013" y1="-1781.2615574073302" x2="-126.78547852221004" y2="-1871.8923361109953" stroke-width="4" stroke="black" />
<line x1="-126.78547852221004" y1="-1871.8923361109953" x2="-169.04730469627995" y2="-1962.5231148146604" stroke-width="4" stroke="black" />
<line x1="-169.04730469627995" y1="-1962.5231148146604" x2="-245.65174900817777" y2="-2026.8018757833142" stroke-width="4" stroke="black" />
<line x1="-2.9391523179536486E-13" y1="-1600.0" x2="42.26182617406967" y2="-1690.6307787036649" stroke-width="4" stroke="black" />
<line x1="42.26182617406967" y1="-1690.6307787036649" x2="84.52365234813962" y2="-1781.2615574073297" stroke-width="4" stroke="black" />
<line x1="84.52365234813962" y1="-1781.2615574073297" x2="84.5236523481396" y2="-1881.2615574073297" stroke-width="4" stroke="black" />
<line x1="-2.2043642384652357E-13" y1="-1200.0" x2="-2.388061258337339E-13" y2="-1300.0" stroke-width="4" stroke="black" />
<line x1="-2.388061258337339E-13" y1="-1300.0" x2="-2.571758278209442E-13" y2="-1400.0" stroke-width="4" stroke="black" />
<line x1="-2.571758278209442E-13" y1="-1400.0" x2="-2.7554552980815454E-13" y2="-1500.0" stroke-width="4" stroke="black" />
<line x1="-2.7554552980815454E-13" y1="-1500.0" x2="-2.9391523179536486E-13" y2="-1600.0" stroke-width="4" stroke="black" />
<line x1="-2.9391523179536486E-13" y1="-1600.0" x2="-42.26182617407021" y2="-1690.630778703665" stroke-width="4" stroke="black" />
<line x1="-42.26182617407021" y1="-1690.630778703665" x2="-84.52365234814013" y2="-1781.2615574073302" stroke-width="4" stroke="black" />
<line x1="-84.52365234814013" y1="-1781.2615574073302" x2="-126.78547852221004" y2="-1871.8923361109953" stroke-width="4" stroke="black" />
<line x1="-126.78547852221004" y1="-1871.8923361109953" x2="-169.04730469627995" y2="-1962.5231148146604" stroke-width="4" stroke="black" />
<line x1="-169.04730469627995" y1="-1962.5231148146604" x2="-211.30913087034986" y2="-2053.1538935183253" stroke-width="4" stroke="black" />
<line x1="-211.30913087034986" y1="-2053.1538935183253" x2="-253.57095704441977" y2="-2143.78467222199" stroke-width="4" stroke="black" />
<line x1="-253.57095704441977" y1="-2143.78467222199" x2="-253.5709570444198" y2="-2243.78467222199" stroke-width="4" stroke="black" />
<line x1="-253.5709570444198" y1="-2243.78467222199" x2="-253.57095704441983" y2="-2343.78467222199" stroke-width="4" stroke="black" />
<line x1="-253.57095704441983" y1="-2343.78467222199" x2="-295.83278321848974" y2="-2434.415450925655" stroke-width="4" stroke="black" />
<line x1="-253.57095704441977" y1="-2143.78467222199" x2="-295.8327832184897" y2="-2234.415450925655" stroke-width="4" stroke="black" />
<line x1="-295.8327832184897" y1="-2234.415450925655" x2="-338.0946093925596" y2="-2325.04622962932" stroke-width="4" stroke="black" />
<line x1="-338.0946093925596" y1="-2325.04622962932" x2="-414.6990537044574" y2="-2389.3249905979737" stroke-width="4" stroke="black" />
<line x1="-253.57095704441977" y1="-2143.78467222199" x2="-295.8327832184897" y2="-2234.415450925655" stroke-width="4" stroke="black" />
<line x1="-295.8327832184897" y1="-2234.415450925655" x2="-338.0946093925596" y2="-2325.04622962932" stroke-width="4" stroke="black" />
<line x1="-338.0946093925596" y1="-2325.04622962932" x2="-414.6990537044574" y2="-2389.3249905979737" stroke-width="4" stroke="black" />
<line x1="-414.6990537044574" y1="-2389.3249905979737" x2="-491.3034980163552" y2="-2453.6037515666276" stroke-width="4" stroke="black" />
<line x1="-491.3034980163552" y1="-2453.6037515666276" x2="-567.9079423282531" y2="-2517.8825125352814" stroke-width="4" stroke="black" />
<line x1="-567.9079423282531" y1="-2517.8825125352814" x2="-644.5123866401509" y2="-2582.1612735039353" stroke-width="4" stroke="black" />
<line x1="-644.5123866401509" y1="-2582.1612735039353" x2="-741.1049692690577" y2="-2608.0431780141876" stroke-width="4" stroke="black" />
<line x1="-338.0946093925596" y1="-2325.04622962932" x2="-338.0946093925596" y2="-2425.04622962932" stroke-width="4" stroke="black" />
<line x1="-338.0946093925596" y1="-2425.04622962932" x2="-338.0946093925596" y2="-2525.04622962932" stroke-width="4" stroke="black" />
<line x1="-338.0946093925596" y1="-2525.04622962932" x2="-380.35643556662956" y2="-2615.6770083329848" stroke-width="4" stroke="black" />
<line x1="-2.9391523179536486E-13" y1="-1600.0" x2="42.26182617406967" y2="-1690.6307787036649" stroke-width="4" stroke="black" />
<line x1="42.26182617406967" y1="-1690.6307787036649" x2="84.52365234813962" y2="-1781.2615574073297" stroke-width="4" stroke="black" />
<line x1="84.52365234813962" y1="-1781.2615574073297" x2="161.1280966600374" y2="-1845.5403183759836" stroke-width="4" stroke="black" />
<line x1="161.1280966600374" y1="-1845.5403183759836" x2="237.73254097193518" y2="-1909.8190793446374" stroke-width="4" stroke="black" />
<line x1="237.73254097193518" y1="-1909.8190793446374" x2="279.9943671460051" y2="-2000.4498580483023" stroke-width="4" stroke="black" />
<line x1="84.52365234813962" y1="-1781.2615574073297" x2="126.78547852220959" y2="-1871.8923361109946" stroke-width="4" stroke="black" />
<line x1="126.78547852220959" y1="-1871.8923361109946" x2="169.04730469627955" y2="-1962.5231148146595" stroke-width="4" stroke="black" />
<line x1="169.04730469627955" y1="-1962.5231148146595" x2="169.04730469627953" y2="-2062.5231148146595" stroke-width="4" stroke="black" />
<line x1="84.52365234813962" y1="-1781.2615574073297" x2="126.78547852220959" y2="-1871.8923361109946" stroke-width="4" stroke="black" />
<line x1="126.78547852220959" y1="-1871.8923361109946" x2="169.04730469627955" y2="-1962.5231148146595" stroke-width="4" stroke="black" />
<line x1="169.04730469627955" y1="-1962.5231148146595" x2="169.04730469627953" y2="-2062.5231148146595" stroke-width="4" stroke="black" />
<line x1="169.04730469627953" y1="-2062.5231148146595" x2="169.0473046962795" y2="-2162.5231148146595" stroke-width="4" stroke="black" />
<line x1="169.0473046962795" y1="-2162.5231148146595" x2="169.04730469627947" y2="-2262.5231148146595" stroke-width="4" stroke="black" />
<line x1="169.04730469627947" y1="-2262.5231148146595" x2="169.04730469627944" y2="-2362.5231148146595" stroke-width="4" stroke="black" />
<line x1="169.04730469627944" y1="-2362.5231148146595" x2="126.78547852220953" y2="-2453.1538935183244" stroke-width="4" stroke="black" />
<line x1="169.04730469627955" y1="-1962.5231148146595" x2="245.65174900817732" y2="-2026.8018757833133" stroke-width="4" stroke="black" />
<line x1="245.65174900817732" y1="-2026.8018757833133" x2="322.2561933200751" y2="-2091.080636751967" stroke-width="4" stroke="black" />
<line x1="322.2561933200751" y1="-2091.080636751967" x2="364.51801949414505" y2="-2181.711415455632" stroke-width="4" stroke="black" />
<line x1="-1.4695761589768238E-13" y1="-800.0" x2="-1.6532731788489268E-13" y2="-900.0" stroke-width="4" stroke="black" />
<line x1="-1.6532731788489268E-13" y1="-900.0" x2="-1.8369701987210297E-13" y2="-1000.0" stroke-width="4" stroke="black" />
<line x1="-1.8369701987210297E-13" y1="-1000.0" x2="-2.0206672185931327E-13" y2="-1100.0" stroke-width="4" stroke="black" />
<line x1="-2.0206672185931327E-13" y1="-1100.0" x2="-2.2043642384652357E-13" y2="-1200.0" stroke-width="4" stroke="black" />
<line x1="-2.2043642384652357E-13" y1="-1200.0" x2="-2.388061258337339E-13" y2="-1300.0" stroke-width="4" stroke="black" />
<line x1="-2.388061258337339E-13" y1="-1300.0" x2="-2.571758278209442E-13" y2="-1400.0" stroke-width="4" stroke="black" />
<line x1="-2.571758278209442E-13" y1="-1400.0" x2="-2.7554552980815454E-13" y2="-1500.0" stroke-width="4" stroke="black" />
<line x1="-2.7554552980815454E-13" y1="-1500.0" x2="-2.9391523179536486E-13" y2="-1600.0" stroke-width="4" stroke="black" />
<line x1="-2.9391523179536486E-13" y1="-1600.0" x2="-42.26182617407021" y2="-1690.630778703665" stroke-width="4" stroke="black" />
<line x1="-42.26182617407021" y1="-1690.630778703665" x2="-84.52365234814013" y2="-1781.2615574073302" stroke-width="4" stroke="black" />
<line x1="-84.52365234814013" y1="-1781.2615574073302" x2="-126.78547852221004" y2="-1871.8923361109953" stroke-width="4" stroke="black" />
<line x1="-126.78547852221004" y1="-1871.8923361109953" x2="-169.04730469627995" y2="-1962.5231148146604" stroke-width="4" stroke="black" />
<line x1="-169.04730469627995" y1="-1962.5231148146604" x2="-211.30913087034986" y2="-2053.1538935183253" stroke-width="4" stroke="black" />
<line x1="-211.30913087034986" y1="-2053.1538935183253" x2="-253.57095704441977" y2="-2143.78467222199" stroke-width="4" stroke="black" />
<line x1="-253.57095704441977" y1="-2143.78467222199" x2="-295.8327832184897" y2="-2234.415450925655" stroke-width="4" stroke="black" />
<line x1="-295.8327832184897" y1="-2234.415450925655" x2="-338.0946093925596" y2="-2325.04622962932" stroke-width="4" stroke="black" />
<line x1="-338.0946093925596" y1="-2325.04622962932" x2="-380.35643556662956" y2="-2415.6770083329848" stroke-width="4" stroke="black" />
<line x1="-380.35643556662956" y1="-2415.6770083329848" x2="-422.6182617406995" y2="-2506.3077870366496" stroke-width="4" stroke="black" />
<line x1="-422.6182617406995" y1="-2506.3077870366496" x2="-464.88008791476943" y2="-2596.9385657403145" stroke-width="4" stroke="black" />
<line x1="-464.88008791476943" y1="-2596.9385657403145" x2="-507.14191408883937" y2="-2687.5693444439794" stroke-width="4" stroke="black" />
<line x1="-507.14191408883937" y1="-2687.5693444439794" x2="-507.14191408883937" y2="-2787.5693444439794" stroke-width="4" stroke="black" />
<line x1="-507.14191408883937" y1="-2787.5693444439794" x2="-507.14191408883937" y2="-2887.5693444439794" stroke-width="4" stroke="black" />
<line x1="-507.14191408883937" y1="-2887.5693444439794" x2="-464.88008791476943" y2="-2978.2001231476443" stroke-width="4" stroke="black" />
<line x1="-464.88008791476943" y1="-2978.2001231476443" x2="-422.6182617406995" y2="-3068.830901851309" stroke-width="4" stroke="black" />
<line x1="-422.6182617406995" y1="-3068.830901851309" x2="-422.6182617406995" y2="-3168.830901851309" stroke-width="4" stroke="black" />
<line x1="-507.14191408883937" y1="-2887.5693444439794" x2="-507.14191408883937" y2="-2987.5693444439794" stroke-width="4" stroke="black" />
<line x1="-507.14191408883937" y1="-2987.5693444439794" x2="-507.14191408883937" y2="-3087.5693444439794" stroke-width="4" stroke="black" />
<line x1="-507.14191408883937" y1="-3087.5693444439794" x2="-549.4037402629093" y2="-3178.2001231476443" stroke-width="4" stroke="black" />
<line x1="-507.14191408883937" y1="-2887.5693444439794" x2="-507.14191408883937" y2="-2987.5693444439794" stroke-width="4" stroke="black" />
<line x1="-507.14191408883937" y1="-2987.5693444439794" x2="-507.14191408883937" y2="-3087.5693444439794" stroke-width="4" stroke="black" />
<line x1="-507.14191408883937" y1="-3087.5693444439794" x2="-549.4037402629093" y2="-3178.2001231476443" stroke-width="4" stroke="black" />
<line x1="-549.4037402629093" y1="-3178.2001231476443" x2="-591.6655664369792" y2="-3268.830901851309" stroke-width="4" stroke="black" />
<line x1="-591.6655664369792" y1="-3268.830901851309" x2="-633.9273926110492" y2="-3359.461680554974" stroke-width="4" stroke="black" />
<line x1="-633.9273926110492" y1="-3359.461680554974" x2="-676.1892187851191" y2="-3450.092459258639" stroke-width="4" stroke="black" />
<line x1="-676.1892187851191" y1="-3450.092459258639" x2="-752.793663097017" y2="-3514.3712202272927" stroke-width="4" stroke="black" />
<line x1="-507.14191408883937" y1="-3087.5693444439794" x2="-464.88008791476943" y2="-3178.2001231476443" stroke-width="4" stroke="black" />
<line x1="-464.88008791476943" y1="-3178.2001231476443" x2="-422.6182617406995" y2="-3268.830901851309" stroke-width="4" stroke="black" />
<line x1="-422.6182617406995" y1="-3268.830901851309" x2="-422.6182617406995" y2="-3368.830901851309" stroke-width="4" stroke="black" />
<line x1="-507.14191408883937" y1="-2687.5693444439794" x2="-549.4037402629093" y2="-2778.2001231476443" stroke-width="4" stroke="black" />
<line x1="-549.4037402629093" y1="-2778.2001231476443" x2="-591.6655664369792" y2="-2868.830901851309" stroke-width="4" stroke="black" />
<line x1="-591.6655664369792" y1="-2868.830901851309" x2="-591.6655664369792" y2="-2968.830901851309" stroke-width="4" stroke="black" />
<line x1="-591.6655664369792" y1="-2968.830901851309" x2="-591.6655664369792" y2="-3068.830901851309" stroke-width="4" stroke="black" />
<line x1="-591.6655664369792" y1="-3068.830901851309" x2="-633.9273926110492" y2="-3159.461680554974" stroke-width="4" stroke="black" />
<line x1="-591.6655664369792" y1="-2868.830901851309" x2="-633.9273926110492" y2="-2959.461680554974" stroke-width="4" stroke="black" />
<line x1="-633.9273926110492" y1="-2959.461680554974" x2="-676.1892187851191" y2="-3050.092459258639" stroke-width="4" stroke="black" />
<line x1="-676.1892187851191" y1="-3050.092459258639" x2="-752.793663097017" y2="-3114.3712202272927" stroke-width="4" stroke="black" />
<line x1="-591.6655664369792" y1="-2868.830901851309" x2="-633.9273926110492" y2="-2959.461680554974" stroke-width="4" stroke="black" />
<line x1="-633.9273926110492" y1="-2959.461680554974" x2="-676.1892187851191" y2="-3050.092459258639" stroke-width="4" stroke="black" />
<line x1="-676.1892187851191" y1="-3050.092459258639" x2="-752.793663097017" y2="-3114.3712202272927" stroke-width="4" stroke="black" />
<line x1="-752.793663097017" y1="-3114.3712202272927" x2="-829.3981074089148" y2="-3178.6499811959466" stroke-width="4" stroke="black" />
<line x1="-829.3981074089148" y1="-3178.6499811959466" x2="-906.0025517208127" y2="-3242.9287421646004" stroke-width="4" stroke="black" />
<line x1="-906.0025517208127" y1="-3242.9287421646004" x2="-982.6069960327105" y2="-3307.2075031332542" stroke-width="4" stroke="black" />
<line x1="-982.6069960327105" y1="-3307.2075031332542" x2="-1079.1995786616174" y2="-3333.0894076435065" stroke-width="4" stroke="black" />
<line x1="-676.1892187851191" y1="-3050.092459258639" x2="-676.1892187851191" y2="-3150.092459258639" stroke-width="4" stroke="black" />
<line x1="-676.1892187851191" y1="-3150.092459258639" x2="-676.1892187851191" y2="-3250.092459258639" stroke-width="4" stroke="black" />
<line x1="-676.1892187851191" y1="-3250.092459258639" x2="-718.4510449591891" y2="-3340.7232379623038" stroke-width="4" stroke="black" />
<line x1="-507.14191408883937" y1="-2687.5693444439794" x2="-549.4037402629093" y2="-2778.2001231476443" stroke-width="4" stroke="black" />
<line x1="-549.4037402629093" y1="-2778.2001231476443" x2="-591.6655664369792" y2="-2868.830901851309" stroke-width="4" stroke="black" />
<line x1="-591.6655664369792" y1="-2868.830901851309" x2="-633.9273926110492" y2="-2959.461680554974" stroke-width="4" stroke="black" />
<line x1="-633.9273926110492" y1="-2959.461680554974" x2="-676.1892187851191" y2="-3050.092459258639" stroke-width="4" stroke="black" />
<line x1="-676.1892187851191" y1="-3050.092459258639" x2="-752.793663097017" y2="-3114.3712202272927" stroke-width="4" stroke="black" />
<line x1="-752.793663097017" y1="-3114.3712202272927" x2="-829.3981074089148" y2="-3178.6499811959466" stroke-width="4" stroke="black" />
<line x1="-829.3981074089148" y1="-3178.6499811959466" x2="-906.0025517208127" y2="-3242.9287421646004" stroke-width="4" stroke="black" />
<line x1="-906.0025517208127" y1="-3242.9287421646004" x2="-982.6069960327105" y2="-3307.2075031332542" stroke-width="4" stroke="black" />
<line x1="-982.6069960327105" y1="-3307.2075031332542" x2="-1059.2114403446083" y2="-3371.486264101908" stroke-width="4" stroke="black" />
<line x1="-1059.2114403446083" y1="-3371.486264101908" x2="-1135.8158846565061" y2="-3435.765025070562" stroke-width="4" stroke="black" />
<line x1="-1135.8158846565061" y1="-3435.765025070562" x2="-1178.077710830576" y2="-3526.395803774227" stroke-width="4" stroke="black" />
<line x1="-1178.077710830576" y1="-3526.395803774227" x2="-1220.339537004646" y2="-3617.0265824778917" stroke-width="4" stroke="black" />
<line x1="-1220.339537004646" y1="-3617.0265824778917" x2="-1296.9439813165438" y2="-3681.3053434465455" stroke-width="4" stroke="black" />
<line x1="-1135.8158846565061" y1="-3435.765025070562" x2="-1212.420328968404" y2="-3500.043786039216" stroke-width="4" stroke="black" />
<line x1="-1212.420328968404" y1="-3500.043786039216" x2="-1289.0247732803018" y2="-3564.3225470078696" stroke-width="4" stroke="black" />
<line x1="-1289.0247732803018" y1="-3564.3225470078696" x2="-1385.6173559092085" y2="-3590.204451518122" stroke-width="4" stroke="black" />
<line x1="-1135.8158846565061" y1="-3435.765025070562" x2="-1212.420328968404" y2="-3500.043786039216" stroke-width="4" stroke="black" />
<line x1="-1212.420328968404" y1="-3500.043786039216" x2="-1289.0247732803018" y2="-3564.3225470078696" stroke-width="4" stroke="black" />
<line x1="-1289.0247732803018" y1="-3564.3225470078696" x2="-1385.6173559092085" y2="-3590.204451518122" stroke-width="4" stroke="black" />
<line x1="-1385.6173559092085" y1="-3590.204451518122" x2="-1482.2099385381152" y2="-3616.086356028374" stroke-width="4" stroke="black" />
<line x1="-1482.2099385381152" y1="-3616.086356028374" x2="-1578.802521167022" y2="-3641.9682605386265" stroke-width="4" stroke="black" />
<line x1="-1578.802521167022" y1="-3641.9682605386265" x2="-1675.3951037959287" y2="-3667.850165048879" stroke-width="4" stroke="black" />
<line x1="-1675.3951037959287" y1="-3667.850165048879" x2="-1773.8758790971494" y2="-3650.4853472821856" stroke-width="4" stroke="black" />
<line x1="-1289.0247732803018" y1="-3564.3225470078696" x2="-1331.2865994543718" y2="-3654.9533257115345" stroke-width="4" stroke="black" />
<line x1="-1331.2865994543718" y1="-3654.9533257115345" x2="-1373.5484256284417" y2="-3745.5841044151994" stroke-width="4" stroke="black" />
<line x1="-1373.5484256284417" y1="-3745.5841044151994" x2="-1450.1528699403395" y2="-3809.862865383853" stroke-width="4" stroke="black" />
<line x1="-676.1892187851191" y1="-3050.092459258639" x2="-676.1892187851191" y2="-3150.092459258639" stroke-width="4" stroke="black" />
<line x1="-676.1892187851191" y1="-3150.092459258639" x2="-676.1892187851191" y2="-3250.092459258639" stroke-width="4" stroke="black" />
<line x1="-676.1892187851191" y1="-3250.092459258639" x2="-633.9273926110492" y2="-3340.7232379623038" stroke-width="4" stroke="black" />
<line x1="-633.9273926110492" y1="-3340.7232379623038" x2="-591.6655664369792" y2="-3431.3540166659686" stroke-width="4" stroke="black" />
<line x1="-591.6655664369792" y1="-3431.3540166659686" x2="-591.6655664369792" y2="-3531.3540166659686" stroke-width="4" stroke="black" />
<line x1="-676.1892187851191" y1="-3250.092459258639" x2="-676.1892187851191" y2="-3350.092459258639" stroke-width="4" stroke="black" />
<line x1="-676.1892187851191" y1="-3350.092459258639" x2="-676.1892187851191" y2="-3450.092459258639" stroke-width="4" stroke="black" />
<line x1="-676.1892187851191" y1="-3450.092459258639" x2="-718.4510449591891" y2="-3540.7232379623038" stroke-width="4" stroke="black" />
<line x1="-676.1892187851191" y1="-3250.092459258639" x2="-676.1892187851191" y2="-3350.092459258639" stroke-width="4" stroke="black" />
<line x1="-676.1892187851191" y1="-3350.092459258639" x2="-676.1892187851191" y2="-3450.092459258639" stroke-width="4" stroke="black" />
<line x1="-676.1892187851191" y1="-3450.092459258639" x2="-718.4510449591891" y2="-3540.7232379623038" stroke-width="4" stroke="black" />
<line x1="-718.4510449591891" y1="-3540.7232379623038" x2="-760.712871133259" y2="-3631.3540166659686" stroke-width="4" stroke="black" />
<line x1="-760.712871133259" y1="-3631.3540166659686" x2="-802.9746973073289" y2="-3721.9847953696335" stroke-width="4" stroke="black" />
<line x1="-802.9746973073289" y1="-3721.9847953696335" x2="-845.2365234813989" y2="-3812.6155740732984" stroke-width="4" stroke="black" />
<line x1="-845.2365234813989" y1="-3812.6155740732984" x2="-921.8409677932967" y2="-3876.894335041952" stroke-width="4" stroke="black" />
<line x1="-676.1892187851191" y1="-3450.092459258639" x2="-633.9273926110492" y2="-3540.7232379623038" stroke-width="4" stroke="black" />
<line x1="-633.9273926110492" y1="-3540.7232379623038" x2="-591.6655664369792" y2="-3631.3540166659686" stroke-width="4" stroke="black" />
<line x1="-591.6655664369792" y1="-3631.3540166659686" x2="-591.6655664369792" y2="-3731.3540166659686" stroke-width="4" stroke="black" />
<line x1="-2.9391523179536486E-13" y1="-1600.0" x2="42.26182617406967" y2="-1690.6307787036649" stroke-width="4" stroke="black" />
<line x1="42.26182617406967" y1="-1690.6307787036649" x2="84.52365234813962" y2="-1781.2615574073297" stroke-width="4" stroke="black" />
<line x1="84.52365234813962" y1="-1781.2615574073297" x2="126.78547852220959" y2="-1871.8923361109946" stroke-width="4" stroke="black" />
<line x1="126.78547852220959" y1="-1871.8923361109946" x2="169.04730469627955" y2="-1962.5231148146595" stroke-width="4" stroke="black" />
<line x1="169.04730469627955" y1="-1962.5231148146595" x2="245.65174900817732" y2="-2026.8018757833133" stroke-width="4" stroke="black" />
<line x1="245.65174900817732" y1="-2026.8018757833133" x2="322.2561933200751" y2="-2091.080636751967" stroke-width="4" stroke="black" />
<line x1="322.2561933200751" y1="-2091.080636751967" x2="418.84877594898194" y2="-2116.962541262219" stroke-width="4" stroke="black" />
<line x1="418.84877594898194" y1="-2116.962541262219" x2="515.4413585778888" y2="-2142.844445772471" stroke-width="4" stroke="black" />
<line x1="515.4413585778888" y1="-2142.844445772471" x2="592.0458028897865" y2="-2207.1232067411247" stroke-width="4" stroke="black" />
<line x1="322.2561933200751" y1="-2091.080636751967" x2="398.8606376319729" y2="-2155.359397720621" stroke-width="4" stroke="black" />
<line x1="398.8606376319729" y1="-2155.359397720621" x2="475.4650819438707" y2="-2219.638158689275" stroke-width="4" stroke="black" />
<line x1="475.4650819438707" y1="-2219.638158689275" x2="517.7269081179406" y2="-2310.2689373929397" stroke-width="4" stroke="black" />
<line x1="322.2561933200751" y1="-2091.080636751967" x2="398.8606376319729" y2="-2155.359397720621" stroke-width="4" stroke="black" />
<line x1="398.8606376319729" y1="-2155.359397720621" x2="475.4650819438707" y2="-2219.638158689275" stroke-width="4" stroke="black" />
<line x1="475.4650819438707" y1="-2219.638158689275" x2="517.7269081179406" y2="-2310.2689373929397" stroke-width="4" stroke="black" />
<line x1="517.7269081179406" y1="-2310.2689373929397" x2="559.9887342920106" y2="-2400.8997160966046" stroke-width="4" stroke="black" />
<line x1="559.9887342920106" y1="-2400.8997160966046" x2="602.2505604660805" y2="-2491.5304948002695" stroke-width="4" stroke="black" />
<line x1="602.2505604660805" y1="-2491.5304948002695" x2="644.5123866401505" y2="-2582.1612735039344" stroke-width="4" stroke="black" />
<line x1="644.5123866401505" y1="-2582.1612735039344" x2="644.5123866401505" y2="-2682.1612735039344" stroke-width="4" stroke="black" />
<line x1="475.4650819438707" y1="-2219.638158689275" x2="572.0576645727775" y2="-2245.5200631995267" stroke-width="4" stroke="black" />
<line x1="572.0576645727775" y1="-2245.5200631995267" x2="668.6502472016844" y2="-2271.4019677097785" stroke-width="4" stroke="black" />
<line x1="668.6502472016844" y1="-2271.4019677097785" x2="745.2546915135821" y2="-2335.6807286784324" stroke-width="4" stroke="black" />
<line x1="169.04730469627955" y1="-1962.5231148146595" x2="211.30913087034952" y2="-2053.1538935183244" stroke-width="4" stroke="black" />
<line x1="211.30913087034952" y1="-2053.1538935183244" x2="253.5709570444195" y2="-2143.7846722219892" stroke-width="4" stroke="black" />
<line x1="253.5709570444195" y1="-2143.7846722219892" x2="330.17540135631725" y2="-2208.063433190643" stroke-width="4" stroke="black" />
<line x1="330.17540135631725" y1="-2208.063433190643" x2="406.77984566821505" y2="-2272.342194159297" stroke-width="4" stroke="black" />
<line x1="406.77984566821505" y1="-2272.342194159297" x2="449.041671842285" y2="-2362.972972862962" stroke-width="4" stroke="black" />
<line x1="253.5709570444195" y1="-2143.7846722219892" x2="295.83278321848945" y2="-2234.415450925654" stroke-width="4" stroke="black" />
<line x1="295.83278321848945" y1="-2234.415450925654" x2="338.0946093925594" y2="-2325.046229629319" stroke-width="4" stroke="black" />
<line x1="338.0946093925594" y1="-2325.046229629319" x2="338.0946093925594" y2="-2425.046229629319" stroke-width="4" stroke="black" />
<line x1="253.5709570444195" y1="-2143.7846722219892" x2="295.83278321848945" y2="-2234.415450925654" stroke-width="4" stroke="black" />
<line x1="295.83278321848945" y1="-2234.415450925654" x2="338.0946093925594" y2="-2325.046229629319" stroke-width="4" stroke="black" />
<line x1="338.0946093925594" y1="-2325.046229629319" x2="338.0946093925594" y2="-2425.046229629319" stroke-width="4" stroke="black" />
<line x1="338.0946093925594" y1="-2425.046229629319" x2="338.0946093925594" y2="-2525.046229629319" stroke-width="4" stroke="black" />
<line x1="338.0946093925594" y1="-2525.046229629319" x2="338.0946093925594" y2="-2625.046229629319" stroke-width="4" stroke="black" />
<line x1="338.0946093925594" y1="-2625.046229629319" x2="338.0946093925594" y2="-2725.046229629319" stroke-width="4" stroke="black" />
<line x1="338.0946093925594" y1="-2725.046229629319" x2="295.83278321848945" y2="-2815.677008332984" stroke-width="4" stroke="black" />
<line x1="338.0946093925594" y1="-2325.046229629319" x2="414.6990537044572" y2="-2389.324990597973" stroke-width="4" stroke="black" />
<line x1="414.6990537044572" y1="-2389.324990597973" x2="491.303498016355" y2="-2453.6037515666267" stroke-width="4" stroke="black" />
<line x1="491.303498016355" y1="-2453.6037515666267" x2="533.5653241904249" y2="-2544.2345302702915" stroke-width="4" stroke="black" />
<line x1="169.04730469627955" y1="-1962.5231148146595" x2="211.30913087034952" y2="-2053.1538935183244" stroke-width="4" stroke="black" />
<line x1="211.30913087034952" y1="-2053.1538935183244" x2="253.5709570444195" y2="-2143.7846722219892" stroke-width="4" stroke="black" />
<line x1="253.5709570444195" y1="-2143.7846722219892" x2="295.83278321848945" y2="-2234.415450925654" stroke-width="4" stroke="black" />
<line x1="295.83278321848945" y1="-2234.415450925654" x2="338.0946093925594" y2="-2325.046229629319" stroke-width="4" stroke="black" />
<line x1="338.0946093925594" y1="-2325.046229629319" x2="338.0946093925594" y2="-2425.046229629319" stroke-width="4" stroke="black" />
<line x1="338.0946093925594" y1="-2425.046229629319" x2="338.0946093925594" y2="-2525.046229629319" stroke-width="4" stroke="black" />
<line x1="338.0946093925594" y1="-2525.046229629319" x2="338.0946093925594" y2="-2625.046229629319" stroke-width="4" stroke="black" />
<line x1="338.0946093925594" y1="-2625.046229629319" x2="338.0946093925594" y2="-2725.046229629319" stroke-width="4" stroke="black" />
<line x1="338.0946093925594" y1="-2725.046229629319" x2="338.0946093925594" y2="-2825.046229629319" stroke-width="4" stroke="black" />
<line x1="338.0946093925594" y1="-2825.046229629319" x2="338.0946093925594" y2="-2925.046229629319" stroke-width="4" stroke="black" />
<line x1="338.0946093925594" y1="-2925.046229629319" x2="380.35643556662933" y2="-3015.677008332984" stroke-width="4" stroke="black" />
<line x1="380.35643556662933" y1="-3015.677008332984" x2="422.61826174069927" y2="-3106.3077870366487" stroke-width="4" stroke="black" />
<line x1="422.61826174069927" y1="-3106.3077870366487" x2="422.61826174069927" y2="-3206.3077870366487" stroke-width="4" stroke="black" />
<line x1="338.0946093925594" y1="-2925.046229629319" x2="338.0946093925594" y2="-3025.046229629319" stroke-width="4" stroke="black" />
<line x1="338.0946093925594" y1="-3025.046229629319" x2="338.0946093925594" y2="-3125.046229629319" stroke-width="4" stroke="black" />
<line x1="338.0946093925594" y1="-3125.046229629319" x2="295.83278321848945" y2="-3215.677008332984" stroke-width="4" stroke="black" />
<line x1="338.0946093925594" y1="-2925.046229629319" x2="338.0946093925594" y2="-3025.046229629319" stroke-width="4" stroke="black" />
<line x1="338.0946093925594" y1="-3025.046229629319" x2="338.0946093925594" y2="-3125.046229629319" stroke-width="4" stroke="black" />
<line x1="338.0946093925594" y1="-3125.046229629319" x2="295.83278321848945" y2="-3215.677008332984" stroke-width="4" stroke="black" />
<line x1="295.83278321848945" y1="-3215.677008332984" x2="253.57095704441954" y2="-3306.3077870366487" stroke-width="4" stroke="black" />
<line x1="253.57095704441954" y1="-3306.3077870366487" x2="211.30913087034963" y2="-3396.9385657403136" stroke-width="4" stroke="black" />
<line x1="211.30913087034963" y1="-3396.9385657403136" x2="169.04730469627972" y2="-3487.5693444439785" stroke-width="4" stroke="black" />
<line x1="169.04730469627972" y1="-3487.5693444439785" x2="92.44286038438192" y2="-3551.8481054126323" stroke-width="4" stroke="black" />
<line x1="338.0946093925594" y1="-3125.046229629319" x2="380.35643556662933" y2="-3215.677008332984" stroke-width="4" stroke="black" />
<line x1="380.35643556662933" y1="-3215.677008332984" x2="422.61826174069927" y2="-3306.3077870366487" stroke-width="4" stroke="black" />
<line x1="422.61826174069927" y1="-3306.3077870366487" x2="422.61826174069927" y2="-3406.3077870366487" stroke-width="4" stroke="black" />
<line x1="338.0946093925594" y1="-2325.046229629319" x2="414.6990537044572" y2="-2389.324990597973" stroke-width="4" stroke="black" />
<line x1="414.6990537044572" y1="-2389.324990597973" x2="491.303498016355" y2="-2453.6037515666267" stroke-width="4" stroke="black" />
<line x1="491.303498016355" y1="-2453.6037515666267" x2="587.8960806452618" y2="-2479.4856560768785" stroke-width="4" stroke="black" />
<line x1="587.8960806452618" y1="-2479.4856560768785" x2="684.4886632741686" y2="-2505.3675605871304" stroke-width="4" stroke="black" />
<line x1="684.4886632741686" y1="-2505.3675605871304" x2="761.0931075860664" y2="-2569.646321555784" stroke-width="4" stroke="black" />
<line x1="491.303498016355" y1="-2453.6037515666267" x2="567.9079423282527" y2="-2517.8825125352805" stroke-width="4" stroke="black" />
<line x1="567.9079423282527" y1="-2517.8825125352805" x2="644.5123866401505" y2="-2582.1612735039344" stroke-width="4" stroke="black" />
<line x1="644.5123866401505" y1="-2582.1612735039344" x2="686.7742128142204" y2="-2672.792052207599" stroke-width="4" stroke="black" />
<line x1="491.303498016355" y1="-2453.6037515666267" x2="567.9079423282527" y2="-2517.8825125352805" stroke-width="4" stroke="black" />
<line x1="567.9079423282527" y1="-2517.8825125352805" x2="644.5123866401505" y2="-2582.1612735039344" stroke-width="4" stroke="black" />
<line x1="644.5123866401505" y1="-2582.1612735039344" x2="686.7742128142204" y2="-2672.792052207599" stroke-width="4" stroke="black" />
<line x1="686.7742128142204" y1="-2672.792052207599" x2="729.0360389882903" y2="-2763.422830911264" stroke-width="4" stroke="black" />
<line x1="729.0360389882903" y1="-2763.422830911264" x2="771.2978651623603" y2="-2854.053609614929" stroke-width="4" stroke="black" />
<line x1="771.2978651623603" y1="-2854.053609614929" x2="813.5596913364302" y2="-2944.684388318594" stroke-width="4" stroke="black" />
<line x1="813.5596913364302" y1="-2944.684388318594" x2="813.5596913364302" y2="-3044.684388318594" stroke-width="4" stroke="black" />
<line x1="644.5123866401505" y1="-2582.1612735039344" x2="741.1049692690573" y2="-2608.043178014186" stroke-width="4" stroke="black" />
<line x1="741.1049692690573" y1="-2608.043178014186" x2="837.6975518979641" y2="-2633.925082524438" stroke-width="4" stroke="black" />
<line x1="837.6975518979641" y1="-2633.925082524438" x2="914.3019962098618" y2="-2698.203843493092" stroke-width="4" stroke="black" />
</svg>