<svg viewBox="-99.99999999999993 -100.00000000000003 300.0 500.0000000000002" xmlns="http://www.w3.org/2000/svg"><line x1="0" y1="0" x2="-1.8369701987210297E-14" y2="-100.0" stroke-width="4" stroke="black" />
<line x1="-1.8369701987210297E-14" y1="-100.0" x2="99.99999999999999" y2="-100.00000000000003" stroke-width="4" stroke="black" />
<line x1="99.99999999999999" y1="-100.00000000000003" x2="100.00000000000001" y2="-2.842170943040401E-14" stroke-width="4" stroke="black" />
<line x1="100.00000000000001" y1="-2.842170943040401E-14" x2="200.0" y2="-5.2914645413351075E-14" stroke-width="4" stroke="black" />
<line x1="200.0" y1="-5.2914645413351075E-14" x2="200.00000000000003" y2="99.99999999999994" stroke-width="4" stroke="black" />
<line x1="200.00000000000003" y1="99.99999999999994" x2="100.00000000000003" y2="99.99999999999999" stroke-width="4" stroke="black" />
<line x1="100.00000000000003" y1="99.99999999999999" x2="100.00000000000006" y2="200.0" stroke-width="4" stroke="black" />
<line x1="100.00000000000006" y1="200.0" x2="200.00000000000006" y2="199.99999999999997" stroke-width="4" stroke="black" />
<line x1="200.00000000000006" y1="199.99999999999997" x2="200.00000000000009" y2="300.0" stroke-width="4" stroke="black" />
<line x1="200.00000000000009" y1="300.0" x2="100.00000000000009" y2="300.00000000000006" stroke-width="4" stroke="black" />
<line x1="100.00000000000009" y1="300.00000000000006" x2="100.00000000000004" y2="200.00000000000006" stroke-width="4" stroke="black" />
<line x1="100.00000000000004" y1="200.00000000000006" x2="4.263256414560601E-14" y2="200.00000000000009" stroke-width="4" stroke="black" />
<line x1="4.263256414560601E-14" y1="200.00000000000009" x2="7.324873412428985E-14" y2="300.0000000000001" stroke-width="4" stroke="black" />
<line x1="7.324873412428985E-14" y1="300.0000000000001" x2="-99.99999999999993" y2="300.00000000000017" stroke-width="4" stroke="black" />
<line x1="-99.99999999999993" y1="300.00000000000017" x2="-99.9999999999999" y2="400.00000000000017" stroke-width="4" stroke="black" />
<line x1="-99.9999999999999" y1="400.00000000000017" x2="9.947598300641403E-14" y2="400.00000000000017" stroke-width="4" stroke="black" />
</svg>