<svg viewBox="-4000.0 -8100.0 4000.0 8100.0" xmlns="http://www.w3.org/2000/svg"><line x1="0" y1="0" x2="-1.8369701987210297E-14" y2="-100.0" stroke-width="4" stroke="black" />
<line x1="-1.8369701987210297E-14" y1="-100.0" x2="-100.00000000000001" y2="-99.99999999999999" stroke-width="4" stroke="black" />
<line x1="-100.00000000000001" y1="-99.99999999999999" x2="-100.00000000000003" y2="-200.0" stroke-width="4" stroke="black" />
<line x1="-100.00000000000003" y1="-200.0" x2="-2.842170943040401E-14" y2="-200.00000000000003" stroke-width="4" stroke="black" />
<line x1="-2.842170943040401E-14" y1="-200.00000000000003" x2="-4.6791411417614305E-14" y2="-300.0" stroke-width="4" stroke="black" />
<line x1="-4.6791411417614305E-14" y1="-300.0" x2="-100.00000000000004" y2="-300.0" stroke-width="4" stroke="black" />
<line x1="-100.00000000000004" y1="-300.0" x2="-100.00000000000004" y2="-200.0" stroke-width="4" stroke="black" />
<line x1="-100.00000000000004" y1="-200.0" x2="-200.00000000000006" y2="-200.0" stroke-width="4" stroke="black" />
<line x1="-200.00000000000006" y1="-200.0" x2="-200.00000000000009" y2="-300.0" stroke-width="4" stroke="black" />
<line x1="-200.00000000000009" y1="-300.0" x2="-300.0000000000001" y2="-300.0" stroke-width="4" stroke="black" />
<line x1="-300.0000000000001" y1="-300.0" x2="-300.0000000000001" y2="-400.0" stroke-width="4" stroke="black" />
<line x1="-300.0000000000001" y1="-400.0" x2="-400.0000000000001" y2="-400.0" stroke-width="4" stroke="black" />
<line x1="-400.0000000000001" y1="-400.0" x2="-400.0000000000001" y2="-500.0" stroke-width="4" stroke="black" />
<line x1="-400.0000000000001" y1="-500.0" x2="-300.0000000000001" y2="-500.0" stroke-width="4" stroke="black" />
<line x1="-300.0000000000001" y1="-500.0" x2="-300.0000000000001" y2="-600.0" stroke-width="4" stroke="black" />
<line x1="-300.0000000000001" y1="-600.0" x2="-200.0000000000001" y2="-600.0" stroke-width="4" stroke="black" />
<line x1="-200.0000000000001" y1="-600.0" x2="-200.00000000000014" y2="-700.0" stroke-width="4" stroke="black" />
<line x1="-200.00000000000014" y1="-700.0" x2="-100.00000000000014" y2="-700.0" stroke-width="4" stroke="black" />
<line x1="-100.00000000000014" y1="-700.0" x2="-100.00000000000011" y2="-600.0" stroke-width="4" stroke="black" />
<line x1="-100.00000000000011" y1="-600.0" x2="-1.1368683772161603E-13" y2="-600.0" stroke-width="4" stroke="black" />
<line x1="-1.1368683772161603E-13" y1="-600.0" x2="-1.3205653970882633E-13" y2="-700.0" stroke-width="4" stroke="black" />
<line x1="-1.3205653970882633E-13" y1="-700.0" x2="-100.00000000000013" y2="-700.0" stroke-width="4" stroke="black" />
<line x1="-100.00000000000013" y1="-700.0" x2="-100.00000000000014" y2="-800.0" stroke-width="4" stroke="black" />
<line x1="-100.00000000000014" y1="-800.0" x2="-1.4210854715202004E-13" y2="-800.0" stroke-width="4" stroke="black" />
<line x1="-1.4210854715202004E-13" y1="-800.0" x2="-1.6047824913923033E-13" y2="-900.0" stroke-width="4" stroke="black" />
<line x1="-1.6047824913923033E-13" y1="-900.0" x2="-100.00000000000016" y2="-900.0" stroke-width="4" stroke="black" />
<line x1="-100.00000000000016" y1="-900.0" x2="-100.00000000000016" y2="-800.0" stroke-width="4" stroke="black" />
<line x1="-100.00000000000016" y1="-800.0" x2="-200.00000000000017" y2="-800.0" stroke-width="4" stroke="black" />
<line x1="-200.00000000000017" y1="-800.0" x2="-200.0000000000002" y2="-900.0" stroke-width="4" stroke="black" />
<line x1="-200.0000000000002" y1="-900.0" x2="-300.0000000000002" y2="-900.0" stroke-width="4" stroke="black" />
<line x1="-300.0000000000002" y1="-900.0" x2="-300.0000000000002" y2="-800.0" stroke-width="4" stroke="black" />
<line x1="-300.0000000000002" y1="-800.0" x2="-200.00000000000023" y2="-800.0" stroke-width="4" stroke="black" />
<line x1="-200.00000000000023" y1="-800.0" x2="-200.00000000000023" y2="-700.0" stroke-width="4" stroke="black" />
<line x1="-200.00000000000023" y1="-700.0" x2="-300.0000000000002" y2="-700.0" stroke-width="4" stroke="black" />
<line x1="-300.0000000000002" y1="-700.0" x2="-300.0000000000002" y2="-600.0" stroke-width="4" stroke="black" />
<line x1="-300.0000000000002" y1="-600.0" x2="-400.0000000000002" y2="-600.0" stroke-width="4" stroke="black" />
<line x1="-400.0000000000002" y1="-600.0" x2="-400.0000000000002" y2="-500.0" stroke-width="4" stroke="black" />
<line x1="-400.0000000000002" y1="-500.0" x2="-500.0000000000002" y2="-500.0" stroke-width="4" stroke="black" />
<line x1="-500.0000000000002" y1="-500.0" x2="-500.0000000000002" y2="-600.0" stroke-width="4" stroke="black" />
<line x1="-500.0000000000002" y1="-600.0" x2="-600.0000000000002" y2="-600.0" stroke-width="4" stroke="black" />
<line x1="-600.0000000000002" y1="-600.0" x2="-600.0000000000002" y2="-700.0" stroke-width="4" stroke="black" />
<line x1="-600.0000000000002" y1="-700.0" x2="-700.0000000000002" y2="-700.0" stroke-width="4" stroke="black" />
<line x1="-700.0000000000002" y1="-700.0" x2="-700.0000000000002" y2="-800.0" stroke-width="4" stroke="black" />
<line x1="-700.0000000000002" y1="-800.0" x2="-600.0000000000002" y2="-800.0" stroke-width="4" stroke="black" />
<line x1="-600.0000000000002" y1="-800.0" x2="-600.0000000000002" y2="-900.0" stroke-width="4" stroke="black" />
<line x1="-600.0000000000002" y1="-900.0" x2="-700.0000000000002" y2="-900.0" stroke-width="4" stroke="black" />
<line x1="-700.0000000000002" y1="-900.0" x2="-700.0000000000002" y2="-800.0" stroke-width="4" stroke="black" />
<line x1="-700.0000000000002" y1="-800.0" x2="-800.0000000000002" y2="-800.0" stroke-width="4" stroke="black" />
<line x1="-800.0000000000002" y1="-800.0" x2="-800.0000000000002" y2="-900.0" stroke-width="4" stroke="black" />
<line x1="-800.0000000000002" y1="-900.0" x2="-900.0000000000002" y2="-900.0" stroke-width="4" stroke="black" />
<line x1="-900.0000000000002" y1="-900.0" x2="-900.0000000000002" y2="-1000.0" stroke-width="4" stroke="black" />
<line x1="-900.0000000000002" y1="-1000.0" x2="-1000.0000000000002" y2="-1000.0" stroke-width="4" stroke="black" />
<line x1="-1000.0000000000002" y1="-1000.0" x2="-1000.0000000000002" y2="-1100.0" stroke-width="4" stroke="black" />
<line x1="-1000.0000000000002" y1="-1100.0" x2="-900.0000000000002" y2="-1100.0" stroke-width="4" stroke="black" />
<line x1="-900.0000000000002" y1="-1100.0" x2="-900.0000000000002" y2="-1200.0" stroke-width="4" stroke="black" />
<line x1="-900.0000000000002" y1="-1200.0" x2="-1000.0000000000002" y2="-1200.0" stroke-width="4" stroke="black" />
<line x1="-1000.0000000000002" y1="-1200.0" x2="-1000.0000000000002" y2="-1100.0" stroke-width="4" stroke="black" />
<line x1="-1000.0000000000002" y1="-1100.0" x2="-1100.0000000000002" y2="-1100.0" stroke-width="4" stroke="black" />
<line x1="-1100.0000000000002" y1="-1100.0" x2="-1100.0000000000002" y2="-1200.0" stroke-width="4" stroke="black" />
<line x1="-1100.0000000000002" y1="-1200.0" x2="-1200.0000000000002" y2="-1200.0" stroke-width="4" stroke="black" />
<line x1="-1200.0000000000002" y1="-1200.0" x2="-1200.0000000000002" y2="-1300.0" stroke-width="4" stroke="black" />
<line x1="-1200.0000000000002" y1="-1300.0" x2="-1300.0000000000002" y2="-1300.0" stroke-width="4" stroke="black" />
<line x1="-1300.0000000000002" y1="-1300.0" x2="-1300.0000000000002" y2="-1400.0" stroke-width="4" stroke="black" />
<line x1="-1300.0000000000002" y1="-1400.0" x2="-1200.0000000000002" y2="-1400.0" stroke-width="4" stroke="black" />
<line x1="-1200.0000000000002" y1="-1400.0" x2="-1200.0000000000002" y2="-1500.0" stroke-width="4" stroke="black" />
<line x1="-1200.0000000000002" y1="-1500.0" x2="-1100.0000000000002" y2="-1500.0" stroke-width="4" stroke="black" />
<line x1="-1100.0000000000002" y1="-1500.0" x2="-1100.0000000000002" y2="-1600.0" stroke-width="4" stroke="black" />
<line x1="-1100.0000000000002" y1="-1600.0" x2="-1000.0000000000002" y2="-1600.0" stroke-width="4" stroke="black" />
<line x1="-1000.0000000000002" y1="-1600.0" x2="-1000.0000000000002" y2="-1500.0" stroke-width="4" stroke="black" />
<line x1="-1000.0000000000002" y1="-1500.0" x2="-900.0000000000002" y2="-1500.0" stroke-width="4" stroke="black" />
<line x1="-900.0000000000002" y1="-1500.0" x2="-900.0000000000002" y2="-1600.0" stroke-width="4" stroke="black" />
<line x1="-900.0000000000002" y1="-1600.0" x2="-1000.0000000000002" y2="-1600.0" stroke-width="4" stroke="black" />
<line x1="-1000.0000000000002" y1="-1600.0" x2="-1000.0000000000002" y2="-1700.0" stroke-width="4" stroke="black" />
<line x1="-1000.0000000000002" y1="-1700.0" x2="-900.0000000000002" y2="-1700.0" stroke-width="4" stroke="black" />
<line x1="-900.0000000000002" y1="-1700.0" x2="-900.0000000000002" y2="-1800.0" stroke-width="4" stroke="black" />
<line x1="-900.0000000000002" y1="-1800.0" x2="-800.0000000000002" y2="-1800.0" stroke-width="4" stroke="black" />
<line x1="-800.0000000000002" y1="-1800.0" x2="-800.0000000000002" y2="-1900.0" stroke-width="4" stroke="black" />
<line x1="-800.0000000000002" y1="-1900.0" x2="-700.0000000000002" y2="-1900.0" stroke-width="4" stroke="black" />
<line x1="-700.0000000000002" y1="-1900.0" x2="-700.0000000000002" y2="-1800.0" stroke-width="4" stroke="black" />
<line x1="-700.0000000000002" y1="-1800.0" x2="-600.0000000000002" y2="-1800.0" stroke-width="4" stroke="black" />
<line x1="-600.0000000000002" y1="-1800.0" x2="-600.0000000000002" y2="-1900.0" stroke-width="4" stroke="black" />
<line x1="-600.0000000000002" y1="-1900.0" x2="-700.0000000000002" y2="-1900.0" stroke-width="4" stroke="black" />
<line x1="-700.0000000000002" y1="-1900.0" x2="-700.0000000000002" y2="-2000.0" stroke-width="4" stroke="black" />
<line x1="-700.0000000000002" y1="-2000.0" x2="-600.0000000000002" y2="-2000.0" stroke-width="4" stroke="black" />
<line x1="-600.0000000000002" y1="-2000.0" x2="-600.0000000000002" y2="-2100.0" stroke-width="4" stroke="black" />
<line x1="-600.0000000000002" y1="-2100.0" x2="-500.0000000000002" y2="-2100.0" stroke-width="4" stroke="black" />
<line x1="-500.0000000000002" y1="-2100.0" x2="-500.0000000000002" y2="-2200.0" stroke-width="4" stroke="black" />
<line x1="-500.0000000000002" y1="-2200.0" x2="-400.0000000000002" y2="-2200.0" stroke-width="4" stroke="black" />
<line x1="-400.0000000000002" y1="-2200.0" x2="-400.00000000000017" y2="-2100.0" stroke-width="4" stroke="black" />
<line x1="-400.00000000000017" y1="-2100.0" x2="-300.00000000000017" y2="-2100.0" stroke-width="4" stroke="black" />
<line x1="-300.00000000000017" y1="-2100.0" x2="-300.0000000000001" y2="-2000.0" stroke-width="4" stroke="black" />
<line x1="-300.0000000000001" y1="-2000.0" x2="-200.0000000000001" y2="-2000.0" stroke-width="4" stroke="black" />
<line x1="-200.0000000000001" y1="-2000.0" x2="-200.00000000000009" y2="-1900.0" stroke-width="4" stroke="black" />
<line x1="-200.00000000000009" y1="-1900.0" x2="-300.0000000000001" y2="-1900.0" stroke-width="4" stroke="black" />
<line x1="-300.0000000000001" y1="-1900.0" x2="-300.00000000000006" y2="-1800.0" stroke-width="4" stroke="black" />
<line x1="-300.00000000000006" y1="-1800.0" x2="-200.00000000000006" y2="-1800.0" stroke-width="4" stroke="black" />
<line x1="-200.00000000000006" y1="-1800.0" x2="-200.00000000000009" y2="-1900.0" stroke-width="4" stroke="black" />
<line x1="-200.00000000000009" y1="-1900.0" x2="-100.00000000000009" y2="-1900.0" stroke-width="4" stroke="black" />
<line x1="-100.00000000000009" y1="-1900.0" x2="-100.00000000000006" y2="-1800.0" stroke-width="4" stroke="black" />
<line x1="-100.00000000000006" y1="-1800.0" x2="-5.684341886080802E-14" y2="-1800.0" stroke-width="4" stroke="black" />
<line x1="-5.684341886080802E-14" y1="-1800.0" x2="-7.521312084801831E-14" y2="-1900.0" stroke-width="4" stroke="black" />
<line x1="-7.521312084801831E-14" y1="-1900.0" x2="-100.00000000000007" y2="-1900.0" stroke-width="4" stroke="black" />
<line x1="-100.00000000000007" y1="-1900.0" x2="-100.00000000000009" y2="-2000.0" stroke-width="4" stroke="black" />
<line x1="-100.00000000000009" y1="-2000.0" x2="-8.526512829121202E-14" y2="-2000.0" stroke-width="4" stroke="black" />
<line x1="-8.526512829121202E-14" y1="-2000.0" x2="-1.0363483027842232E-13" y2="-2100.0" stroke-width="4" stroke="black" />
<line x1="-1.0363483027842232E-13" y1="-2100.0" x2="-100.0000000000001" y2="-2100.0" stroke-width="4" stroke="black" />
<line x1="-100.0000000000001" y1="-2100.0" x2="-100.0000000000001" y2="-2000.0" stroke-width="4" stroke="black" />
<line x1="-100.0000000000001" y1="-2000.0" x2="-200.0000000000001" y2="-2000.0" stroke-width="4" stroke="black" />
<line x1="-200.0000000000001" y1="-2000.0" x2="-200.00000000000014" y2="-2100.0" stroke-width="4" stroke="black" />
<line x1="-200.00000000000014" y1="-2100.0" x2="-300.0000000000001" y2="-2100.0" stroke-width="4" stroke="black" />
<line x1="-300.0000000000001" y1="-2100.0" x2="-300.0000000000001" y2="-2200.0" stroke-width="4" stroke="black" />
<line x1="-300.0000000000001" y1="-2200.0" x2="-400.0000000000001" y2="-2200.0" stroke-width="4" stroke="black" />
<line x1="-400.0000000000001" y1="-2200.0" x2="-400.0000000000001" y2="-2300.0" stroke-width="4" stroke="black" />
<line x1="-400.0000000000001" y1="-2300.0" x2="-300.0000000000001" y2="-2300.0" stroke-width="4" stroke="black" />
<line x1="-300.0000000000001" y1="-2300.0" x2="-300.0000000000001" y2="-2400.0" stroke-width="4" stroke="black" />
<line x1="-300.0000000000001" y1="-2400.0" x2="-200.0000000000001" y2="-2400.0" stroke-width="4" stroke="black" />
<line x1="-200.0000000000001" y1="-2400.0" x2="-200.00000000000014" y2="-2500.0" stroke-width="4" stroke="black" />
<line x1="-200.00000000000014" y1="-2500.0" x2="-100.00000000000014" y2="-2500.0" stroke-width="4" stroke="black" />
<line x1="-100.00000000000014" y1="-2500.0" x2="-100.00000000000011" y2="-2400.0" stroke-width="4" stroke="black" />
<line x1="-100.00000000000011" y1="-2400.0" x2="-1.1368683772161603E-13" y2="-2400.0" stroke-width="4" stroke="black" />
<line x1="-1.1368683772161603E-13" y1="-2400.0" x2="-1.3205653970882633E-13" y2="-2500.0" stroke-width="4" stroke="black" />
<line x1="-1.3205653970882633E-13" y1="-2500.0" x2="-100.00000000000013" y2="-2500.0" stroke-width="4" stroke="black" />
<line x1="-100.00000000000013" y1="-2500.0" x2="-100.00000000000014" y2="-2600.0" stroke-width="4" stroke="black" />
<line x1="-100.00000000000014" y1="-2600.0" x2="-1.4210854715202004E-13" y2="-2600.0" stroke-width="4" stroke="black" />
<line x1="-1.4210854715202004E-13" y1="-2600.0" x2="-1.6047824913923033E-13" y2="-2700.0" stroke-width="4" stroke="black" />
<line x1="-1.6047824913923033E-13" y1="-2700.0" x2="-100.00000000000016" y2="-2700.0" stroke-width="4" stroke="black" />
<line x1="-100.00000000000016" y1="-2700.0" x2="-100.00000000000016" y2="-2600.0" stroke-width="4" stroke="black" />
<line x1="-100.00000000000016" y1="-2600.0" x2="-200.00000000000017" y2="-2600.0" stroke-width="4" stroke="black" />
<line x1="-200.00000000000017" y1="-2600.0" x2="-200.0000000000002" y2="-2700.0" stroke-width="4" stroke="black" />
<line x1="-200.0000000000002" y1="-2700.0" x2="-300.0000000000002" y2="-2700.0" stroke-width="4" stroke="black" />
<line x1="-300.0000000000002" y1="-2700.0" x2="-300.0000000000002" y2="-2600.0" stroke-width="4" stroke="black" />
<line x1="-300.0000000000002" y1="-2600.0" x2="-200.00000000000023" y2="-2600.0" stroke-width="4" stroke="black" />
<line x1="-200.00000000000023" y1="-2600.0" x2="-200.00000000000023" y2="-2500.0" stroke-width="4" stroke="black" />
<line x1="-200.00000000000023" y1="-2500.0" x2="-300.0000000000002" y2="-2500.0" stroke-width="4" stroke="black" />
<line x1="-300.0000000000002" y1="-2500.0" x2="-300.0000000000002" y2="-2400.0" stroke-width="4" stroke="black" />
<line x1="-300.0000000000002" y1="-2400.0" x2="-400.0000000000002" y2="-2400.0" stroke-width="4" stroke="black" />
<line x1="-400.0000000000002" y1="-2400.0" x2="-400.0000000000002" y2="-2300.0" stroke-width="4" stroke="black" />
<line x1="-400.0000000000002" y1="-2300.0" x2="-500.0000000000002" y2="-2300.0" stroke-width="4" stroke="black" />
<line x1="-500.0000000000002" y1="-2300.0" x2="-500.0000000000002" y2="-2400.0" stroke-width="4" stroke="black" />
<line x1="-500.0000000000002" y1="-2400.0" x2="-600.0000000000002" y2="-2400.0" stroke-width="4" stroke="black" />
<line x1="-600.0000000000002" y1="-2400.0" x2="-600.0000000000002" y2="-2500.0" stroke-width="4" stroke="black" />
<line x1="-600.0000000000002" y1="-2500.0" x2="-700.0000000000002" y2="-2500.0" stroke-width="4" stroke="black" />
<line x1="-700.0000000000002" y1="-2500.0" x2="-700.0000000000002" y2="-2600.0" stroke-width="4" stroke="black" />
<line x1="-700.0000000000002" y1="-2600.0" x2="-600.0000000000002" y2="-2600.0" stroke-width="4" stroke="black" />
<line x1="-600.0000000000002" y1="-2600.0" x2="-600.0000000000002" y2="-2700.0" stroke-width="4" stroke="black" />
<line x1="-600.0000000000002" y1="-2700.0" x2="-700.0000000000002" y2="-2700.0" stroke-width="4" stroke="black" />
<line x1="-700.0000000000002" y1="-2700.0" x2="-700.0000000000002" y2="-2600.0" stroke-width="4" stroke="black" />
<line x1="-700.0000000000002" y1="-2600.0" x2="-800.0000000000002" y2="-2600.0" stroke-width="4" stroke="black" />
<line x1="-800.0000000000002" y1="-2600.0" x2="-800.0000000000002" y2="-2700.0" stroke-width="4" stroke="black" />
<line x1="-800.0000000000002" y1="-2700.0" x2="-900.0000000000002" y2="-2700.0" stroke-width="4" stroke="black" />
<line x1="-900.0000000000002" y1="-2700.0" x2="-900.0000000000002" y2="-2600.0" stroke-width="4" stroke="black" />
<line x1="-900.0000000000002" y1="-2600.0" x2="-800.0000000000002" y2="-2600.0" stroke-width="4" stroke="black" />
<line x1="-800.0000000000002" y1="-2600.0" x2="-800.0000000000002" y2="-2500.0" stroke-width="4" stroke="black" />
<line x1="-800.0000000000002" y1="-2500.0" x2="-900.0000000000002" y2="-2500.0" stroke-width="4" stroke="black" />
<line x1="-900.0000000000002" y1="-2500.0" x2="-900.0000000000002" y2="-2400.0" stroke-width="4" stroke="black" />
<line x1="-900.0000000000002" y1="-2400.0" x2="-800.0000000000002" y2="-2400.0" stroke-width="4" stroke="black" />
<line x1="-800.0000000000002" y1="-2400.0" x2="-800.0000000000002" y2="-2500.0" stroke-width="4" stroke="black" />
<line x1="-800.0000000000002" y1="-2500.0" x2="-700.0000000000002" y2="-2500.0" stroke-width="4" stroke="black" />
<line x1="-700.0000000000002" y1="-2500.0" x2="-700.0000000000002" y2="-2400.0" stroke-width="4" stroke="black" />
<line x1="-700.0000000000002" y1="-2400.0" x2="-600.0000000000002" y2="-2400.0" stroke-width="4" stroke="black" />
<line x1="-600.0000000000002" y1="-2400.0" x2="-600.0000000000002" y2="-2300.0" stroke-width="4" stroke="black" />
<line x1="-600.0000000000002" y1="-2300.0" x2="-500.0000000000002" y2="-2300.0" stroke-width="4" stroke="black" />
<line x1="-500.0000000000002" y1="-2300.0" x2="-500.0000000000002" y2="-2200.0" stroke-width="4" stroke="black" />
<line x1="-500.0000000000002" y1="-2200.0" x2="-600.0000000000002" y2="-2200.0" stroke-width="4" stroke="black" />
<line x1="-600.0000000000002" y1="-2200.0" x2="-600.0000000000002" y2="-2100.0" stroke-width="4" stroke="black" />
<line x1="-600.0000000000002" y1="-2100.0" x2="-700.0000000000002" y2="-2100.0" stroke-width="4" stroke="black" />
<line x1="-700.0000000000002" y1="-2100.0" x2="-700.0000000000002" y2="-2000.0" stroke-width="4" stroke="black" />
<line x1="-700.0000000000002" y1="-2000.0" x2="-800.0000000000002" y2="-2000.0" stroke-width="4" stroke="black" />
<line x1="-800.0000000000002" y1="-2000.0" x2="-800.0000000000002" y2="-2100.0" stroke-width="4" stroke="black" />
<line x1="-800.0000000000002" y1="-2100.0" x2="-900.0000000000002" y2="-2100.0" stroke-width="4" stroke="black" />
<line x1="-900.0000000000002" y1="-2100.0" x2="-900.0000000000002" y2="-2000.0" stroke-width="4" stroke="black" />
<line x1="-900.0000000000002" y1="-2000.0" x2="-800.0000000000002" y2="-2000.0" stroke-width="4" stroke="black" />
<line x1="-800.0000000000002" y1="-2000.0" x2="-800.0000000000002" y2="-1900.0" stroke-width="4" stroke="black" />
<line x1="-800.0000000000002" y1="-1900.0" x2="-900.0000000000002" y2="-1900.0" stroke-width="4" stroke="black" />
<line x1="-900.0000000000002" y1="-1900.0" x2="-900.0000000000002" y2="-1800.0" stroke-width="4" stroke="black" />
<line x1="-900.0000000000002" y1="-1800.0" x2="-1000.0000000000002" y2="-1800.0" stroke-width="4" stroke="black" />
<line x1="-1000.0000000000002" y1="-1800.0" x2="-1000.0000000000002" y2="-1700.0" stroke-width="4" stroke="black" />
<line x1="-1000.0000000000002" y1="-1700.0" x2="-1100.0000000000002" y2="-1700.0" stroke-width="4" stroke="black" />
<line x1="-1100.0000000000002" y1="-1700.0" x2="-1100.0000000000002" y2="-1800.0" stroke-width="4" stroke="black" />
<line x1="-1100.0000000000002" y1="-1800.0" x2="-1200.0000000000002" y2="-1800.0" stroke-width="4" stroke="black" />
<line x1="-1200.0000000000002" y1="-1800.0" x2="-1200.0000000000002" y2="-1700.0" stroke-width="4" stroke="black" />
<line x1="-1200.0000000000002" y1="-1700.0" x2="-1100.0000000000002" y2="-1700.0" stroke-width="4" stroke="black" />
<line x1="-1100.0000000000002" y1="-1700.0" x2="-1100.0000000000002" y2="-1600.0" stroke-width="4" stroke="black" />
<line x1="-1100.0000000000002" y1="-1600.0" x2="-1200.0000000000002" y2="-1600.0" stroke-width="4" stroke="black" />
<line x1="-1200.0000000000002" y1="-1600.0" x2="-1200.0000000000002" y2="-1500.0" stroke-width="4" stroke="black" />
<line x1="-1200.0000000000002" y1="-1500.0" x2="-1300.0000000000002" y2="-1500.0" stroke-width="4" stroke="black" />
<line x1="-1300.0000000000002" y1="-1500.0" x2="-1300.0000000000002" y2="-1400.0" stroke-width="4" stroke="black" />
<line x1="-1300.0000000000002" y1="-1400.0" x2="-1400.0000000000002" y2="-1400.0" stroke-width="4" stroke="black" />
<line x1="-1400.0000000000002" y1="-1400.0" x2="-1400.0000000000002" y2="-1500.0" stroke-width="4" stroke="black" />
<line x1="-1400.0000000000002" y1="-1500.0" x2="-1500.0000000000002" y2="-1500.0" stroke-width="4" stroke="black" />
<line x1="-1500.0000000000002" y1="-1500.0" x2="-1500.0000000000002" y2="-1600.0" stroke-width="4" stroke="black" />
<line x1="-1500.0000000000002" y1="-1600.0" x2="-1600.0000000000002" y2="-1600.0" stroke-width="4" stroke="black" />
<line x1="-1600.0000000000002" y1="-1600.0" x2="-1600.0000000000002" y2="-1700.0" stroke-width="4" stroke="black" />
<line x1="-1600.0000000000002" y1="-1700.0" x2="-1500.0000000000002" y2="-1700.0" stroke-width="4" stroke="black" />
<line x1="-1500.0000000000002" y1="-1700.0" x2="-1500.0000000000002" y2="-1800.0" stroke-width="4" stroke="black" />
<line x1="-1500.0000000000002" y1="-1800.0" x2="-1600.0000000000002" y2="-1800.0" stroke-width="4" stroke="black" />
<line x1="-1600.0000000000002" y1="-1800.0" x2="-1600.0000000000002" y2="-1700.0" stroke-width="4" stroke="black" />
<line x1="-1600.0000000000002" y1="-1700.0" x2="-1700.0000000000002" y2="-1700.0" stroke-width="4" stroke="black" />
<line x1="-1700.0000000000002" y1="-1700.0" x2="-1700.0000000000002" y2="-1800.0" stroke-width="4" stroke="black" />
<line x1="-1700.0000000000002" y1="-1800.0" x2="-1800.0000000000002" y2="-1800.0" stroke-width="4" stroke="black" />
<line x1="-1800.0000000000002" y1="-1800.0" x2="-1800.0000000000002" y2="-1900.0" stroke-width="4" stroke="black" />
<line x1="-1800.0000000000002" y1="-1900.0" x2="-1900.0000000000002" y2="-1900.0" stroke-width="4" stroke="black" />
<line x1="-1900.0000000000002" y1="-1900.0" x2="-1900.0000000000002" y2="-2000.0" stroke-width="4" stroke="black" />
<line x1="-1900.0000000000002" y1="-2000.0" x2="-1800.0000000000002" y2="-2000.0" stroke-width="4" stroke="black" />
<line x1="-1800.0000000000002" y1="-2000.0" x2="-1800.0000000000002" y2="-2100.0" stroke-width="4" stroke="black" />
<line x1="-1800.0000000000002" y1="-2100.0" x2="-1900.0000000000002" y2="-2100.0" stroke-width="4" stroke="black" />
<line x1="-1900.0000000000002" y1="-2100.0" x2="-1900.0000000000002" y2="-2000.0" stroke-width="4" stroke="black" />
<line x1="-1900.0000000000002" y1="-2000.0" x2="-2000.0000000000002" y2="-2000.0" stroke-width="4" stroke="black" />
<line x1="-2000.0000000000002" y1="-2000.0" x2="-2000.0000000000002" y2="-2100.0" stroke-width="4" stroke="black" />
<line x1="-2000.0000000000002" y1="-2100.0" x2="-2100.0" y2="-2100.0" stroke-width="4" stroke="black" />
<line x1="-2100.0" y1="-2100.0" x2="-2100.0" y2="-2200.0" stroke-width="4" stroke="black" />
<line x1="-2100.0" y1="-2200.0" x2="-2200.0" y2="-2200.0" stroke-width="4" stroke="black" />
<line x1="-2200.0" y1="-2200.0" x2="-2200.0" y2="-2300.0" stroke-width="4" stroke="black" />
<line x1="-2200.0" y1="-2300.0" x2="-2100.0" y2="-2300.0" stroke-width="4" stroke="black" />
<line x1="-2100.0" y1="-2300.0" x2="-2100.0" y2="-2400.0" stroke-width="4" stroke="black" />
<line x1="-2100.0" y1="-2400.0" x2="-2000.0" y2="-2400.0" stroke-width="4" stroke="black" />
<line x1="-2000.0" y1="-2400.0" x2="-2000.0" y2="-2500.0" stroke-width="4" stroke="black" />
<line x1="-2000.0" y1="-2500.0" x2="-1900.0" y2="-2500.0" stroke-width="4" stroke="black" />
<line x1="-1900.0" y1="-2500.0" x2="-1900.0" y2="-2400.0" stroke-width="4" stroke="black" />
<line x1="-1900.0" y1="-2400.0" x2="-1800.0" y2="-2400.0" stroke-width="4" stroke="black" />
<line x1="-1800.0" y1="-2400.0" x2="-1800.0" y2="-2500.0" stroke-width="4" stroke="black" />
<line x1="-1800.0" y1="-2500.0" x2="-1900.0" y2="-2500.0" stroke-width="4" stroke="black" />
<line x1="-1900.0" y1="-2500.0" x2="-1900.0" y2="-2600.0" stroke-width="4" stroke="black" />
<line x1="-1900.0" y1="-2600.0" x2="-1800.0" y2="-2600.0" stroke-width="4" stroke="black" />
<line x1="-1800.0" y1="-2600.0" x2="-1800.0" y2="-2700.0" stroke-width="4" stroke="black" />
<line x1="-1800.0" y1="-2700.0" x2="-1900.0" y2="-2700.0" stroke-width="4" stroke="black" />
<line x1="-1900.0" y1="-2700.0" x2="-1900.0" y2="-2600.0" stroke-width="4" stroke="black" />
<line x1="-1900.0" y1="-2600.0" x2="-2000.0" y2="-2600.0" stroke-width="4" stroke="black" />
<line x1="-2000.0" y1="-2600.0" x2="-2000.0" y2="-2700.0" stroke-width="4" stroke="black" />
<line x1="-2000.0" y1="-2700.0" x2="-2100.0" y2="-2700.0" stroke-width="4" stroke="black" />
<line x1="-2100.0" y1="-2700.0" x2="-2100.0" y2="-2600.0" stroke-width="4" stroke="black" />
<line x1="-2100.0" y1="-2600.0" x2="-2000.0" y2="-2600.0" stroke-width="4" stroke="black" />
<line x1="-2000.0" y1="-2600.0" x2="-2000.0" y2="-2500.0" stroke-width="4" stroke="black" />
<line x1="-2000.0" y1="-2500.0" x2="-2100.0" y2="-2500.0" stroke-width="4" stroke="black" />
<line x1="-2100.0" y1="-2500.0" x2="-2100.0" y2="-2400.0" stroke-width="4" stroke="black" />
<line x1="-2100.0" y1="-2400.0" x2="-2200.0" y2="-2400.0" stroke-width="4" stroke="black" />
<line x1="-2200.0" y1="-2400.0" x2="-2200.0" y2="-2300.0" stroke-width="4" stroke="black" />
<line x1="-2200.0" y1="-2300.0" x2="-2300.0" y2="-2300.0" stroke-width="4" stroke="black" />
<line x1="-2300.0" y1="-2300.0" x2="-2300.0" y2="-2400.0" stroke-width="4" stroke="black" />
<line x1="-2300.0" y1="-2400.0" x2="-2400.0" y2="-2400.0" stroke-width="4" stroke="black" />
<line x1="-2400.0" y1="-2400.0" x2="-2400.0" y2="-2500.0" stroke-width="4" stroke="black" />
<line x1="-2400.0" y1="-2500.0" x2="-2500.0" y2="-2500.0" stroke-width="4" stroke="black" />
<line x1="-2500.0" y1="-2500.0" x2="-2500.0" y2="-2600.0" stroke-width="4" stroke="black" />
<line x1="-2500.0" y1="-2600.0" x2="-2400.0" y2="-2600.0" stroke-width="4" stroke="black" />
<line x1="-2400.0" y1="-2600.0" x2="-2400.0" y2="-2700.0" stroke-width="4" stroke="black" />
<line x1="-2400.0" y1="-2700.0" x2="-2500.0" y2="-2700.0" stroke-width="4" stroke="black" />
<line x1="-2500.0" y1="-2700.0" x2="-2500.0" y2="-2600.0" stroke-width="4" stroke="black" />
<line x1="-2500.0" y1="-2600.0" x2="-2600.0" y2="-2600.0" stroke-width="4" stroke="black" />
<line x1="-2600.0" y1="-2600.0" x2="-2600.0" y2="-2700.0" stroke-width="4" stroke="black" />
<line x1="-2600.0" y1="-2700.0" x2="-2700.0" y2="-2700.0" stroke-width="4" stroke="black" />
<line x1="-2700.0" y1="-2700.0" x2="-2700.0" y2="-2800.0" stroke-width="4" stroke="black" />
<line x1="-2700.0" y1="-2800.0" x2="-2800.0" y2="-2800.0" stroke-width="4" stroke="black" />
<line x1="-2800.0" y1="-2800.0" x2="-2800.0" y2="-2900.0" stroke-width="4" stroke="black" />
<line x1="-2800.0" y1="-2900.0" x2="-2700.0" y2="-2900.0" stroke-width="4" stroke="black" />
<line x1="-2700.0" y1="-2900.0" x2="-2700.0" y2="-3000.0" stroke-width="4" stroke="black" />
<line x1="-2700.0" y1="-3000.0" x2="-2800.0" y2="-3000.0" stroke-width="4" stroke="black" />
<line x1="-2800.0" y1="-3000.0" x2="-2800.0" y2="-2900.0" stroke-width="4" stroke="black" />
<line x1="-2800.0" y1="-2900.0" x2="-2900.0" y2="-2900.0" stroke-width="4" stroke="black" />
<line x1="-2900.0" y1="-2900.0" x2="-2900.0" y2="-3000.0" stroke-width="4" stroke="black" />
<line x1="-2900.0" y1="-3000.0" x2="-3000.0" y2="-3000.0" stroke-width="4" stroke="black" />
<line x1="-3000.0" y1="-3000.0" x2="-3000.0" y2="-3100.0" stroke-width="4" stroke="black" />
<line x1="-3000.0" y1="-3100.0" x2="-3100.0" y2="-3100.0" stroke-width="4" stroke="black" />
<line x1="-3100.0" y1="-3100.0" x2="-3100.0" y2="-3200.0" stroke-width="4" stroke="black" />
<line x1="-3100.0" y1="-3200.0" x2="-3000.0" y2="-3200.0" stroke-width="4" stroke="black" />
<line x1="-3000.0" y1="-3200.0" x2="-3000.0" y2="-3300.0" stroke-width="4" stroke="black" />
<line x1="-3000.0" y1="-3300.0" x2="-2900.0" y2="-3300.0" stroke-width="4" stroke="black" />
<line x1="-2900.0" y1="-3300.0" x2="-2900.0" y2="-3400.0" stroke-width="4" stroke="black" />
<line x1="-2900.0" y1="-3400.0" x2="-2800.0" y2="-3400.0" stroke-width="4" stroke="black" />
<line x1="-2800.0" y1="-3400.0" x2="-2800.0" y2="-3300.0" stroke-width="4" stroke="black" />
<line x1="-2800.0" y1="-3300.0" x2="-2700.0" y2="-3300.0" stroke-width="4" stroke="black" />
<line x1="-2700.0" y1="-3300.0" x2="-2700.0" y2="-3400.0" stroke-width="4" stroke="black" />
<line x1="-2700.0" y1="-3400.0" x2="-2800.0" y2="-3400.0" stroke-width="4" stroke="black" />
<line x1="-2800.0" y1="-3400.0" x2="-2800.0" y2="-3500.0" stroke-width="4" stroke="black" />
<line x1="-2800.0" y1="-3500.0" x2="-2700.0" y2="-3500.0" stroke-width="4" stroke="black" />
<line x1="-2700.0" y1="-3500.0" x2="-2700.0" y2="-3600.0" stroke-width="4" stroke="black" />
<line x1="-2700.0" y1="-3600.0" x2="-2800.0" y2="-3600.0" stroke-width="4" stroke="black" />
<line x1="-2800.0" y1="-3600.0" x2="-2800.0" y2="-3500.0" stroke-width="4" stroke="black" />
<line x1="-2800.0" y1="-3500.0" x2="-2900.0" y2="-3500.0" stroke-width="4" stroke="black" />
<line x1="-2900.0" y1="-3500.0" x2="-2900.0" y2="-3600.0" stroke-width="4" stroke="black" />
<line x1="-2900.0" y1="-3600.0" x2="-3000.0" y2="-3600.0" stroke-width="4" stroke="black" />
<line x1="-3000.0" y1="-3600.0" x2="-3000.0" y2="-3500.0" stroke-width="4" stroke="black" />
<line x1="-3000.0" y1="-3500.0" x2="-2900.0" y2="-3500.0" stroke-width="4" stroke="black" />
<line x1="-2900.0" y1="-3500.0" x2="-2900.0" y2="-3400.0" stroke-width="4" stroke="black" />
<line x1="-2900.0" y1="-3400.0" x2="-3000.0" y2="-3400.0" stroke-width="4" stroke="black" />
<line x1="-3000.0" y1="-3400.0" x2="-3000.0" y2="-3300.0" stroke-width="4" stroke="black" />
<line x1="-3000.0" y1="-3300.0" x2="-3100.0" y2="-3300.0" stroke-width="4" stroke="black" />
<line x1="-3100.0" y1="-3300.0" x2="-3100.0" y2="-3200.0" stroke-width="4" stroke="black" />
<line x1="-3100.0" y1="-3200.0" x2="-3200.0" y2="-3200.0" stroke-width="4" stroke="black" />
<line x1="-3200.0" y1="-3200.0" x2="-3200.0" y2="-3300.0" stroke-width="4" stroke="black" />
<line x1="-3200.0" y1="-3300.0" x2="-3300.0" y2="-3300.0" stroke-width="4" stroke="black" />
<line x1="-3300.0" y1="-3300.0" x2="-3300.0" y2="-3400.0" stroke-width="4" stroke="black" />
<line x1="-3300.0" y1="-3400.0" x2="-3400.0" y2="-3400.0" stroke-width="4" stroke="black" />
<line x1="-3400.0" y1="-3400.0" x2="-3400.0" y2="-3500.0" stroke-width="4" stroke="black" />
<line x1="-3400.0" y1="-3500.0" x2="-3300.0" y2="-3500.0" stroke-width="4" stroke="black" />
<line x1="-3300.0" y1="-3500.0" x2="-3300.0" y2="-3600.0" stroke-width="4" stroke="black" />
<line x1="-3300.0" y1="-3600.0" x2="-3400.0" y2="-3600.0" stroke-width="4" stroke="black" />
<line x1="-3400.0" y1="-3600.0" x2="-3400.0" y2="-3500.0" stroke-width="4" stroke="black" />
<line x1="-3400.0" y1="-3500.0" x2="-3500.0" y2="-3500.0" stroke-width="4" stroke="black" />
<line x1="-3500.0" y1="-3500.0" x2="-3500.0" y2="-3600.0" stroke-width="4" stroke="black" />
<line x1="-3500.0" y1="-3600.0" x2="-3600.0" y2="-3600.0" stroke-width="4" stroke="black" />
<line x1="-3600.0" y1="-3600.0" x2="-3600.0" y2="-3700.0" stroke-width="4" stroke="black" />
<line x1="-3600.0" y1="-3700.0" x2="-3700.0" y2="-3700.0" stroke-width="4" stroke="black" />
<line x1="-3700.0" y1="-3700.0" x2="-3700.0" y2="-3800.0" stroke-width="4" stroke="black" />
<line x1="-3700.0" y1="-3800.0" x2="-3600.0" y2="-3800.0" stroke-width="4" stroke="black" />
<line x1="-3600.0" y1="-3800.0" x2="-3600.0" y2="-3900.0" stroke-width="4" stroke="black" />
<line x1="-3600.0" y1="-3900.0" x2="-3700.0" y2="-3900.0" stroke-width="4" stroke="black" />
<line x1="-3700.0" y1="-3900.0" x2="-3700.0" y2="-3800.0" stroke-width="4" stroke="black" />
<line x1="-3700.0" y1="-3800.0" x2="-3800.0" y2="-3800.0" stroke-width="4" stroke="black" />
<line x1="-3800.0" y1="-3800.0" x2="-3800.0" y2="-3900.0" stroke-width="4" stroke="black" />
<line x1="-3800.0" y1="-3900.0" x2="-3900.0" y2="-3900.0" stroke-width="4" stroke="black" />
<line x1="-3900.0" y1="-3900.0" x2="-3900.0" y2="-4000.0" stroke-width="4" stroke="black" />
<line x1="-3900.0" y1="-4000.0" x2="-4000.0" y2="-4000.0" stroke-width="4" stroke="black" />
<line x1="-4000.0" y1="-4000.0" x2="-4000.0" y2="-4100.0" stroke-width="4" stroke="black" />
<line x1="-4000.0" y1="-4100.0" x2="-3900.0" y2="-4100.0" stroke-width="4" stroke="black" />
<line x1="-3900.0" y1="-4100.0" x2="-3900.0" y2="-4200.0" stroke-width="4" stroke="black" />
<line x1="-3900.0" y1="-4200.0" x2="-3800.0" y2="-4200.0" stroke-width="4" stroke="black" />
<line x1="-3800.0" y1="-4200.0" x2="-3800.0" y2="-4300.0" stroke-width="4" stroke="black" />
<line x1="-3800.0" y1="-4300.0" x2="-3700.0" y2="-4300.0" stroke-width="4" stroke="black" />
<line x1="-3700.0" y1="-4300.0" x2="-3700.0" y2="-4200.0" stroke-width="4" stroke="black" />
<line x1="-3700.0" y1="-4200.0" x2="-3600.0" y2="-4200.0" stroke-width="4" stroke="black" />
<line x1="-3600.0" y1="-4200.0" x2="-3600.0" y2="-4300.0" stroke-width="4" stroke="black" />
<line x1="-3600.0" y1="-4300.0" x2="-3700.0" y2="-4300.0" stroke-width="4" stroke="black" />
<line x1="-3700.0" y1="-4300.0" x2="-3700.0" y2="-4400.0" stroke-width="4" stroke="black" />
<line x1="-3700.0" y1="-4400.0" x2="-3600.0" y2="-4400.0" stroke-width="4" stroke="black" />
<line x1="-3600.0" y1="-4400.0" x2="-3600.0" y2="-4500.0" stroke-width="4" stroke="black" />
<line x1="-3600.0" y1="-4500.0" x2="-3500.0" y2="-4500.0" stroke-width="4" stroke="black" />
<line x1="-3500.0" y1="-4500.0" x2="-3500.0" y2="-4600.0" stroke-width="4" stroke="black" />
<line x1="-3500.0" y1="-4600.0" x2="-3400.0" y2="-4600.0" stroke-width="4" stroke="black" />
<line x1="-3400.0" y1="-4600.0" x2="-3400.0" y2="-4500.0" stroke-width="4" stroke="black" />
<line x1="-3400.0" y1="-4500.0" x2="-3300.0" y2="-4500.0" stroke-width="4" stroke="black" />
<line x1="-3300.0" y1="-4500.0" x2="-3300.0" y2="-4600.0" stroke-width="4" stroke="black" />
<line x1="-3300.0" y1="-4600.0" x2="-3400.0" y2="-4600.0" stroke-width="4" stroke="black" />
<line x1="-3400.0" y1="-4600.0" x2="-3400.0" y2="-4700.0" stroke-width="4" stroke="black" />
<line x1="-3400.0" y1="-4700.0" x2="-3300.0" y2="-4700.0" stroke-width="4" stroke="black" />
<line x1="-3300.0" y1="-4700.0" x2="-3300.0" y2="-4800.0" stroke-width="4" stroke="black" />
<line x1="-3300.0" y1="-4800.0" x2="-3200.0" y2="-4800.0" stroke-width="4" stroke="black" />
<line x1="-3200.0" y1="-4800.0" x2="-3200.0" y2="-4900.0" stroke-width="4" stroke="black" />
<line x1="-3200.0" y1="-4900.0" x2="-3100.0" y2="-4900.0" stroke-width="4" stroke="black" />
<line x1="-3100.0" y1="-4900.0" x2="-3100.0" y2="-4800.0" stroke-width="4" stroke="black" />
<line x1="-3100.0" y1="-4800.0" x2="-3000.0" y2="-4800.0" stroke-width="4" stroke="black" />
<line x1="-3000.0" y1="-4800.0" x2="-3000.0" y2="-4700.0" stroke-width="4" stroke="black" />
<line x1="-3000.0" y1="-4700.0" x2="-2900.0" y2="-4700.0" stroke-width="4" stroke="black" />
<line x1="-2900.0" y1="-4700.0" x2="-2900.0" y2="-4600.0" stroke-width="4" stroke="black" />
<line x1="-2900.0" y1="-4600.0" x2="-3000.0" y2="-4600.0" stroke-width="4" stroke="black" />
<line x1="-3000.0" y1="-4600.0" x2="-3000.0" y2="-4500.0" stroke-width="4" stroke="black" />
<line x1="-3000.0" y1="-4500.0" x2="-2900.0" y2="-4500.0" stroke-width="4" stroke="black" />
<line x1="-2900.0" y1="-4500.0" x2="-2900.0" y2="-4600.0" stroke-width="4" stroke="black" />
<line x1="-2900.0" y1="-4600.0" x2="-2800.0" y2="-4600.0" stroke-width="4" stroke="black" />
<line x1="-2800.0" y1="-4600.0" x2="-2800.0" y2="-4500.0" stroke-width="4" stroke="black" />
<line x1="-2800.0" y1="-4500.0" x2="-2700.0" y2="-4500.0" stroke-width="4" stroke="black" />
<line x1="-2700.0" y1="-4500.0" x2="-2700.0" y2="-4600.0" stroke-width="4" stroke="black" />
<line x1="-2700.0" y1="-4600.0" x2="-2800.0" y2="-4600.0" stroke-width="4" stroke="black" />
<line x1="-2800.0" y1="-4600.0" x2="-2800.0" y2="-4700.0" stroke-width="4" stroke="black" />
<line x1="-2800.0" y1="-4700.0" x2="-2700.0" y2="-4700.0" stroke-width="4" stroke="black" />
<line x1="-2700.0" y1="-4700.0" x2="-2700.0" y2="-4800.0" stroke-width="4" stroke="black" />
<line x1="-2700.0" y1="-4800.0" x2="-2800.0" y2="-4800.0" stroke-width="4" stroke="black" />
<line x1="-2800.0" y1="-4800.0" x2="-2800.0" y2="-4700.0" stroke-width="4" stroke="black" />
<line x1="-2800.0" y1="-4700.0" x2="-2900.0" y2="-4700.0" stroke-width="4" stroke="black" />
<line x1="-2900.0" y1="-4700.0" x2="-2900.0" y2="-4800.0" stroke-width="4" stroke="black" />
<line x1="-2900.0" y1="-4800.0" x2="-3000.0" y2="-4800.0" stroke-width="4" stroke="black" />
<line x1="-3000.0" y1="-4800.0" x2="-3000.0" y2="-4900.0" stroke-width="4" stroke="black" />
<line x1="-3000.0" y1="-4900.0" x2="-3100.0" y2="-4900.0" stroke-width="4" stroke="black" />
<line x1="-3100.0" y1="-4900.0" x2="-3100.0" y2="-5000.0" stroke-width="4" stroke="black" />
<line x1="-3100.0" y1="-5000.0" x2="-3000.0" y2="-5000.0" stroke-width="4" stroke="black" />
<line x1="-3000.0" y1="-5000.0" x2="-3000.0" y2="-5100.0" stroke-width="4" stroke="black" />
<line x1="-3000.0" y1="-5100.0" x2="-2900.0" y2="-5100.0" stroke-width="4" stroke="black" />
<line x1="-2900.0" y1="-5100.0" x2="-2900.0" y2="-5200.0" stroke-width="4" stroke="black" />
<line x1="-2900.0" y1="-5200.0" x2="-2800.0" y2="-5200.0" stroke-width="4" stroke="black" />
<line x1="-2800.0" y1="-5200.0" x2="-2800.0" y2="-5100.0" stroke-width="4" stroke="black" />
<line x1="-2800.0" y1="-5100.0" x2="-2700.0" y2="-5100.0" stroke-width="4" stroke="black" />
<line x1="-2700.0" y1="-5100.0" x2="-2700.0" y2="-5200.0" stroke-width="4" stroke="black" />
<line x1="-2700.0" y1="-5200.0" x2="-2800.0" y2="-5200.0" stroke-width="4" stroke="black" />
<line x1="-2800.0" y1="-5200.0" x2="-2800.0" y2="-5300.0" stroke-width="4" stroke="black" />
<line x1="-2800.0" y1="-5300.0" x2="-2700.0" y2="-5300.0" stroke-width="4" stroke="black" />
<line x1="-2700.0" y1="-5300.0" x2="-2700.0" y2="-5400.0" stroke-width="4" stroke="black" />
<line x1="-2700.0" y1="-5400.0" x2="-2600.0" y2="-5400.0" stroke-width="4" stroke="black" />
<line x1="-2600.0" y1="-5400.0" x2="-2600.0" y2="-5500.0" stroke-width="4" stroke="black" />
<line x1="-2600.0" y1="-5500.0" x2="-2500.0" y2="-5500.0" stroke-width="4" stroke="black" />
<line x1="-2500.0" y1="-5500.0" x2="-2500.0" y2="-5400.0" stroke-width="4" stroke="black" />
<line x1="-2500.0" y1="-5400.0" x2="-2400.0" y2="-5400.0" stroke-width="4" stroke="black" />
<line x1="-2400.0" y1="-5400.0" x2="-2400.0" y2="-5500.0" stroke-width="4" stroke="black" />
<line x1="-2400.0" y1="-5500.0" x2="-2500.0" y2="-5500.0" stroke-width="4" stroke="black" />
<line x1="-2500.0" y1="-5500.0" x2="-2500.0" y2="-5600.0" stroke-width="4" stroke="black" />
<line x1="-2500.0" y1="-5600.0" x2="-2400.0" y2="-5600.0" stroke-width="4" stroke="black" />
<line x1="-2400.0" y1="-5600.0" x2="-2400.0" y2="-5700.0" stroke-width="4" stroke="black" />
<line x1="-2400.0" y1="-5700.0" x2="-2300.0" y2="-5700.0" stroke-width="4" stroke="black" />
<line x1="-2300.0" y1="-5700.0" x2="-2300.0" y2="-5800.0" stroke-width="4" stroke="black" />
<line x1="-2300.0" y1="-5800.0" x2="-2200.0" y2="-5800.0" stroke-width="4" stroke="black" />
<line x1="-2200.0" y1="-5800.0" x2="-2200.0" y2="-5700.0" stroke-width="4" stroke="black" />
<line x1="-2200.0" y1="-5700.0" x2="-2100.0" y2="-5700.0" stroke-width="4" stroke="black" />
<line x1="-2100.0" y1="-5700.0" x2="-2100.0" y2="-5600.0" stroke-width="4" stroke="black" />
<line x1="-2100.0" y1="-5600.0" x2="-2000.0" y2="-5600.0" stroke-width="4" stroke="black" />
<line x1="-2000.0" y1="-5600.0" x2="-2000.0" y2="-5500.0" stroke-width="4" stroke="black" />
<line x1="-2000.0" y1="-5500.0" x2="-2100.0" y2="-5500.0" stroke-width="4" stroke="black" />
<line x1="-2100.0" y1="-5500.0" x2="-2100.0" y2="-5400.0" stroke-width="4" stroke="black" />
<line x1="-2100.0" y1="-5400.0" x2="-2000.0" y2="-5400.0" stroke-width="4" stroke="black" />
<line x1="-2000.0" y1="-5400.0" x2="-2000.0" y2="-5500.0" stroke-width="4" stroke="black" />
<line x1="-2000.0" y1="-5500.0" x2="-1900.0" y2="-5500.0" stroke-width="4" stroke="black" />
<line x1="-1900.0" y1="-5500.0" x2="-1900.0" y2="-5400.0" stroke-width="4" stroke="black" />
<line x1="-1900.0" y1="-5400.0" x2="-1800.0" y2="-5400.0" stroke-width="4" stroke="black" />
<line x1="-1800.0" y1="-5400.0" x2="-1800.0" y2="-5500.0" stroke-width="4" stroke="black" />
<line x1="-1800.0" y1="-5500.0" x2="-1900.0" y2="-5500.0" stroke-width="4" stroke="black" />
<line x1="-1900.0" y1="-5500.0" x2="-1900.0" y2="-5600.0" stroke-width="4" stroke="black" />
<line x1="-1900.0" y1="-5600.0" x2="-1800.0" y2="-5600.0" stroke-width="4" stroke="black" />
<line x1="-1800.0" y1="-5600.0" x2="-1800.0" y2="-5700.0" stroke-width="4" stroke="black" />
<line x1="-1800.0" y1="-5700.0" x2="-1900.0" y2="-5700.0" stroke-width="4" stroke="black" />
<line x1="-1900.0" y1="-5700.0" x2="-1900.0" y2="-5600.0" stroke-width="4" stroke="black" />
<line x1="-1900.0" y1="-5600.0" x2="-2000.0" y2="-5600.0" stroke-width="4" stroke="black" />
<line x1="-2000.0" y1="-5600.0" x2="-2000.0" y2="-5700.0" stroke-width="4" stroke="black" />
<line x1="-2000.0" y1="-5700.0" x2="-2100.0" y2="-5700.0" stroke-width="4" stroke="black" />
<line x1="-2100.0" y1="-5700.0" x2="-2100.0" y2="-5800.0" stroke-width="4" stroke="black" />
<line x1="-2100.0" y1="-5800.0" x2="-2200.0" y2="-5800.0" stroke-width="4" stroke="black" />
<line x1="-2200.0" y1="-5800.0" x2="-2200.0" y2="-5900.0" stroke-width="4" stroke="black" />
<line x1="-2200.0" y1="-5900.0" x2="-2100.0" y2="-5900.0" stroke-width="4" stroke="black" />
<line x1="-2100.0" y1="-5900.0" x2="-2100.0" y2="-6000.0" stroke-width="4" stroke="black" />
<line x1="-2100.0" y1="-6000.0" x2="-2000.0" y2="-6000.0" stroke-width="4" stroke="black" />
<line x1="-2000.0" y1="-6000.0" x2="-2000.0" y2="-6100.0" stroke-width="4" stroke="black" />
<line x1="-2000.0" y1="-6100.0" x2="-1900.0" y2="-6100.0" stroke-width="4" stroke="black" />
<line x1="-1900.0" y1="-6100.0" x2="-1900.0" y2="-6000.0" stroke-width="4" stroke="black" />
<line x1="-1900.0" y1="-6000.0" x2="-1800.0" y2="-6000.0" stroke-width="4" stroke="black" />
<line x1="-1800.0" y1="-6000.0" x2="-1800.0" y2="-6100.0" stroke-width="4" stroke="black" />
<line x1="-1800.0" y1="-6100.0" x2="-1900.0" y2="-6100.0" stroke-width="4" stroke="black" />
<line x1="-1900.0" y1="-6100.0" x2="-1900.0" y2="-6200.0" stroke-width="4" stroke="black" />
<line x1="-1900.0" y1="-6200.0" x2="-1800.0" y2="-6200.0" stroke-width="4" stroke="black" />
<line x1="-1800.0" y1="-6200.0" x2="-1800.0" y2="-6300.0" stroke-width="4" stroke="black" />
<line x1="-1800.0" y1="-6300.0" x2="-1700.0" y2="-6300.0" stroke-width="4" stroke="black" />
<line x1="-1700.0" y1="-6300.0" x2="-1700.0" y2="-6400.0" stroke-width="4" stroke="black" />
<line x1="-1700.0" y1="-6400.0" x2="-1600.0" y2="-6400.0" stroke-width="4" stroke="black" />
<line x1="-1600.0" y1="-6400.0" x2="-1600.0" y2="-6300.0" stroke-width="4" stroke="black" />
<line x1="-1600.0" y1="-6300.0" x2="-1500.0" y2="-6300.0" stroke-width="4" stroke="black" />
<line x1="-1500.0" y1="-6300.0" x2="-1500.0" y2="-6400.0" stroke-width="4" stroke="black" />
<line x1="-1500.0" y1="-6400.0" x2="-1600.0" y2="-6400.0" stroke-width="4" stroke="black" />
<line x1="-1600.0" y1="-6400.0" x2="-1600.0" y2="-6500.0" stroke-width="4" stroke="black" />
<line x1="-1600.0" y1="-6500.0" x2="-1500.0" y2="-6500.0" stroke-width="4" stroke="black" />
<line x1="-1500.0" y1="-6500.0" x2="-1500.0" y2="-6600.0" stroke-width="4" stroke="black" />
<line x1="-1500.0" y1="-6600.0" x2="-1400.0" y2="-6600.0" stroke-width="4" stroke="black" />
<line x1="-1400.0" y1="-6600.0" x2="-1400.0" y2="-6700.0" stroke-width="4" stroke="black" />
<line x1="-1400.0" y1="-6700.0" x2="-1300.0" y2="-6700.0" stroke-width="4" stroke="black" />
<line x1="-1300.0" y1="-6700.0" x2="-1300.0" y2="-6600.0" stroke-width="4" stroke="black" />
<line x1="-1300.0" y1="-6600.0" x2="-1200.0" y2="-6600.0" stroke-width="4" stroke="black" />
<line x1="-1200.0" y1="-6600.0" x2="-1200.0" y2="-6500.0" stroke-width="4" stroke="black" />
<line x1="-1200.0" y1="-6500.0" x2="-1100.0" y2="-6500.0" stroke-width="4" stroke="black" />
<line x1="-1100.0" y1="-6500.0" x2="-1100.0" y2="-6400.0" stroke-width="4" stroke="black" />
<line x1="-1100.0" y1="-6400.0" x2="-1200.0" y2="-6400.0" stroke-width="4" stroke="black" />
<line x1="-1200.0" y1="-6400.0" x2="-1200.0" y2="-6300.0" stroke-width="4" stroke="black" />
<line x1="-1200.0" y1="-6300.0" x2="-1100.0" y2="-6300.0" stroke-width="4" stroke="black" />
<line x1="-1100.0" y1="-6300.0" x2="-1100.0" y2="-6400.0" stroke-width="4" stroke="black" />
<line x1="-1100.0" y1="-6400.0" x2="-1000.0" y2="-6400.0" stroke-width="4" stroke="black" />
<line x1="-1000.0" y1="-6400.0" x2="-1000.0" y2="-6300.0" stroke-width="4" stroke="black" />
<line x1="-1000.0" y1="-6300.0" x2="-900.0" y2="-6300.0" stroke-width="4" stroke="black" />
<line x1="-900.0" y1="-6300.0" x2="-900.0" y2="-6200.0" stroke-width="4" stroke="black" />
<line x1="-900.0" y1="-6200.0" x2="-800.0" y2="-6200.0" stroke-width="4" stroke="black" />
<line x1="-800.0" y1="-6200.0" x2="-800.0" y2="-6100.0" stroke-width="4" stroke="black" />
<line x1="-800.0" y1="-6100.0" x2="-900.0" y2="-6100.0" stroke-width="4" stroke="black" />
<line x1="-900.0" y1="-6100.0" x2="-900.0" y2="-6000.0" stroke-width="4" stroke="black" />
<line x1="-900.0" y1="-6000.0" x2="-800.0" y2="-6000.0" stroke-width="4" stroke="black" />
<line x1="-800.0" y1="-6000.0" x2="-800.0" y2="-6100.0" stroke-width="4" stroke="black" />
<line x1="-800.0" y1="-6100.0" x2="-700.0" y2="-6100.0" stroke-width="4" stroke="black" />
<line x1="-700.0" y1="-6100.0" x2="-700.0" y2="-6000.0" stroke-width="4" stroke="black" />
<line x1="-700.0" y1="-6000.0" x2="-600.0" y2="-6000.0" stroke-width="4" stroke="black" />
<line x1="-600.0" y1="-6000.0" x2="-600.0" y2="-5900.0" stroke-width="4" stroke="black" />
<line x1="-600.0" y1="-5900.0" x2="-500.0" y2="-5900.0" stroke-width="4" stroke="black" />
<line x1="-500.0" y1="-5900.0" x2="-499.99999999999994" y2="-5800.0" stroke-width="4" stroke="black" />
<line x1="-499.99999999999994" y1="-5800.0" x2="-600.0" y2="-5800.0" stroke-width="4" stroke="black" />
<line x1="-600.0" y1="-5800.0" x2="-600.0" y2="-5700.0" stroke-width="4" stroke="black" />
<line x1="-600.0" y1="-5700.0" x2="-700.0" y2="-5700.0" stroke-width="4" stroke="black" />
<line x1="-700.0" y1="-5700.0" x2="-700.0" y2="-5600.0" stroke-width="4" stroke="black" />
<line x1="-700.0" y1="-5600.0" x2="-800.0" y2="-5600.0" stroke-width="4" stroke="black" />
<line x1="-800.0" y1="-5600.0" x2="-800.0" y2="-5700.0" stroke-width="4" stroke="black" />
<line x1="-800.0" y1="-5700.0" x2="-900.0" y2="-5700.0" stroke-width="4" stroke="black" />
<line x1="-900.0" y1="-5700.0" x2="-900.0" y2="-5600.0" stroke-width="4" stroke="black" />
<line x1="-900.0" y1="-5600.0" x2="-800.0" y2="-5600.0" stroke-width="4" stroke="black" />
<line x1="-800.0" y1="-5600.0" x2="-800.0" y2="-5500.0" stroke-width="4" stroke="black" />
<line x1="-800.0" y1="-5500.0" x2="-900.0" y2="-5500.0" stroke-width="4" stroke="black" />
<line x1="-900.0" y1="-5500.0" x2="-900.0" y2="-5400.0" stroke-width="4" stroke="black" />
<line x1="-900.0" y1="-5400.0" x2="-800.0" y2="-5400.0" stroke-width="4" stroke="black" />
<line x1="-800.0" y1="-5400.0" x2="-800.0" y2="-5500.0" stroke-width="4" stroke="black" />
<line x1="-800.0" y1="-5500.0" x2="-700.0" y2="-5500.0" stroke-width="4" stroke="black" />
<line x1="-700.0" y1="-5500.0" x2="-700.0" y2="-5400.0" stroke-width="4" stroke="black" />
<line x1="-700.0" y1="-5400.0" x2="-600.0" y2="-5400.0" stroke-width="4" stroke="black" />
<line x1="-600.0" y1="-5400.0" x2="-600.0" y2="-5500.0" stroke-width="4" stroke="black" />
<line x1="-600.0" y1="-5500.0" x2="-700.0" y2="-5500.0" stroke-width="4" stroke="black" />
<line x1="-700.0" y1="-5500.0" x2="-700.0" y2="-5600.0" stroke-width="4" stroke="black" />
<line x1="-700.0" y1="-5600.0" x2="-600.0" y2="-5600.0" stroke-width="4" stroke="black" />
<line x1="-600.0" y1="-5600.0" x2="-600.0" y2="-5700.0" stroke-width="4" stroke="black" />
<line x1="-600.0" y1="-5700.0" x2="-500.0" y2="-5700.0" stroke-width="4" stroke="black" />
<line x1="-500.0" y1="-5700.0" x2="-500.0" y2="-5800.0" stroke-width="4" stroke="black" />
<line x1="-500.0" y1="-5800.0" x2="-400.0" y2="-5800.0" stroke-width="4" stroke="black" />
<line x1="-400.0" y1="-5800.0" x2="-399.99999999999994" y2="-5700.0" stroke-width="4" stroke="black" />
<line x1="-399.99999999999994" y1="-5700.0" x2="-299.99999999999994" y2="-5700.0" stroke-width="4" stroke="black" />
<line x1="-299.99999999999994" y1="-5700.0" x2="-299.9999999999999" y2="-5600.0" stroke-width="4" stroke="black" />
<line x1="-299.9999999999999" y1="-5600.0" x2="-199.9999999999999" y2="-5600.0" stroke-width="4" stroke="black" />
<line x1="-199.9999999999999" y1="-5600.0" x2="-199.99999999999986" y2="-5500.0" stroke-width="4" stroke="black" />
<line x1="-199.99999999999986" y1="-5500.0" x2="-299.9999999999999" y2="-5500.0" stroke-width="4" stroke="black" />
<line x1="-299.9999999999999" y1="-5500.0" x2="-299.99999999999983" y2="-5400.0" stroke-width="4" stroke="black" />
<line x1="-299.99999999999983" y1="-5400.0" x2="-199.99999999999983" y2="-5400.0" stroke-width="4" stroke="black" />
<line x1="-199.99999999999983" y1="-5400.0" x2="-199.99999999999986" y2="-5500.0" stroke-width="4" stroke="black" />
<line x1="-199.99999999999986" y1="-5500.0" x2="-99.99999999999986" y2="-5500.0" stroke-width="4" stroke="black" />
<line x1="-99.99999999999986" y1="-5500.0" x2="-99.99999999999983" y2="-5400.0" stroke-width="4" stroke="black" />
<line x1="-99.99999999999983" y1="-5400.0" x2="1.7053025658242404E-13" y2="-5400.0" stroke-width="4" stroke="black" />
<line x1="1.7053025658242404E-13" y1="-5400.0" x2="1.5216055459521375E-13" y2="-5500.0" stroke-width="4" stroke="black" />
<line x1="1.5216055459521375E-13" y1="-5500.0" x2="-99.99999999999984" y2="-5500.0" stroke-width="4" stroke="black" />
<line x1="-99.99999999999984" y1="-5500.0" x2="-99.99999999999986" y2="-5600.0" stroke-width="4" stroke="black" />
<line x1="-99.99999999999986" y1="-5600.0" x2="1.4210854715202004E-13" y2="-5600.0" stroke-width="4" stroke="black" />
<line x1="1.4210854715202004E-13" y1="-5600.0" x2="1.2373884516480974E-13" y2="-5700.0" stroke-width="4" stroke="black" />
<line x1="1.2373884516480974E-13" y1="-5700.0" x2="-99.99999999999987" y2="-5700.0" stroke-width="4" stroke="black" />
<line x1="-99.99999999999987" y1="-5700.0" x2="-99.99999999999987" y2="-5600.0" stroke-width="4" stroke="black" />
<line x1="-99.99999999999987" y1="-5600.0" x2="-199.9999999999999" y2="-5600.0" stroke-width="4" stroke="black" />
<line x1="-199.9999999999999" y1="-5600.0" x2="-199.99999999999991" y2="-5700.0" stroke-width="4" stroke="black" />
<line x1="-199.99999999999991" y1="-5700.0" x2="-299.9999999999999" y2="-5700.0" stroke-width="4" stroke="black" />
<line x1="-299.9999999999999" y1="-5700.0" x2="-299.9999999999999" y2="-5800.0" stroke-width="4" stroke="black" />
<line x1="-299.9999999999999" y1="-5800.0" x2="-399.9999999999999" y2="-5800.0" stroke-width="4" stroke="black" />
<line x1="-399.9999999999999" y1="-5800.0" x2="-399.9999999999999" y2="-5900.0" stroke-width="4" stroke="black" />
<line x1="-399.9999999999999" y1="-5900.0" x2="-299.9999999999999" y2="-5900.0" stroke-width="4" stroke="black" />
<line x1="-299.9999999999999" y1="-5900.0" x2="-299.9999999999999" y2="-6000.0" stroke-width="4" stroke="black" />
<line x1="-299.9999999999999" y1="-6000.0" x2="-199.9999999999999" y2="-6000.0" stroke-width="4" stroke="black" />
<line x1="-199.9999999999999" y1="-6000.0" x2="-199.99999999999991" y2="-6100.0" stroke-width="4" stroke="black" />
<line x1="-199.99999999999991" y1="-6100.0" x2="-99.99999999999991" y2="-6100.0" stroke-width="4" stroke="black" />
<line x1="-99.99999999999991" y1="-6100.0" x2="-99.99999999999989" y2="-6000.0" stroke-width="4" stroke="black" />
<line x1="-99.99999999999989" y1="-6000.0" x2="1.1368683772161603E-13" y2="-6000.0" stroke-width="4" stroke="black" />
<line x1="1.1368683772161603E-13" y1="-6000.0" x2="9.531713573440573E-14" y2="-6100.0" stroke-width="4" stroke="black" />
<line x1="9.531713573440573E-14" y1="-6100.0" x2="-99.9999999999999" y2="-6100.0" stroke-width="4" stroke="black" />
<line x1="-99.9999999999999" y1="-6100.0" x2="-99.99999999999991" y2="-6200.0" stroke-width="4" stroke="black" />
<line x1="-99.99999999999991" y1="-6200.0" x2="8.526512829121202E-14" y2="-6200.0" stroke-width="4" stroke="black" />
<line x1="8.526512829121202E-14" y1="-6200.0" x2="6.689542630400172E-14" y2="-6300.0" stroke-width="4" stroke="black" />
<line x1="6.689542630400172E-14" y1="-6300.0" x2="-99.99999999999993" y2="-6300.0" stroke-width="4" stroke="black" />
<line x1="-99.99999999999993" y1="-6300.0" x2="-99.99999999999993" y2="-6200.0" stroke-width="4" stroke="black" />
<line x1="-99.99999999999993" y1="-6200.0" x2="-199.99999999999994" y2="-6200.0" stroke-width="4" stroke="black" />
<line x1="-199.99999999999994" y1="-6200.0" x2="-199.99999999999997" y2="-6300.0" stroke-width="4" stroke="black" />
<line x1="-199.99999999999997" y1="-6300.0" x2="-300.0" y2="-6300.0" stroke-width="4" stroke="black" />
<line x1="-300.0" y1="-6300.0" x2="-300.0" y2="-6200.0" stroke-width="4" stroke="black" />
<line x1="-300.0" y1="-6200.0" x2="-200.0" y2="-6200.0" stroke-width="4" stroke="black" />
<line x1="-200.0" y1="-6200.0" x2="-200.0" y2="-6100.0" stroke-width="4" stroke="black" />
<line x1="-200.0" y1="-6100.0" x2="-300.0" y2="-6100.0" stroke-width="4" stroke="black" />
<line x1="-300.0" y1="-6100.0" x2="-300.0" y2="-6000.0" stroke-width="4" stroke="black" />
<line x1="-300.0" y1="-6000.0" x2="-400.0" y2="-6000.0" stroke-width="4" stroke="black" />
<line x1="-400.0" y1="-6000.0" x2="-400.0" y2="-5900.0" stroke-width="4" stroke="black" />
<line x1="-400.0" y1="-5900.0" x2="-500.0" y2="-5900.0" stroke-width="4" stroke="black" />
<line x1="-500.0" y1="-5900.0" x2="-500.0" y2="-6000.0" stroke-width="4" stroke="black" />
<line x1="-500.0" y1="-6000.0" x2="-600.0" y2="-6000.0" stroke-width="4" stroke="black" />
<line x1="-600.0" y1="-6000.0" x2="-600.0" y2="-6100.0" stroke-width="4" stroke="black" />
<line x1="-600.0" y1="-6100.0" x2="-700.0" y2="-6100.0" stroke-width="4" stroke="black" />
<line x1="-700.0" y1="-6100.0" x2="-700.0" y2="-6200.0" stroke-width="4" stroke="black" />
<line x1="-700.0" y1="-6200.0" x2="-600.0" y2="-6200.0" stroke-width="4" stroke="black" />
<line x1="-600.0" y1="-6200.0" x2="-600.0" y2="-6300.0" stroke-width="4" stroke="black" />
<line x1="-600.0" y1="-6300.0" x2="-700.0" y2="-6300.0" stroke-width="4" stroke="black" />
<line x1="-700.0" y1="-6300.0" x2="-700.0" y2="-6200.0" stroke-width="4" stroke="black" />
<line x1="-700.0" y1="-6200.0" x2="-800.0" y2="-6200.0" stroke-width="4" stroke="black" />
<line x1="-800.0" y1="-6200.0" x2="-800.0" y2="-6300.0" stroke-width="4" stroke="black" />
<line x1="-800.0" y1="-6300.0" x2="-900.0" y2="-6300.0" stroke-width="4" stroke="black" />
<line x1="-900.0" y1="-6300.0" x2="-900.0" y2="-6400.0" stroke-width="4" stroke="black" />
<line x1="-900.0" y1="-6400.0" x2="-1000.0" y2="-6400.0" stroke-width="4" stroke="black" />
<line x1="-1000.0" y1="-6400.0" x2="-1000.0" y2="-6500.0" stroke-width="4" stroke="black" />
<line x1="-1000.0" y1="-6500.0" x2="-900.0" y2="-6500.0" stroke-width="4" stroke="black" />
<line x1="-900.0" y1="-6500.0" x2="-900.0" y2="-6600.0" stroke-width="4" stroke="black" />
<line x1="-900.0" y1="-6600.0" x2="-1000.0" y2="-6600.0" stroke-width="4" stroke="black" />
<line x1="-1000.0" y1="-6600.0" x2="-1000.0" y2="-6500.0" stroke-width="4" stroke="black" />
<line x1="-1000.0" y1="-6500.0" x2="-1100.0" y2="-6500.0" stroke-width="4" stroke="black" />
<line x1="-1100.0" y1="-6500.0" x2="-1100.0" y2="-6600.0" stroke-width="4" stroke="black" />
<line x1="-1100.0" y1="-6600.0" x2="-1200.0" y2="-6600.0" stroke-width="4" stroke="black" />
<line x1="-1200.0" y1="-6600.0" x2="-1200.0" y2="-6700.0" stroke-width="4" stroke="black" />
<line x1="-1200.0" y1="-6700.0" x2="-1300.0" y2="-6700.0" stroke-width="4" stroke="black" />
<line x1="-1300.0" y1="-6700.0" x2="-1300.0" y2="-6800.0" stroke-width="4" stroke="black" />
<line x1="-1300.0" y1="-6800.0" x2="-1200.0" y2="-6800.0" stroke-width="4" stroke="black" />
<line x1="-1200.0" y1="-6800.0" x2="-1200.0" y2="-6900.0" stroke-width="4" stroke="black" />
<line x1="-1200.0" y1="-6900.0" x2="-1100.0" y2="-6900.0" stroke-width="4" stroke="black" />
<line x1="-1100.0" y1="-6900.0" x2="-1100.0" y2="-7000.0" stroke-width="4" stroke="black" />
<line x1="-1100.0" y1="-7000.0" x2="-1000.0" y2="-7000.0" stroke-width="4" stroke="black" />
<line x1="-1000.0" y1="-7000.0" x2="-1000.0" y2="-6900.0" stroke-width="4" stroke="black" />
<line x1="-1000.0" y1="-6900.0" x2="-900.0" y2="-6900.0" stroke-width="4" stroke="black" />
<line x1="-900.0" y1="-6900.0" x2="-900.0" y2="-7000.0" stroke-width="4" stroke="black" />
<line x1="-900.0" y1="-7000.0" x2="-1000.0" y2="-7000.0" stroke-width="4" stroke="black" />
<line x1="-1000.0" y1="-7000.0" x2="-1000.0" y2="-7100.0" stroke-width="4" stroke="black" />
<line x1="-1000.0" y1="-7100.0" x2="-900.0" y2="-7100.0" stroke-width="4" stroke="black" />
<line x1="-900.0" y1="-7100.0" x2="-900.0" y2="-7200.0" stroke-width="4" stroke="black" />
<line x1="-900.0" y1="-7200.0" x2="-800.0" y2="-7200.0" stroke-width="4" stroke="black" />
<line x1="-800.0" y1="-7200.0" x2="-800.0" y2="-7300.0" stroke-width="4" stroke="black" />
<line x1="-800.0" y1="-7300.0" x2="-700.0" y2="-7300.0" stroke-width="4" stroke="black" />
<line x1="-700.0" y1="-7300.0" x2="-700.0" y2="-7200.0" stroke-width="4" stroke="black" />
<line x1="-700.0" y1="-7200.0" x2="-600.0" y2="-7200.0" stroke-width="4" stroke="black" />
<line x1="-600.0" y1="-7200.0" x2="-600.0" y2="-7300.0" stroke-width="4" stroke="black" />
<line x1="-600.0" y1="-7300.0" x2="-700.0" y2="-7300.0" stroke-width="4" stroke="black" />
<line x1="-700.0" y1="-7300.0" x2="-700.0" y2="-7400.0" stroke-width="4" stroke="black" />
<line x1="-700.0" y1="-7400.0" x2="-600.0" y2="-7400.0" stroke-width="4" stroke="black" />
<line x1="-600.0" y1="-7400.0" x2="-600.0" y2="-7500.0" stroke-width="4" stroke="black" />
<line x1="-600.0" y1="-7500.0" x2="-500.0" y2="-7500.0" stroke-width="4" stroke="black" />
<line x1="-500.0" y1="-7500.0" x2="-500.0" y2="-7600.0" stroke-width="4" stroke="black" />
<line x1="-500.0" y1="-7600.0" x2="-400.0" y2="-7600.0" stroke-width="4" stroke="black" />
<line x1="-400.0" y1="-7600.0" x2="-399.99999999999994" y2="-7500.0" stroke-width="4" stroke="black" />
<line x1="-399.99999999999994" y1="-7500.0" x2="-299.99999999999994" y2="-7500.0" stroke-width="4" stroke="black" />
<line x1="-299.99999999999994" y1="-7500.0" x2="-299.9999999999999" y2="-7400.0" stroke-width="4" stroke="black" />
<line x1="-299.9999999999999" y1="-7400.0" x2="-199.9999999999999" y2="-7400.0" stroke-width="4" stroke="black" />
<line x1="-199.9999999999999" y1="-7400.0" x2="-199.99999999999986" y2="-7300.0" stroke-width="4" stroke="black" />
<line x1="-199.99999999999986" y1="-7300.0" x2="-299.9999999999999" y2="-7300.0" stroke-width="4" stroke="black" />
<line x1="-299.9999999999999" y1="-7300.0" x2="-299.99999999999983" y2="-7200.0" stroke-width="4" stroke="black" />
<line x1="-299.99999999999983" y1="-7200.0" x2="-199.99999999999983" y2="-7200.0" stroke-width="4" stroke="black" />
<line x1="-199.99999999999983" y1="-7200.0" x2="-199.99999999999986" y2="-7300.0" stroke-width="4" stroke="black" />
<line x1="-199.99999999999986" y1="-7300.0" x2="-99.99999999999986" y2="-7300.0" stroke-width="4" stroke="black" />
<line x1="-99.99999999999986" y1="-7300.0" x2="-99.99999999999983" y2="-7200.0" stroke-width="4" stroke="black" />
<line x1="-99.99999999999983" y1="-7200.0" x2="1.7053025658242404E-13" y2="-7200.0" stroke-width="4" stroke="black" />
<line x1="1.7053025658242404E-13" y1="-7200.0" x2="1.5216055459521375E-13" y2="-7300.0" stroke-width="4" stroke="black" />
<line x1="1.5216055459521375E-13" y1="-7300.0" x2="-99.99999999999984" y2="-7300.0" stroke-width="4" stroke="black" />
<line x1="-99.99999999999984" y1="-7300.0" x2="-99.99999999999986" y2="-7400.0" stroke-width="4" stroke="black" />
<line x1="-99.99999999999986" y1="-7400.0" x2="1.4210854715202004E-13" y2="-7400.0" stroke-width="4" stroke="black" />
<line x1="1.4210854715202004E-13" y1="-7400.0" x2="1.2373884516480974E-13" y2="-7500.0" stroke-width="4" stroke="black" />
<line x1="1.2373884516480974E-13" y1="-7500.0" x2="-99.99999999999987" y2="-7500.0" stroke-width="4" stroke="black" />
<line x1="-99.99999999999987" y1="-7500.0" x2="-99.99999999999987" y2="-7400.0" stroke-width="4" stroke="black" />
<line x1="-99.99999999999987" y1="-7400.0" x2="-199.9999999999999" y2="-7400.0" stroke-width="4" stroke="black" />
<line x1="-199.9999999999999" y1="-7400.0" x2="-199.99999999999991" y2="-7500.0" stroke-width="4" stroke="black" />
<line x1="-199.99999999999991" y1="-7500.0" x2="-299.9999999999999" y2="-7500.0" stroke-width="4" stroke="black" />
<line x1="-299.9999999999999" y1="-7500.0" x2="-299.9999999999999" y2="-7600.0" stroke-width="4" stroke="black" />
<line x1="-299.9999999999999" y1="-7600.0" x2="-399.9999999999999" y2="-7600.0" stroke-width="4" stroke="black" />
<line x1="-399.9999999999999" y1="-7600.0" x2="-399.9999999999999" y2="-7700.0" stroke-width="4" stroke="black" />
<line x1="-399.9999999999999" y1="-7700.0" x2="-299.9999999999999" y2="-7700.0" stroke-width="4" stroke="black" />
<line x1="-299.9999999999999" y1="-7700.0" x2="-299.9999999999999" y2="-7800.0" stroke-width="4" stroke="black" />
<line x1="-299.9999999999999" y1="-7800.0" x2="-199.9999999999999" y2="-7800.0" stroke-width="4" stroke="black" />
<line x1="-199.9999999999999" y1="-7800.0" x2="-199.99999999999991" y2="-7900.0" stroke-width="4" stroke="black" />
<line x1="-199.99999999999991" y1="-7900.0" x2="-99.99999999999991" y2="-7900.0" stroke-width="4" stroke="black" />
<line x1="-99.99999999999991" y1="-7900.0" x2="-99.99999999999989" y2="-7800.0" stroke-width="4" stroke="black" />
<line x1="-99.99999999999989" y1="-7800.0" x2="1.1368683772161603E-13" y2="-7800.0" stroke-width="4" stroke="black" />
<line x1="1.1368683772161603E-13" y1="-7800.0" x2="9.531713573440573E-14" y2="-7900.0" stroke-width="4" stroke="black" />
<line x1="9.531713573440573E-14" y1="-7900.0" x2="-99.9999999999999" y2="-7900.0" stroke-width="4" stroke="black" />
<line x1="-99.9999999999999" y1="-7900.0" x2="-99.99999999999991" y2="-8000.0" stroke-width="4" stroke="black" />
<line x1="-99.99999999999991" y1="-8000.0" x2="8.526512829121202E-14" y2="-8000.0" stroke-width="4" stroke="black" />
<line x1="8.526512829121202E-14" y1="-8000.0" x2="6.689542630400172E-14" y2="-8100.0" stroke-width="4" stroke="black" />
</svg>