<svg viewBox="-300.0 -500.0 300.0 600.0" xmlns="http://www.w3.org/2000/svg"><line x1="0" y1="0" x2="6.123233995736766E-15" y2="100.0" stroke-width="4" stroke="black" />
<line x1="6.123233995736766E-15" y1="100.0" x2="-100.0" y2="100.00000000000001" stroke-width="4" stroke="black" />
<line x1="-100.0" y1="100.00000000000001" x2="-200.0" y2="100.00000000000003" stroke-width="4" stroke="black" />
<line x1="-200.0" y1="100.00000000000003" x2="-200.00000000000003" y2="2.842170943040401E-14" stroke-width="4" stroke="black" />
<line x1="-200.00000000000003" y1="2.842170943040401E-14" x2="-300.0" y2="4.066817742187754E-14" stroke-width="4" stroke="black" />
<line x1="-300.0" y1="4.066817742187754E-14" x2="-300.0" y2="-99.99999999999996" stroke-width="4" stroke="black" />
<line x1="-300.0" y1="-99.99999999999996" x2="-300.0" y2="-199.99999999999994" stroke-width="4" stroke="black" />
<line x1="-300.0" y1="-199.99999999999994" x2="-200.0" y2="-199.99999999999997" stroke-width="4" stroke="black" />
<line x1="-200.0" y1="-199.99999999999997" x2="-300.0" y2="-199.99999999999997" stroke-width="4" stroke="black" />
<line x1="-300.0" y1="-199.99999999999997" x2="-300.0" y2="-300.0" stroke-width="4" stroke="black" />
<line x1="-300.0" y1="-300.0" x2="-300.0" y2="-400.0" stroke-width="4" stroke="black" />
<line x1="-300.0" y1="-400.0" x2="-200.0" y2="-400.0" stroke-width="4" stroke="black" />
<line x1="-200.0" y1="-400.0" x2="-200.00000000000003" y2="-500.0" stroke-width="4" stroke="black" />
<line x1="-200.00000000000003" y1="-500.0" x2="-100.00000000000003" y2="-500.0" stroke-width="4" stroke="black" />
<line x1="-100.00000000000003" y1="-500.0" x2="-2.842170943040401E-14" y2="-500.0" stroke-width="4" stroke="black" />
<line x1="-2.842170943040401E-14" y1="-500.0" x2="2.1944605482798238E-15" y2="-400.0" stroke-width="4" stroke="black" />
</svg>