<svg viewBox="-2338.2685902179846 -8100.0 9353.074360871946 8100.000000000003" xmlns="http://www.w3.org/2000/svg"><line x1="0" y1="0" x2="-1.8369701987210297E-14" y2="-100.0" stroke-width="4" stroke="black" />
<line x1="-1.8369701987210297E-14" y1="-100.0" x2="-86.60254037844388" y2="-150.0" stroke-width="4" stroke="black" />
<line x1="-86.60254037844388" y1="-150.0" x2="-4.263256414560601E-14" y2="-200.00000000000006" stroke-width="4" stroke="black" />
<line x1="-4.263256414560601E-14" y1="-200.00000000000006" x2="-6.100226613281631E-14" y2="-300.00000000000006" stroke-width="4" stroke="black" />
<line x1="-6.100226613281631E-14" y1="-300.00000000000006" x2="-86.60254037844392" y2="-350.00000000000006" stroke-width="4" stroke="black" />
<line x1="-86.60254037844392" y1="-350.00000000000006" x2="-173.2050807568878" y2="-300.00000000000006" stroke-width="4" stroke="black" />
<line x1="-173.2050807568878" y1="-300.00000000000006" x2="-173.20508075688784" y2="-400.00000000000006" stroke-width="4" stroke="black" />
<line x1="-173.20508075688784" y1="-400.00000000000006" x2="-259.8076211353317" y2="-450.00000000000006" stroke-width="4" stroke="black" />
<line x1="-259.8076211353317" y1="-450.00000000000006" x2="-173.20508075688787" y2="-500.0000000000001" stroke-width="4" stroke="black" />
<line x1="-173.20508075688787" y1="-500.0000000000001" x2="-173.2050807568879" y2="-600.0000000000001" stroke-width="4" stroke="black" />
<line x1="-173.2050807568879" y1="-600.0000000000001" x2="-86.60254037844403" y2="-550.0000000000001" stroke-width="4" stroke="black" />
<line x1="-86.60254037844403" y1="-550.0000000000001" x2="-1.9895196601282805E-13" y2="-600.0000000000001" stroke-width="4" stroke="black" />
<line x1="-1.9895196601282805E-13" y1="-600.0000000000001" x2="-2.1732166800003835E-13" y2="-700.0000000000001" stroke-width="4" stroke="black" />
<line x1="-2.1732166800003835E-13" y1="-700.0000000000001" x2="-86.60254037844408" y2="-750.0000000000001" stroke-width="4" stroke="black" />
<line x1="-86.60254037844408" y1="-750.0000000000001" x2="-2.4158453015843406E-13" y2="-800.0000000000001" stroke-width="4" stroke="black" />
<line x1="-2.4158453015843406E-13" y1="-800.0000000000001" x2="-2.599542321456444E-13" y2="-900.0000000000001" stroke-width="4" stroke="black" />
<line x1="-2.599542321456444E-13" y1="-900.0000000000001" x2="-86.60254037844412" y2="-950.0000000000001" stroke-width="4" stroke="black" />
<line x1="-86.60254037844412" y1="-950.0000000000001" x2="-173.20508075688798" y2="-900.0000000000001" stroke-width="4" stroke="black" />
<line x1="-173.20508075688798" y1="-900.0000000000001" x2="-173.205080756888" y2="-1000.0000000000001" stroke-width="4" stroke="black" />
<line x1="-173.205080756888" y1="-1000.0000000000001" x2="-259.8076211353319" y2="-1050.0000000000002" stroke-width="4" stroke="black" />
<line x1="-259.8076211353319" y1="-1050.0000000000002" x2="-346.41016151377573" y2="-1000.0000000000002" stroke-width="4" stroke="black" />
<line x1="-346.41016151377573" y1="-1000.0000000000002" x2="-346.41016151377573" y2="-900.0000000000002" stroke-width="4" stroke="black" />
<line x1="-346.41016151377573" y1="-900.0000000000002" x2="-433.0127018922196" y2="-950.0000000000002" stroke-width="4" stroke="black" />
<line x1="-433.0127018922196" y1="-950.0000000000002" x2="-519.6152422706634" y2="-900.0000000000002" stroke-width="4" stroke="black" />
<line x1="-519.6152422706634" y1="-900.0000000000002" x2="-519.6152422706634" y2="-1000.0000000000002" stroke-width="4" stroke="black" />
<line x1="-519.6152422706634" y1="-1000.0000000000002" x2="-606.2177826491073" y2="-1050.0000000000002" stroke-width="4" stroke="black" />
<line x1="-606.2177826491073" y1="-1050.0000000000002" x2="-519.6152422706635" y2="-1100.0000000000002" stroke-width="4" stroke="black" />
<line x1="-519.6152422706635" y1="-1100.0000000000002" x2="-519.6152422706635" y2="-1200.0000000000002" stroke-width="4" stroke="black" />
<line x1="-519.6152422706635" y1="-1200.0000000000002" x2="-606.2177826491074" y2="-1250.0000000000002" stroke-width="4" stroke="black" />
<line x1="-606.2177826491074" y1="-1250.0000000000002" x2="-692.8203230275514" y2="-1200.0000000000002" stroke-width="4" stroke="black" />
<line x1="-692.8203230275514" y1="-1200.0000000000002" x2="-692.8203230275514" y2="-1300.0000000000002" stroke-width="4" stroke="black" />
<line x1="-692.8203230275514" y1="-1300.0000000000002" x2="-779.4228634059953" y2="-1350.0000000000002" stroke-width="4" stroke="black" />
<line x1="-779.4228634059953" y1="-1350.0000000000002" x2="-692.8203230275515" y2="-1400.0000000000002" stroke-width="4" stroke="black" />
<line x1="-692.8203230275515" y1="-1400.0000000000002" x2="-692.8203230275515" y2="-1500.0000000000002" stroke-width="4" stroke="black" />
<line x1="-692.8203230275515" y1="-1500.0000000000002" x2="-606.2177826491076" y2="-1450.0000000000002" stroke-width="4" stroke="black" />
<line x1="-606.2177826491076" y1="-1450.0000000000002" x2="-519.6152422706638" y2="-1500.0000000000002" stroke-width="4" stroke="black" />
<line x1="-519.6152422706638" y1="-1500.0000000000002" x2="-519.6152422706638" y2="-1600.0000000000002" stroke-width="4" stroke="black" />
<line x1="-519.6152422706638" y1="-1600.0000000000002" x2="-606.2177826491077" y2="-1650.0000000000002" stroke-width="4" stroke="black" />
<line x1="-606.2177826491077" y1="-1650.0000000000002" x2="-519.6152422706639" y2="-1700.0000000000002" stroke-width="4" stroke="black" />
<line x1="-519.6152422706639" y1="-1700.0000000000002" x2="-519.6152422706639" y2="-1800.0000000000002" stroke-width="4" stroke="black" />
<line x1="-519.6152422706639" y1="-1800.0000000000002" x2="-433.01270189222004" y2="-1750.0000000000002" stroke-width="4" stroke="black" />
<line x1="-433.01270189222004" y1="-1750.0000000000002" x2="-346.4101615137762" y2="-1800.0000000000002" stroke-width="4" stroke="black" />
<line x1="-346.4101615137762" y1="-1800.0000000000002" x2="-346.41016151377613" y2="-1700.0000000000002" stroke-width="4" stroke="black" />
<line x1="-346.41016151377613" y1="-1700.0000000000002" x2="-259.8076211353323" y2="-1650.0000000000002" stroke-width="4" stroke="black" />
<line x1="-259.8076211353323" y1="-1650.0000000000002" x2="-173.20508075688844" y2="-1700.0000000000002" stroke-width="4" stroke="black" />
<line x1="-173.20508075688844" y1="-1700.0000000000002" x2="-173.20508075688846" y2="-1800.0000000000002" stroke-width="4" stroke="black" />
<line x1="-173.20508075688846" y1="-1800.0000000000002" x2="-86.6025403784446" y2="-1750.0000000000002" stroke-width="4" stroke="black" />
<line x1="-86.6025403784446" y1="-1750.0000000000002" x2="-7.673861546209082E-13" y2="-1800.0000000000002" stroke-width="4" stroke="black" />
<line x1="-7.673861546209082E-13" y1="-1800.0000000000002" x2="-7.857558566081185E-13" y2="-1900.0000000000002" stroke-width="4" stroke="black" />
<line x1="-7.857558566081185E-13" y1="-1900.0000000000002" x2="-86.60254037844464" y2="-1950.0000000000002" stroke-width="4" stroke="black" />
<line x1="-86.60254037844464" y1="-1950.0000000000002" x2="-8.100187187665142E-13" y2="-2000.0000000000002" stroke-width="4" stroke="black" />
<line x1="-8.100187187665142E-13" y1="-2000.0000000000002" x2="-8.283884207537245E-13" y2="-2100.0" stroke-width="4" stroke="black" />
<line x1="-8.283884207537245E-13" y1="-2100.0" x2="-86.60254037844469" y2="-2150.0" stroke-width="4" stroke="black" />
<line x1="-86.60254037844469" y1="-2150.0" x2="-173.20508075688855" y2="-2100.0" stroke-width="4" stroke="black" />
<line x1="-173.20508075688855" y1="-2100.0" x2="-173.20508075688858" y2="-2200.0" stroke-width="4" stroke="black" />
<line x1="-173.20508075688858" y1="-2200.0" x2="-259.80762113533245" y2="-2250.0" stroke-width="4" stroke="black" />
<line x1="-259.80762113533245" y1="-2250.0" x2="-173.2050807568886" y2="-2300.0" stroke-width="4" stroke="black" />
<line x1="-173.2050807568886" y1="-2300.0" x2="-173.20508075688863" y2="-2400.0" stroke-width="4" stroke="black" />
<line x1="-173.20508075688863" y1="-2400.0" x2="-86.60254037844477" y2="-2350.0" stroke-width="4" stroke="black" />
<line x1="-86.60254037844477" y1="-2350.0" x2="-9.379164112033322E-13" y2="-2400.0" stroke-width="4" stroke="black" />
<line x1="-9.379164112033322E-13" y1="-2400.0" x2="-9.562861131905425E-13" y2="-2500.0" stroke-width="4" stroke="black" />
<line x1="-9.562861131905425E-13" y1="-2500.0" x2="-86.60254037844481" y2="-2550.0" stroke-width="4" stroke="black" />
<line x1="-86.60254037844481" y1="-2550.0" x2="-9.805489753489383E-13" y2="-2600.0" stroke-width="4" stroke="black" />
<line x1="-9.805489753489383E-13" y1="-2600.0" x2="-9.989186773361485E-13" y2="-2700.0" stroke-width="4" stroke="black" />
<line x1="-9.989186773361485E-13" y1="-2700.0" x2="-86.60254037844486" y2="-2750.0" stroke-width="4" stroke="black" />
<line x1="-86.60254037844486" y1="-2750.0" x2="-173.20508075688872" y2="-2700.0" stroke-width="4" stroke="black" />
<line x1="-173.20508075688872" y1="-2700.0" x2="-173.20508075688875" y2="-2800.0" stroke-width="4" stroke="black" />
<line x1="-173.20508075688875" y1="-2800.0" x2="-259.8076211353326" y2="-2850.0" stroke-width="4" stroke="black" />
<line x1="-259.8076211353326" y1="-2850.0" x2="-346.41016151377653" y2="-2800.0" stroke-width="4" stroke="black" />
<line x1="-346.41016151377653" y1="-2800.0" x2="-346.41016151377653" y2="-2700.0" stroke-width="4" stroke="black" />
<line x1="-346.41016151377653" y1="-2700.0" x2="-433.0127018922204" y2="-2750.0" stroke-width="4" stroke="black" />
<line x1="-433.0127018922204" y1="-2750.0" x2="-519.6152422706642" y2="-2700.0" stroke-width="4" stroke="black" />
<line x1="-519.6152422706642" y1="-2700.0" x2="-519.6152422706642" y2="-2800.0" stroke-width="4" stroke="black" />
<line x1="-519.6152422706642" y1="-2800.0" x2="-606.2177826491081" y2="-2850.0" stroke-width="4" stroke="black" />
<line x1="-606.2177826491081" y1="-2850.0" x2="-519.6152422706643" y2="-2900.0" stroke-width="4" stroke="black" />
<line x1="-519.6152422706643" y1="-2900.0" x2="-519.6152422706643" y2="-3000.0" stroke-width="4" stroke="black" />
<line x1="-519.6152422706643" y1="-3000.0" x2="-606.2177826491082" y2="-3050.0" stroke-width="4" stroke="black" />
<line x1="-606.2177826491082" y1="-3050.0" x2="-692.8203230275521" y2="-3000.0" stroke-width="4" stroke="black" />
<line x1="-692.8203230275521" y1="-3000.0" x2="-692.8203230275521" y2="-3100.0" stroke-width="4" stroke="black" />
<line x1="-692.8203230275521" y1="-3100.0" x2="-779.422863405996" y2="-3150.0" stroke-width="4" stroke="black" />
<line x1="-779.422863405996" y1="-3150.0" x2="-866.02540378444" y2="-3100.0" stroke-width="4" stroke="black" />
<line x1="-866.02540378444" y1="-3100.0" x2="-866.02540378444" y2="-3000.0" stroke-width="4" stroke="black" />
<line x1="-866.02540378444" y1="-3000.0" x2="-952.6279441628839" y2="-3050.0" stroke-width="4" stroke="black" />
<line x1="-952.6279441628839" y1="-3050.0" x2="-1039.2304845413278" y2="-3000.0" stroke-width="4" stroke="black" />
<line x1="-1039.2304845413278" y1="-3000.0" x2="-1039.2304845413278" y2="-2900.0" stroke-width="4" stroke="black" />
<line x1="-1039.2304845413278" y1="-2900.0" x2="-952.6279441628839" y2="-2850.0" stroke-width="4" stroke="black" />
<line x1="-952.6279441628839" y1="-2850.0" x2="-1039.2304845413278" y2="-2800.0" stroke-width="4" stroke="black" />
<line x1="-1039.2304845413278" y1="-2800.0" x2="-1039.2304845413278" y2="-2700.0" stroke-width="4" stroke="black" />
<line x1="-1039.2304845413278" y1="-2700.0" x2="-1125.8330249197716" y2="-2750.0" stroke-width="4" stroke="black" />
<line x1="-1125.8330249197716" y1="-2750.0" x2="-1212.4355652982154" y2="-2700.0" stroke-width="4" stroke="black" />
<line x1="-1212.4355652982154" y1="-2700.0" x2="-1212.4355652982154" y2="-2800.0" stroke-width="4" stroke="black" />
<line x1="-1212.4355652982154" y1="-2800.0" x2="-1299.0381056766591" y2="-2850.0" stroke-width="4" stroke="black" />
<line x1="-1299.0381056766591" y1="-2850.0" x2="-1385.640646055103" y2="-2800.0" stroke-width="4" stroke="black" />
<line x1="-1385.640646055103" y1="-2800.0" x2="-1385.640646055103" y2="-2700.0" stroke-width="4" stroke="black" />
<line x1="-1385.640646055103" y1="-2700.0" x2="-1472.2431864335467" y2="-2750.0" stroke-width="4" stroke="black" />
<line x1="-1472.2431864335467" y1="-2750.0" x2="-1558.8457268119905" y2="-2700.0" stroke-width="4" stroke="black" />
<line x1="-1558.8457268119905" y1="-2700.0" x2="-1558.8457268119905" y2="-2800.0" stroke-width="4" stroke="black" />
<line x1="-1558.8457268119905" y1="-2800.0" x2="-1645.4482671904343" y2="-2850.0" stroke-width="4" stroke="black" />
<line x1="-1645.4482671904343" y1="-2850.0" x2="-1558.8457268119905" y2="-2900.0" stroke-width="4" stroke="black" />
<line x1="-1558.8457268119905" y1="-2900.0" x2="-1558.8457268119905" y2="-3000.0" stroke-width="4" stroke="black" />
<line x1="-1558.8457268119905" y1="-3000.0" x2="-1645.4482671904343" y2="-3050.0" stroke-width="4" stroke="black" />
<line x1="-1645.4482671904343" y1="-3050.0" x2="-1732.050807568878" y2="-3000.0" stroke-width="4" stroke="black" />
<line x1="-1732.050807568878" y1="-3000.0" x2="-1732.050807568878" y2="-3100.0" stroke-width="4" stroke="black" />
<line x1="-1732.050807568878" y1="-3100.0" x2="-1818.653347947322" y2="-3150.0" stroke-width="4" stroke="black" />
<line x1="-1818.653347947322" y1="-3150.0" x2="-1732.050807568878" y2="-3200.0" stroke-width="4" stroke="black" />
<line x1="-1732.050807568878" y1="-3200.0" x2="-1732.050807568878" y2="-3300.0" stroke-width="4" stroke="black" />
<line x1="-1732.050807568878" y1="-3300.0" x2="-1645.4482671904343" y2="-3250.0" stroke-width="4" stroke="black" />
<line x1="-1645.4482671904343" y1="-3250.0" x2="-1558.8457268119905" y2="-3300.0" stroke-width="4" stroke="black" />
<line x1="-1558.8457268119905" y1="-3300.0" x2="-1558.8457268119905" y2="-3400.0" stroke-width="4" stroke="black" />
<line x1="-1558.8457268119905" y1="-3400.0" x2="-1645.4482671904343" y2="-3450.0" stroke-width="4" stroke="black" />
<line x1="-1645.4482671904343" y1="-3450.0" x2="-1558.8457268119905" y2="-3500.0" stroke-width="4" stroke="black" />
<line x1="-1558.8457268119905" y1="-3500.0" x2="-1558.8457268119905" y2="-3600.0" stroke-width="4" stroke="black" />
<line x1="-1558.8457268119905" y1="-3600.0" x2="-1645.4482671904343" y2="-3650.0" stroke-width="4" stroke="black" />
<line x1="-1645.4482671904343" y1="-3650.0" x2="-1732.050807568878" y2="-3600.0" stroke-width="4" stroke="black" />
<line x1="-1732.050807568878" y1="-3600.0" x2="-1732.050807568878" y2="-3700.0" stroke-width="4" stroke="black" />
<line x1="-1732.050807568878" y1="-3700.0" x2="-1818.653347947322" y2="-3750.0" stroke-width="4" stroke="black" />
<line x1="-1818.653347947322" y1="-3750.0" x2="-1905.2558883257657" y2="-3700.0" stroke-width="4" stroke="black" />
<line x1="-1905.2558883257657" y1="-3700.0" x2="-1905.2558883257657" y2="-3600.0" stroke-width="4" stroke="black" />
<line x1="-1905.2558883257657" y1="-3600.0" x2="-1991.8584287042095" y2="-3650.0" stroke-width="4" stroke="black" />
<line x1="-1991.8584287042095" y1="-3650.0" x2="-2078.4609690826533" y2="-3600.0" stroke-width="4" stroke="black" />
<line x1="-2078.4609690826533" y1="-3600.0" x2="-2078.4609690826533" y2="-3700.0" stroke-width="4" stroke="black" />
<line x1="-2078.4609690826533" y1="-3700.0" x2="-2165.063509461097" y2="-3750.0" stroke-width="4" stroke="black" />
<line x1="-2165.063509461097" y1="-3750.0" x2="-2078.4609690826533" y2="-3800.0" stroke-width="4" stroke="black" />
<line x1="-2078.4609690826533" y1="-3800.0" x2="-2078.4609690826533" y2="-3900.0" stroke-width="4" stroke="black" />
<line x1="-2078.4609690826533" y1="-3900.0" x2="-2165.063509461097" y2="-3950.0" stroke-width="4" stroke="black" />
<line x1="-2165.063509461097" y1="-3950.0" x2="-2251.666049839541" y2="-3900.0" stroke-width="4" stroke="black" />
<line x1="-2251.666049839541" y1="-3900.0" x2="-2251.666049839541" y2="-4000.0" stroke-width="4" stroke="black" />
<line x1="-2251.666049839541" y1="-4000.0" x2="-2338.2685902179846" y2="-4050.0" stroke-width="4" stroke="black" />
<line x1="-2338.2685902179846" y1="-4050.0" x2="-2251.666049839541" y2="-4100.0" stroke-width="4" stroke="black" />
<line x1="-2251.666049839541" y1="-4100.0" x2="-2251.666049839541" y2="-4200.0" stroke-width="4" stroke="black" />
<line x1="-2251.666049839541" y1="-4200.0" x2="-2165.063509461097" y2="-4150.0" stroke-width="4" stroke="black" />
<line x1="-2165.063509461097" y1="-4150.0" x2="-2078.4609690826533" y2="-4200.0" stroke-width="4" stroke="black" />
<line x1="-2078.4609690826533" y1="-4200.0" x2="-2078.4609690826533" y2="-4300.0" stroke-width="4" stroke="black" />
<line x1="-2078.4609690826533" y1="-4300.0" x2="-2165.063509461097" y2="-4350.0" stroke-width="4" stroke="black" />
<line x1="-2165.063509461097" y1="-4350.0" x2="-2078.4609690826533" y2="-4400.0" stroke-width="4" stroke="black" />
<line x1="-2078.4609690826533" y1="-4400.0" x2="-2078.4609690826533" y2="-4500.0" stroke-width="4" stroke="black" />
<line x1="-2078.4609690826533" y1="-4500.0" x2="-1991.8584287042095" y2="-4450.0" stroke-width="4" stroke="black" />
<line x1="-1991.8584287042095" y1="-4450.0" x2="-1905.2558883257657" y2="-4500.0" stroke-width="4" stroke="black" />
<line x1="-1905.2558883257657" y1="-4500.0" x2="-1905.2558883257657" y2="-4400.0" stroke-width="4" stroke="black" />
<line x1="-1905.2558883257657" y1="-4400.0" x2="-1818.653347947322" y2="-4350.0" stroke-width="4" stroke="black" />
<line x1="-1818.653347947322" y1="-4350.0" x2="-1732.050807568878" y2="-4400.0" stroke-width="4" stroke="black" />
<line x1="-1732.050807568878" y1="-4400.0" x2="-1732.050807568878" y2="-4500.0" stroke-width="4" stroke="black" />
<line x1="-1732.050807568878" y1="-4500.0" x2="-1645.4482671904343" y2="-4450.0" stroke-width="4" stroke="black" />
<line x1="-1645.4482671904343" y1="-4450.0" x2="-1558.8457268119905" y2="-4500.0" stroke-width="4" stroke="black" />
<line x1="-1558.8457268119905" y1="-4500.0" x2="-1558.8457268119905" y2="-4600.0" stroke-width="4" stroke="black" />
<line x1="-1558.8457268119905" y1="-4600.0" x2="-1645.4482671904343" y2="-4650.0" stroke-width="4" stroke="black" />
<line x1="-1645.4482671904343" y1="-4650.0" x2="-1558.8457268119905" y2="-4700.0" stroke-width="4" stroke="black" />
<line x1="-1558.8457268119905" y1="-4700.0" x2="-1558.8457268119905" y2="-4800.0" stroke-width="4" stroke="black" />
<line x1="-1558.8457268119905" y1="-4800.0" x2="-1645.4482671904343" y2="-4850.0" stroke-width="4" stroke="black" />
<line x1="-1645.4482671904343" y1="-4850.0" x2="-1732.050807568878" y2="-4800.0" stroke-width="4" stroke="black" />
<line x1="-1732.050807568878" y1="-4800.0" x2="-1732.050807568878" y2="-4900.0" stroke-width="4" stroke="black" />
<line x1="-1732.050807568878" y1="-4900.0" x2="-1818.653347947322" y2="-4950.0" stroke-width="4" stroke="black" />
<line x1="-1818.653347947322" y1="-4950.0" x2="-1732.050807568878" y2="-5000.0" stroke-width="4" stroke="black" />
<line x1="-1732.050807568878" y1="-5000.0" x2="-1732.050807568878" y2="-5100.0" stroke-width="4" stroke="black" />
<line x1="-1732.050807568878" y1="-5100.0" x2="-1645.4482671904343" y2="-5050.0" stroke-width="4" stroke="black" />
<line x1="-1645.4482671904343" y1="-5050.0" x2="-1558.8457268119905" y2="-5100.0" stroke-width="4" stroke="black" />
<line x1="-1558.8457268119905" y1="-5100.0" x2="-1558.8457268119905" y2="-5200.0" stroke-width="4" stroke="black" />
<line x1="-1558.8457268119905" y1="-5200.0" x2="-1645.4482671904343" y2="-5250.0" stroke-width="4" stroke="black" />
<line x1="-1645.4482671904343" y1="-5250.0" x2="-1558.8457268119905" y2="-5300.0" stroke-width="4" stroke="black" />
<line x1="-1558.8457268119905" y1="-5300.0" x2="-1558.8457268119905" y2="-5400.0" stroke-width="4" stroke="black" />
<line x1="-1558.8457268119905" y1="-5400.0" x2="-1472.2431864335467" y2="-5350.0" stroke-width="4" stroke="black" />
<line x1="-1472.2431864335467" y1="-5350.0" x2="-1385.640646055103" y2="-5400.0" stroke-width="4" stroke="black" />
<line x1="-1385.640646055103" y1="-5400.0" x2="-1385.640646055103" y2="-5300.0" stroke-width="4" stroke="black" />
<line x1="-1385.640646055103" y1="-5300.0" x2="-1299.0381056766591" y2="-5250.0" stroke-width="4" stroke="black" />
<line x1="-1299.0381056766591" y1="-5250.0" x2="-1212.4355652982154" y2="-5300.0" stroke-width="4" stroke="black" />
<line x1="-1212.4355652982154" y1="-5300.0" x2="-1212.4355652982154" y2="-5400.0" stroke-width="4" stroke="black" />
<line x1="-1212.4355652982154" y1="-5400.0" x2="-1125.8330249197716" y2="-5350.0" stroke-width="4" stroke="black" />
<line x1="-1125.8330249197716" y1="-5350.0" x2="-1039.2304845413278" y2="-5400.0" stroke-width="4" stroke="black" />
<line x1="-1039.2304845413278" y1="-5400.0" x2="-1039.2304845413278" y2="-5300.0" stroke-width="4" stroke="black" />
<line x1="-1039.2304845413278" y1="-5300.0" x2="-952.6279441628839" y2="-5250.0" stroke-width="4" stroke="black" />
<line x1="-952.6279441628839" y1="-5250.0" x2="-1039.2304845413278" y2="-5200.0" stroke-width="4" stroke="black" />
<line x1="-1039.2304845413278" y1="-5200.0" x2="-1039.2304845413278" y2="-5100.0" stroke-width="4" stroke="black" />
<line x1="-1039.2304845413278" y1="-5100.0" x2="-952.6279441628839" y2="-5050.0" stroke-width="4" stroke="black" />
<line x1="-952.6279441628839" y1="-5050.0" x2="-866.0254037844401" y2="-5100.0" stroke-width="4" stroke="black" />
<line x1="-866.0254037844401" y1="-5100.0" x2="-866.0254037844401" y2="-5000.0" stroke-width="4" stroke="black" />
<line x1="-866.0254037844401" y1="-5000.0" x2="-779.4228634059962" y2="-4950.0" stroke-width="4" stroke="black" />
<line x1="-779.4228634059962" y1="-4950.0" x2="-692.8203230275524" y2="-5000.0" stroke-width="4" stroke="black" />
<line x1="-692.8203230275524" y1="-5000.0" x2="-692.8203230275524" y2="-5100.0" stroke-width="4" stroke="black" />
<line x1="-692.8203230275524" y1="-5100.0" x2="-606.2177826491085" y2="-5050.0" stroke-width="4" stroke="black" />
<line x1="-606.2177826491085" y1="-5050.0" x2="-519.6152422706647" y2="-5100.0" stroke-width="4" stroke="black" />
<line x1="-519.6152422706647" y1="-5100.0" x2="-519.6152422706647" y2="-5200.0" stroke-width="4" stroke="black" />
<line x1="-519.6152422706647" y1="-5200.0" x2="-606.2177826491086" y2="-5250.0" stroke-width="4" stroke="black" />
<line x1="-606.2177826491086" y1="-5250.0" x2="-519.6152422706648" y2="-5300.0" stroke-width="4" stroke="black" />
<line x1="-519.6152422706648" y1="-5300.0" x2="-519.6152422706648" y2="-5400.0" stroke-width="4" stroke="black" />
<line x1="-519.6152422706648" y1="-5400.0" x2="-433.01270189222095" y2="-5350.0" stroke-width="4" stroke="black" />
<line x1="-433.01270189222095" y1="-5350.0" x2="-346.4101615137771" y2="-5400.0" stroke-width="4" stroke="black" />
<line x1="-346.4101615137771" y1="-5400.0" x2="-346.41016151377704" y2="-5300.0" stroke-width="4" stroke="black" />
<line x1="-346.41016151377704" y1="-5300.0" x2="-259.8076211353332" y2="-5250.0" stroke-width="4" stroke="black" />
<line x1="-259.8076211353332" y1="-5250.0" x2="-173.20508075688934" y2="-5300.0" stroke-width="4" stroke="black" />
<line x1="-173.20508075688934" y1="-5300.0" x2="-173.20508075688937" y2="-5400.0" stroke-width="4" stroke="black" />
<line x1="-173.20508075688937" y1="-5400.0" x2="-86.60254037844551" y2="-5350.0" stroke-width="4" stroke="black" />
<line x1="-86.60254037844551" y1="-5350.0" x2="-1.6768808563938364E-12" y2="-5400.0" stroke-width="4" stroke="black" />
<line x1="-1.6768808563938364E-12" y1="-5400.0" x2="-1.6952505583810467E-12" y2="-5500.0" stroke-width="4" stroke="black" />
<line x1="-1.6952505583810467E-12" y1="-5500.0" x2="-86.60254037844555" y2="-5550.0" stroke-width="4" stroke="black" />
<line x1="-86.60254037844555" y1="-5550.0" x2="-1.7195134205394424E-12" y2="-5600.0" stroke-width="4" stroke="black" />
<line x1="-1.7195134205394424E-12" y1="-5600.0" x2="-1.7378831225266527E-12" y2="-5700.0" stroke-width="4" stroke="black" />
<line x1="-1.7378831225266527E-12" y1="-5700.0" x2="-86.6025403784456" y2="-5750.0" stroke-width="4" stroke="black" />
<line x1="-86.6025403784456" y1="-5750.0" x2="-173.20508075688946" y2="-5700.0" stroke-width="4" stroke="black" />
<line x1="-173.20508075688946" y1="-5700.0" x2="-173.2050807568895" y2="-5800.0" stroke-width="4" stroke="black" />
<line x1="-173.2050807568895" y1="-5800.0" x2="-259.80762113533336" y2="-5850.0" stroke-width="4" stroke="black" />
<line x1="-259.80762113533336" y1="-5850.0" x2="-173.20508075688952" y2="-5900.0" stroke-width="4" stroke="black" />
<line x1="-173.20508075688952" y1="-5900.0" x2="-173.20508075688954" y2="-6000.0" stroke-width="4" stroke="black" />
<line x1="-173.20508075688954" y1="-6000.0" x2="-86.60254037844568" y2="-5950.0" stroke-width="4" stroke="black" />
<line x1="-86.60254037844568" y1="-5950.0" x2="-1.8474111129762605E-12" y2="-6000.0" stroke-width="4" stroke="black" />
<line x1="-1.8474111129762605E-12" y1="-6000.0" x2="-1.865780814963471E-12" y2="-6100.0" stroke-width="4" stroke="black" />
<line x1="-1.865780814963471E-12" y1="-6100.0" x2="-86.60254037844572" y2="-6150.0" stroke-width="4" stroke="black" />
<line x1="-86.60254037844572" y1="-6150.0" x2="-1.8900436771218665E-12" y2="-6200.0" stroke-width="4" stroke="black" />
<line x1="-1.8900436771218665E-12" y1="-6200.0" x2="-1.908413379109077E-12" y2="-6300.0" stroke-width="4" stroke="black" />
<line x1="-1.908413379109077E-12" y1="-6300.0" x2="-86.60254037844577" y2="-6350.0" stroke-width="4" stroke="black" />
<line x1="-86.60254037844577" y1="-6350.0" x2="-173.20508075688963" y2="-6300.0" stroke-width="4" stroke="black" />
<line x1="-173.20508075688963" y1="-6300.0" x2="-173.20508075688966" y2="-6400.0" stroke-width="4" stroke="black" />
<line x1="-173.20508075688966" y1="-6400.0" x2="-259.80762113533353" y2="-6450.0" stroke-width="4" stroke="black" />
<line x1="-259.80762113533353" y1="-6450.0" x2="-346.41016151377744" y2="-6400.0" stroke-width="4" stroke="black" />
<line x1="-346.41016151377744" y1="-6400.0" x2="-346.41016151377744" y2="-6300.0" stroke-width="4" stroke="black" />
<line x1="-346.41016151377744" y1="-6300.0" x2="-433.0127018922213" y2="-6350.0" stroke-width="4" stroke="black" />
<line x1="-433.0127018922213" y1="-6350.0" x2="-519.6152422706651" y2="-6300.0" stroke-width="4" stroke="black" />
<line x1="-519.6152422706651" y1="-6300.0" x2="-519.6152422706651" y2="-6400.0" stroke-width="4" stroke="black" />
<line x1="-519.6152422706651" y1="-6400.0" x2="-606.217782649109" y2="-6450.0" stroke-width="4" stroke="black" />
<line x1="-606.217782649109" y1="-6450.0" x2="-519.6152422706652" y2="-6500.0" stroke-width="4" stroke="black" />
<line x1="-519.6152422706652" y1="-6500.0" x2="-519.6152422706652" y2="-6600.0" stroke-width="4" stroke="black" />
<line x1="-519.6152422706652" y1="-6600.0" x2="-606.2177826491092" y2="-6650.0" stroke-width="4" stroke="black" />
<line x1="-606.2177826491092" y1="-6650.0" x2="-692.8203230275531" y2="-6600.0" stroke-width="4" stroke="black" />
<line x1="-692.8203230275531" y1="-6600.0" x2="-692.8203230275531" y2="-6700.0" stroke-width="4" stroke="black" />
<line x1="-692.8203230275531" y1="-6700.0" x2="-779.422863405997" y2="-6750.0" stroke-width="4" stroke="black" />
<line x1="-779.422863405997" y1="-6750.0" x2="-692.8203230275532" y2="-6800.0" stroke-width="4" stroke="black" />
<line x1="-692.8203230275532" y1="-6800.0" x2="-692.8203230275532" y2="-6900.0" stroke-width="4" stroke="black" />
<line x1="-692.8203230275532" y1="-6900.0" x2="-606.2177826491093" y2="-6850.0" stroke-width="4" stroke="black" />
<line x1="-606.2177826491093" y1="-6850.0" x2="-519.6152422706655" y2="-6900.0" stroke-width="4" stroke="black" />
<line x1="-519.6152422706655" y1="-6900.0" x2="-519.6152422706655" y2="-7000.0" stroke-width="4" stroke="black" />
<line x1="-519.6152422706655" y1="-7000.0" x2="-606.2177826491094" y2="-7050.0" stroke-width="4" stroke="black" />
<line x1="-606.2177826491094" y1="-7050.0" x2="-519.6152422706656" y2="-7100.0" stroke-width="4" stroke="black" />
<line x1="-519.6152422706656" y1="-7100.0" x2="-519.6152422706656" y2="-7200.0" stroke-width="4" stroke="black" />
<line x1="-519.6152422706656" y1="-7200.0" x2="-433.01270189222174" y2="-7150.0" stroke-width="4" stroke="black" />
<line x1="-433.01270189222174" y1="-7150.0" x2="-346.4101615137779" y2="-7200.0" stroke-width="4" stroke="black" />
<line x1="-346.4101615137779" y1="-7200.0" x2="-346.41016151377784" y2="-7100.0" stroke-width="4" stroke="black" />
<line x1="-346.41016151377784" y1="-7100.0" x2="-259.807621135334" y2="-7050.0" stroke-width="4" stroke="black" />
<line x1="-259.807621135334" y1="-7050.0" x2="-173.20508075689014" y2="-7100.0" stroke-width="4" stroke="black" />
<line x1="-173.20508075689014" y1="-7100.0" x2="-173.20508075689017" y2="-7200.0" stroke-width="4" stroke="black" />
<line x1="-173.20508075689017" y1="-7200.0" x2="-86.6025403784463" y2="-7150.0" stroke-width="4" stroke="black" />
<line x1="-86.6025403784463" y1="-7150.0" x2="-2.4726887204451486E-12" y2="-7200.0" stroke-width="4" stroke="black" />
<line x1="-2.4726887204451486E-12" y1="-7200.0" x2="-2.491058422432359E-12" y2="-7300.0" stroke-width="4" stroke="black" />
<line x1="-2.491058422432359E-12" y1="-7300.0" x2="-86.60254037844635" y2="-7350.0" stroke-width="4" stroke="black" />
<line x1="-86.60254037844635" y1="-7350.0" x2="-2.5153212845907547E-12" y2="-7400.0" stroke-width="4" stroke="black" />
<line x1="-2.5153212845907547E-12" y1="-7400.0" x2="-2.533690986577965E-12" y2="-7500.0" stroke-width="4" stroke="black" />
<line x1="-2.533690986577965E-12" y1="-7500.0" x2="-86.60254037844639" y2="-7550.0" stroke-width="4" stroke="black" />
<line x1="-86.60254037844639" y1="-7550.0" x2="-173.20508075689025" y2="-7500.0" stroke-width="4" stroke="black" />
<line x1="-173.20508075689025" y1="-7500.0" x2="-173.20508075689028" y2="-7600.0" stroke-width="4" stroke="black" />
<line x1="-173.20508075689028" y1="-7600.0" x2="-259.80762113533416" y2="-7650.0" stroke-width="4" stroke="black" />
<line x1="-259.80762113533416" y1="-7650.0" x2="-173.2050807568903" y2="-7700.0" stroke-width="4" stroke="black" />
<line x1="-173.2050807568903" y1="-7700.0" x2="-173.20508075689034" y2="-7800.0" stroke-width="4" stroke="black" />
<line x1="-173.20508075689034" y1="-7800.0" x2="-86.60254037844648" y2="-7750.0" stroke-width="4" stroke="black" />
<line x1="-86.60254037844648" y1="-7750.0" x2="-2.6432189770275727E-12" y2="-7800.0" stroke-width="4" stroke="black" />
<line x1="-2.6432189770275727E-12" y1="-7800.0" x2="-2.661588679014783E-12" y2="-7900.0" stroke-width="4" stroke="black" />
<line x1="-2.661588679014783E-12" y1="-7900.0" x2="-86.60254037844652" y2="-7950.0" stroke-width="4" stroke="black" />
<line x1="-86.60254037844652" y1="-7950.0" x2="-2.6858515411731787E-12" y2="-8000.0" stroke-width="4" stroke="black" />
<line x1="-2.6858515411731787E-12" y1="-8000.0" x2="-2.704221243160389E-12" y2="-8100.0" stroke-width="4" stroke="black" />
<line x1="-2.704221243160389E-12" y1="-8100.0" x2="86.60254037844116" y2="-8050.0" stroke-width="4" stroke="black" />
<line x1="86.60254037844116" y1="-8050.0" x2="173.205080756885" y2="-8100.0" stroke-width="4" stroke="black" />
<line x1="173.205080756885" y1="-8100.0" x2="173.20508075688502" y2="-8000.0" stroke-width="4" stroke="black" />
<line x1="173.20508075688502" y1="-8000.0" x2="259.8076211353289" y2="-7950.0" stroke-width="4" stroke="black" />
<line x1="259.8076211353289" y1="-7950.0" x2="346.4101615137727" y2="-8000.0" stroke-width="4" stroke="black" />
<line x1="346.4101615137727" y1="-8000.0" x2="346.4101615137727" y2="-8100.0" stroke-width="4" stroke="black" />
<line x1="346.4101615137727" y1="-8100.0" x2="433.01270189221657" y2="-8050.0" stroke-width="4" stroke="black" />
<line x1="433.01270189221657" y1="-8050.0" x2="519.6152422706604" y2="-8100.0" stroke-width="4" stroke="black" />
<line x1="519.6152422706604" y1="-8100.0" x2="519.6152422706604" y2="-8000.0" stroke-width="4" stroke="black" />
<line x1="519.6152422706604" y1="-8000.0" x2="606.2177826491043" y2="-7950.0" stroke-width="4" stroke="black" />
<line x1="606.2177826491043" y1="-7950.0" x2="519.6152422706604" y2="-7900.0" stroke-width="4" stroke="black" />
<line x1="519.6152422706604" y1="-7900.0" x2="519.6152422706604" y2="-7800.0" stroke-width="4" stroke="black" />
<line x1="519.6152422706604" y1="-7800.0" x2="606.2177826491043" y2="-7750.0" stroke-width="4" stroke="black" />
<line x1="606.2177826491043" y1="-7750.0" x2="692.820323027548" y2="-7800.0" stroke-width="4" stroke="black" />
<line x1="692.820323027548" y1="-7800.0" x2="692.820323027548" y2="-7700.0" stroke-width="4" stroke="black" />
<line x1="692.820323027548" y1="-7700.0" x2="779.422863405992" y2="-7650.0" stroke-width="4" stroke="black" />
<line x1="779.422863405992" y1="-7650.0" x2="866.0254037844358" y2="-7700.0" stroke-width="4" stroke="black" />
<line x1="866.0254037844358" y1="-7700.0" x2="866.0254037844358" y2="-7800.0" stroke-width="4" stroke="black" />
<line x1="866.0254037844358" y1="-7800.0" x2="952.6279441628797" y2="-7750.0" stroke-width="4" stroke="black" />
<line x1="952.6279441628797" y1="-7750.0" x2="1039.2304845413234" y2="-7800.0" stroke-width="4" stroke="black" />
<line x1="1039.2304845413234" y1="-7800.0" x2="1039.2304845413234" y2="-7900.0" stroke-width="4" stroke="black" />
<line x1="1039.2304845413234" y1="-7900.0" x2="952.6279441628795" y2="-7950.0" stroke-width="4" stroke="black" />
<line x1="952.6279441628795" y1="-7950.0" x2="1039.2304845413234" y2="-8000.0" stroke-width="4" stroke="black" />
<line x1="1039.2304845413234" y1="-8000.0" x2="1039.2304845413234" y2="-8100.0" stroke-width="4" stroke="black" />
<line x1="1039.2304845413234" y1="-8100.0" x2="1125.8330249197672" y2="-8050.0" stroke-width="4" stroke="black" />
<line x1="1125.8330249197672" y1="-8050.0" x2="1212.435565298211" y2="-8100.0" stroke-width="4" stroke="black" />
<line x1="1212.435565298211" y1="-8100.0" x2="1212.435565298211" y2="-8000.0" stroke-width="4" stroke="black" />
<line x1="1212.435565298211" y1="-8000.0" x2="1299.0381056766548" y2="-7950.0" stroke-width="4" stroke="black" />
<line x1="1299.0381056766548" y1="-7950.0" x2="1385.6406460550986" y2="-8000.0" stroke-width="4" stroke="black" />
<line x1="1385.6406460550986" y1="-8000.0" x2="1385.6406460550986" y2="-8100.0" stroke-width="4" stroke="black" />
<line x1="1385.6406460550986" y1="-8100.0" x2="1472.2431864335424" y2="-8050.0" stroke-width="4" stroke="black" />
<line x1="1472.2431864335424" y1="-8050.0" x2="1558.8457268119862" y2="-8100.0" stroke-width="4" stroke="black" />
<line x1="1558.8457268119862" y1="-8100.0" x2="1558.8457268119862" y2="-8000.0" stroke-width="4" stroke="black" />
<line x1="1558.8457268119862" y1="-8000.0" x2="1645.44826719043" y2="-7950.0" stroke-width="4" stroke="black" />
<line x1="1645.44826719043" y1="-7950.0" x2="1558.8457268119862" y2="-7900.0" stroke-width="4" stroke="black" />
<line x1="1558.8457268119862" y1="-7900.0" x2="1558.8457268119862" y2="-7800.0" stroke-width="4" stroke="black" />
<line x1="1558.8457268119862" y1="-7800.0" x2="1645.44826719043" y2="-7750.0" stroke-width="4" stroke="black" />
<line x1="1645.44826719043" y1="-7750.0" x2="1732.0508075688738" y2="-7800.0" stroke-width="4" stroke="black" />
<line x1="1732.0508075688738" y1="-7800.0" x2="1732.0508075688738" y2="-7700.0" stroke-width="4" stroke="black" />
<line x1="1732.0508075688738" y1="-7700.0" x2="1818.6533479473176" y2="-7650.0" stroke-width="4" stroke="black" />
<line x1="1818.6533479473176" y1="-7650.0" x2="1732.0508075688738" y2="-7600.0" stroke-width="4" stroke="black" />
<line x1="1732.0508075688738" y1="-7600.0" x2="1732.0508075688738" y2="-7500.0" stroke-width="4" stroke="black" />
<line x1="1732.0508075688738" y1="-7500.0" x2="1645.4482671904298" y2="-7550.0" stroke-width="4" stroke="black" />
<line x1="1645.4482671904298" y1="-7550.0" x2="1558.845726811986" y2="-7500.0" stroke-width="4" stroke="black" />
<line x1="1558.845726811986" y1="-7500.0" x2="1558.845726811986" y2="-7400.0" stroke-width="4" stroke="black" />
<line x1="1558.845726811986" y1="-7400.0" x2="1645.4482671904298" y2="-7350.0" stroke-width="4" stroke="black" />
<line x1="1645.4482671904298" y1="-7350.0" x2="1558.845726811986" y2="-7300.0" stroke-width="4" stroke="black" />
<line x1="1558.845726811986" y1="-7300.0" x2="1558.845726811986" y2="-7200.0" stroke-width="4" stroke="black" />
<line x1="1558.845726811986" y1="-7200.0" x2="1645.4482671904298" y2="-7150.0" stroke-width="4" stroke="black" />
<line x1="1645.4482671904298" y1="-7150.0" x2="1732.0508075688736" y2="-7200.0" stroke-width="4" stroke="black" />
<line x1="1732.0508075688736" y1="-7200.0" x2="1732.0508075688736" y2="-7100.0" stroke-width="4" stroke="black" />
<line x1="1732.0508075688736" y1="-7100.0" x2="1818.6533479473173" y2="-7050.0" stroke-width="4" stroke="black" />
<line x1="1818.6533479473173" y1="-7050.0" x2="1905.2558883257611" y2="-7100.0" stroke-width="4" stroke="black" />
<line x1="1905.2558883257611" y1="-7100.0" x2="1905.2558883257611" y2="-7200.0" stroke-width="4" stroke="black" />
<line x1="1905.2558883257611" y1="-7200.0" x2="1991.858428704205" y2="-7150.0" stroke-width="4" stroke="black" />
<line x1="1991.858428704205" y1="-7150.0" x2="2078.4609690826487" y2="-7200.0" stroke-width="4" stroke="black" />
<line x1="2078.4609690826487" y1="-7200.0" x2="2078.4609690826487" y2="-7100.0" stroke-width="4" stroke="black" />
<line x1="2078.4609690826487" y1="-7100.0" x2="2165.0635094610925" y2="-7050.0" stroke-width="4" stroke="black" />
<line x1="2165.0635094610925" y1="-7050.0" x2="2078.4609690826487" y2="-7000.0" stroke-width="4" stroke="black" />
<line x1="2078.4609690826487" y1="-7000.0" x2="2078.4609690826487" y2="-6900.0" stroke-width="4" stroke="black" />
<line x1="2078.4609690826487" y1="-6900.0" x2="2165.0635094610925" y2="-6850.0" stroke-width="4" stroke="black" />
<line x1="2165.0635094610925" y1="-6850.0" x2="2251.6660498395363" y2="-6900.0" stroke-width="4" stroke="black" />
<line x1="2251.6660498395363" y1="-6900.0" x2="2251.6660498395363" y2="-6800.0" stroke-width="4" stroke="black" />
<line x1="2251.6660498395363" y1="-6800.0" x2="2338.26859021798" y2="-6750.0" stroke-width="4" stroke="black" />
<line x1="2338.26859021798" y1="-6750.0" x2="2424.871130596424" y2="-6800.0" stroke-width="4" stroke="black" />
<line x1="2424.871130596424" y1="-6800.0" x2="2424.871130596424" y2="-6900.0" stroke-width="4" stroke="black" />
<line x1="2424.871130596424" y1="-6900.0" x2="2511.4736709748677" y2="-6850.0" stroke-width="4" stroke="black" />
<line x1="2511.4736709748677" y1="-6850.0" x2="2598.0762113533115" y2="-6900.0" stroke-width="4" stroke="black" />
<line x1="2598.0762113533115" y1="-6900.0" x2="2598.0762113533115" y2="-7000.0" stroke-width="4" stroke="black" />
<line x1="2598.0762113533115" y1="-7000.0" x2="2511.4736709748677" y2="-7050.0" stroke-width="4" stroke="black" />
<line x1="2511.4736709748677" y1="-7050.0" x2="2598.0762113533115" y2="-7100.0" stroke-width="4" stroke="black" />
<line x1="2598.0762113533115" y1="-7100.0" x2="2598.0762113533115" y2="-7200.0" stroke-width="4" stroke="black" />
<line x1="2598.0762113533115" y1="-7200.0" x2="2684.6787517317553" y2="-7150.0" stroke-width="4" stroke="black" />
<line x1="2684.6787517317553" y1="-7150.0" x2="2771.281292110199" y2="-7200.0" stroke-width="4" stroke="black" />
<line x1="2771.281292110199" y1="-7200.0" x2="2771.281292110199" y2="-7100.0" stroke-width="4" stroke="black" />
<line x1="2771.281292110199" y1="-7100.0" x2="2857.883832488643" y2="-7050.0" stroke-width="4" stroke="black" />
<line x1="2857.883832488643" y1="-7050.0" x2="2944.4863728670866" y2="-7100.0" stroke-width="4" stroke="black" />
<line x1="2944.4863728670866" y1="-7100.0" x2="2944.4863728670866" y2="-7200.0" stroke-width="4" stroke="black" />
<line x1="2944.4863728670866" y1="-7200.0" x2="3031.0889132455304" y2="-7150.0" stroke-width="4" stroke="black" />
<line x1="3031.0889132455304" y1="-7150.0" x2="3117.691453623974" y2="-7200.0" stroke-width="4" stroke="black" />
<line x1="3117.691453623974" y1="-7200.0" x2="3117.691453623974" y2="-7300.0" stroke-width="4" stroke="black" />
<line x1="3117.691453623974" y1="-7300.0" x2="3031.0889132455304" y2="-7350.0" stroke-width="4" stroke="black" />
<line x1="3031.0889132455304" y1="-7350.0" x2="3117.691453623974" y2="-7400.0" stroke-width="4" stroke="black" />
<line x1="3117.691453623974" y1="-7400.0" x2="3117.691453623974" y2="-7500.0" stroke-width="4" stroke="black" />
<line x1="3117.691453623974" y1="-7500.0" x2="3031.0889132455304" y2="-7550.0" stroke-width="4" stroke="black" />
<line x1="3031.0889132455304" y1="-7550.0" x2="2944.4863728670866" y2="-7500.0" stroke-width="4" stroke="black" />
<line x1="2944.4863728670866" y1="-7500.0" x2="2944.4863728670866" y2="-7600.0" stroke-width="4" stroke="black" />
<line x1="2944.4863728670866" y1="-7600.0" x2="2857.883832488643" y2="-7650.0" stroke-width="4" stroke="black" />
<line x1="2857.883832488643" y1="-7650.0" x2="2944.4863728670866" y2="-7700.0" stroke-width="4" stroke="black" />
<line x1="2944.4863728670866" y1="-7700.0" x2="2944.4863728670866" y2="-7800.0" stroke-width="4" stroke="black" />
<line x1="2944.4863728670866" y1="-7800.0" x2="3031.0889132455304" y2="-7750.0" stroke-width="4" stroke="black" />
<line x1="3031.0889132455304" y1="-7750.0" x2="3117.691453623974" y2="-7800.0" stroke-width="4" stroke="black" />
<line x1="3117.691453623974" y1="-7800.0" x2="3117.691453623974" y2="-7900.0" stroke-width="4" stroke="black" />
<line x1="3117.691453623974" y1="-7900.0" x2="3031.0889132455304" y2="-7950.0" stroke-width="4" stroke="black" />
<line x1="3031.0889132455304" y1="-7950.0" x2="3117.691453623974" y2="-8000.0" stroke-width="4" stroke="black" />
<line x1="3117.691453623974" y1="-8000.0" x2="3117.691453623974" y2="-8100.0" stroke-width="4" stroke="black" />
<line x1="3117.691453623974" y1="-8100.0" x2="3204.293994002418" y2="-8050.0" stroke-width="4" stroke="black" />
<line x1="3204.293994002418" y1="-8050.0" x2="3290.896534380862" y2="-8100.0" stroke-width="4" stroke="black" />
<line x1="3290.896534380862" y1="-8100.0" x2="3290.896534380862" y2="-8000.0" stroke-width="4" stroke="black" />
<line x1="3290.896534380862" y1="-8000.0" x2="3377.4990747593056" y2="-7950.0" stroke-width="4" stroke="black" />
<line x1="3377.4990747593056" y1="-7950.0" x2="3464.1016151377494" y2="-8000.0" stroke-width="4" stroke="black" />
<line x1="3464.1016151377494" y1="-8000.0" x2="3464.1016151377494" y2="-8100.0" stroke-width="4" stroke="black" />
<line x1="3464.1016151377494" y1="-8100.0" x2="3550.704155516193" y2="-8050.0" stroke-width="4" stroke="black" />
<line x1="3550.704155516193" y1="-8050.0" x2="3637.306695894637" y2="-8100.0" stroke-width="4" stroke="black" />
<line x1="3637.306695894637" y1="-8100.0" x2="3637.306695894637" y2="-8000.0" stroke-width="4" stroke="black" />
<line x1="3637.306695894637" y1="-8000.0" x2="3723.9092362730808" y2="-7950.0" stroke-width="4" stroke="black" />
<line x1="3723.9092362730808" y1="-7950.0" x2="3637.306695894637" y2="-7900.0" stroke-width="4" stroke="black" />
<line x1="3637.306695894637" y1="-7900.0" x2="3637.306695894637" y2="-7800.0" stroke-width="4" stroke="black" />
<line x1="3637.306695894637" y1="-7800.0" x2="3723.9092362730808" y2="-7750.0" stroke-width="4" stroke="black" />
<line x1="3723.9092362730808" y1="-7750.0" x2="3810.5117766515245" y2="-7800.0" stroke-width="4" stroke="black" />
<line x1="3810.5117766515245" y1="-7800.0" x2="3810.5117766515245" y2="-7700.0" stroke-width="4" stroke="black" />
<line x1="3810.5117766515245" y1="-7700.0" x2="3897.1143170299683" y2="-7650.0" stroke-width="4" stroke="black" />
<line x1="3897.1143170299683" y1="-7650.0" x2="3983.716857408412" y2="-7700.0" stroke-width="4" stroke="black" />
<line x1="3983.716857408412" y1="-7700.0" x2="3983.716857408412" y2="-7800.0" stroke-width="4" stroke="black" />
<line x1="3983.716857408412" y1="-7800.0" x2="4070.319397786856" y2="-7750.0" stroke-width="4" stroke="black" />
<line x1="4070.319397786856" y1="-7750.0" x2="4156.9219381653" y2="-7800.0" stroke-width="4" stroke="black" />
<line x1="4156.9219381653" y1="-7800.0" x2="4156.9219381653" y2="-7900.0" stroke-width="4" stroke="black" />
<line x1="4156.9219381653" y1="-7900.0" x2="4070.3193977868564" y2="-7950.0" stroke-width="4" stroke="black" />
<line x1="4070.3193977868564" y1="-7950.0" x2="4156.9219381653" y2="-8000.0" stroke-width="4" stroke="black" />
<line x1="4156.9219381653" y1="-8000.0" x2="4156.9219381653" y2="-8100.0" stroke-width="4" stroke="black" />
<line x1="4156.9219381653" y1="-8100.0" x2="4243.524478543744" y2="-8050.0" stroke-width="4" stroke="black" />
<line x1="4243.524478543744" y1="-8050.0" x2="4330.127018922189" y2="-8100.0" stroke-width="4" stroke="black" />
<line x1="4330.127018922189" y1="-8100.0" x2="4330.127018922189" y2="-8000.0" stroke-width="4" stroke="black" />
<line x1="4330.127018922189" y1="-8000.0" x2="4416.729559300633" y2="-7950.0" stroke-width="4" stroke="black" />
<line x1="4416.729559300633" y1="-7950.0" x2="4503.332099679077" y2="-8000.0" stroke-width="4" stroke="black" />
<line x1="4503.332099679077" y1="-8000.0" x2="4503.332099679077" y2="-8100.0" stroke-width="4" stroke="black" />
<line x1="4503.332099679077" y1="-8100.0" x2="4589.934640057521" y2="-8050.0" stroke-width="4" stroke="black" />
<line x1="4589.934640057521" y1="-8050.0" x2="4676.537180435966" y2="-8100.0" stroke-width="4" stroke="black" />
<line x1="4676.537180435966" y1="-8100.0" x2="4676.537180435966" y2="-8000.0" stroke-width="4" stroke="black" />
<line x1="4676.537180435966" y1="-8000.0" x2="4763.13972081441" y2="-7950.0" stroke-width="4" stroke="black" />
<line x1="4763.13972081441" y1="-7950.0" x2="4676.537180435966" y2="-7900.0" stroke-width="4" stroke="black" />
<line x1="4676.537180435966" y1="-7900.0" x2="4676.537180435966" y2="-7800.0" stroke-width="4" stroke="black" />
<line x1="4676.537180435966" y1="-7800.0" x2="4763.13972081441" y2="-7750.0" stroke-width="4" stroke="black" />
<line x1="4763.13972081441" y1="-7750.0" x2="4849.742261192854" y2="-7800.0" stroke-width="4" stroke="black" />
<line x1="4849.742261192854" y1="-7800.0" x2="4849.742261192854" y2="-7700.0" stroke-width="4" stroke="black" />
<line x1="4849.742261192854" y1="-7700.0" x2="4936.344801571298" y2="-7650.0" stroke-width="4" stroke="black" />
<line x1="4936.344801571298" y1="-7650.0" x2="4849.742261192854" y2="-7600.0" stroke-width="4" stroke="black" />
<line x1="4849.742261192854" y1="-7600.0" x2="4849.742261192854" y2="-7500.0" stroke-width="4" stroke="black" />
<line x1="4849.742261192854" y1="-7500.0" x2="4763.13972081441" y2="-7550.0" stroke-width="4" stroke="black" />
<line x1="4763.13972081441" y1="-7550.0" x2="4676.537180435966" y2="-7500.0" stroke-width="4" stroke="black" />
<line x1="4676.537180435966" y1="-7500.0" x2="4676.537180435966" y2="-7400.0" stroke-width="4" stroke="black" />
<line x1="4676.537180435966" y1="-7400.0" x2="4763.13972081441" y2="-7350.0" stroke-width="4" stroke="black" />
<line x1="4763.13972081441" y1="-7350.0" x2="4676.537180435966" y2="-7300.0" stroke-width="4" stroke="black" />
<line x1="4676.537180435966" y1="-7300.0" x2="4676.537180435966" y2="-7200.0" stroke-width="4" stroke="black" />
<line x1="4676.537180435966" y1="-7200.0" x2="4763.13972081441" y2="-7150.0" stroke-width="4" stroke="black" />
<line x1="4763.13972081441" y1="-7150.0" x2="4849.742261192854" y2="-7200.0" stroke-width="4" stroke="black" />
<line x1="4849.742261192854" y1="-7200.0" x2="4849.742261192854" y2="-7100.0" stroke-width="4" stroke="black" />
<line x1="4849.742261192854" y1="-7100.0" x2="4936.344801571298" y2="-7050.0" stroke-width="4" stroke="black" />
<line x1="4936.344801571298" y1="-7050.0" x2="5022.947341949743" y2="-7100.0" stroke-width="4" stroke="black" />
<line x1="5022.947341949743" y1="-7100.0" x2="5022.947341949743" y2="-7200.0" stroke-width="4" stroke="black" />
<line x1="5022.947341949743" y1="-7200.0" x2="5109.549882328187" y2="-7150.0" stroke-width="4" stroke="black" />
<line x1="5109.549882328187" y1="-7150.0" x2="5196.152422706631" y2="-7200.0" stroke-width="4" stroke="black" />
<line x1="5196.152422706631" y1="-7200.0" x2="5196.152422706631" y2="-7100.0" stroke-width="4" stroke="black" />
<line x1="5196.152422706631" y1="-7100.0" x2="5282.754963085075" y2="-7050.0" stroke-width="4" stroke="black" />
<line x1="5282.754963085075" y1="-7050.0" x2="5196.152422706631" y2="-7000.0" stroke-width="4" stroke="black" />
<line x1="5196.152422706631" y1="-7000.0" x2="5196.152422706631" y2="-6900.0" stroke-width="4" stroke="black" />
<line x1="5196.152422706631" y1="-6900.0" x2="5282.754963085075" y2="-6850.0" stroke-width="4" stroke="black" />
<line x1="5282.754963085075" y1="-6850.0" x2="5369.35750346352" y2="-6900.0" stroke-width="4" stroke="black" />
<line x1="5369.35750346352" y1="-6900.0" x2="5369.35750346352" y2="-6800.0" stroke-width="4" stroke="black" />
<line x1="5369.35750346352" y1="-6800.0" x2="5455.960043841964" y2="-6750.0" stroke-width="4" stroke="black" />
<line x1="5455.960043841964" y1="-6750.0" x2="5369.35750346352" y2="-6700.0" stroke-width="4" stroke="black" />
<line x1="5369.35750346352" y1="-6700.0" x2="5369.35750346352" y2="-6600.0" stroke-width="4" stroke="black" />
<line x1="5369.35750346352" y1="-6600.0" x2="5282.754963085075" y2="-6650.0" stroke-width="4" stroke="black" />
<line x1="5282.754963085075" y1="-6650.0" x2="5196.152422706631" y2="-6600.0" stroke-width="4" stroke="black" />
<line x1="5196.152422706631" y1="-6600.0" x2="5196.152422706631" y2="-6500.0" stroke-width="4" stroke="black" />
<line x1="5196.152422706631" y1="-6500.0" x2="5282.754963085075" y2="-6450.0" stroke-width="4" stroke="black" />
<line x1="5282.754963085075" y1="-6450.0" x2="5196.152422706631" y2="-6400.0" stroke-width="4" stroke="black" />
<line x1="5196.152422706631" y1="-6400.0" x2="5196.152422706631" y2="-6300.0" stroke-width="4" stroke="black" />
<line x1="5196.152422706631" y1="-6300.0" x2="5109.549882328187" y2="-6350.0" stroke-width="4" stroke="black" />
<line x1="5109.549882328187" y1="-6350.0" x2="5022.947341949743" y2="-6300.0" stroke-width="4" stroke="black" />
<line x1="5022.947341949743" y1="-6300.0" x2="5022.947341949743" y2="-6400.0" stroke-width="4" stroke="black" />
<line x1="5022.947341949743" y1="-6400.0" x2="4936.344801571298" y2="-6450.0" stroke-width="4" stroke="black" />
<line x1="4936.344801571298" y1="-6450.0" x2="4849.742261192854" y2="-6400.0" stroke-width="4" stroke="black" />
<line x1="4849.742261192854" y1="-6400.0" x2="4849.742261192854" y2="-6300.0" stroke-width="4" stroke="black" />
<line x1="4849.742261192854" y1="-6300.0" x2="4763.13972081441" y2="-6350.0" stroke-width="4" stroke="black" />
<line x1="4763.13972081441" y1="-6350.0" x2="4676.537180435966" y2="-6300.0" stroke-width="4" stroke="black" />
<line x1="4676.537180435966" y1="-6300.0" x2="4676.537180435966" y2="-6200.0" stroke-width="4" stroke="black" />
<line x1="4676.537180435966" y1="-6200.0" x2="4763.13972081441" y2="-6150.0" stroke-width="4" stroke="black" />
<line x1="4763.13972081441" y1="-6150.0" x2="4676.537180435966" y2="-6100.0" stroke-width="4" stroke="black" />
<line x1="4676.537180435966" y1="-6100.0" x2="4676.537180435966" y2="-6000.0" stroke-width="4" stroke="black" />
<line x1="4676.537180435966" y1="-6000.0" x2="4763.13972081441" y2="-5950.0" stroke-width="4" stroke="black" />
<line x1="4763.13972081441" y1="-5950.0" x2="4849.742261192854" y2="-6000.0" stroke-width="4" stroke="black" />
<line x1="4849.742261192854" y1="-6000.0" x2="4849.742261192854" y2="-5900.0" stroke-width="4" stroke="black" />
<line x1="4849.742261192854" y1="-5900.0" x2="4936.344801571298" y2="-5850.0" stroke-width="4" stroke="black" />
<line x1="4936.344801571298" y1="-5850.0" x2="4849.742261192854" y2="-5800.0" stroke-width="4" stroke="black" />
<line x1="4849.742261192854" y1="-5800.0" x2="4849.742261192854" y2="-5700.0" stroke-width="4" stroke="black" />
<line x1="4849.742261192854" y1="-5700.0" x2="4763.13972081441" y2="-5750.0" stroke-width="4" stroke="black" />
<line x1="4763.13972081441" y1="-5750.0" x2="4676.537180435966" y2="-5700.0" stroke-width="4" stroke="black" />
<line x1="4676.537180435966" y1="-5700.0" x2="4676.537180435966" y2="-5600.0" stroke-width="4" stroke="black" />
<line x1="4676.537180435966" y1="-5600.0" x2="4763.13972081441" y2="-5550.0" stroke-width="4" stroke="black" />
<line x1="4763.13972081441" y1="-5550.0" x2="4676.537180435966" y2="-5500.0" stroke-width="4" stroke="black" />
<line x1="4676.537180435966" y1="-5500.0" x2="4676.537180435966" y2="-5400.0" stroke-width="4" stroke="black" />
<line x1="4676.537180435966" y1="-5400.0" x2="4763.13972081441" y2="-5350.0" stroke-width="4" stroke="black" />
<line x1="4763.13972081441" y1="-5350.0" x2="4849.742261192854" y2="-5400.0" stroke-width="4" stroke="black" />
<line x1="4849.742261192854" y1="-5400.0" x2="4849.742261192854" y2="-5300.0" stroke-width="4" stroke="black" />
<line x1="4849.742261192854" y1="-5300.0" x2="4936.344801571298" y2="-5250.0" stroke-width="4" stroke="black" />
<line x1="4936.344801571298" y1="-5250.0" x2="5022.947341949743" y2="-5300.0" stroke-width="4" stroke="black" />
<line x1="5022.947341949743" y1="-5300.0" x2="5022.947341949743" y2="-5400.0" stroke-width="4" stroke="black" />
<line x1="5022.947341949743" y1="-5400.0" x2="5109.549882328187" y2="-5350.0" stroke-width="4" stroke="black" />
<line x1="5109.549882328187" y1="-5350.0" x2="5196.152422706631" y2="-5400.0" stroke-width="4" stroke="black" />
<line x1="5196.152422706631" y1="-5400.0" x2="5196.152422706631" y2="-5300.0" stroke-width="4" stroke="black" />
<line x1="5196.152422706631" y1="-5300.0" x2="5282.754963085075" y2="-5250.0" stroke-width="4" stroke="black" />
<line x1="5282.754963085075" y1="-5250.0" x2="5196.152422706631" y2="-5200.0" stroke-width="4" stroke="black" />
<line x1="5196.152422706631" y1="-5200.0" x2="5196.152422706631" y2="-5100.0" stroke-width="4" stroke="black" />
<line x1="5196.152422706631" y1="-5100.0" x2="5282.754963085075" y2="-5050.0" stroke-width="4" stroke="black" />
<line x1="5282.754963085075" y1="-5050.0" x2="5369.35750346352" y2="-5100.0" stroke-width="4" stroke="black" />
<line x1="5369.35750346352" y1="-5100.0" x2="5369.35750346352" y2="-5000.0" stroke-width="4" stroke="black" />
<line x1="5369.35750346352" y1="-5000.0" x2="5455.960043841964" y2="-4950.0" stroke-width="4" stroke="black" />
<line x1="5455.960043841964" y1="-4950.0" x2="5542.562584220408" y2="-5000.0" stroke-width="4" stroke="black" />
<line x1="5542.562584220408" y1="-5000.0" x2="5542.562584220408" y2="-5100.0" stroke-width="4" stroke="black" />
<line x1="5542.562584220408" y1="-5100.0" x2="5629.165124598852" y2="-5050.0" stroke-width="4" stroke="black" />
<line x1="5629.165124598852" y1="-5050.0" x2="5715.767664977297" y2="-5100.0" stroke-width="4" stroke="black" />
<line x1="5715.767664977297" y1="-5100.0" x2="5715.767664977297" y2="-5200.0" stroke-width="4" stroke="black" />
<line x1="5715.767664977297" y1="-5200.0" x2="5629.165124598852" y2="-5250.0" stroke-width="4" stroke="black" />
<line x1="5629.165124598852" y1="-5250.0" x2="5715.767664977297" y2="-5300.0" stroke-width="4" stroke="black" />
<line x1="5715.767664977297" y1="-5300.0" x2="5715.767664977297" y2="-5400.0" stroke-width="4" stroke="black" />
<line x1="5715.767664977297" y1="-5400.0" x2="5802.370205355741" y2="-5350.0" stroke-width="4" stroke="black" />
<line x1="5802.370205355741" y1="-5350.0" x2="5888.972745734185" y2="-5400.0" stroke-width="4" stroke="black" />
<line x1="5888.972745734185" y1="-5400.0" x2="5888.972745734185" y2="-5300.0" stroke-width="4" stroke="black" />
<line x1="5888.972745734185" y1="-5300.0" x2="5975.575286112629" y2="-5250.0" stroke-width="4" stroke="black" />
<line x1="5975.575286112629" y1="-5250.0" x2="6062.177826491074" y2="-5300.0" stroke-width="4" stroke="black" />
<line x1="6062.177826491074" y1="-5300.0" x2="6062.177826491074" y2="-5400.0" stroke-width="4" stroke="black" />
<line x1="6062.177826491074" y1="-5400.0" x2="6148.780366869518" y2="-5350.0" stroke-width="4" stroke="black" />
<line x1="6148.780366869518" y1="-5350.0" x2="6235.382907247962" y2="-5400.0" stroke-width="4" stroke="black" />
<line x1="6235.382907247962" y1="-5400.0" x2="6235.382907247962" y2="-5300.0" stroke-width="4" stroke="black" />
<line x1="6235.382907247962" y1="-5300.0" x2="6321.985447626406" y2="-5250.0" stroke-width="4" stroke="black" />
<line x1="6321.985447626406" y1="-5250.0" x2="6235.382907247962" y2="-5200.0" stroke-width="4" stroke="black" />
<line x1="6235.382907247962" y1="-5200.0" x2="6235.382907247962" y2="-5100.0" stroke-width="4" stroke="black" />
<line x1="6235.382907247962" y1="-5100.0" x2="6321.985447626406" y2="-5050.0" stroke-width="4" stroke="black" />
<line x1="6321.985447626406" y1="-5050.0" x2="6408.587988004851" y2="-5100.0" stroke-width="4" stroke="black" />
<line x1="6408.587988004851" y1="-5100.0" x2="6408.587988004851" y2="-5000.0" stroke-width="4" stroke="black" />
<line x1="6408.587988004851" y1="-5000.0" x2="6495.190528383295" y2="-4950.0" stroke-width="4" stroke="black" />
<line x1="6495.190528383295" y1="-4950.0" x2="6408.587988004851" y2="-4900.0" stroke-width="4" stroke="black" />
<line x1="6408.587988004851" y1="-4900.0" x2="6408.587988004851" y2="-4800.0" stroke-width="4" stroke="black" />
<line x1="6408.587988004851" y1="-4800.0" x2="6321.985447626406" y2="-4850.0" stroke-width="4" stroke="black" />
<line x1="6321.985447626406" y1="-4850.0" x2="6235.382907247962" y2="-4800.0" stroke-width="4" stroke="black" />
<line x1="6235.382907247962" y1="-4800.0" x2="6235.382907247962" y2="-4700.0" stroke-width="4" stroke="black" />
<line x1="6235.382907247962" y1="-4700.0" x2="6321.985447626406" y2="-4650.0" stroke-width="4" stroke="black" />
<line x1="6321.985447626406" y1="-4650.0" x2="6235.382907247962" y2="-4600.0" stroke-width="4" stroke="black" />
<line x1="6235.382907247962" y1="-4600.0" x2="6235.382907247962" y2="-4500.0" stroke-width="4" stroke="black" />
<line x1="6235.382907247962" y1="-4500.0" x2="6321.985447626406" y2="-4450.0" stroke-width="4" stroke="black" />
<line x1="6321.985447626406" y1="-4450.0" x2="6408.587988004851" y2="-4500.0" stroke-width="4" stroke="black" />
<line x1="6408.587988004851" y1="-4500.0" x2="6408.587988004851" y2="-4400.0" stroke-width="4" stroke="black" />
<line x1="6408.587988004851" y1="-4400.0" x2="6495.190528383295" y2="-4350.0" stroke-width="4" stroke="black" />
<line x1="6495.190528383295" y1="-4350.0" x2="6581.793068761739" y2="-4400.0" stroke-width="4" stroke="black" />
<line x1="6581.793068761739" y1="-4400.0" x2="6581.793068761739" y2="-4500.0" stroke-width="4" stroke="black" />
<line x1="6581.793068761739" y1="-4500.0" x2="6668.395609140183" y2="-4450.0" stroke-width="4" stroke="black" />
<line x1="6668.395609140183" y1="-4450.0" x2="6754.9981495186275" y2="-4500.0" stroke-width="4" stroke="black" />
<line x1="6754.9981495186275" y1="-4500.0" x2="6754.9981495186275" y2="-4400.0" stroke-width="4" stroke="black" />
<line x1="6754.9981495186275" y1="-4400.0" x2="6841.600689897072" y2="-4350.0" stroke-width="4" stroke="black" />
<line x1="6841.600689897072" y1="-4350.0" x2="6754.9981495186275" y2="-4300.0" stroke-width="4" stroke="black" />
<line x1="6754.9981495186275" y1="-4300.0" x2="6754.9981495186275" y2="-4200.0" stroke-width="4" stroke="black" />
<line x1="6754.9981495186275" y1="-4200.0" x2="6841.600689897072" y2="-4150.0" stroke-width="4" stroke="black" />
<line x1="6841.600689897072" y1="-4150.0" x2="6928.203230275516" y2="-4200.0" stroke-width="4" stroke="black" />
<line x1="6928.203230275516" y1="-4200.0" x2="6928.203230275516" y2="-4100.0" stroke-width="4" stroke="black" />
<line x1="6928.203230275516" y1="-4100.0" x2="7014.80577065396" y2="-4050.0" stroke-width="4" stroke="black" />
<line x1="7014.80577065396" y1="-4050.0" x2="6928.203230275516" y2="-4000.0" stroke-width="4" stroke="black" />
<line x1="6928.203230275516" y1="-4000.0" x2="6928.203230275516" y2="-3900.0" stroke-width="4" stroke="black" />
<line x1="6928.203230275516" y1="-3900.0" x2="6841.600689897072" y2="-3950.0" stroke-width="4" stroke="black" />
<line x1="6841.600689897072" y1="-3950.0" x2="6754.9981495186275" y2="-3900.0" stroke-width="4" stroke="black" />
<line x1="6754.9981495186275" y1="-3900.0" x2="6754.9981495186275" y2="-3800.0" stroke-width="4" stroke="black" />
<line x1="6754.9981495186275" y1="-3800.0" x2="6841.600689897072" y2="-3750.0" stroke-width="4" stroke="black" />
<line x1="6841.600689897072" y1="-3750.0" x2="6754.9981495186275" y2="-3700.0" stroke-width="4" stroke="black" />
<line x1="6754.9981495186275" y1="-3700.0" x2="6754.9981495186275" y2="-3600.0" stroke-width="4" stroke="black" />
<line x1="6754.9981495186275" y1="-3600.0" x2="6668.395609140183" y2="-3650.0" stroke-width="4" stroke="black" />
<line x1="6668.395609140183" y1="-3650.0" x2="6581.793068761739" y2="-3600.0" stroke-width="4" stroke="black" />
<line x1="6581.793068761739" y1="-3600.0" x2="6581.793068761739" y2="-3700.0" stroke-width="4" stroke="black" />
<line x1="6581.793068761739" y1="-3700.0" x2="6495.190528383295" y2="-3750.0" stroke-width="4" stroke="black" />
<line x1="6495.190528383295" y1="-3750.0" x2="6408.587988004851" y2="-3700.0" stroke-width="4" stroke="black" />
<line x1="6408.587988004851" y1="-3700.0" x2="6408.587988004851" y2="-3600.0" stroke-width="4" stroke="black" />
<line x1="6408.587988004851" y1="-3600.0" x2="6321.985447626406" y2="-3650.0" stroke-width="4" stroke="black" />
<line x1="6321.985447626406" y1="-3650.0" x2="6235.382907247962" y2="-3600.0" stroke-width="4" stroke="black" />
<line x1="6235.382907247962" y1="-3600.0" x2="6235.382907247962" y2="-3500.0" stroke-width="4" stroke="black" />
<line x1="6235.382907247962" y1="-3500.0" x2="6321.985447626406" y2="-3450.0" stroke-width="4" stroke="black" />
<line x1="6321.985447626406" y1="-3450.0" x2="6235.382907247962" y2="-3400.0" stroke-width="4" stroke="black" />
<line x1="6235.382907247962" y1="-3400.0" x2="6235.382907247962" y2="-3300.0" stroke-width="4" stroke="black" />
<line x1="6235.382907247962" y1="-3300.0" x2="6321.985447626406" y2="-3250.0" stroke-width="4" stroke="black" />
<line x1="6321.985447626406" y1="-3250.0" x2="6408.587988004851" y2="-3300.0" stroke-width="4" stroke="black" />
<line x1="6408.587988004851" y1="-3300.0" x2="6408.587988004851" y2="-3200.0" stroke-width="4" stroke="black" />
<line x1="6408.587988004851" y1="-3200.0" x2="6495.190528383295" y2="-3150.0" stroke-width="4" stroke="black" />
<line x1="6495.190528383295" y1="-3150.0" x2="6408.587988004851" y2="-3100.0" stroke-width="4" stroke="black" />
<line x1="6408.587988004851" y1="-3100.0" x2="6408.587988004851" y2="-3000.0" stroke-width="4" stroke="black" />
<line x1="6408.587988004851" y1="-3000.0" x2="6321.985447626406" y2="-3050.0" stroke-width="4" stroke="black" />
<line x1="6321.985447626406" y1="-3050.0" x2="6235.382907247962" y2="-3000.0" stroke-width="4" stroke="black" />
<line x1="6235.382907247962" y1="-3000.0" x2="6235.382907247962" y2="-2900.0" stroke-width="4" stroke="black" />
<line x1="6235.382907247962" y1="-2900.0" x2="6321.985447626406" y2="-2850.0" stroke-width="4" stroke="black" />
<line x1="6321.985447626406" y1="-2850.0" x2="6235.382907247962" y2="-2800.0" stroke-width="4" stroke="black" />
<line x1="6235.382907247962" y1="-2800.0" x2="6235.382907247962" y2="-2700.0" stroke-width="4" stroke="black" />
<line x1="6235.382907247962" y1="-2700.0" x2="6148.780366869518" y2="-2750.0" stroke-width="4" stroke="black" />
<line x1="6148.780366869518" y1="-2750.0" x2="6062.177826491074" y2="-2700.0" stroke-width="4" stroke="black" />
<line x1="6062.177826491074" y1="-2700.0" x2="6062.177826491074" y2="-2800.0" stroke-width="4" stroke="black" />
<line x1="6062.177826491074" y1="-2800.0" x2="5975.575286112629" y2="-2850.0" stroke-width="4" stroke="black" />
<line x1="5975.575286112629" y1="-2850.0" x2="5888.972745734185" y2="-2800.0" stroke-width="4" stroke="black" />
<line x1="5888.972745734185" y1="-2800.0" x2="5888.972745734185" y2="-2700.0" stroke-width="4" stroke="black" />
<line x1="5888.972745734185" y1="-2700.0" x2="5802.370205355741" y2="-2750.0" stroke-width="4" stroke="black" />
<line x1="5802.370205355741" y1="-2750.0" x2="5715.767664977297" y2="-2700.0" stroke-width="4" stroke="black" />
<line x1="5715.767664977297" y1="-2700.0" x2="5715.767664977297" y2="-2800.0" stroke-width="4" stroke="black" />
<line x1="5715.767664977297" y1="-2800.0" x2="5629.165124598852" y2="-2850.0" stroke-width="4" stroke="black" />
<line x1="5629.165124598852" y1="-2850.0" x2="5715.767664977297" y2="-2900.0" stroke-width="4" stroke="black" />
<line x1="5715.767664977297" y1="-2900.0" x2="5715.767664977297" y2="-3000.0" stroke-width="4" stroke="black" />
<line x1="5715.767664977297" y1="-3000.0" x2="5629.165124598852" y2="-3050.0" stroke-width="4" stroke="black" />
<line x1="5629.165124598852" y1="-3050.0" x2="5542.562584220408" y2="-3000.0" stroke-width="4" stroke="black" />
<line x1="5542.562584220408" y1="-3000.0" x2="5542.562584220408" y2="-3100.0" stroke-width="4" stroke="black" />
<line x1="5542.562584220408" y1="-3100.0" x2="5455.960043841964" y2="-3150.0" stroke-width="4" stroke="black" />
<line x1="5455.960043841964" y1="-3150.0" x2="5369.35750346352" y2="-3100.0" stroke-width="4" stroke="black" />
<line x1="5369.35750346352" y1="-3100.0" x2="5369.35750346352" y2="-3000.0" stroke-width="4" stroke="black" />
<line x1="5369.35750346352" y1="-3000.0" x2="5282.754963085075" y2="-3050.0" stroke-width="4" stroke="black" />
<line x1="5282.754963085075" y1="-3050.0" x2="5196.152422706631" y2="-3000.0" stroke-width="4" stroke="black" />
<line x1="5196.152422706631" y1="-3000.0" x2="5196.152422706631" y2="-2900.0" stroke-width="4" stroke="black" />
<line x1="5196.152422706631" y1="-2900.0" x2="5282.754963085075" y2="-2850.0" stroke-width="4" stroke="black" />
<line x1="5282.754963085075" y1="-2850.0" x2="5196.152422706631" y2="-2800.0" stroke-width="4" stroke="black" />
<line x1="5196.152422706631" y1="-2800.0" x2="5196.152422706631" y2="-2700.0" stroke-width="4" stroke="black" />
<line x1="5196.152422706631" y1="-2700.0" x2="5109.549882328187" y2="-2750.0" stroke-width="4" stroke="black" />
<line x1="5109.549882328187" y1="-2750.0" x2="5022.947341949743" y2="-2700.0" stroke-width="4" stroke="black" />
<line x1="5022.947341949743" y1="-2700.0" x2="5022.947341949743" y2="-2800.0" stroke-width="4" stroke="black" />
<line x1="5022.947341949743" y1="-2800.0" x2="4936.344801571298" y2="-2850.0" stroke-width="4" stroke="black" />
<line x1="4936.344801571298" y1="-2850.0" x2="4849.742261192854" y2="-2800.0" stroke-width="4" stroke="black" />
<line x1="4849.742261192854" y1="-2800.0" x2="4849.742261192854" y2="-2700.0" stroke-width="4" stroke="black" />
<line x1="4849.742261192854" y1="-2700.0" x2="4763.13972081441" y2="-2750.0" stroke-width="4" stroke="black" />
<line x1="4763.13972081441" y1="-2750.0" x2="4676.537180435966" y2="-2700.0" stroke-width="4" stroke="black" />
<line x1="4676.537180435966" y1="-2700.0" x2="4676.537180435966" y2="-2600.0" stroke-width="4" stroke="black" />
<line x1="4676.537180435966" y1="-2600.0" x2="4763.13972081441" y2="-2550.0" stroke-width="4" stroke="black" />
<line x1="4763.13972081441" y1="-2550.0" x2="4676.537180435966" y2="-2500.0" stroke-width="4" stroke="black" />
<line x1="4676.537180435966" y1="-2500.0" x2="4676.537180435966" y2="-2400.0" stroke-width="4" stroke="black" />
<line x1="4676.537180435966" y1="-2400.0" x2="4763.13972081441" y2="-2350.0" stroke-width="4" stroke="black" />
<line x1="4763.13972081441" y1="-2350.0" x2="4849.742261192854" y2="-2400.0" stroke-width="4" stroke="black" />
<line x1="4849.742261192854" y1="-2400.0" x2="4849.742261192854" y2="-2300.0" stroke-width="4" stroke="black" />
<line x1="4849.742261192854" y1="-2300.0" x2="4936.344801571298" y2="-2250.0" stroke-width="4" stroke="black" />
<line x1="4936.344801571298" y1="-2250.0" x2="4849.742261192854" y2="-2200.0" stroke-width="4" stroke="black" />
<line x1="4849.742261192854" y1="-2200.0" x2="4849.742261192854" y2="-2100.0" stroke-width="4" stroke="black" />
<line x1="4849.742261192854" y1="-2100.0" x2="4763.13972081441" y2="-2150.0" stroke-width="4" stroke="black" />
<line x1="4763.13972081441" y1="-2150.0" x2="4676.537180435966" y2="-2100.0" stroke-width="4" stroke="black" />
<line x1="4676.537180435966" y1="-2100.0" x2="4676.537180435966" y2="-2000.0" stroke-width="4" stroke="black" />
<line x1="4676.537180435966" y1="-2000.0" x2="4763.13972081441" y2="-1950.0" stroke-width="4" stroke="black" />
<line x1="4763.13972081441" y1="-1950.0" x2="4676.537180435966" y2="-1900.0" stroke-width="4" stroke="black" />
<line x1="4676.537180435966" y1="-1900.0" x2="4676.537180435966" y2="-1800.0" stroke-width="4" stroke="black" />
<line x1="4676.537180435966" y1="-1800.0" x2="4763.13972081441" y2="-1750.0" stroke-width="4" stroke="black" />
<line x1="4763.13972081441" y1="-1750.0" x2="4849.742261192854" y2="-1800.0" stroke-width="4" stroke="black" />
<line x1="4849.742261192854" y1="-1800.0" x2="4849.742261192854" y2="-1700.0" stroke-width="4" stroke="black" />
<line x1="4849.742261192854" y1="-1700.0" x2="4936.344801571298" y2="-1650.0" stroke-width="4" stroke="black" />
<line x1="4936.344801571298" y1="-1650.0" x2="5022.947341949743" y2="-1700.0" stroke-width="4" stroke="black" />
<line x1="5022.947341949743" y1="-1700.0" x2="5022.947341949743" y2="-1800.0" stroke-width="4" stroke="black" />
<line x1="5022.947341949743" y1="-1800.0" x2="5109.549882328187" y2="-1750.0" stroke-width="4" stroke="black" />
<line x1="5109.549882328187" y1="-1750.0" x2="5196.152422706631" y2="-1800.0" stroke-width="4" stroke="black" />
<line x1="5196.152422706631" y1="-1800.0" x2="5196.152422706631" y2="-1700.0" stroke-width="4" stroke="black" />
<line x1="5196.152422706631" y1="-1700.0" x2="5282.754963085075" y2="-1650.0" stroke-width="4" stroke="black" />
<line x1="5282.754963085075" y1="-1650.0" x2="5196.152422706631" y2="-1600.0" stroke-width="4" stroke="black" />
<line x1="5196.152422706631" y1="-1600.0" x2="5196.152422706631" y2="-1500.0" stroke-width="4" stroke="black" />
<line x1="5196.152422706631" y1="-1500.0" x2="5282.754963085075" y2="-1450.0" stroke-width="4" stroke="black" />
<line x1="5282.754963085075" y1="-1450.0" x2="5369.35750346352" y2="-1500.0" stroke-width="4" stroke="black" />
<line x1="5369.35750346352" y1="-1500.0" x2="5369.35750346352" y2="-1400.0" stroke-width="4" stroke="black" />
<line x1="5369.35750346352" y1="-1400.0" x2="5455.960043841964" y2="-1350.0" stroke-width="4" stroke="black" />
<line x1="5455.960043841964" y1="-1350.0" x2="5369.35750346352" y2="-1300.0" stroke-width="4" stroke="black" />
<line x1="5369.35750346352" y1="-1300.0" x2="5369.35750346352" y2="-1200.0" stroke-width="4" stroke="black" />
<line x1="5369.35750346352" y1="-1200.0" x2="5282.754963085075" y2="-1250.0" stroke-width="4" stroke="black" />
<line x1="5282.754963085075" y1="-1250.0" x2="5196.152422706631" y2="-1200.0" stroke-width="4" stroke="black" />
<line x1="5196.152422706631" y1="-1200.0" x2="5196.152422706631" y2="-1100.0" stroke-width="4" stroke="black" />
<line x1="5196.152422706631" y1="-1100.0" x2="5282.754963085075" y2="-1050.0" stroke-width="4" stroke="black" />
<line x1="5282.754963085075" y1="-1050.0" x2="5196.152422706631" y2="-1000.0" stroke-width="4" stroke="black" />
<line x1="5196.152422706631" y1="-1000.0" x2="5196.152422706631" y2="-900.0" stroke-width="4" stroke="black" />
<line x1="5196.152422706631" y1="-900.0" x2="5109.549882328187" y2="-949.9999999999999" stroke-width="4" stroke="black" />
<line x1="5109.549882328187" y1="-949.9999999999999" x2="5022.947341949743" y2="-899.9999999999999" stroke-width="4" stroke="black" />
<line x1="5022.947341949743" y1="-899.9999999999999" x2="5022.947341949743" y2="-999.9999999999999" stroke-width="4" stroke="black" />
<line x1="5022.947341949743" y1="-999.9999999999999" x2="4936.344801571298" y2="-1049.9999999999998" stroke-width="4" stroke="black" />
<line x1="4936.344801571298" y1="-1049.9999999999998" x2="4849.742261192854" y2="-999.9999999999998" stroke-width="4" stroke="black" />
<line x1="4849.742261192854" y1="-999.9999999999998" x2="4849.742261192854" y2="-899.9999999999998" stroke-width="4" stroke="black" />
<line x1="4849.742261192854" y1="-899.9999999999998" x2="4763.13972081441" y2="-949.9999999999997" stroke-width="4" stroke="black" />
<line x1="4763.13972081441" y1="-949.9999999999997" x2="4676.537180435966" y2="-899.9999999999997" stroke-width="4" stroke="black" />
<line x1="4676.537180435966" y1="-899.9999999999997" x2="4676.537180435966" y2="-799.9999999999997" stroke-width="4" stroke="black" />
<line x1="4676.537180435966" y1="-799.9999999999997" x2="4763.13972081441" y2="-749.9999999999997" stroke-width="4" stroke="black" />
<line x1="4763.13972081441" y1="-749.9999999999997" x2="4676.537180435966" y2="-699.9999999999997" stroke-width="4" stroke="black" />
<line x1="4676.537180435966" y1="-699.9999999999997" x2="4676.537180435966" y2="-599.9999999999997" stroke-width="4" stroke="black" />
<line x1="4676.537180435966" y1="-599.9999999999997" x2="4763.13972081441" y2="-549.9999999999997" stroke-width="4" stroke="black" />
<line x1="4763.13972081441" y1="-549.9999999999997" x2="4849.742261192854" y2="-599.9999999999997" stroke-width="4" stroke="black" />
<line x1="4849.742261192854" y1="-599.9999999999997" x2="4849.742261192854" y2="-499.99999999999966" stroke-width="4" stroke="black" />
<line x1="4849.742261192854" y1="-499.99999999999966" x2="4936.344801571298" y2="-449.99999999999966" stroke-width="4" stroke="black" />
<line x1="4936.344801571298" y1="-449.99999999999966" x2="4849.742261192854" y2="-399.99999999999966" stroke-width="4" stroke="black" />
<line x1="4849.742261192854" y1="-399.99999999999966" x2="4849.742261192854" y2="-299.99999999999966" stroke-width="4" stroke="black" />
<line x1="4849.742261192854" y1="-299.99999999999966" x2="4763.13972081441" y2="-349.99999999999955" stroke-width="4" stroke="black" />
<line x1="4763.13972081441" y1="-349.99999999999955" x2="4676.537180435966" y2="-299.99999999999955" stroke-width="4" stroke="black" />
<line x1="4676.537180435966" y1="-299.99999999999955" x2="4676.537180435966" y2="-199.99999999999955" stroke-width="4" stroke="black" />
<line x1="4676.537180435966" y1="-199.99999999999955" x2="4763.13972081441" y2="-149.99999999999955" stroke-width="4" stroke="black" />
<line x1="4763.13972081441" y1="-149.99999999999955" x2="4676.537180435966" y2="-99.99999999999957" stroke-width="4" stroke="black" />
<line x1="4676.537180435966" y1="-99.99999999999957" x2="4676.537180435966" y2="4.263256414560601E-13" stroke-width="4" stroke="black" />
<line x1="4676.537180435966" y1="4.263256414560601E-13" x2="4589.934640057521" y2="-49.99999999999949" stroke-width="4" stroke="black" />
<line x1="4589.934640057521" y1="-49.99999999999949" x2="4503.332099679077" y2="4.902744876744691E-13" stroke-width="4" stroke="black" />
<line x1="4503.332099679077" y1="4.902744876744691E-13" x2="4503.332099679077" y2="-99.99999999999952" stroke-width="4" stroke="black" />
<line x1="4503.332099679077" y1="-99.99999999999952" x2="4416.729559300633" y2="-149.99999999999943" stroke-width="4" stroke="black" />
<line x1="4416.729559300633" y1="-149.99999999999943" x2="4330.127018922189" y2="-99.99999999999946" stroke-width="4" stroke="black" />
<line x1="4330.127018922189" y1="-99.99999999999946" x2="4330.127018922189" y2="5.400124791776761E-13" stroke-width="4" stroke="black" />
<line x1="4330.127018922189" y1="5.400124791776761E-13" x2="4243.524478543744" y2="-49.999999999999375" stroke-width="4" stroke="black" />
<line x1="4243.524478543744" y1="-49.999999999999375" x2="4156.9219381653" y2="6.039613253960852E-13" stroke-width="4" stroke="black" />
<line x1="4156.9219381653" y1="6.039613253960852E-13" x2="4156.9219381653" y2="-99.9999999999994" stroke-width="4" stroke="black" />
<line x1="4156.9219381653" y1="-99.9999999999994" x2="4070.3193977868564" y2="-149.99999999999932" stroke-width="4" stroke="black" />
<line x1="4070.3193977868564" y1="-149.99999999999932" x2="4156.9219381653" y2="-199.99999999999932" stroke-width="4" stroke="black" />
<line x1="4156.9219381653" y1="-199.99999999999932" x2="4156.9219381653" y2="-299.9999999999993" stroke-width="4" stroke="black" />
<line x1="4156.9219381653" y1="-299.9999999999993" x2="4070.3193977868564" y2="-349.9999999999992" stroke-width="4" stroke="black" />
<line x1="4070.3193977868564" y1="-349.9999999999992" x2="3983.7168574084126" y2="-299.9999999999992" stroke-width="4" stroke="black" />
<line x1="3983.7168574084126" y1="-299.9999999999992" x2="3983.7168574084126" y2="-399.9999999999992" stroke-width="4" stroke="black" />
<line x1="3983.7168574084126" y1="-399.9999999999992" x2="3897.114317029969" y2="-449.9999999999991" stroke-width="4" stroke="black" />
<line x1="3897.114317029969" y1="-449.9999999999991" x2="3810.511776651525" y2="-399.9999999999991" stroke-width="4" stroke="black" />
<line x1="3810.511776651525" y1="-399.9999999999991" x2="3810.511776651525" y2="-299.9999999999991" stroke-width="4" stroke="black" />
<line x1="3810.511776651525" y1="-299.9999999999991" x2="3723.909236273081" y2="-349.999999999999" stroke-width="4" stroke="black" />
<line x1="3723.909236273081" y1="-349.999999999999" x2="3637.3066958946374" y2="-299.999999999999" stroke-width="4" stroke="black" />
<line x1="3637.3066958946374" y1="-299.999999999999" x2="3637.3066958946374" y2="-199.99999999999898" stroke-width="4" stroke="black" />
<line x1="3637.3066958946374" y1="-199.99999999999898" x2="3723.909236273081" y2="-149.99999999999898" stroke-width="4" stroke="black" />
<line x1="3723.909236273081" y1="-149.99999999999898" x2="3637.3066958946374" y2="-99.999999999999" stroke-width="4" stroke="black" />
<line x1="3637.3066958946374" y1="-99.999999999999" x2="3637.3066958946374" y2="9.947598300641403E-13" stroke-width="4" stroke="black" />
<line x1="3637.3066958946374" y1="9.947598300641403E-13" x2="3550.7041555161936" y2="-49.99999999999892" stroke-width="4" stroke="black" />
<line x1="3550.7041555161936" y1="-49.99999999999892" x2="3464.10161513775" y2="1.0587086762825493E-12" stroke-width="4" stroke="black" />
<line x1="3464.10161513775" y1="1.0587086762825493E-12" x2="3464.10161513775" y2="-99.99999999999895" stroke-width="4" stroke="black" />
<line x1="3464.10161513775" y1="-99.99999999999895" x2="3377.499074759306" y2="-149.99999999999886" stroke-width="4" stroke="black" />
<line x1="3377.499074759306" y1="-149.99999999999886" x2="3290.8965343808622" y2="-99.99999999999889" stroke-width="4" stroke="black" />
<line x1="3290.8965343808622" y1="-99.99999999999889" x2="3290.8965343808622" y2="1.1084466677857563E-12" stroke-width="4" stroke="black" />
<line x1="3290.8965343808622" y1="1.1084466677857563E-12" x2="3204.2939940024185" y2="-49.999999999998806" stroke-width="4" stroke="black" />
<line x1="3204.2939940024185" y1="-49.999999999998806" x2="3117.6914536239747" y2="1.1723955140041653E-12" stroke-width="4" stroke="black" />
<line x1="3117.6914536239747" y1="1.1723955140041653E-12" x2="3117.6914536239747" y2="-99.99999999999883" stroke-width="4" stroke="black" />
<line x1="3117.6914536239747" y1="-99.99999999999883" x2="3031.088913245531" y2="-149.99999999999875" stroke-width="4" stroke="black" />
<line x1="3031.088913245531" y1="-149.99999999999875" x2="3117.6914536239747" y2="-199.99999999999875" stroke-width="4" stroke="black" />
<line x1="3117.6914536239747" y1="-199.99999999999875" x2="3117.6914536239747" y2="-299.99999999999875" stroke-width="4" stroke="black" />
<line x1="3117.6914536239747" y1="-299.99999999999875" x2="3031.088913245531" y2="-349.99999999999864" stroke-width="4" stroke="black" />
<line x1="3031.088913245531" y1="-349.99999999999864" x2="2944.486372867087" y2="-299.99999999999864" stroke-width="4" stroke="black" />
<line x1="2944.486372867087" y1="-299.99999999999864" x2="2944.486372867087" y2="-399.99999999999864" stroke-width="4" stroke="black" />
<line x1="2944.486372867087" y1="-399.99999999999864" x2="2857.8838324886433" y2="-449.9999999999985" stroke-width="4" stroke="black" />
<line x1="2857.8838324886433" y1="-449.9999999999985" x2="2944.486372867087" y2="-499.9999999999985" stroke-width="4" stroke="black" />
<line x1="2944.486372867087" y1="-499.9999999999985" x2="2944.486372867087" y2="-599.9999999999985" stroke-width="4" stroke="black" />
<line x1="2944.486372867087" y1="-599.9999999999985" x2="3031.088913245531" y2="-549.9999999999986" stroke-width="4" stroke="black" />
<line x1="3031.088913245531" y1="-549.9999999999986" x2="3117.6914536239747" y2="-599.9999999999986" stroke-width="4" stroke="black" />
<line x1="3117.6914536239747" y1="-599.9999999999986" x2="3117.6914536239747" y2="-699.9999999999986" stroke-width="4" stroke="black" />
<line x1="3117.6914536239747" y1="-699.9999999999986" x2="3031.088913245531" y2="-749.9999999999985" stroke-width="4" stroke="black" />
<line x1="3031.088913245531" y1="-749.9999999999985" x2="3117.6914536239747" y2="-799.9999999999985" stroke-width="4" stroke="black" />
<line x1="3117.6914536239747" y1="-799.9999999999985" x2="3117.6914536239747" y2="-899.9999999999985" stroke-width="4" stroke="black" />
<line x1="3117.6914536239747" y1="-899.9999999999985" x2="3031.088913245531" y2="-949.9999999999984" stroke-width="4" stroke="black" />
<line x1="3031.088913245531" y1="-949.9999999999984" x2="2944.486372867087" y2="-899.9999999999984" stroke-width="4" stroke="black" />
<line x1="2944.486372867087" y1="-899.9999999999984" x2="2944.486372867087" y2="-999.9999999999984" stroke-width="4" stroke="black" />
<line x1="2944.486372867087" y1="-999.9999999999984" x2="2857.8838324886433" y2="-1049.9999999999984" stroke-width="4" stroke="black" />
<line x1="2857.8838324886433" y1="-1049.9999999999984" x2="2771.2812921101995" y2="-999.9999999999984" stroke-width="4" stroke="black" />
<line x1="2771.2812921101995" y1="-999.9999999999984" x2="2771.2812921101995" y2="-899.9999999999984" stroke-width="4" stroke="black" />
<line x1="2771.2812921101995" y1="-899.9999999999984" x2="2684.6787517317557" y2="-949.9999999999983" stroke-width="4" stroke="black" />
<line x1="2684.6787517317557" y1="-949.9999999999983" x2="2598.076211353312" y2="-899.9999999999983" stroke-width="4" stroke="black" />
<line x1="2598.076211353312" y1="-899.9999999999983" x2="2598.076211353312" y2="-999.9999999999983" stroke-width="4" stroke="black" />
<line x1="2598.076211353312" y1="-999.9999999999983" x2="2511.473670974868" y2="-1049.9999999999982" stroke-width="4" stroke="black" />
<line x1="2511.473670974868" y1="-1049.9999999999982" x2="2598.076211353312" y2="-1099.9999999999982" stroke-width="4" stroke="black" />
<line x1="2598.076211353312" y1="-1099.9999999999982" x2="2598.076211353312" y2="-1199.9999999999982" stroke-width="4" stroke="black" />
<line x1="2598.076211353312" y1="-1199.9999999999982" x2="2511.473670974868" y2="-1249.9999999999982" stroke-width="4" stroke="black" />
<line x1="2511.473670974868" y1="-1249.9999999999982" x2="2424.8711305964243" y2="-1199.9999999999982" stroke-width="4" stroke="black" />
<line x1="2424.8711305964243" y1="-1199.9999999999982" x2="2424.8711305964243" y2="-1299.9999999999982" stroke-width="4" stroke="black" />
<line x1="2424.8711305964243" y1="-1299.9999999999982" x2="2338.2685902179805" y2="-1349.9999999999982" stroke-width="4" stroke="black" />
<line x1="2338.2685902179805" y1="-1349.9999999999982" x2="2251.6660498395368" y2="-1299.9999999999982" stroke-width="4" stroke="black" />
<line x1="2251.6660498395368" y1="-1299.9999999999982" x2="2251.6660498395368" y2="-1199.9999999999982" stroke-width="4" stroke="black" />
<line x1="2251.6660498395368" y1="-1199.9999999999982" x2="2165.063509461093" y2="-1249.9999999999982" stroke-width="4" stroke="black" />
<line x1="2165.063509461093" y1="-1249.9999999999982" x2="2078.460969082649" y2="-1199.9999999999982" stroke-width="4" stroke="black" />
<line x1="2078.460969082649" y1="-1199.9999999999982" x2="2078.460969082649" y2="-1099.9999999999982" stroke-width="4" stroke="black" />
<line x1="2078.460969082649" y1="-1099.9999999999982" x2="2165.063509461093" y2="-1049.9999999999982" stroke-width="4" stroke="black" />
<line x1="2165.063509461093" y1="-1049.9999999999982" x2="2078.460969082649" y2="-999.9999999999982" stroke-width="4" stroke="black" />
<line x1="2078.460969082649" y1="-999.9999999999982" x2="2078.460969082649" y2="-899.9999999999982" stroke-width="4" stroke="black" />
<line x1="2078.460969082649" y1="-899.9999999999982" x2="1991.8584287042052" y2="-949.9999999999981" stroke-width="4" stroke="black" />
<line x1="1991.8584287042052" y1="-949.9999999999981" x2="1905.2558883257614" y2="-899.9999999999981" stroke-width="4" stroke="black" />
<line x1="1905.2558883257614" y1="-899.9999999999981" x2="1905.2558883257614" y2="-999.9999999999981" stroke-width="4" stroke="black" />
<line x1="1905.2558883257614" y1="-999.9999999999981" x2="1818.6533479473173" y2="-1049.999999999998" stroke-width="4" stroke="black" />
<line x1="1818.6533479473173" y1="-1049.999999999998" x2="1732.0508075688736" y2="-999.999999999998" stroke-width="4" stroke="black" />
<line x1="1732.0508075688736" y1="-999.999999999998" x2="1732.0508075688736" y2="-899.999999999998" stroke-width="4" stroke="black" />
<line x1="1732.0508075688736" y1="-899.999999999998" x2="1645.4482671904295" y2="-949.9999999999978" stroke-width="4" stroke="black" />
<line x1="1645.4482671904295" y1="-949.9999999999978" x2="1558.8457268119857" y2="-899.9999999999978" stroke-width="4" stroke="black" />
<line x1="1558.8457268119857" y1="-899.9999999999978" x2="1558.8457268119857" y2="-799.9999999999978" stroke-width="4" stroke="black" />
<line x1="1558.8457268119857" y1="-799.9999999999978" x2="1645.4482671904295" y2="-749.9999999999978" stroke-width="4" stroke="black" />
<line x1="1645.4482671904295" y1="-749.9999999999978" x2="1558.8457268119857" y2="-699.9999999999978" stroke-width="4" stroke="black" />
<line x1="1558.8457268119857" y1="-699.9999999999978" x2="1558.8457268119857" y2="-599.9999999999978" stroke-width="4" stroke="black" />
<line x1="1558.8457268119857" y1="-599.9999999999978" x2="1645.4482671904295" y2="-549.9999999999978" stroke-width="4" stroke="black" />
<line x1="1645.4482671904295" y1="-549.9999999999978" x2="1732.0508075688733" y2="-599.9999999999978" stroke-width="4" stroke="black" />
<line x1="1732.0508075688733" y1="-599.9999999999978" x2="1732.0508075688733" y2="-499.99999999999784" stroke-width="4" stroke="black" />
<line x1="1732.0508075688733" y1="-499.99999999999784" x2="1818.6533479473171" y2="-449.99999999999784" stroke-width="4" stroke="black" />
<line x1="1818.6533479473171" y1="-449.99999999999784" x2="1732.0508075688733" y2="-399.99999999999784" stroke-width="4" stroke="black" />
<line x1="1732.0508075688733" y1="-399.99999999999784" x2="1732.0508075688733" y2="-299.99999999999784" stroke-width="4" stroke="black" />
<line x1="1732.0508075688733" y1="-299.99999999999784" x2="1645.4482671904293" y2="-349.9999999999977" stroke-width="4" stroke="black" />
<line x1="1645.4482671904293" y1="-349.9999999999977" x2="1558.8457268119855" y2="-299.9999999999977" stroke-width="4" stroke="black" />
<line x1="1558.8457268119855" y1="-299.9999999999977" x2="1558.8457268119855" y2="-199.99999999999773" stroke-width="4" stroke="black" />
<line x1="1558.8457268119855" y1="-199.99999999999773" x2="1645.4482671904293" y2="-149.99999999999773" stroke-width="4" stroke="black" />
<line x1="1645.4482671904293" y1="-149.99999999999773" x2="1558.8457268119855" y2="-99.99999999999775" stroke-width="4" stroke="black" />
<line x1="1558.8457268119855" y1="-99.99999999999775" x2="1558.8457268119855" y2="2.2453150450019166E-12" stroke-width="4" stroke="black" />
<line x1="1558.8457268119855" y1="2.2453150450019166E-12" x2="1472.2431864335415" y2="-49.99999999999767" stroke-width="4" stroke="black" />
<line x1="1472.2431864335415" y1="-49.99999999999767" x2="1385.6406460550977" y2="2.3092638912203256E-12" stroke-width="4" stroke="black" />
<line x1="1385.6406460550977" y1="2.3092638912203256E-12" x2="1385.6406460550977" y2="-99.9999999999977" stroke-width="4" stroke="black" />
<line x1="1385.6406460550977" y1="-99.9999999999977" x2="1299.0381056766537" y2="-149.9999999999976" stroke-width="4" stroke="black" />
<line x1="1299.0381056766537" y1="-149.9999999999976" x2="1212.43556529821" y2="-99.99999999999764" stroke-width="4" stroke="black" />
<line x1="1212.43556529821" y1="-99.99999999999764" x2="1212.43556529821" y2="2.3590018827235326E-12" stroke-width="4" stroke="black" />
<line x1="1212.43556529821" y1="2.3590018827235326E-12" x2="1125.8330249197659" y2="-49.999999999997556" stroke-width="4" stroke="black" />
<line x1="1125.8330249197659" y1="-49.999999999997556" x2="1039.230484541322" y2="2.4229507289419416E-12" stroke-width="4" stroke="black" />
<line x1="1039.230484541322" y1="2.4229507289419416E-12" x2="1039.230484541322" y2="-99.99999999999758" stroke-width="4" stroke="black" />
<line x1="1039.230484541322" y1="-99.99999999999758" x2="952.6279441628782" y2="-149.9999999999975" stroke-width="4" stroke="black" />
<line x1="952.6279441628782" y1="-149.9999999999975" x2="1039.230484541322" y2="-199.9999999999975" stroke-width="4" stroke="black" />
<line x1="1039.230484541322" y1="-199.9999999999975" x2="1039.230484541322" y2="-299.9999999999975" stroke-width="4" stroke="black" />
<line x1="1039.230484541322" y1="-299.9999999999975" x2="952.6279441628782" y2="-349.9999999999974" stroke-width="4" stroke="black" />
<line x1="952.6279441628782" y1="-349.9999999999974" x2="866.0254037844343" y2="-299.9999999999974" stroke-width="4" stroke="black" />
<line x1="866.0254037844343" y1="-299.9999999999974" x2="866.0254037844343" y2="-399.9999999999974" stroke-width="4" stroke="black" />
<line x1="866.0254037844343" y1="-399.9999999999974" x2="779.4228634059904" y2="-449.99999999999727" stroke-width="4" stroke="black" />
<line x1="779.4228634059904" y1="-449.99999999999727" x2="692.8203230275465" y2="-399.99999999999727" stroke-width="4" stroke="black" />
<line x1="692.8203230275465" y1="-399.99999999999727" x2="692.8203230275465" y2="-299.99999999999727" stroke-width="4" stroke="black" />
<line x1="692.8203230275465" y1="-299.99999999999727" x2="606.2177826491026" y2="-349.99999999999716" stroke-width="4" stroke="black" />
<line x1="606.2177826491026" y1="-349.99999999999716" x2="519.6152422706587" y2="-299.99999999999716" stroke-width="4" stroke="black" />
<line x1="519.6152422706587" y1="-299.99999999999716" x2="519.6152422706587" y2="-199.99999999999716" stroke-width="4" stroke="black" />
<line x1="519.6152422706587" y1="-199.99999999999716" x2="606.2177826491026" y2="-149.99999999999716" stroke-width="4" stroke="black" />
<line x1="606.2177826491026" y1="-149.99999999999716" x2="519.6152422706587" y2="-99.99999999999719" stroke-width="4" stroke="black" />
<line x1="519.6152422706587" y1="-99.99999999999719" x2="519.6152422706587" y2="2.8137492336099967E-12" stroke-width="4" stroke="black" />
<line x1="519.6152422706587" y1="2.8137492336099967E-12" x2="433.01270189221475" y2="-49.9999999999971" stroke-width="4" stroke="black" />
<line x1="433.01270189221475" y1="-49.9999999999971" x2="346.41016151377084" y2="2.8776980798284058E-12" stroke-width="4" stroke="black" />
<line x1="346.41016151377084" y1="2.8776980798284058E-12" x2="346.4101615137708" y2="-99.99999999999713" stroke-width="4" stroke="black" />
<line x1="346.4101615137708" y1="-99.99999999999713" x2="259.8076211353269" y2="-149.99999999999704" stroke-width="4" stroke="black" />
<line x1="259.8076211353269" y1="-149.99999999999704" x2="173.205080756883" y2="-99.99999999999707" stroke-width="4" stroke="black" />
<line x1="173.205080756883" y1="-99.99999999999707" x2="173.20508075688304" y2="2.9274360713316128E-12" stroke-width="4" stroke="black" />
<line x1="173.20508075688304" y1="2.9274360713316128E-12" x2="86.60254037843912" y2="-49.99999999999699" stroke-width="4" stroke="black" />
<line x1="86.60254037843912" y1="-49.99999999999699" x2="-4.760636329592671E-12" y2="2.9913849175500218E-12" stroke-width="4" stroke="black" />
</svg>