<svg viewBox="-6.862798736017045E-13 -1600.0000000000005 1299.0381056766582 1600.0000000000005" xmlns="http://www.w3.org/2000/svg"><line x1="0" y1="0" x2="-1.8369701987210297E-14" y2="-100.0" stroke-width="4" stroke="black" />
<line x1="-1.8369701987210297E-14" y1="-100.0" x2="86.60254037844382" y2="-150.00000000000006" stroke-width="4" stroke="black" />
<line x1="86.60254037844382" y1="-150.00000000000006" x2="173.2050807568877" y2="-100.00000000000006" stroke-width="4" stroke="black" />
<line x1="173.2050807568877" y1="-100.00000000000006" x2="259.80762113533154" y2="-150.0000000000001" stroke-width="4" stroke="black" />
<line x1="259.80762113533154" y1="-150.0000000000001" x2="259.80762113533154" y2="-250.0000000000001" stroke-width="4" stroke="black" />
<line x1="259.80762113533154" y1="-250.0000000000001" x2="173.2050807568877" y2="-300.0000000000001" stroke-width="4" stroke="black" />
<line x1="173.2050807568877" y1="-300.0000000000001" x2="86.60254037844382" y2="-250.0000000000001" stroke-width="4" stroke="black" />
<line x1="86.60254037844382" y1="-250.0000000000001" x2="-4.263256414560601E-14" y2="-300.0000000000001" stroke-width="4" stroke="black" />
<line x1="-4.263256414560601E-14" y1="-300.0000000000001" x2="-6.100226613281631E-14" y2="-400.0000000000001" stroke-width="4" stroke="black" />
<line x1="-6.100226613281631E-14" y1="-400.0000000000001" x2="86.60254037844378" y2="-450.00000000000017" stroke-width="4" stroke="black" />
<line x1="86.60254037844378" y1="-450.00000000000017" x2="86.60254037844376" y2="-550.0000000000002" stroke-width="4" stroke="black" />
<line x1="86.60254037844376" y1="-550.0000000000002" x2="-9.947598300641403E-14" y2="-600.0000000000002" stroke-width="4" stroke="black" />
<line x1="-9.947598300641403E-14" y1="-600.0000000000002" x2="-1.1784568499362432E-13" y2="-700.0000000000002" stroke-width="4" stroke="black" />
<line x1="-1.1784568499362432E-13" y1="-700.0000000000002" x2="86.60254037844372" y2="-750.0000000000002" stroke-width="4" stroke="black" />
<line x1="86.60254037844372" y1="-750.0000000000002" x2="173.20508075688758" y2="-700.0000000000002" stroke-width="4" stroke="black" />
<line x1="173.20508075688758" y1="-700.0000000000002" x2="173.2050807568876" y2="-600.0000000000002" stroke-width="4" stroke="black" />
<line x1="173.2050807568876" y1="-600.0000000000002" x2="259.8076211353315" y2="-550.0000000000002" stroke-width="4" stroke="black" />
<line x1="259.8076211353315" y1="-550.0000000000002" x2="346.41016151377534" y2="-600.0000000000002" stroke-width="4" stroke="black" />
<line x1="346.41016151377534" y1="-600.0000000000002" x2="433.0127018922192" y2="-550.0000000000002" stroke-width="4" stroke="black" />
<line x1="433.0127018922192" y1="-550.0000000000002" x2="433.01270189221924" y2="-450.0000000000002" stroke-width="4" stroke="black" />
<line x1="433.01270189221924" y1="-450.0000000000002" x2="346.4101615137754" y2="-400.0000000000002" stroke-width="4" stroke="black" />
<line x1="346.4101615137754" y1="-400.0000000000002" x2="346.41016151377545" y2="-300.0000000000002" stroke-width="4" stroke="black" />
<line x1="346.41016151377545" y1="-300.0000000000002" x2="433.0127018922193" y2="-250.00000000000023" stroke-width="4" stroke="black" />
<line x1="433.0127018922193" y1="-250.00000000000023" x2="519.6152422706631" y2="-300.0000000000003" stroke-width="4" stroke="black" />
<line x1="519.6152422706631" y1="-300.0000000000003" x2="519.6152422706631" y2="-400.0000000000003" stroke-width="4" stroke="black" />
<line x1="519.6152422706631" y1="-400.0000000000003" x2="606.2177826491069" y2="-450.00000000000034" stroke-width="4" stroke="black" />
<line x1="606.2177826491069" y1="-450.00000000000034" x2="692.8203230275508" y2="-400.00000000000034" stroke-width="4" stroke="black" />
<line x1="692.8203230275508" y1="-400.00000000000034" x2="779.4228634059946" y2="-450.0000000000004" stroke-width="4" stroke="black" />
<line x1="779.4228634059946" y1="-450.0000000000004" x2="779.4228634059946" y2="-550.0000000000005" stroke-width="4" stroke="black" />
<line x1="779.4228634059946" y1="-550.0000000000005" x2="692.8203230275507" y2="-600.0000000000005" stroke-width="4" stroke="black" />
<line x1="692.8203230275507" y1="-600.0000000000005" x2="692.8203230275507" y2="-700.0000000000005" stroke-width="4" stroke="black" />
<line x1="692.8203230275507" y1="-700.0000000000005" x2="779.4228634059945" y2="-750.0000000000005" stroke-width="4" stroke="black" />
<line x1="779.4228634059945" y1="-750.0000000000005" x2="866.0254037844384" y2="-700.0000000000005" stroke-width="4" stroke="black" />
<line x1="866.0254037844384" y1="-700.0000000000005" x2="866.0254037844384" y2="-600.0000000000005" stroke-width="4" stroke="black" />
<line x1="866.0254037844384" y1="-600.0000000000005" x2="952.6279441628823" y2="-550.0000000000005" stroke-width="4" stroke="black" />
<line x1="952.6279441628823" y1="-550.0000000000005" x2="1039.2304845413262" y2="-600.0000000000005" stroke-width="4" stroke="black" />
<line x1="1039.2304845413262" y1="-600.0000000000005" x2="1039.2304845413262" y2="-700.0000000000005" stroke-width="4" stroke="black" />
<line x1="1039.2304845413262" y1="-700.0000000000005" x2="1125.83302491977" y2="-750.0000000000005" stroke-width="4" stroke="black" />
<line x1="1125.83302491977" y1="-750.0000000000005" x2="1212.4355652982138" y2="-700.0000000000005" stroke-width="4" stroke="black" />
<line x1="1212.4355652982138" y1="-700.0000000000005" x2="1299.0381056766576" y2="-750.0000000000005" stroke-width="4" stroke="black" />
<line x1="1299.0381056766576" y1="-750.0000000000005" x2="1299.0381056766576" y2="-850.0000000000005" stroke-width="4" stroke="black" />
<line x1="1299.0381056766576" y1="-850.0000000000005" x2="1212.4355652982138" y2="-900.0000000000005" stroke-width="4" stroke="black" />
<line x1="1212.4355652982138" y1="-900.0000000000005" x2="1125.83302491977" y2="-850.0000000000005" stroke-width="4" stroke="black" />
<line x1="1125.83302491977" y1="-850.0000000000005" x2="1039.2304845413262" y2="-900.0000000000005" stroke-width="4" stroke="black" />
<line x1="1039.2304845413262" y1="-900.0000000000005" x2="1039.2304845413262" y2="-1000.0000000000005" stroke-width="4" stroke="black" />
<line x1="1039.2304845413262" y1="-1000.0000000000005" x2="952.6279441628823" y2="-1050.0000000000005" stroke-width="4" stroke="black" />
<line x1="952.6279441628823" y1="-1050.0000000000005" x2="866.0254037844384" y2="-1000.0000000000005" stroke-width="4" stroke="black" />
<line x1="866.0254037844384" y1="-1000.0000000000005" x2="866.0254037844384" y2="-900.0000000000005" stroke-width="4" stroke="black" />
<line x1="866.0254037844384" y1="-900.0000000000005" x2="779.4228634059945" y2="-850.0000000000005" stroke-width="4" stroke="black" />
<line x1="779.4228634059945" y1="-850.0000000000005" x2="692.8203230275506" y2="-900.0000000000005" stroke-width="4" stroke="black" />
<line x1="692.8203230275506" y1="-900.0000000000005" x2="692.8203230275506" y2="-1000.0000000000005" stroke-width="4" stroke="black" />
<line x1="692.8203230275506" y1="-1000.0000000000005" x2="779.4228634059943" y2="-1050.0000000000005" stroke-width="4" stroke="black" />
<line x1="779.4228634059943" y1="-1050.0000000000005" x2="779.4228634059943" y2="-1150.0000000000005" stroke-width="4" stroke="black" />
<line x1="779.4228634059943" y1="-1150.0000000000005" x2="692.8203230275504" y2="-1200.0000000000005" stroke-width="4" stroke="black" />
<line x1="692.8203230275504" y1="-1200.0000000000005" x2="606.2177826491065" y2="-1150.0000000000005" stroke-width="4" stroke="black" />
<line x1="606.2177826491065" y1="-1150.0000000000005" x2="519.6152422706626" y2="-1200.0000000000005" stroke-width="4" stroke="black" />
<line x1="519.6152422706626" y1="-1200.0000000000005" x2="519.6152422706626" y2="-1300.0000000000005" stroke-width="4" stroke="black" />
<line x1="519.6152422706626" y1="-1300.0000000000005" x2="433.0127018922188" y2="-1350.0000000000005" stroke-width="4" stroke="black" />
<line x1="433.0127018922188" y1="-1350.0000000000005" x2="346.41016151377494" y2="-1300.0000000000005" stroke-width="4" stroke="black" />
<line x1="346.41016151377494" y1="-1300.0000000000005" x2="346.41016151377494" y2="-1200.0000000000005" stroke-width="4" stroke="black" />
<line x1="346.41016151377494" y1="-1200.0000000000005" x2="433.01270189221884" y2="-1150.0000000000005" stroke-width="4" stroke="black" />
<line x1="433.01270189221884" y1="-1150.0000000000005" x2="433.01270189221884" y2="-1050.0000000000005" stroke-width="4" stroke="black" />
<line x1="433.01270189221884" y1="-1050.0000000000005" x2="346.41016151377494" y2="-1000.0000000000005" stroke-width="4" stroke="black" />
<line x1="346.41016151377494" y1="-1000.0000000000005" x2="259.8076211353311" y2="-1050.0000000000005" stroke-width="4" stroke="black" />
<line x1="259.8076211353311" y1="-1050.0000000000005" x2="173.2050807568872" y2="-1000.0000000000005" stroke-width="4" stroke="black" />
<line x1="173.2050807568872" y1="-1000.0000000000005" x2="173.2050807568872" y2="-900.0000000000005" stroke-width="4" stroke="black" />
<line x1="173.2050807568872" y1="-900.0000000000005" x2="86.60254037844334" y2="-850.0000000000005" stroke-width="4" stroke="black" />
<line x1="86.60254037844334" y1="-850.0000000000005" x2="-5.258016244624741E-13" y2="-900.0000000000005" stroke-width="4" stroke="black" />
<line x1="-5.258016244624741E-13" y1="-900.0000000000005" x2="-5.441713264496845E-13" y2="-1000.0000000000005" stroke-width="4" stroke="black" />
<line x1="-5.441713264496845E-13" y1="-1000.0000000000005" x2="86.6025403784433" y2="-1050.0000000000005" stroke-width="4" stroke="black" />
<line x1="86.6025403784433" y1="-1050.0000000000005" x2="86.60254037844328" y2="-1150.0000000000005" stroke-width="4" stroke="black" />
<line x1="86.60254037844328" y1="-1150.0000000000005" x2="-5.826450433232822E-13" y2="-1200.0000000000005" stroke-width="4" stroke="black" />
<line x1="-5.826450433232822E-13" y1="-1200.0000000000005" x2="-6.010147453104925E-13" y2="-1300.0000000000005" stroke-width="4" stroke="black" />
<line x1="-6.010147453104925E-13" y1="-1300.0000000000005" x2="86.60254037844324" y2="-1350.0000000000005" stroke-width="4" stroke="black" />
<line x1="86.60254037844324" y1="-1350.0000000000005" x2="173.2050807568871" y2="-1300.0000000000005" stroke-width="4" stroke="black" />
<line x1="173.2050807568871" y1="-1300.0000000000005" x2="259.8076211353309" y2="-1350.0000000000005" stroke-width="4" stroke="black" />
<line x1="259.8076211353309" y1="-1350.0000000000005" x2="259.8076211353309" y2="-1450.0000000000005" stroke-width="4" stroke="black" />
<line x1="259.8076211353309" y1="-1450.0000000000005" x2="173.20508075688707" y2="-1500.0000000000005" stroke-width="4" stroke="black" />
<line x1="173.20508075688707" y1="-1500.0000000000005" x2="86.6025403784432" y2="-1450.0000000000005" stroke-width="4" stroke="black" />
<line x1="86.6025403784432" y1="-1450.0000000000005" x2="-6.679101716144942E-13" y2="-1500.0000000000005" stroke-width="4" stroke="black" />
<line x1="-6.679101716144942E-13" y1="-1500.0000000000005" x2="-6.862798736017045E-13" y2="-1600.0000000000005" stroke-width="4" stroke="black" />
</svg>