<svg viewBox="-1385.6406460551034 -1600.0 1385.6406460551034 1600.0" xmlns="http://www.w3.org/2000/svg"><line x1="0" y1="0" x2="-1.8369701987210297E-14" y2="-100.0" stroke-width="4" stroke="black" />
<line x1="-1.8369701987210297E-14" y1="-100.0" x2="-86.60254037844389" y2="-50.00000000000001" stroke-width="4" stroke="black" />
<line x1="-86.60254037844389" y1="-50.00000000000001" x2="-86.6025403784439" y2="-150.0" stroke-width="4" stroke="black" />
<line x1="-86.6025403784439" y1="-150.0" x2="-4.263256414560601E-14" y2="-100.0" stroke-width="4" stroke="black" />
<line x1="-4.263256414560601E-14" y1="-100.0" x2="-6.100226613281631E-14" y2="-200.0" stroke-width="4" stroke="black" />
<line x1="-6.100226613281631E-14" y1="-200.0" x2="-86.60254037844393" y2="-150.0" stroke-width="4" stroke="black" />
<line x1="-86.60254037844393" y1="-150.0" x2="-173.2050807568878" y2="-100.0" stroke-width="4" stroke="black" />
<line x1="-173.2050807568878" y1="-100.0" x2="-173.20508075688784" y2="-200.0" stroke-width="4" stroke="black" />
<line x1="-173.20508075688784" y1="-200.0" x2="-259.8076211353317" y2="-150.0" stroke-width="4" stroke="black" />
<line x1="-259.8076211353317" y1="-150.0" x2="-259.8076211353317" y2="-250.0" stroke-width="4" stroke="black" />
<line x1="-259.8076211353317" y1="-250.0" x2="-173.20508075688787" y2="-200.0" stroke-width="4" stroke="black" />
<line x1="-173.20508075688787" y1="-200.0" x2="-173.2050807568879" y2="-300.0" stroke-width="4" stroke="black" />
<line x1="-173.2050807568879" y1="-300.0" x2="-86.60254037844403" y2="-250.0" stroke-width="4" stroke="black" />
<line x1="-86.60254037844403" y1="-250.0" x2="-1.7053025658242404E-13" y2="-200.0" stroke-width="4" stroke="black" />
<line x1="-1.7053025658242404E-13" y1="-200.0" x2="-1.8889995856963434E-13" y2="-300.0" stroke-width="4" stroke="black" />
<line x1="-1.8889995856963434E-13" y1="-300.0" x2="-86.60254037844406" y2="-250.0" stroke-width="4" stroke="black" />
<line x1="-86.60254037844406" y1="-250.0" x2="-86.60254037844408" y2="-350.0" stroke-width="4" stroke="black" />
<line x1="-86.60254037844408" y1="-350.0" x2="-2.1316282072803006E-13" y2="-300.0" stroke-width="4" stroke="black" />
<line x1="-2.1316282072803006E-13" y1="-300.0" x2="-2.315325227152404E-13" y2="-400.0" stroke-width="4" stroke="black" />
<line x1="-2.315325227152404E-13" y1="-400.0" x2="-86.6025403784441" y2="-350.0" stroke-width="4" stroke="black" />
<line x1="-86.6025403784441" y1="-350.0" x2="-173.20508075688798" y2="-300.0" stroke-width="4" stroke="black" />
<line x1="-173.20508075688798" y1="-300.0" x2="-259.80762113533183" y2="-250.0" stroke-width="4" stroke="black" />
<line x1="-259.80762113533183" y1="-250.0" x2="-346.41016151377573" y2="-200.0" stroke-width="4" stroke="black" />
<line x1="-346.41016151377573" y1="-200.0" x2="-346.41016151377573" y2="-300.0" stroke-width="4" stroke="black" />
<line x1="-346.41016151377573" y1="-300.0" x2="-433.01270189221964" y2="-250.0" stroke-width="4" stroke="black" />
<line x1="-433.01270189221964" y1="-250.0" x2="-433.01270189221964" y2="-350.0" stroke-width="4" stroke="black" />
<line x1="-433.01270189221964" y1="-350.0" x2="-346.4101615137758" y2="-300.0" stroke-width="4" stroke="black" />
<line x1="-346.4101615137758" y1="-300.0" x2="-346.4101615137758" y2="-400.0" stroke-width="4" stroke="black" />
<line x1="-346.4101615137758" y1="-400.0" x2="-433.01270189221964" y2="-350.0" stroke-width="4" stroke="black" />
<line x1="-433.01270189221964" y1="-350.0" x2="-519.6152422706635" y2="-300.0" stroke-width="4" stroke="black" />
<line x1="-519.6152422706635" y1="-300.0" x2="-519.6152422706635" y2="-400.0" stroke-width="4" stroke="black" />
<line x1="-519.6152422706635" y1="-400.0" x2="-606.2177826491074" y2="-350.0" stroke-width="4" stroke="black" />
<line x1="-606.2177826491074" y1="-350.0" x2="-606.2177826491074" y2="-450.0" stroke-width="4" stroke="black" />
<line x1="-606.2177826491074" y1="-450.0" x2="-519.6152422706635" y2="-400.0" stroke-width="4" stroke="black" />
<line x1="-519.6152422706635" y1="-400.0" x2="-519.6152422706635" y2="-500.0" stroke-width="4" stroke="black" />
<line x1="-519.6152422706635" y1="-500.0" x2="-433.0127018922197" y2="-450.0" stroke-width="4" stroke="black" />
<line x1="-433.0127018922197" y1="-450.0" x2="-346.41016151377585" y2="-400.0" stroke-width="4" stroke="black" />
<line x1="-346.41016151377585" y1="-400.0" x2="-346.41016151377585" y2="-500.0" stroke-width="4" stroke="black" />
<line x1="-346.41016151377585" y1="-500.0" x2="-433.01270189221975" y2="-450.0" stroke-width="4" stroke="black" />
<line x1="-433.01270189221975" y1="-450.0" x2="-433.01270189221975" y2="-550.0" stroke-width="4" stroke="black" />
<line x1="-433.01270189221975" y1="-550.0" x2="-346.4101615137759" y2="-500.0" stroke-width="4" stroke="black" />
<line x1="-346.4101615137759" y1="-500.0" x2="-346.4101615137759" y2="-600.0" stroke-width="4" stroke="black" />
<line x1="-346.4101615137759" y1="-600.0" x2="-259.80762113533206" y2="-550.0" stroke-width="4" stroke="black" />
<line x1="-259.80762113533206" y1="-550.0" x2="-173.2050807568882" y2="-500.0" stroke-width="4" stroke="black" />
<line x1="-173.2050807568882" y1="-500.0" x2="-86.60254037844435" y2="-450.0" stroke-width="4" stroke="black" />
<line x1="-86.60254037844435" y1="-450.0" x2="-4.831690603168681E-13" y2="-400.0" stroke-width="4" stroke="black" />
<line x1="-4.831690603168681E-13" y1="-400.0" x2="-5.015387623040784E-13" y2="-500.0" stroke-width="4" stroke="black" />
<line x1="-5.015387623040784E-13" y1="-500.0" x2="-86.60254037844437" y2="-450.0" stroke-width="4" stroke="black" />
<line x1="-86.60254037844437" y1="-450.0" x2="-86.60254037844439" y2="-550.0" stroke-width="4" stroke="black" />
<line x1="-86.60254037844439" y1="-550.0" x2="-5.258016244624741E-13" y2="-500.0" stroke-width="4" stroke="black" />
<line x1="-5.258016244624741E-13" y1="-500.0" x2="-5.441713264496845E-13" y2="-600.0" stroke-width="4" stroke="black" />
<line x1="-5.441713264496845E-13" y1="-600.0" x2="-86.60254037844442" y2="-550.0" stroke-width="4" stroke="black" />
<line x1="-86.60254037844442" y1="-550.0" x2="-173.2050807568883" y2="-500.0" stroke-width="4" stroke="black" />
<line x1="-173.2050807568883" y1="-500.0" x2="-173.20508075688832" y2="-600.0" stroke-width="4" stroke="black" />
<line x1="-173.20508075688832" y1="-600.0" x2="-259.80762113533217" y2="-550.0" stroke-width="4" stroke="black" />
<line x1="-259.80762113533217" y1="-550.0" x2="-259.80762113533217" y2="-650.0" stroke-width="4" stroke="black" />
<line x1="-259.80762113533217" y1="-650.0" x2="-173.20508075688832" y2="-600.0" stroke-width="4" stroke="black" />
<line x1="-173.20508075688832" y1="-600.0" x2="-173.20508075688835" y2="-700.0" stroke-width="4" stroke="black" />
<line x1="-173.20508075688835" y1="-700.0" x2="-86.60254037844449" y2="-650.0" stroke-width="4" stroke="black" />
<line x1="-86.60254037844449" y1="-650.0" x2="-6.252776074688882E-13" y2="-600.0" stroke-width="4" stroke="black" />
<line x1="-6.252776074688882E-13" y1="-600.0" x2="-6.436473094560985E-13" y2="-700.0" stroke-width="4" stroke="black" />
<line x1="-6.436473094560985E-13" y1="-700.0" x2="-86.60254037844452" y2="-650.0" stroke-width="4" stroke="black" />
<line x1="-86.60254037844452" y1="-650.0" x2="-86.60254037844453" y2="-750.0" stroke-width="4" stroke="black" />
<line x1="-86.60254037844453" y1="-750.0" x2="-6.679101716144942E-13" y2="-700.0" stroke-width="4" stroke="black" />
<line x1="-6.679101716144942E-13" y1="-700.0" x2="-6.862798736017045E-13" y2="-800.0" stroke-width="4" stroke="black" />
<line x1="-6.862798736017045E-13" y1="-800.0" x2="-86.60254037844456" y2="-750.0" stroke-width="4" stroke="black" />
<line x1="-86.60254037844456" y1="-750.0" x2="-173.20508075688844" y2="-700.0" stroke-width="4" stroke="black" />
<line x1="-173.20508075688844" y1="-700.0" x2="-259.8076211353323" y2="-650.0" stroke-width="4" stroke="black" />
<line x1="-259.8076211353323" y1="-650.0" x2="-346.4101615137762" y2="-600.0" stroke-width="4" stroke="black" />
<line x1="-346.4101615137762" y1="-600.0" x2="-433.0127018922201" y2="-550.0" stroke-width="4" stroke="black" />
<line x1="-433.0127018922201" y1="-550.0" x2="-519.615242270664" y2="-500.0" stroke-width="4" stroke="black" />
<line x1="-519.615242270664" y1="-500.0" x2="-606.2177826491079" y2="-450.0" stroke-width="4" stroke="black" />
<line x1="-606.2177826491079" y1="-450.0" x2="-692.8203230275518" y2="-400.0" stroke-width="4" stroke="black" />
<line x1="-692.8203230275518" y1="-400.0" x2="-692.8203230275518" y2="-500.0" stroke-width="4" stroke="black" />
<line x1="-692.8203230275518" y1="-500.0" x2="-779.4228634059957" y2="-450.0" stroke-width="4" stroke="black" />
<line x1="-779.4228634059957" y1="-450.0" x2="-779.4228634059957" y2="-550.0" stroke-width="4" stroke="black" />
<line x1="-779.4228634059957" y1="-550.0" x2="-692.8203230275518" y2="-500.0" stroke-width="4" stroke="black" />
<line x1="-692.8203230275518" y1="-500.0" x2="-692.8203230275518" y2="-600.0" stroke-width="4" stroke="black" />
<line x1="-692.8203230275518" y1="-600.0" x2="-779.4228634059957" y2="-550.0" stroke-width="4" stroke="black" />
<line x1="-779.4228634059957" y1="-550.0" x2="-866.0254037844396" y2="-500.0" stroke-width="4" stroke="black" />
<line x1="-866.0254037844396" y1="-500.0" x2="-866.0254037844396" y2="-600.0" stroke-width="4" stroke="black" />
<line x1="-866.0254037844396" y1="-600.0" x2="-952.6279441628835" y2="-550.0" stroke-width="4" stroke="black" />
<line x1="-952.6279441628835" y1="-550.0" x2="-952.6279441628835" y2="-650.0" stroke-width="4" stroke="black" />
<line x1="-952.6279441628835" y1="-650.0" x2="-866.0254037844396" y2="-600.0" stroke-width="4" stroke="black" />
<line x1="-866.0254037844396" y1="-600.0" x2="-866.0254037844396" y2="-700.0" stroke-width="4" stroke="black" />
<line x1="-866.0254037844396" y1="-700.0" x2="-779.4228634059957" y2="-650.0" stroke-width="4" stroke="black" />
<line x1="-779.4228634059957" y1="-650.0" x2="-692.8203230275518" y2="-600.0" stroke-width="4" stroke="black" />
<line x1="-692.8203230275518" y1="-600.0" x2="-692.8203230275518" y2="-700.0" stroke-width="4" stroke="black" />
<line x1="-692.8203230275518" y1="-700.0" x2="-779.4228634059957" y2="-650.0" stroke-width="4" stroke="black" />
<line x1="-779.4228634059957" y1="-650.0" x2="-779.4228634059957" y2="-750.0" stroke-width="4" stroke="black" />
<line x1="-779.4228634059957" y1="-750.0" x2="-692.8203230275518" y2="-700.0" stroke-width="4" stroke="black" />
<line x1="-692.8203230275518" y1="-700.0" x2="-692.8203230275518" y2="-800.0" stroke-width="4" stroke="black" />
<line x1="-692.8203230275518" y1="-800.0" x2="-779.4228634059957" y2="-750.0" stroke-width="4" stroke="black" />
<line x1="-779.4228634059957" y1="-750.0" x2="-866.0254037844396" y2="-700.0" stroke-width="4" stroke="black" />
<line x1="-866.0254037844396" y1="-700.0" x2="-952.6279441628835" y2="-650.0" stroke-width="4" stroke="black" />
<line x1="-952.6279441628835" y1="-650.0" x2="-1039.2304845413273" y2="-600.0" stroke-width="4" stroke="black" />
<line x1="-1039.2304845413273" y1="-600.0" x2="-1039.2304845413273" y2="-700.0" stroke-width="4" stroke="black" />
<line x1="-1039.2304845413273" y1="-700.0" x2="-1125.833024919771" y2="-650.0" stroke-width="4" stroke="black" />
<line x1="-1125.833024919771" y1="-650.0" x2="-1125.833024919771" y2="-750.0" stroke-width="4" stroke="black" />
<line x1="-1125.833024919771" y1="-750.0" x2="-1039.2304845413273" y2="-700.0" stroke-width="4" stroke="black" />
<line x1="-1039.2304845413273" y1="-700.0" x2="-1039.2304845413273" y2="-800.0" stroke-width="4" stroke="black" />
<line x1="-1039.2304845413273" y1="-800.0" x2="-1125.833024919771" y2="-750.0" stroke-width="4" stroke="black" />
<line x1="-1125.833024919771" y1="-750.0" x2="-1212.435565298215" y2="-700.0" stroke-width="4" stroke="black" />
<line x1="-1212.435565298215" y1="-700.0" x2="-1212.435565298215" y2="-800.0" stroke-width="4" stroke="black" />
<line x1="-1212.435565298215" y1="-800.0" x2="-1299.0381056766587" y2="-750.0" stroke-width="4" stroke="black" />
<line x1="-1299.0381056766587" y1="-750.0" x2="-1299.0381056766587" y2="-850.0" stroke-width="4" stroke="black" />
<line x1="-1299.0381056766587" y1="-850.0" x2="-1212.435565298215" y2="-800.0" stroke-width="4" stroke="black" />
<line x1="-1212.435565298215" y1="-800.0" x2="-1212.435565298215" y2="-900.0" stroke-width="4" stroke="black" />
<line x1="-1212.435565298215" y1="-900.0" x2="-1125.833024919771" y2="-850.0" stroke-width="4" stroke="black" />
<line x1="-1125.833024919771" y1="-850.0" x2="-1039.2304845413273" y2="-800.0" stroke-width="4" stroke="black" />
<line x1="-1039.2304845413273" y1="-800.0" x2="-1039.2304845413273" y2="-900.0" stroke-width="4" stroke="black" />
<line x1="-1039.2304845413273" y1="-900.0" x2="-1125.833024919771" y2="-850.0" stroke-width="4" stroke="black" />
<line x1="-1125.833024919771" y1="-850.0" x2="-1125.833024919771" y2="-950.0" stroke-width="4" stroke="black" />
<line x1="-1125.833024919771" y1="-950.0" x2="-1039.2304845413273" y2="-900.0" stroke-width="4" stroke="black" />
<line x1="-1039.2304845413273" y1="-900.0" x2="-1039.2304845413273" y2="-1000.0" stroke-width="4" stroke="black" />
<line x1="-1039.2304845413273" y1="-1000.0" x2="-952.6279441628834" y2="-950.0" stroke-width="4" stroke="black" />
<line x1="-952.6279441628834" y1="-950.0" x2="-866.0254037844395" y2="-900.0" stroke-width="4" stroke="black" />
<line x1="-866.0254037844395" y1="-900.0" x2="-779.4228634059956" y2="-850.0" stroke-width="4" stroke="black" />
<line x1="-779.4228634059956" y1="-850.0" x2="-692.8203230275517" y2="-800.0" stroke-width="4" stroke="black" />
<line x1="-692.8203230275517" y1="-800.0" x2="-692.8203230275517" y2="-900.0" stroke-width="4" stroke="black" />
<line x1="-692.8203230275517" y1="-900.0" x2="-779.4228634059956" y2="-850.0" stroke-width="4" stroke="black" />
<line x1="-779.4228634059956" y1="-850.0" x2="-779.4228634059956" y2="-950.0" stroke-width="4" stroke="black" />
<line x1="-779.4228634059956" y1="-950.0" x2="-692.8203230275517" y2="-900.0" stroke-width="4" stroke="black" />
<line x1="-692.8203230275517" y1="-900.0" x2="-692.8203230275517" y2="-1000.0" stroke-width="4" stroke="black" />
<line x1="-692.8203230275517" y1="-1000.0" x2="-779.4228634059956" y2="-950.0" stroke-width="4" stroke="black" />
<line x1="-779.4228634059956" y1="-950.0" x2="-866.0254037844395" y2="-900.0" stroke-width="4" stroke="black" />
<line x1="-866.0254037844395" y1="-900.0" x2="-866.0254037844395" y2="-1000.0" stroke-width="4" stroke="black" />
<line x1="-866.0254037844395" y1="-1000.0" x2="-952.6279441628834" y2="-950.0" stroke-width="4" stroke="black" />
<line x1="-952.6279441628834" y1="-950.0" x2="-952.6279441628834" y2="-1050.0" stroke-width="4" stroke="black" />
<line x1="-952.6279441628834" y1="-1050.0" x2="-866.0254037844395" y2="-1000.0" stroke-width="4" stroke="black" />
<line x1="-866.0254037844395" y1="-1000.0" x2="-866.0254037844395" y2="-1100.0" stroke-width="4" stroke="black" />
<line x1="-866.0254037844395" y1="-1100.0" x2="-779.4228634059956" y2="-1050.0" stroke-width="4" stroke="black" />
<line x1="-779.4228634059956" y1="-1050.0" x2="-692.8203230275517" y2="-1000.0" stroke-width="4" stroke="black" />
<line x1="-692.8203230275517" y1="-1000.0" x2="-692.8203230275517" y2="-1100.0" stroke-width="4" stroke="black" />
<line x1="-692.8203230275517" y1="-1100.0" x2="-779.4228634059956" y2="-1050.0" stroke-width="4" stroke="black" />
<line x1="-779.4228634059956" y1="-1050.0" x2="-779.4228634059956" y2="-1150.0" stroke-width="4" stroke="black" />
<line x1="-779.4228634059956" y1="-1150.0" x2="-692.8203230275517" y2="-1100.0" stroke-width="4" stroke="black" />
<line x1="-692.8203230275517" y1="-1100.0" x2="-692.8203230275517" y2="-1200.0" stroke-width="4" stroke="black" />
<line x1="-692.8203230275517" y1="-1200.0" x2="-606.2177826491078" y2="-1150.0" stroke-width="4" stroke="black" />
<line x1="-606.2177826491078" y1="-1150.0" x2="-519.6152422706639" y2="-1100.0" stroke-width="4" stroke="black" />
<line x1="-519.6152422706639" y1="-1100.0" x2="-433.01270189222004" y2="-1050.0" stroke-width="4" stroke="black" />
<line x1="-433.01270189222004" y1="-1050.0" x2="-346.4101615137762" y2="-1000.0" stroke-width="4" stroke="black" />
<line x1="-346.4101615137762" y1="-1000.0" x2="-259.80762113533234" y2="-950.0" stroke-width="4" stroke="black" />
<line x1="-259.80762113533234" y1="-950.0" x2="-173.2050807568885" y2="-900.0" stroke-width="4" stroke="black" />
<line x1="-173.2050807568885" y1="-900.0" x2="-86.60254037844463" y2="-850.0" stroke-width="4" stroke="black" />
<line x1="-86.60254037844463" y1="-850.0" x2="-7.673861546209082E-13" y2="-800.0" stroke-width="4" stroke="black" />
<line x1="-7.673861546209082E-13" y1="-800.0" x2="-7.857558566081185E-13" y2="-900.0" stroke-width="4" stroke="black" />
<line x1="-7.857558566081185E-13" y1="-900.0" x2="-86.60254037844466" y2="-850.0" stroke-width="4" stroke="black" />
<line x1="-86.60254037844466" y1="-850.0" x2="-86.60254037844467" y2="-950.0" stroke-width="4" stroke="black" />
<line x1="-86.60254037844467" y1="-950.0" x2="-8.100187187665142E-13" y2="-900.0" stroke-width="4" stroke="black" />
<line x1="-8.100187187665142E-13" y1="-900.0" x2="-8.283884207537245E-13" y2="-1000.0" stroke-width="4" stroke="black" />
<line x1="-8.283884207537245E-13" y1="-1000.0" x2="-86.6025403784447" y2="-950.0" stroke-width="4" stroke="black" />
<line x1="-86.6025403784447" y1="-950.0" x2="-173.20508075688858" y2="-900.0" stroke-width="4" stroke="black" />
<line x1="-173.20508075688858" y1="-900.0" x2="-173.2050807568886" y2="-1000.0" stroke-width="4" stroke="black" />
<line x1="-173.2050807568886" y1="-1000.0" x2="-259.8076211353325" y2="-950.0" stroke-width="4" stroke="black" />
<line x1="-259.8076211353325" y1="-950.0" x2="-259.8076211353325" y2="-1050.0" stroke-width="4" stroke="black" />
<line x1="-259.8076211353325" y1="-1050.0" x2="-173.20508075688866" y2="-1000.0" stroke-width="4" stroke="black" />
<line x1="-173.20508075688866" y1="-1000.0" x2="-173.2050807568887" y2="-1100.0" stroke-width="4" stroke="black" />
<line x1="-173.2050807568887" y1="-1100.0" x2="-86.60254037844483" y2="-1050.0" stroke-width="4" stroke="black" />
<line x1="-86.60254037844483" y1="-1050.0" x2="-9.663381206337363E-13" y2="-1000.0" stroke-width="4" stroke="black" />
<line x1="-9.663381206337363E-13" y1="-1000.0" x2="-9.847078226209465E-13" y2="-1100.0" stroke-width="4" stroke="black" />
<line x1="-9.847078226209465E-13" y1="-1100.0" x2="-86.60254037844486" y2="-1050.0" stroke-width="4" stroke="black" />
<line x1="-86.60254037844486" y1="-1050.0" x2="-86.60254037844487" y2="-1150.0" stroke-width="4" stroke="black" />
<line x1="-86.60254037844487" y1="-1150.0" x2="-1.0089706847793423E-12" y2="-1100.0" stroke-width="4" stroke="black" />
<line x1="-1.0089706847793423E-12" y1="-1100.0" x2="-1.0273403867665525E-12" y2="-1200.0" stroke-width="4" stroke="black" />
<line x1="-1.0273403867665525E-12" y1="-1200.0" x2="-86.6025403784449" y2="-1150.0" stroke-width="4" stroke="black" />
<line x1="-86.6025403784449" y1="-1150.0" x2="-173.20508075688878" y2="-1100.0" stroke-width="4" stroke="black" />
<line x1="-173.20508075688878" y1="-1100.0" x2="-259.8076211353326" y2="-1050.0" stroke-width="4" stroke="black" />
<line x1="-259.8076211353326" y1="-1050.0" x2="-346.41016151377653" y2="-1000.0" stroke-width="4" stroke="black" />
<line x1="-346.41016151377653" y1="-1000.0" x2="-346.41016151377653" y2="-1100.0" stroke-width="4" stroke="black" />
<line x1="-346.41016151377653" y1="-1100.0" x2="-433.01270189222043" y2="-1050.0" stroke-width="4" stroke="black" />
<line x1="-433.01270189222043" y1="-1050.0" x2="-433.01270189222043" y2="-1150.0" stroke-width="4" stroke="black" />
<line x1="-433.01270189222043" y1="-1150.0" x2="-346.4101615137766" y2="-1100.0" stroke-width="4" stroke="black" />
<line x1="-346.4101615137766" y1="-1100.0" x2="-346.4101615137766" y2="-1200.0" stroke-width="4" stroke="black" />
<line x1="-346.4101615137766" y1="-1200.0" x2="-433.01270189222043" y2="-1150.0" stroke-width="4" stroke="black" />
<line x1="-433.01270189222043" y1="-1150.0" x2="-519.6152422706643" y2="-1100.0" stroke-width="4" stroke="black" />
<line x1="-519.6152422706643" y1="-1100.0" x2="-519.6152422706643" y2="-1200.0" stroke-width="4" stroke="black" />
<line x1="-519.6152422706643" y1="-1200.0" x2="-606.2177826491082" y2="-1150.0" stroke-width="4" stroke="black" />
<line x1="-606.2177826491082" y1="-1150.0" x2="-606.2177826491082" y2="-1250.0" stroke-width="4" stroke="black" />
<line x1="-606.2177826491082" y1="-1250.0" x2="-519.6152422706643" y2="-1200.0" stroke-width="4" stroke="black" />
<line x1="-519.6152422706643" y1="-1200.0" x2="-519.6152422706643" y2="-1300.0" stroke-width="4" stroke="black" />
<line x1="-519.6152422706643" y1="-1300.0" x2="-433.0127018922205" y2="-1250.0" stroke-width="4" stroke="black" />
<line x1="-433.0127018922205" y1="-1250.0" x2="-346.41016151377664" y2="-1200.0" stroke-width="4" stroke="black" />
<line x1="-346.41016151377664" y1="-1200.0" x2="-346.41016151377664" y2="-1300.0" stroke-width="4" stroke="black" />
<line x1="-346.41016151377664" y1="-1300.0" x2="-433.01270189222055" y2="-1250.0" stroke-width="4" stroke="black" />
<line x1="-433.01270189222055" y1="-1250.0" x2="-433.01270189222055" y2="-1350.0" stroke-width="4" stroke="black" />
<line x1="-433.01270189222055" y1="-1350.0" x2="-346.4101615137767" y2="-1300.0" stroke-width="4" stroke="black" />
<line x1="-346.4101615137767" y1="-1300.0" x2="-346.4101615137767" y2="-1400.0" stroke-width="4" stroke="black" />
<line x1="-346.4101615137767" y1="-1400.0" x2="-259.80762113533285" y2="-1350.0" stroke-width="4" stroke="black" />
<line x1="-259.80762113533285" y1="-1350.0" x2="-173.205080756889" y2="-1300.0" stroke-width="4" stroke="black" />
<line x1="-173.205080756889" y1="-1300.0" x2="-86.60254037844514" y2="-1250.0" stroke-width="4" stroke="black" />
<line x1="-86.60254037844514" y1="-1250.0" x2="-1.2789769243681803E-12" y2="-1200.0" stroke-width="4" stroke="black" />
<line x1="-1.2789769243681803E-12" y1="-1200.0" x2="-1.2973466263553906E-12" y2="-1300.0" stroke-width="4" stroke="black" />
<line x1="-1.2973466263553906E-12" y1="-1300.0" x2="-86.60254037844517" y2="-1250.0" stroke-width="4" stroke="black" />
<line x1="-86.60254037844517" y1="-1250.0" x2="-86.60254037844518" y2="-1350.0" stroke-width="4" stroke="black" />
<line x1="-86.60254037844518" y1="-1350.0" x2="-1.3216094885137863E-12" y2="-1300.0" stroke-width="4" stroke="black" />
<line x1="-1.3216094885137863E-12" y1="-1300.0" x2="-1.3399791905009966E-12" y2="-1400.0" stroke-width="4" stroke="black" />
<line x1="-1.3399791905009966E-12" y1="-1400.0" x2="-86.60254037844521" y2="-1350.0" stroke-width="4" stroke="black" />
<line x1="-86.60254037844521" y1="-1350.0" x2="-173.2050807568891" y2="-1300.0" stroke-width="4" stroke="black" />
<line x1="-173.2050807568891" y1="-1300.0" x2="-173.20508075688912" y2="-1400.0" stroke-width="4" stroke="black" />
<line x1="-173.20508075688912" y1="-1400.0" x2="-259.80762113533297" y2="-1350.0" stroke-width="4" stroke="black" />
<line x1="-259.80762113533297" y1="-1350.0" x2="-259.80762113533297" y2="-1450.0" stroke-width="4" stroke="black" />
<line x1="-259.80762113533297" y1="-1450.0" x2="-173.20508075688912" y2="-1400.0" stroke-width="4" stroke="black" />
<line x1="-173.20508075688912" y1="-1400.0" x2="-173.20508075688915" y2="-1500.0" stroke-width="4" stroke="black" />
<line x1="-173.20508075688915" y1="-1500.0" x2="-86.60254037844528" y2="-1450.0" stroke-width="4" stroke="black" />
<line x1="-86.60254037844528" y1="-1450.0" x2="-1.4210854715202004E-12" y2="-1400.0" stroke-width="4" stroke="black" />
<line x1="-1.4210854715202004E-12" y1="-1400.0" x2="-1.4394551735074106E-12" y2="-1500.0" stroke-width="4" stroke="black" />
<line x1="-1.4394551735074106E-12" y1="-1500.0" x2="-86.60254037844531" y2="-1450.0" stroke-width="4" stroke="black" />
<line x1="-86.60254037844531" y1="-1450.0" x2="-86.60254037844533" y2="-1550.0" stroke-width="4" stroke="black" />
<line x1="-86.60254037844533" y1="-1550.0" x2="-1.4637180356658064E-12" y2="-1500.0" stroke-width="4" stroke="black" />
<line x1="-1.4637180356658064E-12" y1="-1500.0" x2="-1.4820877376530166E-12" y2="-1600.0" stroke-width="4" stroke="black" />
<line x1="-1.4820877376530166E-12" y1="-1600.0" x2="-86.60254037844535" y2="-1550.0" stroke-width="4" stroke="black" />
<line x1="-86.60254037844535" y1="-1550.0" x2="-173.20508075688923" y2="-1500.0" stroke-width="4" stroke="black" />
<line x1="-173.20508075688923" y1="-1500.0" x2="-259.8076211353331" y2="-1450.0" stroke-width="4" stroke="black" />
<line x1="-259.8076211353331" y1="-1450.0" x2="-346.410161513777" y2="-1400.0" stroke-width="4" stroke="black" />
<line x1="-346.410161513777" y1="-1400.0" x2="-433.0127018922209" y2="-1350.0" stroke-width="4" stroke="black" />
<line x1="-433.0127018922209" y1="-1350.0" x2="-519.6152422706648" y2="-1300.0" stroke-width="4" stroke="black" />
<line x1="-519.6152422706648" y1="-1300.0" x2="-606.2177826491087" y2="-1250.0" stroke-width="4" stroke="black" />
<line x1="-606.2177826491087" y1="-1250.0" x2="-692.8203230275526" y2="-1200.0" stroke-width="4" stroke="black" />
<line x1="-692.8203230275526" y1="-1200.0" x2="-779.4228634059965" y2="-1150.0" stroke-width="4" stroke="black" />
<line x1="-779.4228634059965" y1="-1150.0" x2="-866.0254037844404" y2="-1100.0" stroke-width="4" stroke="black" />
<line x1="-866.0254037844404" y1="-1100.0" x2="-952.6279441628843" y2="-1050.0" stroke-width="4" stroke="black" />
<line x1="-952.6279441628843" y1="-1050.0" x2="-1039.2304845413282" y2="-1000.0" stroke-width="4" stroke="black" />
<line x1="-1039.2304845413282" y1="-1000.0" x2="-1125.833024919772" y2="-950.0" stroke-width="4" stroke="black" />
<line x1="-1125.833024919772" y1="-950.0" x2="-1212.4355652982158" y2="-900.0" stroke-width="4" stroke="black" />
<line x1="-1212.4355652982158" y1="-900.0" x2="-1299.0381056766596" y2="-850.0" stroke-width="4" stroke="black" />
<line x1="-1299.0381056766596" y1="-850.0" x2="-1385.6406460551034" y2="-800.0" stroke-width="4" stroke="black" />
<line x1="-1385.6406460551034" y1="-800.0" x2="-1299.0381056766596" y2="-750.0" stroke-width="4" stroke="black" />
<line x1="-1299.0381056766596" y1="-750.0" x2="-1212.4355652982158" y2="-700.0" stroke-width="4" stroke="black" />
<line x1="-1212.4355652982158" y1="-700.0" x2="-1125.833024919772" y2="-650.0" stroke-width="4" stroke="black" />
<line x1="-1125.833024919772" y1="-650.0" x2="-1039.2304845413282" y2="-600.0" stroke-width="4" stroke="black" />
<line x1="-1039.2304845413282" y1="-600.0" x2="-952.6279441628843" y2="-550.0" stroke-width="4" stroke="black" />
<line x1="-952.6279441628843" y1="-550.0" x2="-866.0254037844404" y2="-500.0" stroke-width="4" stroke="black" />
<line x1="-866.0254037844404" y1="-500.0" x2="-779.4228634059965" y2="-450.0" stroke-width="4" stroke="black" />
<line x1="-779.4228634059965" y1="-450.0" x2="-692.8203230275526" y2="-400.0" stroke-width="4" stroke="black" />
<line x1="-692.8203230275526" y1="-400.0" x2="-606.2177826491087" y2="-350.0" stroke-width="4" stroke="black" />
<line x1="-606.2177826491087" y1="-350.0" x2="-519.6152422706648" y2="-300.0" stroke-width="4" stroke="black" />
<line x1="-519.6152422706648" y1="-300.0" x2="-433.0127018922209" y2="-250.0" stroke-width="4" stroke="black" />
<line x1="-433.0127018922209" y1="-250.0" x2="-346.410161513777" y2="-200.0" stroke-width="4" stroke="black" />
<line x1="-346.410161513777" y1="-200.0" x2="-259.8076211353331" y2="-150.0" stroke-width="4" stroke="black" />
<line x1="-259.8076211353331" y1="-150.0" x2="-173.2050807568892" y2="-100.0" stroke-width="4" stroke="black" />
<line x1="-173.2050807568892" y1="-100.0" x2="-86.60254037844533" y2="-50.00000000000001" stroke-width="4" stroke="black" />
<line x1="-86.60254037844533" y1="-50.00000000000001" x2="-1.4495071809506044E-12" y2="-1.4210854715202004E-14" stroke-width="4" stroke="black" />
</svg>